<?xml version="1.0" encoding="utf-8" standalone="no"?>
<!DOCTYPE svg PUBLIC "-//W3C//DTD SVG 1.1//EN"
  "http://www.w3.org/Graphics/SVG/1.1/DTD/svg11.dtd">
<svg xmlns:xlink="http://www.w3.org/1999/xlink" width="864pt" height="576pt" viewBox="0 0 864 576" xmlns="http://www.w3.org/2000/svg" version="1.1">
 <metadata>
  <rdf:RDF xmlns:dc="http://purl.org/dc/elements/1.1/" xmlns:cc="http://creativecommons.org/ns#" xmlns:rdf="http://www.w3.org/1999/02/22-rdf-syntax-ns#">
   <cc:Work>
    <dc:type rdf:resource="http://purl.org/dc/dcmitype/StillImage"/>
    <dc:date>2024-09-13T13:19:01.932075</dc:date>
    <dc:format>image/svg+xml</dc:format>
    <dc:creator>
     <cc:Agent>
      <dc:title>Matplotlib v3.7.1, https://matplotlib.org/</dc:title>
     </cc:Agent>
    </dc:creator>
   </cc:Work>
  </rdf:RDF>
 </metadata>
 <defs>
  <style type="text/css">*{stroke-linejoin: round; stroke-linecap: butt}</style>
 </defs>
 <g id="figure_1">
  <g id="patch_1">
   <path d="M 0 576 
L 864 576 
L 864 0 
L 0 0 
z
" style="fill: #ffffff"/>
  </g>
  <g id="axes_1">
   <g id="patch_2">
    <path d="M 108 512.64 
L 777.6 512.64 
L 777.6 69.12 
L 108 69.12 
z
" style="fill: #ffffff"/>
   </g>
   <g id="matplotlib.axis_1">
    <g id="xtick_1">
     <g id="text_1">
      <!-- dqn_dxy -->
      <g style="fill: #262626" transform="translate(122.480859 526.478594) scale(0.09 -0.09)">
       <defs>
        <path id="DejaVuSans-64" d="M 2906 2969 
L 2906 4863 
L 3481 4863 
L 3481 0 
L 2906 0 
L 2906 525 
Q 2725 213 2448 61 
Q 2172 -91 1784 -91 
Q 1150 -91 751 415 
Q 353 922 353 1747 
Q 353 2572 751 3078 
Q 1150 3584 1784 3584 
Q 2172 3584 2448 3432 
Q 2725 3281 2906 2969 
z
M 947 1747 
Q 947 1113 1208 752 
Q 1469 391 1925 391 
Q 2381 391 2643 752 
Q 2906 1113 2906 1747 
Q 2906 2381 2643 2742 
Q 2381 3103 1925 3103 
Q 1469 3103 1208 2742 
Q 947 2381 947 1747 
z
" transform="scale(0.015625)"/>
        <path id="DejaVuSans-71" d="M 947 1747 
Q 947 1113 1208 752 
Q 1469 391 1925 391 
Q 2381 391 2643 752 
Q 2906 1113 2906 1747 
Q 2906 2381 2643 2742 
Q 2381 3103 1925 3103 
Q 1469 3103 1208 2742 
Q 947 2381 947 1747 
z
M 2906 525 
Q 2725 213 2448 61 
Q 2172 -91 1784 -91 
Q 1150 -91 751 415 
Q 353 922 353 1747 
Q 353 2572 751 3078 
Q 1150 3584 1784 3584 
Q 2172 3584 2448 3432 
Q 2725 3281 2906 2969 
L 2906 3500 
L 3481 3500 
L 3481 -1331 
L 2906 -1331 
L 2906 525 
z
" transform="scale(0.015625)"/>
        <path id="DejaVuSans-6e" d="M 3513 2113 
L 3513 0 
L 2938 0 
L 2938 2094 
Q 2938 2591 2744 2837 
Q 2550 3084 2163 3084 
Q 1697 3084 1428 2787 
Q 1159 2491 1159 1978 
L 1159 0 
L 581 0 
L 581 3500 
L 1159 3500 
L 1159 2956 
Q 1366 3272 1645 3428 
Q 1925 3584 2291 3584 
Q 2894 3584 3203 3211 
Q 3513 2838 3513 2113 
z
" transform="scale(0.015625)"/>
        <path id="DejaVuSans-5f" d="M 3263 -1063 
L 3263 -1509 
L -63 -1509 
L -63 -1063 
L 3263 -1063 
z
" transform="scale(0.015625)"/>
        <path id="DejaVuSans-78" d="M 3513 3500 
L 2247 1797 
L 3578 0 
L 2900 0 
L 1881 1375 
L 863 0 
L 184 0 
L 1544 1831 
L 300 3500 
L 978 3500 
L 1906 2253 
L 2834 3500 
L 3513 3500 
z
" transform="scale(0.015625)"/>
        <path id="DejaVuSans-79" d="M 2059 -325 
Q 1816 -950 1584 -1140 
Q 1353 -1331 966 -1331 
L 506 -1331 
L 506 -850 
L 844 -850 
Q 1081 -850 1212 -737 
Q 1344 -625 1503 -206 
L 1606 56 
L 191 3500 
L 800 3500 
L 1894 763 
L 2988 3500 
L 3597 3500 
L 2059 -325 
z
" transform="scale(0.015625)"/>
       </defs>
       <use xlink:href="#DejaVuSans-64"/>
       <use xlink:href="#DejaVuSans-71" x="63.476562"/>
       <use xlink:href="#DejaVuSans-6e" x="126.953125"/>
       <use xlink:href="#DejaVuSans-5f" x="190.332031"/>
       <use xlink:href="#DejaVuSans-64" x="240.332031"/>
       <use xlink:href="#DejaVuSans-78" x="303.808594"/>
       <use xlink:href="#DejaVuSans-79" x="362.988281"/>
      </g>
     </g>
    </g>
    <g id="xtick_2">
     <g id="text_2">
      <!-- dqn_mtf_2 -->
      <g style="fill: #262626" transform="translate(184.779844 526.478594) scale(0.09 -0.09)">
       <defs>
        <path id="DejaVuSans-6d" d="M 3328 2828 
Q 3544 3216 3844 3400 
Q 4144 3584 4550 3584 
Q 5097 3584 5394 3201 
Q 5691 2819 5691 2113 
L 5691 0 
L 5113 0 
L 5113 2094 
Q 5113 2597 4934 2840 
Q 4756 3084 4391 3084 
Q 3944 3084 3684 2787 
Q 3425 2491 3425 1978 
L 3425 0 
L 2847 0 
L 2847 2094 
Q 2847 2600 2669 2842 
Q 2491 3084 2119 3084 
Q 1678 3084 1418 2786 
Q 1159 2488 1159 1978 
L 1159 0 
L 581 0 
L 581 3500 
L 1159 3500 
L 1159 2956 
Q 1356 3278 1631 3431 
Q 1906 3584 2284 3584 
Q 2666 3584 2933 3390 
Q 3200 3197 3328 2828 
z
" transform="scale(0.015625)"/>
        <path id="DejaVuSans-74" d="M 1172 4494 
L 1172 3500 
L 2356 3500 
L 2356 3053 
L 1172 3053 
L 1172 1153 
Q 1172 725 1289 603 
Q 1406 481 1766 481 
L 2356 481 
L 2356 0 
L 1766 0 
Q 1100 0 847 248 
Q 594 497 594 1153 
L 594 3053 
L 172 3053 
L 172 3500 
L 594 3500 
L 594 4494 
L 1172 4494 
z
" transform="scale(0.015625)"/>
        <path id="DejaVuSans-66" d="M 2375 4863 
L 2375 4384 
L 1825 4384 
Q 1516 4384 1395 4259 
Q 1275 4134 1275 3809 
L 1275 3500 
L 2222 3500 
L 2222 3053 
L 1275 3053 
L 1275 0 
L 697 0 
L 697 3053 
L 147 3053 
L 147 3500 
L 697 3500 
L 697 3744 
Q 697 4328 969 4595 
Q 1241 4863 1831 4863 
L 2375 4863 
z
" transform="scale(0.015625)"/>
        <path id="DejaVuSans-32" d="M 1228 531 
L 3431 531 
L 3431 0 
L 469 0 
L 469 531 
Q 828 903 1448 1529 
Q 2069 2156 2228 2338 
Q 2531 2678 2651 2914 
Q 2772 3150 2772 3378 
Q 2772 3750 2511 3984 
Q 2250 4219 1831 4219 
Q 1534 4219 1204 4116 
Q 875 4013 500 3803 
L 500 4441 
Q 881 4594 1212 4672 
Q 1544 4750 1819 4750 
Q 2544 4750 2975 4387 
Q 3406 4025 3406 3419 
Q 3406 3131 3298 2873 
Q 3191 2616 2906 2266 
Q 2828 2175 2409 1742 
Q 1991 1309 1228 531 
z
" transform="scale(0.015625)"/>
       </defs>
       <use xlink:href="#DejaVuSans-64"/>
       <use xlink:href="#DejaVuSans-71" x="63.476562"/>
       <use xlink:href="#DejaVuSans-6e" x="126.953125"/>
       <use xlink:href="#DejaVuSans-5f" x="190.332031"/>
       <use xlink:href="#DejaVuSans-6d" x="240.332031"/>
       <use xlink:href="#DejaVuSans-74" x="337.744141"/>
       <use xlink:href="#DejaVuSans-66" x="376.953125"/>
       <use xlink:href="#DejaVuSans-5f" x="412.158203"/>
       <use xlink:href="#DejaVuSans-32" x="462.158203"/>
      </g>
     </g>
    </g>
    <g id="xtick_3">
     <g id="text_3">
      <!-- dqn_mtf_1 -->
      <g style="fill: #262626" transform="translate(251.739844 526.478594) scale(0.09 -0.09)">
       <defs>
        <path id="DejaVuSans-31" d="M 794 531 
L 1825 531 
L 1825 4091 
L 703 3866 
L 703 4441 
L 1819 4666 
L 2450 4666 
L 2450 531 
L 3481 531 
L 3481 0 
L 794 0 
L 794 531 
z
" transform="scale(0.015625)"/>
       </defs>
       <use xlink:href="#DejaVuSans-64"/>
       <use xlink:href="#DejaVuSans-71" x="63.476562"/>
       <use xlink:href="#DejaVuSans-6e" x="126.953125"/>
       <use xlink:href="#DejaVuSans-5f" x="190.332031"/>
       <use xlink:href="#DejaVuSans-6d" x="240.332031"/>
       <use xlink:href="#DejaVuSans-74" x="337.744141"/>
       <use xlink:href="#DejaVuSans-66" x="376.953125"/>
       <use xlink:href="#DejaVuSans-5f" x="412.158203"/>
       <use xlink:href="#DejaVuSans-31" x="462.158203"/>
      </g>
     </g>
    </g>
    <g id="xtick_4">
     <g id="text_4">
      <!-- dqn_lstm -->
      <g style="fill: #262626" transform="translate(321.802734 526.478594) scale(0.09 -0.09)">
       <defs>
        <path id="DejaVuSans-6c" d="M 603 4863 
L 1178 4863 
L 1178 0 
L 603 0 
L 603 4863 
z
" transform="scale(0.015625)"/>
        <path id="DejaVuSans-73" d="M 2834 3397 
L 2834 2853 
Q 2591 2978 2328 3040 
Q 2066 3103 1784 3103 
Q 1356 3103 1142 2972 
Q 928 2841 928 2578 
Q 928 2378 1081 2264 
Q 1234 2150 1697 2047 
L 1894 2003 
Q 2506 1872 2764 1633 
Q 3022 1394 3022 966 
Q 3022 478 2636 193 
Q 2250 -91 1575 -91 
Q 1294 -91 989 -36 
Q 684 19 347 128 
L 347 722 
Q 666 556 975 473 
Q 1284 391 1588 391 
Q 1994 391 2212 530 
Q 2431 669 2431 922 
Q 2431 1156 2273 1281 
Q 2116 1406 1581 1522 
L 1381 1569 
Q 847 1681 609 1914 
Q 372 2147 372 2553 
Q 372 3047 722 3315 
Q 1072 3584 1716 3584 
Q 2034 3584 2315 3537 
Q 2597 3491 2834 3397 
z
" transform="scale(0.015625)"/>
       </defs>
       <use xlink:href="#DejaVuSans-64"/>
       <use xlink:href="#DejaVuSans-71" x="63.476562"/>
       <use xlink:href="#DejaVuSans-6e" x="126.953125"/>
       <use xlink:href="#DejaVuSans-5f" x="190.332031"/>
       <use xlink:href="#DejaVuSans-6c" x="240.332031"/>
       <use xlink:href="#DejaVuSans-73" x="268.115234"/>
       <use xlink:href="#DejaVuSans-74" x="320.214844"/>
       <use xlink:href="#DejaVuSans-6d" x="359.423828"/>
      </g>
     </g>
    </g>
    <g id="xtick_5">
     <g id="text_5">
      <!-- dqn_SR_2 -->
      <g style="fill: #262626" transform="translate(387.407813 526.478594) scale(0.09 -0.09)">
       <defs>
        <path id="DejaVuSans-53" d="M 3425 4513 
L 3425 3897 
Q 3066 4069 2747 4153 
Q 2428 4238 2131 4238 
Q 1616 4238 1336 4038 
Q 1056 3838 1056 3469 
Q 1056 3159 1242 3001 
Q 1428 2844 1947 2747 
L 2328 2669 
Q 3034 2534 3370 2195 
Q 3706 1856 3706 1288 
Q 3706 609 3251 259 
Q 2797 -91 1919 -91 
Q 1588 -91 1214 -16 
Q 841 59 441 206 
L 441 856 
Q 825 641 1194 531 
Q 1563 422 1919 422 
Q 2459 422 2753 634 
Q 3047 847 3047 1241 
Q 3047 1584 2836 1778 
Q 2625 1972 2144 2069 
L 1759 2144 
Q 1053 2284 737 2584 
Q 422 2884 422 3419 
Q 422 4038 858 4394 
Q 1294 4750 2059 4750 
Q 2388 4750 2728 4690 
Q 3069 4631 3425 4513 
z
" transform="scale(0.015625)"/>
        <path id="DejaVuSans-52" d="M 2841 2188 
Q 3044 2119 3236 1894 
Q 3428 1669 3622 1275 
L 4263 0 
L 3584 0 
L 2988 1197 
Q 2756 1666 2539 1819 
Q 2322 1972 1947 1972 
L 1259 1972 
L 1259 0 
L 628 0 
L 628 4666 
L 2053 4666 
Q 2853 4666 3247 4331 
Q 3641 3997 3641 3322 
Q 3641 2881 3436 2590 
Q 3231 2300 2841 2188 
z
M 1259 4147 
L 1259 2491 
L 2053 2491 
Q 2509 2491 2742 2702 
Q 2975 2913 2975 3322 
Q 2975 3731 2742 3939 
Q 2509 4147 2053 4147 
L 1259 4147 
z
" transform="scale(0.015625)"/>
       </defs>
       <use xlink:href="#DejaVuSans-64"/>
       <use xlink:href="#DejaVuSans-71" x="63.476562"/>
       <use xlink:href="#DejaVuSans-6e" x="126.953125"/>
       <use xlink:href="#DejaVuSans-5f" x="190.332031"/>
       <use xlink:href="#DejaVuSans-53" x="240.332031"/>
       <use xlink:href="#DejaVuSans-52" x="303.808594"/>
       <use xlink:href="#DejaVuSans-5f" x="373.291016"/>
       <use xlink:href="#DejaVuSans-32" x="423.291016"/>
      </g>
     </g>
    </g>
    <g id="xtick_6">
     <g id="text_6">
      <!-- dqn_SR_1 -->
      <g style="fill: #262626" transform="translate(454.367813 526.478594) scale(0.09 -0.09)">
       <use xlink:href="#DejaVuSans-64"/>
       <use xlink:href="#DejaVuSans-71" x="63.476562"/>
       <use xlink:href="#DejaVuSans-6e" x="126.953125"/>
       <use xlink:href="#DejaVuSans-5f" x="190.332031"/>
       <use xlink:href="#DejaVuSans-53" x="240.332031"/>
       <use xlink:href="#DejaVuSans-52" x="303.808594"/>
       <use xlink:href="#DejaVuSans-5f" x="373.291016"/>
       <use xlink:href="#DejaVuSans-31" x="423.291016"/>
      </g>
     </g>
    </g>
    <g id="xtick_7">
     <g id="text_7">
      <!-- dqn_ewm -->
      <g style="fill: #262626" transform="translate(521.592188 526.478594) scale(0.09 -0.09)">
       <defs>
        <path id="DejaVuSans-65" d="M 3597 1894 
L 3597 1613 
L 953 1613 
Q 991 1019 1311 708 
Q 1631 397 2203 397 
Q 2534 397 2845 478 
Q 3156 559 3463 722 
L 3463 178 
Q 3153 47 2828 -22 
Q 2503 -91 2169 -91 
Q 1331 -91 842 396 
Q 353 884 353 1716 
Q 353 2575 817 3079 
Q 1281 3584 2069 3584 
Q 2775 3584 3186 3129 
Q 3597 2675 3597 1894 
z
M 3022 2063 
Q 3016 2534 2758 2815 
Q 2500 3097 2075 3097 
Q 1594 3097 1305 2825 
Q 1016 2553 972 2059 
L 3022 2063 
z
" transform="scale(0.015625)"/>
        <path id="DejaVuSans-77" d="M 269 3500 
L 844 3500 
L 1563 769 
L 2278 3500 
L 2956 3500 
L 3675 769 
L 4391 3500 
L 4966 3500 
L 4050 0 
L 3372 0 
L 2619 2869 
L 1863 0 
L 1184 0 
L 269 3500 
z
" transform="scale(0.015625)"/>
       </defs>
       <use xlink:href="#DejaVuSans-64"/>
       <use xlink:href="#DejaVuSans-71" x="63.476562"/>
       <use xlink:href="#DejaVuSans-6e" x="126.953125"/>
       <use xlink:href="#DejaVuSans-5f" x="190.332031"/>
       <use xlink:href="#DejaVuSans-65" x="240.332031"/>
       <use xlink:href="#DejaVuSans-77" x="301.855469"/>
       <use xlink:href="#DejaVuSans-6d" x="383.642578"/>
      </g>
     </g>
    </g>
    <g id="xtick_8">
     <g id="text_8">
      <!-- dqn_macd -->
      <g style="fill: #262626" transform="translate(586.9125 526.478594) scale(0.09 -0.09)">
       <defs>
        <path id="DejaVuSans-61" d="M 2194 1759 
Q 1497 1759 1228 1600 
Q 959 1441 959 1056 
Q 959 750 1161 570 
Q 1363 391 1709 391 
Q 2188 391 2477 730 
Q 2766 1069 2766 1631 
L 2766 1759 
L 2194 1759 
z
M 3341 1997 
L 3341 0 
L 2766 0 
L 2766 531 
Q 2569 213 2275 61 
Q 1981 -91 1556 -91 
Q 1019 -91 701 211 
Q 384 513 384 1019 
Q 384 1609 779 1909 
Q 1175 2209 1959 2209 
L 2766 2209 
L 2766 2266 
Q 2766 2663 2505 2880 
Q 2244 3097 1772 3097 
Q 1472 3097 1187 3025 
Q 903 2953 641 2809 
L 641 3341 
Q 956 3463 1253 3523 
Q 1550 3584 1831 3584 
Q 2591 3584 2966 3190 
Q 3341 2797 3341 1997 
z
" transform="scale(0.015625)"/>
        <path id="DejaVuSans-63" d="M 3122 3366 
L 3122 2828 
Q 2878 2963 2633 3030 
Q 2388 3097 2138 3097 
Q 1578 3097 1268 2742 
Q 959 2388 959 1747 
Q 959 1106 1268 751 
Q 1578 397 2138 397 
Q 2388 397 2633 464 
Q 2878 531 3122 666 
L 3122 134 
Q 2881 22 2623 -34 
Q 2366 -91 2075 -91 
Q 1284 -91 818 406 
Q 353 903 353 1747 
Q 353 2603 823 3093 
Q 1294 3584 2113 3584 
Q 2378 3584 2631 3529 
Q 2884 3475 3122 3366 
z
" transform="scale(0.015625)"/>
       </defs>
       <use xlink:href="#DejaVuSans-64"/>
       <use xlink:href="#DejaVuSans-71" x="63.476562"/>
       <use xlink:href="#DejaVuSans-6e" x="126.953125"/>
       <use xlink:href="#DejaVuSans-5f" x="190.332031"/>
       <use xlink:href="#DejaVuSans-6d" x="240.332031"/>
       <use xlink:href="#DejaVuSans-61" x="337.744141"/>
       <use xlink:href="#DejaVuSans-63" x="399.023438"/>
       <use xlink:href="#DejaVuSans-64" x="454.003906"/>
      </g>
     </g>
    </g>
    <g id="xtick_9">
     <g id="text_9">
      <!-- dqn_bb -->
      <g style="fill: #262626" transform="translate(660.630938 526.478594) scale(0.09 -0.09)">
       <defs>
        <path id="DejaVuSans-62" d="M 3116 1747 
Q 3116 2381 2855 2742 
Q 2594 3103 2138 3103 
Q 1681 3103 1420 2742 
Q 1159 2381 1159 1747 
Q 1159 1113 1420 752 
Q 1681 391 2138 391 
Q 2594 391 2855 752 
Q 3116 1113 3116 1747 
z
M 1159 2969 
Q 1341 3281 1617 3432 
Q 1894 3584 2278 3584 
Q 2916 3584 3314 3078 
Q 3713 2572 3713 1747 
Q 3713 922 3314 415 
Q 2916 -91 2278 -91 
Q 1894 -91 1617 61 
Q 1341 213 1159 525 
L 1159 0 
L 581 0 
L 581 4863 
L 1159 4863 
L 1159 2969 
z
" transform="scale(0.015625)"/>
       </defs>
       <use xlink:href="#DejaVuSans-64"/>
       <use xlink:href="#DejaVuSans-71" x="63.476562"/>
       <use xlink:href="#DejaVuSans-6e" x="126.953125"/>
       <use xlink:href="#DejaVuSans-5f" x="190.332031"/>
       <use xlink:href="#DejaVuSans-62" x="240.332031"/>
       <use xlink:href="#DejaVuSans-62" x="303.808594"/>
      </g>
     </g>
    </g>
    <g id="xtick_10">
     <g id="text_10">
      <!-- dqn_rsi -->
      <g style="fill: #262626" transform="translate(727.860234 526.478594) scale(0.09 -0.09)">
       <defs>
        <path id="DejaVuSans-72" d="M 2631 2963 
Q 2534 3019 2420 3045 
Q 2306 3072 2169 3072 
Q 1681 3072 1420 2755 
Q 1159 2438 1159 1844 
L 1159 0 
L 581 0 
L 581 3500 
L 1159 3500 
L 1159 2956 
Q 1341 3275 1631 3429 
Q 1922 3584 2338 3584 
Q 2397 3584 2469 3576 
Q 2541 3569 2628 3553 
L 2631 2963 
z
" transform="scale(0.015625)"/>
        <path id="DejaVuSans-69" d="M 603 3500 
L 1178 3500 
L 1178 0 
L 603 0 
L 603 3500 
z
M 603 4863 
L 1178 4863 
L 1178 4134 
L 603 4134 
L 603 4863 
z
" transform="scale(0.015625)"/>
       </defs>
       <use xlink:href="#DejaVuSans-64"/>
       <use xlink:href="#DejaVuSans-71" x="63.476562"/>
       <use xlink:href="#DejaVuSans-6e" x="126.953125"/>
       <use xlink:href="#DejaVuSans-5f" x="190.332031"/>
       <use xlink:href="#DejaVuSans-72" x="240.332031"/>
       <use xlink:href="#DejaVuSans-73" x="281.445312"/>
       <use xlink:href="#DejaVuSans-69" x="333.544922"/>
      </g>
     </g>
    </g>
    <g id="text_11">
     <!-- DQN Models -->
     <g style="fill: #262626" transform="translate(412.066406 540.199062) scale(0.1 -0.1)">
      <defs>
       <path id="DejaVuSans-44" d="M 1259 4147 
L 1259 519 
L 2022 519 
Q 2988 519 3436 956 
Q 3884 1394 3884 2338 
Q 3884 3275 3436 3711 
Q 2988 4147 2022 4147 
L 1259 4147 
z
M 628 4666 
L 1925 4666 
Q 3281 4666 3915 4102 
Q 4550 3538 4550 2338 
Q 4550 1131 3912 565 
Q 3275 0 1925 0 
L 628 0 
L 628 4666 
z
" transform="scale(0.015625)"/>
       <path id="DejaVuSans-51" d="M 2522 4238 
Q 1834 4238 1429 3725 
Q 1025 3213 1025 2328 
Q 1025 1447 1429 934 
Q 1834 422 2522 422 
Q 3209 422 3611 934 
Q 4013 1447 4013 2328 
Q 4013 3213 3611 3725 
Q 3209 4238 2522 4238 
z
M 3406 84 
L 4238 -825 
L 3475 -825 
L 2784 -78 
Q 2681 -84 2626 -87 
Q 2572 -91 2522 -91 
Q 1538 -91 948 567 
Q 359 1225 359 2328 
Q 359 3434 948 4092 
Q 1538 4750 2522 4750 
Q 3503 4750 4090 4092 
Q 4678 3434 4678 2328 
Q 4678 1516 4351 937 
Q 4025 359 3406 84 
z
" transform="scale(0.015625)"/>
       <path id="DejaVuSans-4e" d="M 628 4666 
L 1478 4666 
L 3547 763 
L 3547 4666 
L 4159 4666 
L 4159 0 
L 3309 0 
L 1241 3903 
L 1241 0 
L 628 0 
L 628 4666 
z
" transform="scale(0.015625)"/>
       <path id="DejaVuSans-20" transform="scale(0.015625)"/>
       <path id="DejaVuSans-4d" d="M 628 4666 
L 1569 4666 
L 2759 1491 
L 3956 4666 
L 4897 4666 
L 4897 0 
L 4281 0 
L 4281 4097 
L 3078 897 
L 2444 897 
L 1241 4097 
L 1241 0 
L 628 0 
L 628 4666 
z
" transform="scale(0.015625)"/>
       <path id="DejaVuSans-6f" d="M 1959 3097 
Q 1497 3097 1228 2736 
Q 959 2375 959 1747 
Q 959 1119 1226 758 
Q 1494 397 1959 397 
Q 2419 397 2687 759 
Q 2956 1122 2956 1747 
Q 2956 2369 2687 2733 
Q 2419 3097 1959 3097 
z
M 1959 3584 
Q 2709 3584 3137 3096 
Q 3566 2609 3566 1747 
Q 3566 888 3137 398 
Q 2709 -91 1959 -91 
Q 1206 -91 779 398 
Q 353 888 353 1747 
Q 353 2609 779 3096 
Q 1206 3584 1959 3584 
z
" transform="scale(0.015625)"/>
      </defs>
      <use xlink:href="#DejaVuSans-44"/>
      <use xlink:href="#DejaVuSans-51" x="77.001953"/>
      <use xlink:href="#DejaVuSans-4e" x="155.712891"/>
      <use xlink:href="#DejaVuSans-20" x="230.517578"/>
      <use xlink:href="#DejaVuSans-4d" x="262.304688"/>
      <use xlink:href="#DejaVuSans-6f" x="348.583984"/>
      <use xlink:href="#DejaVuSans-64" x="409.765625"/>
      <use xlink:href="#DejaVuSans-65" x="473.242188"/>
      <use xlink:href="#DejaVuSans-6c" x="534.765625"/>
      <use xlink:href="#DejaVuSans-73" x="562.548828"/>
     </g>
    </g>
   </g>
   <g id="matplotlib.axis_2">
    <g id="ytick_1">
     <g id="line2d_1">
      <path d="M 108 488.138909 
L 777.6 488.138909 
" clip-path="url(#p9a6084c9e4)" style="fill: none; stroke: #cccccc; stroke-width: 0.8; stroke-linecap: round"/>
     </g>
     <g id="text_12">
      <!-- −15 -->
      <g style="fill: #262626" transform="translate(79.895313 491.938128) scale(0.1 -0.1)">
       <defs>
        <path id="DejaVuSans-2212" d="M 678 2272 
L 4684 2272 
L 4684 1741 
L 678 1741 
L 678 2272 
z
" transform="scale(0.015625)"/>
        <path id="DejaVuSans-35" d="M 691 4666 
L 3169 4666 
L 3169 4134 
L 1269 4134 
L 1269 2991 
Q 1406 3038 1543 3061 
Q 1681 3084 1819 3084 
Q 2600 3084 3056 2656 
Q 3513 2228 3513 1497 
Q 3513 744 3044 326 
Q 2575 -91 1722 -91 
Q 1428 -91 1123 -41 
Q 819 9 494 109 
L 494 744 
Q 775 591 1075 516 
Q 1375 441 1709 441 
Q 2250 441 2565 725 
Q 2881 1009 2881 1497 
Q 2881 1984 2565 2268 
Q 2250 2553 1709 2553 
Q 1456 2553 1204 2497 
Q 953 2441 691 2322 
L 691 4666 
z
" transform="scale(0.015625)"/>
       </defs>
       <use xlink:href="#DejaVuSans-2212"/>
       <use xlink:href="#DejaVuSans-31" x="83.789062"/>
       <use xlink:href="#DejaVuSans-35" x="147.412109"/>
      </g>
     </g>
    </g>
    <g id="ytick_2">
     <g id="line2d_2">
      <path d="M 108 424.691206 
L 777.6 424.691206 
" clip-path="url(#p9a6084c9e4)" style="fill: none; stroke: #cccccc; stroke-width: 0.8; stroke-linecap: round"/>
     </g>
     <g id="text_13">
      <!-- −10 -->
      <g style="fill: #262626" transform="translate(79.895313 428.490425) scale(0.1 -0.1)">
       <defs>
        <path id="DejaVuSans-30" d="M 2034 4250 
Q 1547 4250 1301 3770 
Q 1056 3291 1056 2328 
Q 1056 1369 1301 889 
Q 1547 409 2034 409 
Q 2525 409 2770 889 
Q 3016 1369 3016 2328 
Q 3016 3291 2770 3770 
Q 2525 4250 2034 4250 
z
M 2034 4750 
Q 2819 4750 3233 4129 
Q 3647 3509 3647 2328 
Q 3647 1150 3233 529 
Q 2819 -91 2034 -91 
Q 1250 -91 836 529 
Q 422 1150 422 2328 
Q 422 3509 836 4129 
Q 1250 4750 2034 4750 
z
" transform="scale(0.015625)"/>
       </defs>
       <use xlink:href="#DejaVuSans-2212"/>
       <use xlink:href="#DejaVuSans-31" x="83.789062"/>
       <use xlink:href="#DejaVuSans-30" x="147.412109"/>
      </g>
     </g>
    </g>
    <g id="ytick_3">
     <g id="line2d_3">
      <path d="M 108 361.243503 
L 777.6 361.243503 
" clip-path="url(#p9a6084c9e4)" style="fill: none; stroke: #cccccc; stroke-width: 0.8; stroke-linecap: round"/>
     </g>
     <g id="text_14">
      <!-- −5 -->
      <g style="fill: #262626" transform="translate(86.257812 365.042721) scale(0.1 -0.1)">
       <use xlink:href="#DejaVuSans-2212"/>
       <use xlink:href="#DejaVuSans-35" x="83.789062"/>
      </g>
     </g>
    </g>
    <g id="ytick_4">
     <g id="line2d_4">
      <path d="M 108 297.7958 
L 777.6 297.7958 
" clip-path="url(#p9a6084c9e4)" style="fill: none; stroke: #cccccc; stroke-width: 0.8; stroke-linecap: round"/>
     </g>
     <g id="text_15">
      <!-- 0 -->
      <g style="fill: #262626" transform="translate(94.6375 301.595018) scale(0.1 -0.1)">
       <use xlink:href="#DejaVuSans-30"/>
      </g>
     </g>
    </g>
    <g id="ytick_5">
     <g id="line2d_5">
      <path d="M 108 234.348097 
L 777.6 234.348097 
" clip-path="url(#p9a6084c9e4)" style="fill: none; stroke: #cccccc; stroke-width: 0.8; stroke-linecap: round"/>
     </g>
     <g id="text_16">
      <!-- 5 -->
      <g style="fill: #262626" transform="translate(94.6375 238.147315) scale(0.1 -0.1)">
       <use xlink:href="#DejaVuSans-35"/>
      </g>
     </g>
    </g>
    <g id="ytick_6">
     <g id="line2d_6">
      <path d="M 108 170.900393 
L 777.6 170.900393 
" clip-path="url(#p9a6084c9e4)" style="fill: none; stroke: #cccccc; stroke-width: 0.8; stroke-linecap: round"/>
     </g>
     <g id="text_17">
      <!-- 10 -->
      <g style="fill: #262626" transform="translate(88.275 174.699612) scale(0.1 -0.1)">
       <use xlink:href="#DejaVuSans-31"/>
       <use xlink:href="#DejaVuSans-30" x="63.623047"/>
      </g>
     </g>
    </g>
    <g id="ytick_7">
     <g id="line2d_7">
      <path d="M 108 107.45269 
L 777.6 107.45269 
" clip-path="url(#p9a6084c9e4)" style="fill: none; stroke: #cccccc; stroke-width: 0.8; stroke-linecap: round"/>
     </g>
     <g id="text_18">
      <!-- 15 -->
      <g style="fill: #262626" transform="translate(88.275 111.251909) scale(0.1 -0.1)">
       <use xlink:href="#DejaVuSans-31"/>
       <use xlink:href="#DejaVuSans-35" x="63.623047"/>
      </g>
     </g>
    </g>
    <g id="text_19">
     <!-- Annualised Returns [%] -->
     <g style="fill: #262626" transform="translate(73.815625 349.530781) rotate(-90) scale(0.1 -0.1)">
      <defs>
       <path id="DejaVuSans-41" d="M 2188 4044 
L 1331 1722 
L 3047 1722 
L 2188 4044 
z
M 1831 4666 
L 2547 4666 
L 4325 0 
L 3669 0 
L 3244 1197 
L 1141 1197 
L 716 0 
L 50 0 
L 1831 4666 
z
" transform="scale(0.015625)"/>
       <path id="DejaVuSans-75" d="M 544 1381 
L 544 3500 
L 1119 3500 
L 1119 1403 
Q 1119 906 1312 657 
Q 1506 409 1894 409 
Q 2359 409 2629 706 
Q 2900 1003 2900 1516 
L 2900 3500 
L 3475 3500 
L 3475 0 
L 2900 0 
L 2900 538 
Q 2691 219 2414 64 
Q 2138 -91 1772 -91 
Q 1169 -91 856 284 
Q 544 659 544 1381 
z
M 1991 3584 
L 1991 3584 
z
" transform="scale(0.015625)"/>
       <path id="DejaVuSans-5b" d="M 550 4863 
L 1875 4863 
L 1875 4416 
L 1125 4416 
L 1125 -397 
L 1875 -397 
L 1875 -844 
L 550 -844 
L 550 4863 
z
" transform="scale(0.015625)"/>
       <path id="DejaVuSans-25" d="M 4653 2053 
Q 4381 2053 4226 1822 
Q 4072 1591 4072 1178 
Q 4072 772 4226 539 
Q 4381 306 4653 306 
Q 4919 306 5073 539 
Q 5228 772 5228 1178 
Q 5228 1588 5073 1820 
Q 4919 2053 4653 2053 
z
M 4653 2450 
Q 5147 2450 5437 2106 
Q 5728 1763 5728 1178 
Q 5728 594 5436 251 
Q 5144 -91 4653 -91 
Q 4153 -91 3862 251 
Q 3572 594 3572 1178 
Q 3572 1766 3864 2108 
Q 4156 2450 4653 2450 
z
M 1428 4353 
Q 1159 4353 1004 4120 
Q 850 3888 850 3481 
Q 850 3069 1003 2837 
Q 1156 2606 1428 2606 
Q 1700 2606 1854 2837 
Q 2009 3069 2009 3481 
Q 2009 3884 1853 4118 
Q 1697 4353 1428 4353 
z
M 4250 4750 
L 4750 4750 
L 1831 -91 
L 1331 -91 
L 4250 4750 
z
M 1428 4750 
Q 1922 4750 2215 4408 
Q 2509 4066 2509 3481 
Q 2509 2891 2217 2550 
Q 1925 2209 1428 2209 
Q 931 2209 642 2551 
Q 353 2894 353 3481 
Q 353 4063 643 4406 
Q 934 4750 1428 4750 
z
" transform="scale(0.015625)"/>
       <path id="DejaVuSans-5d" d="M 1947 4863 
L 1947 -844 
L 622 -844 
L 622 -397 
L 1369 -397 
L 1369 4416 
L 622 4416 
L 622 4863 
L 1947 4863 
z
" transform="scale(0.015625)"/>
      </defs>
      <use xlink:href="#DejaVuSans-41"/>
      <use xlink:href="#DejaVuSans-6e" x="68.408203"/>
      <use xlink:href="#DejaVuSans-6e" x="131.787109"/>
      <use xlink:href="#DejaVuSans-75" x="195.166016"/>
      <use xlink:href="#DejaVuSans-61" x="258.544922"/>
      <use xlink:href="#DejaVuSans-6c" x="319.824219"/>
      <use xlink:href="#DejaVuSans-69" x="347.607422"/>
      <use xlink:href="#DejaVuSans-73" x="375.390625"/>
      <use xlink:href="#DejaVuSans-65" x="427.490234"/>
      <use xlink:href="#DejaVuSans-64" x="489.013672"/>
      <use xlink:href="#DejaVuSans-20" x="552.490234"/>
      <use xlink:href="#DejaVuSans-52" x="584.277344"/>
      <use xlink:href="#DejaVuSans-65" x="649.259766"/>
      <use xlink:href="#DejaVuSans-74" x="710.783203"/>
      <use xlink:href="#DejaVuSans-75" x="749.992188"/>
      <use xlink:href="#DejaVuSans-72" x="813.371094"/>
      <use xlink:href="#DejaVuSans-6e" x="852.734375"/>
      <use xlink:href="#DejaVuSans-73" x="916.113281"/>
      <use xlink:href="#DejaVuSans-20" x="968.212891"/>
      <use xlink:href="#DejaVuSans-5b" x="1000"/>
      <use xlink:href="#DejaVuSans-25" x="1039.013672"/>
      <use xlink:href="#DejaVuSans-5d" x="1134.033203"/>
     </g>
    </g>
   </g>
   <g id="PolyCollection_1">
    <defs>
     <path id="meba27f6140" d="M 141.906095 -257.435876 
L 141.053905 -257.435876 
L 140.932167 -258.487352 
L 140.783234 -259.538827 
L 140.603165 -260.590303 
L 140.387957 -261.641778 
L 140.133644 -262.693254 
L 139.836425 -263.74473 
L 139.492777 -264.796205 
L 139.099585 -265.847681 
L 138.654253 -266.899156 
L 138.154809 -267.950632 
L 137.599998 -269.002108 
L 136.989361 -270.053583 
L 136.32329 -271.105059 
L 135.603085 -272.156534 
L 134.830983 -273.20801 
L 134.010185 -274.259486 
L 133.144867 -275.310961 
L 132.240169 -276.362437 
L 131.302168 -277.413912 
L 130.337815 -278.465388 
L 129.354837 -279.516864 
L 128.36158 -280.568339 
L 127.366813 -281.619815 
L 126.379466 -282.67129 
L 125.408327 -283.722766 
L 124.461708 -284.774242 
L 123.547102 -285.825717 
L 122.670859 -286.877193 
L 121.83792 -287.928668 
L 121.051646 -288.980144 
L 120.313757 -290.03162 
L 119.624423 -291.083095 
L 118.982489 -292.134571 
L 118.385853 -293.186046 
L 117.831942 -294.237522 
L 117.318265 -295.288997 
L 116.84298 -296.340473 
L 116.405412 -297.391949 
L 116.00647 -298.443424 
L 115.648899 -299.4949 
L 115.337344 -300.546375 
L 115.078185 -301.597851 
L 114.879177 -302.649327 
L 114.748886 -303.700802 
L 114.696 -304.752278 
L 114.72856 -305.803753 
L 114.85319 -306.855229 
L 115.074393 -307.906705 
L 115.393992 -308.95818 
L 115.810756 -310.009656 
L 116.320257 -311.061131 
L 116.914962 -312.112607 
L 117.584563 -313.164083 
L 118.316495 -314.215558 
L 119.096623 -315.267034 
L 119.910009 -316.318509 
L 120.741718 -317.369985 
L 121.577589 -318.421461 
L 122.404912 -319.472936 
L 123.212979 -320.524412 
L 123.993456 -321.575887 
L 124.740587 -322.627363 
L 125.451209 -323.678839 
L 126.1246 -324.730314 
L 126.762196 -325.78179 
L 127.367191 -326.833265 
L 127.94408 -327.884741 
L 128.498173 -328.936216 
L 129.035114 -329.987692 
L 129.560451 -331.039168 
L 130.079263 -332.090643 
L 130.595875 -333.142119 
L 131.11366 -334.193594 
L 131.634931 -335.24507 
L 132.160913 -336.296546 
L 132.691783 -337.348021 
L 133.226767 -338.399497 
L 133.764268 -339.450972 
L 134.302021 -340.502448 
L 134.837247 -341.553924 
L 135.366812 -342.605399 
L 135.887374 -343.656875 
L 136.395516 -344.70835 
L 136.887866 -345.759826 
L 137.361202 -346.811302 
L 137.812549 -347.862777 
L 138.239261 -348.914253 
L 138.639095 -349.965728 
L 139.010269 -351.017204 
L 139.35151 -352.06868 
L 139.662085 -353.120155 
L 139.941806 -354.171631 
L 140.191027 -355.223106 
L 140.410604 -356.274582 
L 140.601852 -357.326057 
L 140.766472 -358.377533 
L 140.906468 -359.429009 
L 141.024066 -360.480484 
L 141.121616 -361.53196 
L 141.838384 -361.53196 
L 141.838384 -361.53196 
L 141.935934 -360.480484 
L 142.053532 -359.429009 
L 142.193528 -358.377533 
L 142.358148 -357.326057 
L 142.549396 -356.274582 
L 142.768973 -355.223106 
L 143.018194 -354.171631 
L 143.297915 -353.120155 
L 143.60849 -352.06868 
L 143.949731 -351.017204 
L 144.320905 -349.965728 
L 144.720739 -348.914253 
L 145.147451 -347.862777 
L 145.598798 -346.811302 
L 146.072134 -345.759826 
L 146.564484 -344.70835 
L 147.072626 -343.656875 
L 147.593188 -342.605399 
L 148.122753 -341.553924 
L 148.657979 -340.502448 
L 149.195732 -339.450972 
L 149.733233 -338.399497 
L 150.268217 -337.348021 
L 150.799087 -336.296546 
L 151.325069 -335.24507 
L 151.84634 -334.193594 
L 152.364125 -333.142119 
L 152.880737 -332.090643 
L 153.399549 -331.039168 
L 153.924886 -329.987692 
L 154.461827 -328.936216 
L 155.01592 -327.884741 
L 155.592809 -326.833265 
L 156.197804 -325.78179 
L 156.8354 -324.730314 
L 157.508791 -323.678839 
L 158.219413 -322.627363 
L 158.966544 -321.575887 
L 159.747021 -320.524412 
L 160.555088 -319.472936 
L 161.382411 -318.421461 
L 162.218282 -317.369985 
L 163.049991 -316.318509 
L 163.863377 -315.267034 
L 164.643505 -314.215558 
L 165.375437 -313.164083 
L 166.045038 -312.112607 
L 166.639743 -311.061131 
L 167.149244 -310.009656 
L 167.566008 -308.95818 
L 167.885607 -307.906705 
L 168.10681 -306.855229 
L 168.23144 -305.803753 
L 168.264 -304.752278 
L 168.211114 -303.700802 
L 168.080823 -302.649327 
L 167.881815 -301.597851 
L 167.622656 -300.546375 
L 167.311101 -299.4949 
L 166.95353 -298.443424 
L 166.554588 -297.391949 
L 166.11702 -296.340473 
L 165.641735 -295.288997 
L 165.128058 -294.237522 
L 164.574147 -293.186046 
L 163.977511 -292.134571 
L 163.335577 -291.083095 
L 162.646243 -290.03162 
L 161.908354 -288.980144 
L 161.12208 -287.928668 
L 160.289141 -286.877193 
L 159.412898 -285.825717 
L 158.498292 -284.774242 
L 157.551673 -283.722766 
L 156.580534 -282.67129 
L 155.593187 -281.619815 
L 154.59842 -280.568339 
L 153.605163 -279.516864 
L 152.622185 -278.465388 
L 151.657832 -277.413912 
L 150.719831 -276.362437 
L 149.815133 -275.310961 
L 148.949815 -274.259486 
L 148.129017 -273.20801 
L 147.356915 -272.156534 
L 146.63671 -271.105059 
L 145.970639 -270.053583 
L 145.360002 -269.002108 
L 144.805191 -267.950632 
L 144.305747 -266.899156 
L 143.860415 -265.847681 
L 143.467223 -264.796205 
L 143.123575 -263.74473 
L 142.826356 -262.693254 
L 142.572043 -261.641778 
L 142.356835 -260.590303 
L 142.176766 -259.538827 
L 142.027833 -258.487352 
L 141.906095 -257.435876 
z
" style="stroke: #5f5f5f; stroke-width: 1.25"/>
    </defs>
    <g clip-path="url(#p9a6084c9e4)">
     <use xlink:href="#meba27f6140" x="0" y="576" style="fill: #96cac1; stroke: #5f5f5f; stroke-width: 1.25"/>
    </g>
   </g>
   <g id="PolyCollection_2">
    <defs>
     <path id="mcdb25cd9af" d="M 208.817297 -253.265672 
L 208.062703 -253.265672 
L 207.956229 -254.544953 
L 207.827318 -255.824233 
L 207.673385 -257.103514 
L 207.492045 -258.382794 
L 207.281221 -259.662075 
L 207.039229 -260.941356 
L 206.764843 -262.220636 
L 206.457327 -263.499917 
L 206.116418 -264.779197 
L 205.742274 -266.058478 
L 205.335374 -267.337758 
L 204.896391 -268.617039 
L 204.426041 -269.89632 
L 203.924942 -271.1756 
L 203.393487 -272.454881 
L 202.831762 -273.734161 
L 202.23953 -275.013442 
L 201.616281 -276.292723 
L 200.961358 -277.572003 
L 200.274157 -278.851284 
L 199.554374 -280.130564 
L 198.802289 -281.409845 
L 198.019033 -282.689125 
L 197.206829 -283.968406 
L 196.369156 -285.247687 
L 195.510811 -286.526967 
L 194.637852 -287.806248 
L 193.757418 -289.085528 
L 192.877432 -290.364809 
L 192.0062 -291.644089 
L 191.151965 -292.92337 
L 190.322428 -294.202651 
L 189.524315 -295.481931 
L 188.763011 -296.761212 
L 188.042321 -298.040492 
L 187.36437 -299.319773 
L 186.729668 -300.599054 
L 186.137317 -301.878334 
L 185.585358 -303.157615 
L 185.071203 -304.436895 
L 184.592115 -305.716176 
L 184.145684 -306.995456 
L 183.730235 -308.274737 
L 183.345151 -309.554018 
L 182.991056 -310.833298 
L 182.669855 -312.112579 
L 182.384641 -313.391859 
L 182.139471 -314.67114 
L 181.939061 -315.95042 
L 181.788429 -317.229701 
L 181.692542 -318.508982 
L 181.656 -319.788262 
L 181.682797 -321.067543 
L 181.77618 -322.346823 
L 181.93861 -323.626104 
L 182.171819 -324.905385 
L 182.476925 -326.184665 
L 182.854594 -327.463946 
L 183.305167 -328.743226 
L 183.828755 -330.022507 
L 184.425226 -331.301787 
L 185.094099 -332.581068 
L 185.834328 -333.860349 
L 186.643993 -335.139629 
L 187.519959 -336.41891 
L 188.457529 -337.69819 
L 189.450179 -338.977471 
L 190.489409 -340.256751 
L 191.564779 -341.536032 
L 192.664128 -342.815313 
L 193.774001 -344.094593 
L 194.880237 -345.373874 
L 195.968677 -346.653154 
L 197.025911 -347.932435 
L 198.04 -349.211715 
L 199.001078 -350.490996 
L 199.901792 -351.770277 
L 200.737526 -353.049557 
L 201.506394 -354.328838 
L 202.209019 -355.608118 
L 202.848135 -356.887399 
L 203.428065 -358.16668 
L 203.954134 -359.44596 
L 204.432092 -360.725241 
L 204.867602 -362.004521 
L 205.265829 -363.283802 
L 205.631161 -364.563082 
L 205.96708 -365.842363 
L 206.276146 -367.121644 
L 206.560096 -368.400924 
L 206.820018 -369.680205 
L 207.056554 -370.959485 
L 207.270123 -372.238766 
L 207.461108 -373.518046 
L 207.630015 -374.797327 
L 207.777576 -376.076608 
L 207.904801 -377.355888 
L 208.012977 -378.635169 
L 208.103639 -379.914449 
L 208.776361 -379.914449 
L 208.776361 -379.914449 
L 208.867023 -378.635169 
L 208.975199 -377.355888 
L 209.102424 -376.076608 
L 209.249985 -374.797327 
L 209.418892 -373.518046 
L 209.609877 -372.238766 
L 209.823446 -370.959485 
L 210.059982 -369.680205 
L 210.319904 -368.400924 
L 210.603854 -367.121644 
L 210.91292 -365.842363 
L 211.248839 -364.563082 
L 211.614171 -363.283802 
L 212.012398 -362.004521 
L 212.447908 -360.725241 
L 212.925866 -359.44596 
L 213.451935 -358.16668 
L 214.031865 -356.887399 
L 214.670981 -355.608118 
L 215.373606 -354.328838 
L 216.142474 -353.049557 
L 216.978208 -351.770277 
L 217.878922 -350.490996 
L 218.84 -349.211715 
L 219.854089 -347.932435 
L 220.911323 -346.653154 
L 221.999763 -345.373874 
L 223.105999 -344.094593 
L 224.215872 -342.815313 
L 225.315221 -341.536032 
L 226.390591 -340.256751 
L 227.429821 -338.977471 
L 228.422471 -337.69819 
L 229.360041 -336.41891 
L 230.236007 -335.139629 
L 231.045672 -333.860349 
L 231.785901 -332.581068 
L 232.454774 -331.301787 
L 233.051245 -330.022507 
L 233.574833 -328.743226 
L 234.025406 -327.463946 
L 234.403075 -326.184665 
L 234.708181 -324.905385 
L 234.94139 -323.626104 
L 235.10382 -322.346823 
L 235.197203 -321.067543 
L 235.224 -319.788262 
L 235.187458 -318.508982 
L 235.091571 -317.229701 
L 234.940939 -315.95042 
L 234.740529 -314.67114 
L 234.495359 -313.391859 
L 234.210145 -312.112579 
L 233.888944 -310.833298 
L 233.534849 -309.554018 
L 233.149765 -308.274737 
L 232.734316 -306.995456 
L 232.287885 -305.716176 
L 231.808797 -304.436895 
L 231.294642 -303.157615 
L 230.742683 -301.878334 
L 230.150332 -300.599054 
L 229.51563 -299.319773 
L 228.837679 -298.040492 
L 228.116989 -296.761212 
L 227.355685 -295.481931 
L 226.557572 -294.202651 
L 225.728035 -292.92337 
L 224.8738 -291.644089 
L 224.002568 -290.364809 
L 223.122582 -289.085528 
L 222.242148 -287.806248 
L 221.369189 -286.526967 
L 220.510844 -285.247687 
L 219.673171 -283.968406 
L 218.860967 -282.689125 
L 218.077711 -281.409845 
L 217.325626 -280.130564 
L 216.605843 -278.851284 
L 215.918642 -277.572003 
L 215.263719 -276.292723 
L 214.64047 -275.013442 
L 214.048238 -273.734161 
L 213.486513 -272.454881 
L 212.955058 -271.1756 
L 212.453959 -269.89632 
L 211.983609 -268.617039 
L 211.544626 -267.337758 
L 211.137726 -266.058478 
L 210.763582 -264.779197 
L 210.422673 -263.499917 
L 210.115157 -262.220636 
L 209.840771 -260.941356 
L 209.598779 -259.662075 
L 209.387955 -258.382794 
L 209.206615 -257.103514 
L 209.052682 -255.824233 
L 208.923771 -254.544953 
L 208.817297 -253.265672 
z
" style="stroke: #5f5f5f; stroke-width: 1.25"/>
    </defs>
    <g clip-path="url(#p9a6084c9e4)">
     <use xlink:href="#mcdb25cd9af" x="0" y="576" style="fill: #f6f6bc; stroke: #5f5f5f; stroke-width: 1.25"/>
    </g>
   </g>
   <g id="PolyCollection_3">
    <defs>
     <path id="m34d53c5ef0" d="M 276.186012 -252.493785 
L 274.613988 -252.493785 
L 274.399006 -253.675863 
L 274.13897 -254.857942 
L 273.828277 -256.04002 
L 273.461554 -257.222098 
L 273.033883 -258.404177 
L 272.541048 -259.586255 
L 271.97976 -260.768333 
L 271.347877 -261.950412 
L 270.644582 -263.13249 
L 269.870519 -264.314568 
L 269.02787 -265.496647 
L 268.120378 -266.678725 
L 267.153313 -267.860804 
L 266.133384 -269.042882 
L 265.068613 -270.22496 
L 263.968175 -271.407039 
L 262.842221 -272.589117 
L 261.70169 -273.771195 
L 260.558111 -274.953274 
L 259.423406 -276.135352 
L 258.30967 -277.31743 
L 257.228943 -278.499509 
L 256.192947 -279.681587 
L 255.212788 -280.863665 
L 254.298617 -282.045744 
L 253.459267 -283.227822 
L 252.701863 -284.4099 
L 252.031448 -285.591979 
L 251.450652 -286.774057 
L 250.959435 -287.956135 
L 250.554967 -289.138214 
L 250.231648 -290.320292 
L 249.98132 -291.50237 
L 249.793661 -292.684449 
L 249.656759 -293.866527 
L 249.557834 -295.048605 
L 249.484052 -296.230684 
L 249.423384 -297.412762 
L 249.36542 -298.59484 
L 249.302086 -299.776919 
L 249.228181 -300.958997 
L 249.141705 -302.141075 
L 249.043931 -303.323154 
L 248.939233 -304.505232 
L 248.834668 -305.68731 
L 248.739381 -306.869389 
L 248.663861 -308.051467 
L 248.619141 -309.233545 
L 248.616 -310.415624 
L 248.664232 -311.597702 
L 248.772055 -312.77978 
L 248.945674 -313.961859 
L 249.189047 -315.143937 
L 249.503825 -316.326015 
L 249.889479 -317.508094 
L 250.343557 -318.690172 
L 250.862048 -319.87225 
L 251.439797 -321.054329 
L 252.070922 -322.236407 
L 252.749212 -323.418485 
L 253.468444 -324.600564 
L 254.222628 -325.782642 
L 255.006158 -326.96472 
L 255.813862 -328.146799 
L 256.64099 -329.328877 
L 257.483139 -330.510955 
L 258.336143 -331.693034 
L 259.195965 -332.875112 
L 260.0586 -334.05719 
L 260.920011 -335.239269 
L 261.776112 -336.421347 
L 262.622793 -337.603425 
L 263.455996 -338.785504 
L 264.271805 -339.967582 
L 265.066567 -341.149661 
L 265.836996 -342.331739 
L 266.580273 -343.513817 
L 267.294104 -344.695896 
L 267.976743 -345.877974 
L 268.626978 -347.060052 
L 269.244078 -348.242131 
L 269.827715 -349.424209 
L 270.377872 -350.606287 
L 270.894744 -351.788366 
L 271.378656 -352.970444 
L 271.829997 -354.152522 
L 272.249179 -355.334601 
L 272.636629 -356.516679 
L 272.992795 -357.698757 
L 273.318183 -358.880836 
L 273.613397 -360.062914 
L 273.879185 -361.244992 
L 274.116479 -362.427071 
L 274.326418 -363.609149 
L 274.510365 -364.791227 
L 274.669897 -365.973306 
L 274.806779 -367.155384 
L 274.922924 -368.337462 
L 275.020347 -369.519541 
L 275.779653 -369.519541 
L 275.779653 -369.519541 
L 275.877076 -368.337462 
L 275.993221 -367.155384 
L 276.130103 -365.973306 
L 276.289635 -364.791227 
L 276.473582 -363.609149 
L 276.683521 -362.427071 
L 276.920815 -361.244992 
L 277.186603 -360.062914 
L 277.481817 -358.880836 
L 277.807205 -357.698757 
L 278.163371 -356.516679 
L 278.550821 -355.334601 
L 278.970003 -354.152522 
L 279.421344 -352.970444 
L 279.905256 -351.788366 
L 280.422128 -350.606287 
L 280.972285 -349.424209 
L 281.555922 -348.242131 
L 282.173022 -347.060052 
L 282.823257 -345.877974 
L 283.505896 -344.695896 
L 284.219727 -343.513817 
L 284.963004 -342.331739 
L 285.733433 -341.149661 
L 286.528195 -339.967582 
L 287.344004 -338.785504 
L 288.177207 -337.603425 
L 289.023888 -336.421347 
L 289.879989 -335.239269 
L 290.7414 -334.05719 
L 291.604035 -332.875112 
L 292.463857 -331.693034 
L 293.316861 -330.510955 
L 294.15901 -329.328877 
L 294.986138 -328.146799 
L 295.793842 -326.96472 
L 296.577372 -325.782642 
L 297.331556 -324.600564 
L 298.050788 -323.418485 
L 298.729078 -322.236407 
L 299.360203 -321.054329 
L 299.937952 -319.87225 
L 300.456443 -318.690172 
L 300.910521 -317.508094 
L 301.296175 -316.326015 
L 301.610953 -315.143937 
L 301.854326 -313.961859 
L 302.027945 -312.77978 
L 302.135768 -311.597702 
L 302.184 -310.415624 
L 302.180859 -309.233545 
L 302.136139 -308.051467 
L 302.060619 -306.869389 
L 301.965332 -305.68731 
L 301.860767 -304.505232 
L 301.756069 -303.323154 
L 301.658295 -302.141075 
L 301.571819 -300.958997 
L 301.497914 -299.776919 
L 301.43458 -298.59484 
L 301.376616 -297.412762 
L 301.315948 -296.230684 
L 301.242166 -295.048605 
L 301.143241 -293.866527 
L 301.006339 -292.684449 
L 300.81868 -291.50237 
L 300.568352 -290.320292 
L 300.245033 -289.138214 
L 299.840565 -287.956135 
L 299.349348 -286.774057 
L 298.768552 -285.591979 
L 298.098137 -284.4099 
L 297.340733 -283.227822 
L 296.501383 -282.045744 
L 295.587212 -280.863665 
L 294.607053 -279.681587 
L 293.571057 -278.499509 
L 292.49033 -277.31743 
L 291.376594 -276.135352 
L 290.241889 -274.953274 
L 289.09831 -273.771195 
L 287.957779 -272.589117 
L 286.831825 -271.407039 
L 285.731387 -270.22496 
L 284.666616 -269.042882 
L 283.646687 -267.860804 
L 282.679622 -266.678725 
L 281.77213 -265.496647 
L 280.929481 -264.314568 
L 280.155418 -263.13249 
L 279.452123 -261.950412 
L 278.82024 -260.768333 
L 278.258952 -259.586255 
L 277.766117 -258.404177 
L 277.338446 -257.222098 
L 276.971723 -256.04002 
L 276.66103 -254.857942 
L 276.400994 -253.675863 
L 276.186012 -252.493785 
z
" style="stroke: #5f5f5f; stroke-width: 1.25"/>
    </defs>
    <g clip-path="url(#p9a6084c9e4)">
     <use xlink:href="#m34d53c5ef0" x="0" y="576" style="fill: #c1bed6; stroke: #5f5f5f; stroke-width: 1.25"/>
    </g>
   </g>
   <g id="PolyCollection_4">
    <defs>
     <path id="m0e784bfe14" d="M 342.599597 -223.795339 
L 342.120403 -223.795339 
L 342.050217 -225.158552 
L 341.966458 -226.521766 
L 341.868766 -227.88498 
L 341.757496 -229.248194 
L 341.633859 -230.611408 
L 341.500012 -231.974622 
L 341.359072 -233.337836 
L 341.215027 -234.70105 
L 341.072556 -236.064264 
L 340.936733 -237.427478 
L 340.81265 -238.790692 
L 340.70498 -240.153905 
L 340.617518 -241.517119 
L 340.552751 -242.880333 
L 340.511507 -244.243547 
L 340.492712 -245.606761 
L 340.493308 -246.969975 
L 340.508334 -248.333189 
L 340.531173 -249.696403 
L 340.553951 -251.059617 
L 340.568049 -252.422831 
L 340.564688 -253.786045 
L 340.535534 -255.149259 
L 340.473274 -256.512472 
L 340.372113 -257.875686 
L 340.228156 -259.2389 
L 340.039642 -260.602114 
L 339.807014 -261.965328 
L 339.53282 -263.328542 
L 339.221442 -264.691756 
L 338.87867 -266.05497 
L 338.511149 -267.418184 
L 338.125719 -268.781398 
L 337.7287 -270.144612 
L 337.32516 -271.507825 
L 336.918223 -272.871039 
L 336.508471 -274.234253 
L 336.093505 -275.597467 
L 335.667705 -276.960681 
L 335.222247 -278.323895 
L 334.745405 -279.687109 
L 334.223149 -281.050323 
L 333.640035 -282.413537 
L 332.980361 -283.776751 
L 332.229522 -285.139965 
L 331.375496 -286.503179 
L 330.410344 -287.866392 
L 329.331626 -289.229606 
L 328.143586 -290.59282 
L 326.857994 -291.956034 
L 325.494528 -293.319248 
L 324.080598 -294.682462 
L 322.650575 -296.045676 
L 321.244422 -297.40889 
L 319.905769 -298.772104 
L 318.679572 -300.135318 
L 317.609497 -301.498532 
L 316.735259 -302.861745 
L 316.090126 -304.224959 
L 315.698821 -305.588173 
L 315.576 -306.951387 
L 315.725436 -308.314601 
L 316.139984 -309.677815 
L 316.80229 -311.041029 
L 317.686172 -312.404243 
L 318.758511 -313.767457 
L 319.981464 -315.130671 
L 321.314811 -316.493885 
L 322.718231 -317.857098 
L 324.153347 -319.220312 
L 325.585432 -320.583526 
L 326.98468 -321.94674 
L 328.327033 -323.309954 
L 329.594554 -324.673168 
L 330.775396 -326.036382 
L 331.863416 -327.399596 
L 332.857502 -328.76281 
L 333.760699 -330.126024 
L 334.579204 -331.489238 
L 335.321313 -332.852452 
L 335.99639 -334.215665 
L 336.613934 -335.578879 
L 337.182799 -336.942093 
L 337.710603 -338.305307 
L 338.203357 -339.668521 
L 338.665317 -341.031735 
L 339.099032 -342.394949 
L 339.505566 -343.758163 
L 339.884842 -345.121377 
L 340.236044 -346.484591 
L 340.558037 -347.847805 
L 340.849746 -349.211018 
L 341.110459 -350.574232 
L 341.340046 -351.937446 
L 341.53906 -353.30066 
L 341.70875 -354.663874 
L 341.850996 -356.027088 
L 341.968178 -357.390302 
L 342.06302 -358.753516 
L 342.65698 -358.753516 
L 342.65698 -358.753516 
L 342.751822 -357.390302 
L 342.869004 -356.027088 
L 343.01125 -354.663874 
L 343.18094 -353.30066 
L 343.379954 -351.937446 
L 343.609541 -350.574232 
L 343.870254 -349.211018 
L 344.161963 -347.847805 
L 344.483956 -346.484591 
L 344.835158 -345.121377 
L 345.214434 -343.758163 
L 345.620968 -342.394949 
L 346.054683 -341.031735 
L 346.516643 -339.668521 
L 347.009397 -338.305307 
L 347.537201 -336.942093 
L 348.106066 -335.578879 
L 348.72361 -334.215665 
L 349.398687 -332.852452 
L 350.140796 -331.489238 
L 350.959301 -330.126024 
L 351.862498 -328.76281 
L 352.856584 -327.399596 
L 353.944604 -326.036382 
L 355.125446 -324.673168 
L 356.392967 -323.309954 
L 357.73532 -321.94674 
L 359.134568 -320.583526 
L 360.566653 -319.220312 
L 362.001769 -317.857098 
L 363.405189 -316.493885 
L 364.738536 -315.130671 
L 365.961489 -313.767457 
L 367.033828 -312.404243 
L 367.91771 -311.041029 
L 368.580016 -309.677815 
L 368.994564 -308.314601 
L 369.144 -306.951387 
L 369.021179 -305.588173 
L 368.629874 -304.224959 
L 367.984741 -302.861745 
L 367.110503 -301.498532 
L 366.040428 -300.135318 
L 364.814231 -298.772104 
L 363.475578 -297.40889 
L 362.069425 -296.045676 
L 360.639402 -294.682462 
L 359.225472 -293.319248 
L 357.862006 -291.956034 
L 356.576414 -290.59282 
L 355.388374 -289.229606 
L 354.309656 -287.866392 
L 353.344504 -286.503179 
L 352.490478 -285.139965 
L 351.739639 -283.776751 
L 351.079965 -282.413537 
L 350.496851 -281.050323 
L 349.974595 -279.687109 
L 349.497753 -278.323895 
L 349.052295 -276.960681 
L 348.626495 -275.597467 
L 348.211529 -274.234253 
L 347.801777 -272.871039 
L 347.39484 -271.507825 
L 346.9913 -270.144612 
L 346.594281 -268.781398 
L 346.208851 -267.418184 
L 345.84133 -266.05497 
L 345.498558 -264.691756 
L 345.18718 -263.328542 
L 344.912986 -261.965328 
L 344.680358 -260.602114 
L 344.491844 -259.2389 
L 344.347887 -257.875686 
L 344.246726 -256.512472 
L 344.184466 -255.149259 
L 344.155312 -253.786045 
L 344.151951 -252.422831 
L 344.166049 -251.059617 
L 344.188827 -249.696403 
L 344.211666 -248.333189 
L 344.226692 -246.969975 
L 344.227288 -245.606761 
L 344.208493 -244.243547 
L 344.167249 -242.880333 
L 344.102482 -241.517119 
L 344.01502 -240.153905 
L 343.90735 -238.790692 
L 343.783267 -237.427478 
L 343.647444 -236.064264 
L 343.504973 -234.70105 
L 343.360928 -233.337836 
L 343.219988 -231.974622 
L 343.086141 -230.611408 
L 342.962504 -229.248194 
L 342.851234 -227.88498 
L 342.753542 -226.521766 
L 342.669783 -225.158552 
L 342.599597 -223.795339 
z
" style="stroke: #5f5f5f; stroke-width: 1.25"/>
    </defs>
    <g clip-path="url(#p9a6084c9e4)">
     <use xlink:href="#m0e784bfe14" x="0" y="576" style="fill: #ea8e83; stroke: #5f5f5f; stroke-width: 1.25"/>
    </g>
   </g>
   <g id="PolyCollection_5">
    <defs>
     <path id="ma6ef470e91" d="M 409.68056 -185.858647 
L 408.95944 -185.858647 
L 408.865405 -187.976723 
L 408.753041 -190.094798 
L 408.620387 -192.212874 
L 408.465616 -194.33095 
L 408.2871 -196.449026 
L 408.083469 -198.567101 
L 407.853659 -200.685177 
L 407.596943 -202.803253 
L 407.31294 -204.921329 
L 407.001619 -207.039405 
L 406.663274 -209.15748 
L 406.298498 -211.275556 
L 405.908148 -213.393632 
L 405.493312 -215.511708 
L 405.055282 -217.629783 
L 404.595539 -219.747859 
L 404.115745 -221.865935 
L 403.617749 -223.984011 
L 403.103588 -226.102087 
L 402.575485 -228.220162 
L 402.035832 -230.338238 
L 401.487142 -232.456314 
L 400.931969 -234.57439 
L 400.372797 -236.692465 
L 399.811886 -238.810541 
L 399.251107 -240.928617 
L 398.691757 -243.046693 
L 398.134397 -245.164769 
L 397.578722 -247.282844 
L 397.023488 -249.40092 
L 396.466526 -251.518996 
L 395.904839 -253.637072 
L 395.334803 -255.755147 
L 394.752456 -257.873223 
L 394.153863 -259.991299 
L 393.535527 -262.109375 
L 392.894817 -264.227451 
L 392.230371 -266.345526 
L 391.54244 -268.463602 
L 390.833129 -270.581678 
L 390.106515 -272.699754 
L 389.368618 -274.81783 
L 388.627219 -276.935905 
L 387.891532 -279.053981 
L 387.171752 -281.172057 
L 386.478509 -283.290133 
L 385.822271 -285.408208 
L 385.212741 -287.526284 
L 384.658299 -289.64436 
L 384.165539 -291.762436 
L 383.738933 -293.880512 
L 383.380663 -295.998587 
L 383.090623 -298.116663 
L 382.866607 -300.234739 
L 382.704652 -302.352815 
L 382.599529 -304.47089 
L 382.54531 -306.588966 
L 382.536 -308.707042 
L 382.566144 -310.825118 
L 382.631383 -312.943194 
L 382.728907 -315.061269 
L 382.857753 -317.179345 
L 383.018953 -319.297421 
L 383.21549 -321.415497 
L 383.452099 -323.533572 
L 383.7349 -325.651648 
L 384.070926 -327.769724 
L 384.467555 -329.8878 
L 384.93191 -332.005876 
L 385.470263 -334.123951 
L 386.087485 -336.242027 
L 386.786575 -338.360103 
L 387.568307 -340.478179 
L 388.431001 -342.596255 
L 389.370431 -344.71433 
L 390.379883 -346.832406 
L 391.45033 -348.950482 
L 392.570734 -351.068558 
L 393.728439 -353.186633 
L 394.909633 -355.304709 
L 396.099856 -357.422785 
L 397.284521 -359.540861 
L 398.449424 -361.658937 
L 399.581223 -363.777012 
L 400.667847 -365.895088 
L 401.698841 -368.013164 
L 402.665619 -370.13124 
L 403.561621 -372.249315 
L 404.382375 -374.367391 
L 405.125467 -376.485467 
L 405.790425 -378.603543 
L 406.378542 -380.721619 
L 406.89263 -382.839694 
L 407.336754 -384.95777 
L 407.715937 -387.075846 
L 408.035865 -389.193922 
L 408.30261 -391.311997 
L 408.522378 -393.430073 
L 408.701289 -395.548149 
L 409.938711 -395.548149 
L 409.938711 -395.548149 
L 410.117622 -393.430073 
L 410.33739 -391.311997 
L 410.604135 -389.193922 
L 410.924063 -387.075846 
L 411.303246 -384.95777 
L 411.74737 -382.839694 
L 412.261458 -380.721619 
L 412.849575 -378.603543 
L 413.514533 -376.485467 
L 414.257625 -374.367391 
L 415.078379 -372.249315 
L 415.974381 -370.13124 
L 416.941159 -368.013164 
L 417.972153 -365.895088 
L 419.058777 -363.777012 
L 420.190576 -361.658937 
L 421.355479 -359.540861 
L 422.540144 -357.422785 
L 423.730367 -355.304709 
L 424.911561 -353.186633 
L 426.069266 -351.068558 
L 427.18967 -348.950482 
L 428.260117 -346.832406 
L 429.269569 -344.71433 
L 430.208999 -342.596255 
L 431.071693 -340.478179 
L 431.853425 -338.360103 
L 432.552515 -336.242027 
L 433.169737 -334.123951 
L 433.70809 -332.005876 
L 434.172445 -329.8878 
L 434.569074 -327.769724 
L 434.9051 -325.651648 
L 435.187901 -323.533572 
L 435.42451 -321.415497 
L 435.621047 -319.297421 
L 435.782247 -317.179345 
L 435.911093 -315.061269 
L 436.008617 -312.943194 
L 436.073856 -310.825118 
L 436.104 -308.707042 
L 436.09469 -306.588966 
L 436.040471 -304.47089 
L 435.935348 -302.352815 
L 435.773393 -300.234739 
L 435.549377 -298.116663 
L 435.259337 -295.998587 
L 434.901067 -293.880512 
L 434.474461 -291.762436 
L 433.981701 -289.64436 
L 433.427259 -287.526284 
L 432.817729 -285.408208 
L 432.161491 -283.290133 
L 431.468248 -281.172057 
L 430.748468 -279.053981 
L 430.012781 -276.935905 
L 429.271382 -274.81783 
L 428.533485 -272.699754 
L 427.806871 -270.581678 
L 427.09756 -268.463602 
L 426.409629 -266.345526 
L 425.745183 -264.227451 
L 425.104473 -262.109375 
L 424.486137 -259.991299 
L 423.887544 -257.873223 
L 423.305197 -255.755147 
L 422.735161 -253.637072 
L 422.173474 -251.518996 
L 421.616512 -249.40092 
L 421.061278 -247.282844 
L 420.505603 -245.164769 
L 419.948243 -243.046693 
L 419.388893 -240.928617 
L 418.828114 -238.810541 
L 418.267203 -236.692465 
L 417.708031 -234.57439 
L 417.152858 -232.456314 
L 416.604168 -230.338238 
L 416.064515 -228.220162 
L 415.536412 -226.102087 
L 415.022251 -223.984011 
L 414.524255 -221.865935 
L 414.044461 -219.747859 
L 413.584718 -217.629783 
L 413.146688 -215.511708 
L 412.731852 -213.393632 
L 412.341502 -211.275556 
L 411.976726 -209.15748 
L 411.638381 -207.039405 
L 411.32706 -204.921329 
L 411.043057 -202.803253 
L 410.786341 -200.685177 
L 410.556531 -198.567101 
L 410.3529 -196.449026 
L 410.174384 -194.33095 
L 410.019613 -192.212874 
L 409.886959 -190.094798 
L 409.774595 -187.976723 
L 409.68056 -185.858647 
z
" style="stroke: #5f5f5f; stroke-width: 1.25"/>
    </defs>
    <g clip-path="url(#p9a6084c9e4)">
     <use xlink:href="#ma6ef470e91" x="0" y="576" style="fill: #8aafc9; stroke: #5f5f5f; stroke-width: 1.25"/>
    </g>
   </g>
   <g id="PolyCollection_6">
    <defs>
     <path id="mb9cc27962c" d="M 476.715656 -252.702819 
L 475.844344 -252.702819 
L 475.72295 -253.840939 
L 475.576452 -254.97906 
L 475.40221 -256.11718 
L 475.197975 -257.255301 
L 474.962064 -258.393421 
L 474.693535 -259.531542 
L 474.39234 -260.669662 
L 474.059434 -261.807783 
L 473.696828 -262.945903 
L 473.307575 -264.084024 
L 472.895669 -265.222144 
L 472.465862 -266.360265 
L 472.023405 -267.498385 
L 471.573714 -268.636506 
L 471.121994 -269.774626 
L 470.672843 -270.912747 
L 470.229869 -272.050867 
L 469.795354 -273.188988 
L 469.36999 -274.327108 
L 468.952735 -275.465229 
L 468.54078 -276.603349 
L 468.129659 -277.74147 
L 467.713492 -278.87959 
L 467.285338 -280.017711 
L 466.837652 -281.155832 
L 466.362794 -282.293952 
L 465.853561 -283.432073 
L 465.303705 -284.570193 
L 464.70839 -285.708314 
L 464.064562 -286.846434 
L 463.371209 -287.984555 
L 462.629496 -289.122675 
L 461.842767 -290.260796 
L 461.016434 -291.398916 
L 460.157751 -292.537037 
L 459.275511 -293.675157 
L 458.379674 -294.813278 
L 457.480971 -295.951398 
L 456.590482 -297.089519 
L 455.719243 -298.227639 
L 454.877861 -299.36576 
L 454.076193 -300.50388 
L 453.323069 -301.642001 
L 452.626087 -302.780121 
L 451.991483 -303.918242 
L 451.424086 -305.056362 
L 450.92735 -306.194483 
L 450.503479 -307.332603 
L 450.153624 -308.470724 
L 449.878142 -309.608844 
L 449.676901 -310.746965 
L 449.549586 -311.885085 
L 449.496 -313.023206 
L 449.51629 -314.161326 
L 449.611093 -315.299447 
L 449.781563 -316.437567 
L 450.029262 -317.575688 
L 450.355924 -318.713808 
L 450.763109 -319.851929 
L 451.251773 -320.990049 
L 451.821816 -322.12817 
L 452.471652 -323.26629 
L 453.197867 -324.404411 
L 453.995008 -325.542531 
L 454.855545 -326.680652 
L 455.770021 -327.818773 
L 456.727381 -328.956893 
L 457.715468 -330.095014 
L 458.721613 -331.233134 
L 459.733292 -332.371255 
L 460.738756 -333.509375 
L 461.727595 -334.647496 
L 462.691165 -335.785616 
L 463.622853 -336.923737 
L 464.51816 -338.061857 
L 465.374606 -339.199978 
L 466.191482 -340.338098 
L 466.969481 -341.476219 
L 467.710261 -342.614339 
L 468.415997 -343.75246 
L 469.088951 -344.89058 
L 469.731117 -346.028701 
L 470.343964 -347.166821 
L 470.928291 -348.304942 
L 471.484185 -349.443062 
L 472.011091 -350.581183 
L 472.507959 -351.719303 
L 472.973434 -352.857424 
L 473.406087 -353.995544 
L 473.804627 -355.133665 
L 474.168097 -356.271785 
L 474.496019 -357.409906 
L 474.788493 -358.548026 
L 475.046232 -359.686147 
L 475.270549 -360.824267 
L 475.463291 -361.962388 
L 475.626753 -363.100508 
L 475.76355 -364.238629 
L 475.876504 -365.376749 
L 476.683496 -365.376749 
L 476.683496 -365.376749 
L 476.79645 -364.238629 
L 476.933247 -363.100508 
L 477.096709 -361.962388 
L 477.289451 -360.824267 
L 477.513768 -359.686147 
L 477.771507 -358.548026 
L 478.063981 -357.409906 
L 478.391903 -356.271785 
L 478.755373 -355.133665 
L 479.153913 -353.995544 
L 479.586566 -352.857424 
L 480.052041 -351.719303 
L 480.548909 -350.581183 
L 481.075815 -349.443062 
L 481.631709 -348.304942 
L 482.216036 -347.166821 
L 482.828883 -346.028701 
L 483.471049 -344.89058 
L 484.144003 -343.75246 
L 484.849739 -342.614339 
L 485.590519 -341.476219 
L 486.368518 -340.338098 
L 487.185394 -339.199978 
L 488.04184 -338.061857 
L 488.937147 -336.923737 
L 489.868835 -335.785616 
L 490.832405 -334.647496 
L 491.821244 -333.509375 
L 492.826708 -332.371255 
L 493.838387 -331.233134 
L 494.844532 -330.095014 
L 495.832619 -328.956893 
L 496.789979 -327.818773 
L 497.704455 -326.680652 
L 498.564992 -325.542531 
L 499.362133 -324.404411 
L 500.088348 -323.26629 
L 500.738184 -322.12817 
L 501.308227 -320.990049 
L 501.796891 -319.851929 
L 502.204076 -318.713808 
L 502.530738 -317.575688 
L 502.778437 -316.437567 
L 502.948907 -315.299447 
L 503.04371 -314.161326 
L 503.064 -313.023206 
L 503.010414 -311.885085 
L 502.883099 -310.746965 
L 502.681858 -309.608844 
L 502.406376 -308.470724 
L 502.056521 -307.332603 
L 501.63265 -306.194483 
L 501.135914 -305.056362 
L 500.568517 -303.918242 
L 499.933913 -302.780121 
L 499.236931 -301.642001 
L 498.483807 -300.50388 
L 497.682139 -299.36576 
L 496.840757 -298.227639 
L 495.969518 -297.089519 
L 495.079029 -295.951398 
L 494.180326 -294.813278 
L 493.284489 -293.675157 
L 492.402249 -292.537037 
L 491.543566 -291.398916 
L 490.717233 -290.260796 
L 489.930504 -289.122675 
L 489.188791 -287.984555 
L 488.495438 -286.846434 
L 487.85161 -285.708314 
L 487.256295 -284.570193 
L 486.706439 -283.432073 
L 486.197206 -282.293952 
L 485.722348 -281.155832 
L 485.274662 -280.017711 
L 484.846508 -278.87959 
L 484.430341 -277.74147 
L 484.01922 -276.603349 
L 483.607265 -275.465229 
L 483.19001 -274.327108 
L 482.764646 -273.188988 
L 482.330131 -272.050867 
L 481.887157 -270.912747 
L 481.438006 -269.774626 
L 480.986286 -268.636506 
L 480.536595 -267.498385 
L 480.094138 -266.360265 
L 479.664331 -265.222144 
L 479.252425 -264.084024 
L 478.863172 -262.945903 
L 478.500566 -261.807783 
L 478.16766 -260.669662 
L 477.866465 -259.531542 
L 477.597936 -258.393421 
L 477.362025 -257.255301 
L 477.15779 -256.11718 
L 476.983548 -254.97906 
L 476.83705 -253.840939 
L 476.715656 -252.702819 
z
" style="stroke: #5f5f5f; stroke-width: 1.25"/>
    </defs>
    <g clip-path="url(#p9a6084c9e4)">
     <use xlink:href="#mb9cc27962c" x="0" y="576" style="fill: #eab375; stroke: #5f5f5f; stroke-width: 1.25"/>
    </g>
   </g>
   <g id="PolyCollection_7">
    <defs>
     <path id="m445768e766" d="M 543.526694 -256.501102 
L 542.953306 -256.501102 
L 542.876558 -257.38176 
L 542.785377 -258.262418 
L 542.678765 -259.143075 
L 542.556079 -260.023733 
L 542.417111 -260.904391 
L 542.262146 -261.785048 
L 542.091978 -262.665706 
L 541.9079 -263.546364 
L 541.711632 -264.427021 
L 541.505221 -265.307679 
L 541.290893 -266.188337 
L 541.070881 -267.068994 
L 540.847249 -267.949652 
L 540.621715 -268.83031 
L 540.395508 -269.710968 
L 540.169256 -270.591625 
L 539.942941 -271.472283 
L 539.715892 -272.352941 
L 539.486842 -273.233598 
L 539.254024 -274.114256 
L 539.015289 -274.994914 
L 538.76824 -275.875571 
L 538.510355 -276.756229 
L 538.239095 -277.636887 
L 537.951982 -278.517544 
L 537.646656 -279.398202 
L 537.320913 -280.27886 
L 536.972734 -281.159518 
L 536.600322 -282.040175 
L 536.20215 -282.920833 
L 535.777019 -283.801491 
L 535.324139 -284.682148 
L 534.843193 -285.562806 
L 534.334394 -286.443464 
L 533.798486 -287.324121 
L 533.2367 -288.204779 
L 532.650627 -289.085437 
L 532.042034 -289.966094 
L 531.412626 -290.846752 
L 530.763794 -291.72741 
L 530.096381 -292.608068 
L 529.410531 -293.488725 
L 528.705648 -294.369383 
L 527.980502 -295.250041 
L 527.233506 -296.130698 
L 526.463144 -297.011356 
L 525.668533 -297.892014 
L 524.850041 -298.772671 
L 524.009923 -299.653329 
L 523.152873 -300.533987 
L 522.286432 -301.414644 
L 521.421183 -302.295302 
L 520.570697 -303.17596 
L 519.751213 -304.056618 
L 518.981052 -304.937275 
L 518.279812 -305.817933 
L 517.667405 -306.698591 
L 517.16299 -307.579248 
L 516.783898 -308.459906 
L 516.544631 -309.340564 
L 516.456 -310.221221 
L 516.524473 -311.101879 
L 516.751778 -311.982537 
L 517.134794 -312.863194 
L 517.665727 -313.743852 
L 518.332575 -314.62451 
L 519.119823 -315.505168 
L 520.009341 -316.385825 
L 520.981401 -317.266483 
L 522.015743 -318.147141 
L 523.092603 -319.027798 
L 524.193633 -319.908456 
L 525.30264 -320.789114 
L 526.406093 -321.669771 
L 527.49338 -322.550429 
L 528.5568 -323.431087 
L 529.591318 -324.311744 
L 530.594135 -325.192402 
L 531.564123 -326.07306 
L 532.501207 -326.953718 
L 533.405762 -327.834375 
L 534.278082 -328.715033 
L 535.117991 -329.595691 
L 535.924597 -330.476348 
L 536.696224 -331.357006 
L 537.430491 -332.237664 
L 538.124515 -333.118321 
L 538.775207 -333.998979 
L 539.379592 -334.879637 
L 539.935132 -335.760294 
L 540.440002 -336.640952 
L 540.893286 -337.52161 
L 541.295095 -338.402268 
L 541.646585 -339.282925 
L 541.949891 -340.163583 
L 542.207995 -341.044241 
L 542.424546 -341.924898 
L 542.603647 -342.805556 
L 542.74965 -343.686214 
L 543.73035 -343.686214 
L 543.73035 -343.686214 
L 543.876353 -342.805556 
L 544.055454 -341.924898 
L 544.272005 -341.044241 
L 544.530109 -340.163583 
L 544.833415 -339.282925 
L 545.184905 -338.402268 
L 545.586714 -337.52161 
L 546.039998 -336.640952 
L 546.544868 -335.760294 
L 547.100408 -334.879637 
L 547.704793 -333.998979 
L 548.355485 -333.118321 
L 549.049509 -332.237664 
L 549.783776 -331.357006 
L 550.555403 -330.476348 
L 551.362009 -329.595691 
L 552.201918 -328.715033 
L 553.074238 -327.834375 
L 553.978793 -326.953718 
L 554.915877 -326.07306 
L 555.885865 -325.192402 
L 556.888682 -324.311744 
L 557.9232 -323.431087 
L 558.98662 -322.550429 
L 560.073907 -321.669771 
L 561.17736 -320.789114 
L 562.286367 -319.908456 
L 563.387397 -319.027798 
L 564.464257 -318.147141 
L 565.498599 -317.266483 
L 566.470659 -316.385825 
L 567.360177 -315.505168 
L 568.147425 -314.62451 
L 568.814273 -313.743852 
L 569.345206 -312.863194 
L 569.728222 -311.982537 
L 569.955527 -311.101879 
L 570.024 -310.221221 
L 569.935369 -309.340564 
L 569.696102 -308.459906 
L 569.31701 -307.579248 
L 568.812595 -306.698591 
L 568.200188 -305.817933 
L 567.498948 -304.937275 
L 566.728787 -304.056618 
L 565.909303 -303.17596 
L 565.058817 -302.295302 
L 564.193568 -301.414644 
L 563.327127 -300.533987 
L 562.470077 -299.653329 
L 561.629959 -298.772671 
L 560.811467 -297.892014 
L 560.016856 -297.011356 
L 559.246494 -296.130698 
L 558.499498 -295.250041 
L 557.774352 -294.369383 
L 557.069469 -293.488725 
L 556.383619 -292.608068 
L 555.716206 -291.72741 
L 555.067374 -290.846752 
L 554.437966 -289.966094 
L 553.829373 -289.085437 
L 553.2433 -288.204779 
L 552.681514 -287.324121 
L 552.145606 -286.443464 
L 551.636807 -285.562806 
L 551.155861 -284.682148 
L 550.702981 -283.801491 
L 550.27785 -282.920833 
L 549.879678 -282.040175 
L 549.507266 -281.159518 
L 549.159087 -280.27886 
L 548.833344 -279.398202 
L 548.528018 -278.517544 
L 548.240905 -277.636887 
L 547.969645 -276.756229 
L 547.71176 -275.875571 
L 547.464711 -274.994914 
L 547.225976 -274.114256 
L 546.993158 -273.233598 
L 546.764108 -272.352941 
L 546.537059 -271.472283 
L 546.310744 -270.591625 
L 546.084492 -269.710968 
L 545.858285 -268.83031 
L 545.632751 -267.949652 
L 545.409119 -267.068994 
L 545.189107 -266.188337 
L 544.974779 -265.307679 
L 544.768368 -264.427021 
L 544.5721 -263.546364 
L 544.388022 -262.665706 
L 544.217854 -261.785048 
L 544.062889 -260.904391 
L 543.923921 -260.023733 
L 543.801235 -259.143075 
L 543.694623 -258.262418 
L 543.603442 -257.38176 
L 543.526694 -256.501102 
z
" style="stroke: #5f5f5f; stroke-width: 1.25"/>
    </defs>
    <g clip-path="url(#p9a6084c9e4)">
     <use xlink:href="#m445768e766" x="0" y="576" style="fill: #afcf78; stroke: #5f5f5f; stroke-width: 1.25"/>
    </g>
   </g>
   <g id="PolyCollection_8">
    <defs>
     <path id="m33d2cbbbf8" d="M 610.488014 -253.053741 
L 609.911986 -253.053741 
L 609.831864 -254.029678 
L 609.736653 -255.005615 
L 609.625677 -255.981551 
L 609.498836 -256.957488 
L 609.356715 -257.933425 
L 609.200646 -258.909362 
L 609.03271 -259.885299 
L 608.855659 -260.861235 
L 608.67276 -261.837172 
L 608.48756 -262.813109 
L 608.303573 -263.789046 
L 608.123947 -264.764982 
L 607.951108 -265.740919 
L 607.786441 -266.716856 
L 607.630054 -267.692793 
L 607.480637 -268.66873 
L 607.335469 -269.644666 
L 607.190565 -270.620603 
L 607.040962 -271.59654 
L 606.881117 -272.572477 
L 606.705376 -273.548414 
L 606.508454 -274.52435 
L 606.285871 -275.500287 
L 606.034283 -276.476224 
L 605.751656 -277.452161 
L 605.437255 -278.428098 
L 605.091439 -279.404034 
L 604.715274 -280.379971 
L 604.310011 -281.355908 
L 603.876492 -282.331845 
L 603.414554 -283.307781 
L 602.922547 -284.283718 
L 602.397014 -285.259655 
L 601.832643 -286.235592 
L 601.222512 -287.211529 
L 600.55865 -288.187465 
L 599.83289 -289.163402 
L 599.037939 -290.139339 
L 598.168566 -291.115276 
L 597.222762 -292.091213 
L 596.202738 -293.067149 
L 595.115608 -294.043086 
L 593.973645 -295.019023 
L 592.794044 -295.99496 
L 591.59817 -296.970896 
L 590.41035 -297.946833 
L 589.256325 -298.92277 
L 588.161531 -299.898707 
L 587.149393 -300.874644 
L 586.239845 -301.85058 
L 585.44823 -302.826517 
L 584.784707 -303.802454 
L 584.254213 -304.778391 
L 583.856938 -305.754328 
L 583.589241 -306.730264 
L 583.444824 -307.706201 
L 583.416 -308.682138 
L 583.494869 -309.658075 
L 583.674253 -310.634011 
L 583.948275 -311.609948 
L 584.312559 -312.585885 
L 584.764054 -313.561822 
L 585.300572 -314.537759 
L 585.920146 -315.513695 
L 586.62034 -316.489632 
L 587.397621 -317.465569 
L 588.246902 -318.441506 
L 589.16131 -319.417443 
L 590.132189 -320.393379 
L 591.149333 -321.369316 
L 592.201396 -322.345253 
L 593.276403 -323.32119 
L 594.362308 -324.297126 
L 595.447518 -325.273063 
L 596.521343 -326.249 
L 597.574326 -327.224937 
L 598.59845 -328.200874 
L 599.58721 -329.17681 
L 600.535573 -330.152747 
L 601.439858 -331.128684 
L 602.29754 -332.104621 
L 603.10704 -333.080558 
L 603.8675 -334.056494 
L 604.578585 -335.032431 
L 605.240317 -336.008368 
L 605.852966 -336.984305 
L 606.416975 -337.960241 
L 606.932949 -338.936178 
L 607.401665 -339.912115 
L 607.824123 -340.888052 
L 608.201592 -341.863989 
L 608.535663 -342.839925 
L 608.828283 -343.815862 
L 609.081762 -344.791799 
L 609.298753 -345.767736 
L 609.482206 -346.743673 
L 609.635292 -347.719609 
L 609.761316 -348.695546 
L 609.863618 -349.671483 
L 610.536382 -349.671483 
L 610.536382 -349.671483 
L 610.638684 -348.695546 
L 610.764708 -347.719609 
L 610.917794 -346.743673 
L 611.101247 -345.767736 
L 611.318238 -344.791799 
L 611.571717 -343.815862 
L 611.864337 -342.839925 
L 612.198408 -341.863989 
L 612.575877 -340.888052 
L 612.998335 -339.912115 
L 613.467051 -338.936178 
L 613.983025 -337.960241 
L 614.547034 -336.984305 
L 615.159683 -336.008368 
L 615.821415 -335.032431 
L 616.5325 -334.056494 
L 617.29296 -333.080558 
L 618.10246 -332.104621 
L 618.960142 -331.128684 
L 619.864427 -330.152747 
L 620.81279 -329.17681 
L 621.80155 -328.200874 
L 622.825674 -327.224937 
L 623.878657 -326.249 
L 624.952482 -325.273063 
L 626.037692 -324.297126 
L 627.123597 -323.32119 
L 628.198604 -322.345253 
L 629.250667 -321.369316 
L 630.267811 -320.393379 
L 631.23869 -319.417443 
L 632.153098 -318.441506 
L 633.002379 -317.465569 
L 633.77966 -316.489632 
L 634.479854 -315.513695 
L 635.099428 -314.537759 
L 635.635946 -313.561822 
L 636.087441 -312.585885 
L 636.451725 -311.609948 
L 636.725747 -310.634011 
L 636.905131 -309.658075 
L 636.984 -308.682138 
L 636.955176 -307.706201 
L 636.810759 -306.730264 
L 636.543062 -305.754328 
L 636.145787 -304.778391 
L 635.615293 -303.802454 
L 634.95177 -302.826517 
L 634.160155 -301.85058 
L 633.250607 -300.874644 
L 632.238469 -299.898707 
L 631.143675 -298.92277 
L 629.98965 -297.946833 
L 628.80183 -296.970896 
L 627.605956 -295.99496 
L 626.426355 -295.019023 
L 625.284392 -294.043086 
L 624.197262 -293.067149 
L 623.177238 -292.091213 
L 622.231434 -291.115276 
L 621.362061 -290.139339 
L 620.56711 -289.163402 
L 619.84135 -288.187465 
L 619.177488 -287.211529 
L 618.567357 -286.235592 
L 618.002986 -285.259655 
L 617.477453 -284.283718 
L 616.985446 -283.307781 
L 616.523508 -282.331845 
L 616.089989 -281.355908 
L 615.684726 -280.379971 
L 615.308561 -279.404034 
L 614.962745 -278.428098 
L 614.648344 -277.452161 
L 614.365717 -276.476224 
L 614.114129 -275.500287 
L 613.891546 -274.52435 
L 613.694624 -273.548414 
L 613.518883 -272.572477 
L 613.359038 -271.59654 
L 613.209435 -270.620603 
L 613.064531 -269.644666 
L 612.919363 -268.66873 
L 612.769946 -267.692793 
L 612.613559 -266.716856 
L 612.448892 -265.740919 
L 612.276053 -264.764982 
L 612.096427 -263.789046 
L 611.91244 -262.813109 
L 611.72724 -261.837172 
L 611.544341 -260.861235 
L 611.36729 -259.885299 
L 611.199354 -258.909362 
L 611.043285 -257.933425 
L 610.901164 -256.957488 
L 610.774323 -255.981551 
L 610.663347 -255.005615 
L 610.568136 -254.029678 
L 610.488014 -253.053741 
z
" style="stroke: #5f5f5f; stroke-width: 1.25"/>
    </defs>
    <g clip-path="url(#p9a6084c9e4)">
     <use xlink:href="#m33d2cbbbf8" x="0" y="576" style="fill: #f6d3e5; stroke: #5f5f5f; stroke-width: 1.25"/>
    </g>
   </g>
   <g id="PolyCollection_9">
    <defs>
     <path id="m9cc2c135f9" d="M 677.624962 -83.52 
L 676.695038 -83.52 
L 676.570871 -87.592727 
L 676.420199 -91.665455 
L 676.239137 -95.738182 
L 676.02365 -99.810909 
L 675.769636 -103.883636 
L 675.473043 -107.956364 
L 675.13 -112.029091 
L 674.736964 -116.101818 
L 674.290886 -120.174545 
L 673.789388 -124.247273 
L 673.230937 -128.32 
L 672.615019 -132.392727 
L 671.942299 -136.465455 
L 671.214746 -140.538182 
L 670.435728 -144.610909 
L 669.610043 -148.683636 
L 668.743889 -152.756364 
L 667.844761 -156.829091 
L 666.921264 -160.901818 
L 665.982842 -164.974545 
L 665.039438 -169.047273 
L 664.101091 -173.12 
L 663.177495 -177.192727 
L 662.277542 -181.265455 
L 661.408893 -185.338182 
L 660.577605 -189.410909 
L 659.787845 -193.483636 
L 659.041732 -197.556364 
L 658.339316 -201.629091 
L 657.678715 -205.701818 
L 657.056404 -209.774545 
L 656.467638 -213.847273 
L 655.906987 -217.92 
L 655.368934 -221.992727 
L 654.848498 -226.065455 
L 654.341815 -230.138182 
L 653.846642 -234.210909 
L 653.362729 -238.283636 
L 652.892024 -242.356364 
L 652.438688 -246.429091 
L 652.008913 -250.501818 
L 651.610558 -254.574545 
L 651.252613 -258.647273 
L 650.944546 -262.72 
L 650.695571 -266.792727 
L 650.51389 -270.865455 
L 650.405987 -274.938182 
L 650.376 -279.010909 
L 650.42525 -283.083636 
L 650.551948 -287.156364 
L 650.751111 -291.229091 
L 651.014712 -295.301818 
L 651.332032 -299.374545 
L 651.690231 -303.447273 
L 652.075063 -307.52 
L 652.471729 -311.592727 
L 652.865775 -315.665455 
L 653.244004 -319.738182 
L 653.595327 -323.810909 
L 653.911491 -327.883636 
L 654.18765 -331.956364 
L 654.422719 -336.029091 
L 654.619507 -340.101818 
L 654.784599 -344.174545 
L 654.928007 -348.247273 
L 655.062605 -352.32 
L 655.20338 -356.392727 
L 655.366564 -360.465455 
L 655.568671 -364.538182 
L 655.825536 -368.610909 
L 656.151388 -372.683636 
L 656.558023 -376.756364 
L 657.054135 -380.829091 
L 657.644826 -384.901818 
L 658.331336 -388.974545 
L 659.110989 -393.047273 
L 659.97736 -397.12 
L 660.920638 -401.192727 
L 661.928158 -405.265455 
L 662.985052 -409.338182 
L 664.07499 -413.410909 
L 665.180942 -417.483636 
L 666.28593 -421.556364 
L 667.373719 -425.629091 
L 668.429414 -429.701818 
L 669.439941 -433.774545 
L 670.394396 -437.847273 
L 671.284248 -441.92 
L 672.103413 -445.992727 
L 672.848207 -450.065455 
L 673.51719 -454.138182 
L 674.110933 -458.210909 
L 674.631723 -462.283636 
L 675.083243 -466.356364 
L 675.470232 -470.429091 
L 675.798159 -474.501818 
L 676.07292 -478.574545 
L 676.300569 -482.647273 
L 676.487098 -486.72 
L 677.832902 -486.72 
L 677.832902 -486.72 
L 678.019431 -482.647273 
L 678.24708 -478.574545 
L 678.521841 -474.501818 
L 678.849768 -470.429091 
L 679.236757 -466.356364 
L 679.688277 -462.283636 
L 680.209067 -458.210909 
L 680.80281 -454.138182 
L 681.471793 -450.065455 
L 682.216587 -445.992727 
L 683.035752 -441.92 
L 683.925604 -437.847273 
L 684.880059 -433.774545 
L 685.890586 -429.701818 
L 686.946281 -425.629091 
L 688.03407 -421.556364 
L 689.139058 -417.483636 
L 690.24501 -413.410909 
L 691.334948 -409.338182 
L 692.391842 -405.265455 
L 693.399362 -401.192727 
L 694.34264 -397.12 
L 695.209011 -393.047273 
L 695.988664 -388.974545 
L 696.675174 -384.901818 
L 697.265865 -380.829091 
L 697.761977 -376.756364 
L 698.168612 -372.683636 
L 698.494464 -368.610909 
L 698.751329 -364.538182 
L 698.953436 -360.465455 
L 699.11662 -356.392727 
L 699.257395 -352.32 
L 699.391993 -348.247273 
L 699.535401 -344.174545 
L 699.700493 -340.101818 
L 699.897281 -336.029091 
L 700.13235 -331.956364 
L 700.408509 -327.883636 
L 700.724673 -323.810909 
L 701.075996 -319.738182 
L 701.454225 -315.665455 
L 701.848271 -311.592727 
L 702.244937 -307.52 
L 702.629769 -303.447273 
L 702.987968 -299.374545 
L 703.305288 -295.301818 
L 703.568889 -291.229091 
L 703.768052 -287.156364 
L 703.89475 -283.083636 
L 703.944 -279.010909 
L 703.914013 -274.938182 
L 703.80611 -270.865455 
L 703.624429 -266.792727 
L 703.375454 -262.72 
L 703.067387 -258.647273 
L 702.709442 -254.574545 
L 702.311087 -250.501818 
L 701.881312 -246.429091 
L 701.427976 -242.356364 
L 700.957271 -238.283636 
L 700.473358 -234.210909 
L 699.978185 -230.138182 
L 699.471502 -226.065455 
L 698.951066 -221.992727 
L 698.413013 -217.92 
L 697.852362 -213.847273 
L 697.263596 -209.774545 
L 696.641285 -205.701818 
L 695.980684 -201.629091 
L 695.278268 -197.556364 
L 694.532155 -193.483636 
L 693.742395 -189.410909 
L 692.911107 -185.338182 
L 692.042458 -181.265455 
L 691.142505 -177.192727 
L 690.218909 -173.12 
L 689.280562 -169.047273 
L 688.337158 -164.974545 
L 687.398736 -160.901818 
L 686.475239 -156.829091 
L 685.576111 -152.756364 
L 684.709957 -148.683636 
L 683.884272 -144.610909 
L 683.105254 -140.538182 
L 682.377701 -136.465455 
L 681.704981 -132.392727 
L 681.089063 -128.32 
L 680.530612 -124.247273 
L 680.029114 -120.174545 
L 679.583036 -116.101818 
L 679.19 -112.029091 
L 678.846957 -107.956364 
L 678.550364 -103.883636 
L 678.29635 -99.810909 
L 678.080863 -95.738182 
L 677.899801 -91.665455 
L 677.749129 -87.592727 
L 677.624962 -83.52 
z
" style="stroke: #5f5f5f; stroke-width: 1.25"/>
    </defs>
    <g clip-path="url(#p9a6084c9e4)">
     <use xlink:href="#m9cc2c135f9" x="0" y="576" style="fill: #d9d9d9; stroke: #5f5f5f; stroke-width: 1.25"/>
    </g>
   </g>
   <g id="PolyCollection_10">
    <defs>
     <path id="mc561df4a6c" d="M 744.568225 -256.232943 
L 743.671775 -256.232943 
L 743.554261 -257.094664 
L 743.413044 -257.956386 
L 743.245278 -258.818107 
L 743.048236 -259.679828 
L 742.81944 -260.54155 
L 742.556784 -261.403271 
L 742.258669 -262.264993 
L 741.924133 -263.126714 
L 741.552958 -263.988435 
L 741.145766 -264.850157 
L 740.704071 -265.711878 
L 740.2303 -266.5736 
L 739.727765 -267.435321 
L 739.200587 -268.297042 
L 738.653572 -269.158764 
L 738.092036 -270.020485 
L 737.521597 -270.882206 
L 736.947929 -271.743928 
L 736.376504 -272.605649 
L 735.812327 -273.467371 
L 735.259683 -274.329092 
L 734.721916 -275.190813 
L 734.201253 -276.052535 
L 733.698676 -276.914256 
L 733.213875 -277.775978 
L 732.745266 -278.637699 
L 732.290076 -279.49942 
L 731.84451 -280.361142 
L 731.403964 -281.222863 
L 730.963292 -282.084585 
L 730.517086 -282.946306 
L 730.059986 -283.808027 
L 729.58696 -284.669749 
L 729.093571 -285.53147 
L 728.576205 -286.393191 
L 728.032246 -287.254913 
L 727.460214 -288.116634 
L 726.859841 -288.978356 
L 726.232117 -289.840077 
L 725.579295 -290.701798 
L 724.904871 -291.56352 
L 724.213547 -292.425241 
L 723.511175 -293.286963 
L 722.804691 -294.148684 
L 722.102027 -295.010405 
L 721.412001 -295.872127 
L 720.744167 -296.733848 
L 720.108624 -297.595569 
L 719.515767 -298.457291 
L 718.975986 -299.319012 
L 718.499304 -300.180734 
L 718.094976 -301.042455 
L 717.771067 -301.904176 
L 717.534024 -302.765898 
L 717.388292 -303.627619 
L 717.336 -304.489341 
L 717.376752 -305.351062 
L 717.507557 -306.212783 
L 717.722918 -307.074505 
L 718.015087 -307.936226 
L 718.374485 -308.797948 
L 718.790261 -309.659669 
L 719.250964 -310.52139 
L 719.745274 -311.383112 
L 720.262732 -312.244833 
L 720.794425 -313.106554 
L 721.333551 -313.968276 
L 721.87582 -314.829997 
L 722.419667 -315.691719 
L 722.966221 -316.55344 
L 723.519076 -317.415161 
L 724.083829 -318.276883 
L 724.667474 -319.138604 
L 725.277653 -320.000326 
L 725.921873 -320.862047 
L 726.606714 -321.723768 
L 727.337126 -322.58549 
L 728.115857 -323.447211 
L 728.94305 -324.308933 
L 729.81606 -325.170654 
L 730.729476 -326.032375 
L 731.675353 -326.894097 
L 732.643623 -327.755818 
L 733.622642 -328.617539 
L 734.599828 -329.479261 
L 735.562337 -330.340982 
L 736.497717 -331.202704 
L 737.394501 -332.064425 
L 738.242699 -332.926146 
L 739.034161 -333.787868 
L 739.762808 -334.649589 
L 740.424714 -335.511311 
L 741.018061 -336.373032 
L 741.542992 -337.234753 
L 742.001369 -338.096475 
L 742.396477 -338.958196 
L 742.732698 -339.819917 
L 743.015184 -340.681639 
L 743.249535 -341.54336 
L 744.990465 -341.54336 
L 744.990465 -341.54336 
L 745.224816 -340.681639 
L 745.507302 -339.819917 
L 745.843523 -338.958196 
L 746.238631 -338.096475 
L 746.697008 -337.234753 
L 747.221939 -336.373032 
L 747.815286 -335.511311 
L 748.477192 -334.649589 
L 749.205839 -333.787868 
L 749.997301 -332.926146 
L 750.845499 -332.064425 
L 751.742283 -331.202704 
L 752.677663 -330.340982 
L 753.640172 -329.479261 
L 754.617358 -328.617539 
L 755.596377 -327.755818 
L 756.564647 -326.894097 
L 757.510524 -326.032375 
L 758.42394 -325.170654 
L 759.29695 -324.308933 
L 760.124143 -323.447211 
L 760.902874 -322.58549 
L 761.633286 -321.723768 
L 762.318127 -320.862047 
L 762.962347 -320.000326 
L 763.572526 -319.138604 
L 764.156171 -318.276883 
L 764.720924 -317.415161 
L 765.273779 -316.55344 
L 765.820333 -315.691719 
L 766.36418 -314.829997 
L 766.906449 -313.968276 
L 767.445575 -313.106554 
L 767.977268 -312.244833 
L 768.494726 -311.383112 
L 768.989036 -310.52139 
L 769.449739 -309.659669 
L 769.865515 -308.797948 
L 770.224913 -307.936226 
L 770.517082 -307.074505 
L 770.732443 -306.212783 
L 770.863248 -305.351062 
L 770.904 -304.489341 
L 770.851708 -303.627619 
L 770.705976 -302.765898 
L 770.468933 -301.904176 
L 770.145024 -301.042455 
L 769.740696 -300.180734 
L 769.264014 -299.319012 
L 768.724233 -298.457291 
L 768.131376 -297.595569 
L 767.495833 -296.733848 
L 766.827999 -295.872127 
L 766.137973 -295.010405 
L 765.435309 -294.148684 
L 764.728825 -293.286963 
L 764.026453 -292.425241 
L 763.335129 -291.56352 
L 762.660705 -290.701798 
L 762.007883 -289.840077 
L 761.380159 -288.978356 
L 760.779786 -288.116634 
L 760.207754 -287.254913 
L 759.663795 -286.393191 
L 759.146429 -285.53147 
L 758.65304 -284.669749 
L 758.180014 -283.808027 
L 757.722914 -282.946306 
L 757.276708 -282.084585 
L 756.836036 -281.222863 
L 756.39549 -280.361142 
L 755.949924 -279.49942 
L 755.494734 -278.637699 
L 755.026125 -277.775978 
L 754.541324 -276.914256 
L 754.038747 -276.052535 
L 753.518084 -275.190813 
L 752.980317 -274.329092 
L 752.427673 -273.467371 
L 751.863496 -272.605649 
L 751.292071 -271.743928 
L 750.718403 -270.882206 
L 750.147964 -270.020485 
L 749.586428 -269.158764 
L 749.039413 -268.297042 
L 748.512235 -267.435321 
L 748.0097 -266.5736 
L 747.535929 -265.711878 
L 747.094234 -264.850157 
L 746.687042 -263.988435 
L 746.315867 -263.126714 
L 745.981331 -262.264993 
L 745.683216 -261.403271 
L 745.42056 -260.54155 
L 745.191764 -259.679828 
L 744.994722 -258.818107 
L 744.826956 -257.956386 
L 744.685739 -257.094664 
L 744.568225 -256.232943 
z
" style="stroke: #5f5f5f; stroke-width: 1.25"/>
    </defs>
    <g clip-path="url(#p9a6084c9e4)">
     <use xlink:href="#mc561df4a6c" x="0" y="576" style="fill: #b588b5; stroke: #5f5f5f; stroke-width: 1.25"/>
    </g>
   </g>
   <g id="line2d_8">
    <path d="M 141.48 300.333708 
L 141.48 232.698456 
" clip-path="url(#p9a6084c9e4)" style="fill: none; stroke: #5f5f5f; stroke-width: 1.875; stroke-linecap: round"/>
   </g>
   <g id="line2d_9">
    <path d="M 141.48 283.71041 
L 141.48 259.346492 
" clip-path="url(#p9a6084c9e4)" style="fill: none; stroke: #5f5f5f; stroke-width: 5.625; stroke-linecap: round"/>
   </g>
   <g id="line2d_10">
    <path d="M 141.48 269.244333 
" clip-path="url(#p9a6084c9e4)" style="fill: none; stroke: #5f5f5f; stroke-width: 1.5; stroke-linecap: round"/>
    <defs>
     <path id="md167a772c1" d="M 2.34375 0 
L -2.34375 -0 
" style="stroke: #ffffff; stroke-width: 1.125"/>
    </defs>
    <g clip-path="url(#p9a6084c9e4)">
     <use xlink:href="#md167a772c1" x="141.48" y="269.244333" style="fill: #ffffff; stroke: #ffffff; stroke-width: 1.125"/>
    </g>
   </g>
   <g id="line2d_11">
    <path d="M 208.44 301.348871 
L 208.44 217.471008 
" clip-path="url(#p9a6084c9e4)" style="fill: none; stroke: #5f5f5f; stroke-width: 1.875; stroke-linecap: round"/>
   </g>
   <g id="line2d_12">
    <path d="M 208.44 275.081522 
L 208.44 248.306591 
" clip-path="url(#p9a6084c9e4)" style="fill: none; stroke: #5f5f5f; stroke-width: 5.625; stroke-linecap: round"/>
   </g>
   <g id="line2d_13">
    <path d="M 208.44 258.965805 
" clip-path="url(#p9a6084c9e4)" style="fill: none; stroke: #5f5f5f; stroke-width: 1.5; stroke-linecap: round"/>
    <g clip-path="url(#p9a6084c9e4)">
     <use xlink:href="#md167a772c1" x="208.44" y="258.965805" style="fill: #ffffff; stroke: #ffffff; stroke-width: 1.125"/>
    </g>
   </g>
   <g id="line2d_14">
    <path d="M 275.4 302.237139 
L 275.4 227.749535 
" clip-path="url(#p9a6084c9e4)" style="fill: none; stroke: #5f5f5f; stroke-width: 1.875; stroke-linecap: round"/>
   </g>
   <g id="line2d_15">
    <path d="M 275.4 287.517272 
L 275.4 255.158943 
" clip-path="url(#p9a6084c9e4)" style="fill: none; stroke: #5f5f5f; stroke-width: 5.625; stroke-linecap: round"/>
   </g>
   <g id="line2d_16">
    <path d="M 275.4 268.356065 
" clip-path="url(#p9a6084c9e4)" style="fill: none; stroke: #5f5f5f; stroke-width: 1.5; stroke-linecap: round"/>
    <g clip-path="url(#p9a6084c9e4)">
     <use xlink:href="#md167a772c1" x="275.4" y="268.356065" style="fill: #ffffff; stroke: #ffffff; stroke-width: 1.125"/>
    </g>
   </g>
   <g id="line2d_17">
    <path d="M 342.36 284.217991 
L 342.36 253.509303 
" clip-path="url(#p9a6084c9e4)" style="fill: none; stroke: #5f5f5f; stroke-width: 1.875; stroke-linecap: round"/>
   </g>
   <g id="line2d_18">
    <path d="M 342.36 276.223581 
L 342.36 264.676099 
" clip-path="url(#p9a6084c9e4)" style="fill: none; stroke: #5f5f5f; stroke-width: 5.625; stroke-linecap: round"/>
   </g>
   <g id="line2d_19">
    <path d="M 342.36 269.751915 
" clip-path="url(#p9a6084c9e4)" style="fill: none; stroke: #5f5f5f; stroke-width: 1.5; stroke-linecap: round"/>
    <g clip-path="url(#p9a6084c9e4)">
     <use xlink:href="#md167a772c1" x="342.36" y="269.751915" style="fill: #ffffff; stroke: #ffffff; stroke-width: 1.125"/>
    </g>
   </g>
   <g id="line2d_20">
    <path d="M 409.32 352.48772 
L 409.32 218.105485 
" clip-path="url(#p9a6084c9e4)" style="fill: none; stroke: #5f5f5f; stroke-width: 1.875; stroke-linecap: round"/>
   </g>
   <g id="line2d_21">
    <path d="M 409.32 293.735147 
L 409.32 245.514892 
" clip-path="url(#p9a6084c9e4)" style="fill: none; stroke: #5f5f5f; stroke-width: 5.625; stroke-linecap: round"/>
   </g>
   <g id="line2d_22">
    <path d="M 409.32 272.9243 
" clip-path="url(#p9a6084c9e4)" style="fill: none; stroke: #5f5f5f; stroke-width: 1.5; stroke-linecap: round"/>
    <g clip-path="url(#p9a6084c9e4)">
     <use xlink:href="#md167a772c1" x="409.32" y="272.9243" style="fill: #ffffff; stroke: #ffffff; stroke-width: 1.125"/>
    </g>
   </g>
   <g id="line2d_23">
    <path d="M 476.28 303.759884 
L 476.28 230.160548 
" clip-path="url(#p9a6084c9e4)" style="fill: none; stroke: #5f5f5f; stroke-width: 1.875; stroke-linecap: round"/>
   </g>
   <g id="line2d_24">
    <path d="M 476.28 275.208417 
L 476.28 252.367244 
" clip-path="url(#p9a6084c9e4)" style="fill: none; stroke: #5f5f5f; stroke-width: 5.625; stroke-linecap: round"/>
   </g>
   <g id="line2d_25">
    <path d="M 476.28 263.53404 
" clip-path="url(#p9a6084c9e4)" style="fill: none; stroke: #5f5f5f; stroke-width: 1.5; stroke-linecap: round"/>
    <g clip-path="url(#p9a6084c9e4)">
     <use xlink:href="#md167a772c1" x="476.28" y="263.53404" style="fill: #ffffff; stroke: #ffffff; stroke-width: 1.125"/>
    </g>
   </g>
   <g id="line2d_26">
    <path d="M 543.24 304.775047 
L 543.24 247.037637 
" clip-path="url(#p9a6084c9e4)" style="fill: none; stroke: #5f5f5f; stroke-width: 1.875; stroke-linecap: round"/>
   </g>
   <g id="line2d_27">
    <path d="M 543.24 280.157338 
L 543.24 260.869236 
" clip-path="url(#p9a6084c9e4)" style="fill: none; stroke: #5f5f5f; stroke-width: 5.625; stroke-linecap: round"/>
   </g>
   <g id="line2d_28">
    <path d="M 543.24 267.214007 
" clip-path="url(#p9a6084c9e4)" style="fill: none; stroke: #5f5f5f; stroke-width: 1.5; stroke-linecap: round"/>
    <g clip-path="url(#p9a6084c9e4)">
     <use xlink:href="#md167a772c1" x="543.24" y="267.214007" style="fill: #ffffff; stroke: #ffffff; stroke-width: 1.125"/>
    </g>
   </g>
   <g id="line2d_29">
    <path d="M 610.2 293.608251 
L 610.2 241.834926 
" clip-path="url(#p9a6084c9e4)" style="fill: none; stroke: #5f5f5f; stroke-width: 1.875; stroke-linecap: round"/>
   </g>
   <g id="line2d_30">
    <path d="M 610.2 274.57394 
L 610.2 260.615446 
" clip-path="url(#p9a6084c9e4)" style="fill: none; stroke: #5f5f5f; stroke-width: 5.625; stroke-linecap: round"/>
   </g>
   <g id="line2d_31">
    <path d="M 610.2 270.513287 
" clip-path="url(#p9a6084c9e4)" style="fill: none; stroke: #5f5f5f; stroke-width: 1.5; stroke-linecap: round"/>
    <g clip-path="url(#p9a6084c9e4)">
     <use xlink:href="#md167a772c1" x="610.2" y="270.513287" style="fill: #ffffff; stroke: #ffffff; stroke-width: 1.125"/>
    </g>
   </g>
   <g id="line2d_32">
    <path d="M 677.16 416.189214 
L 677.16 165.570786 
" clip-path="url(#p9a6084c9e4)" style="fill: none; stroke: #5f5f5f; stroke-width: 1.875; stroke-linecap: round"/>
   </g>
   <g id="line2d_33">
    <path d="M 677.16 329.519651 
L 677.16 214.933099 
" clip-path="url(#p9a6084c9e4)" style="fill: none; stroke: #5f5f5f; stroke-width: 5.625; stroke-linecap: round"/>
   </g>
   <g id="line2d_34">
    <path d="M 677.16 288.532435 
" clip-path="url(#p9a6084c9e4)" style="fill: none; stroke: #5f5f5f; stroke-width: 1.5; stroke-linecap: round"/>
    <g clip-path="url(#p9a6084c9e4)">
     <use xlink:href="#md167a772c1" x="677.16" y="288.532435" style="fill: #ffffff; stroke: #ffffff; stroke-width: 1.125"/>
    </g>
   </g>
   <g id="line2d_35">
    <path d="M 744.12 303.759884 
L 744.12 250.463813 
" clip-path="url(#p9a6084c9e4)" style="fill: none; stroke: #5f5f5f; stroke-width: 1.875; stroke-linecap: round"/>
   </g>
   <g id="line2d_36">
    <path d="M 744.12 282.187665 
L 744.12 263.660935 
" clip-path="url(#p9a6084c9e4)" style="fill: none; stroke: #5f5f5f; stroke-width: 5.625; stroke-linecap: round"/>
   </g>
   <g id="line2d_37">
    <path d="M 744.12 272.289823 
" clip-path="url(#p9a6084c9e4)" style="fill: none; stroke: #5f5f5f; stroke-width: 1.5; stroke-linecap: round"/>
    <g clip-path="url(#p9a6084c9e4)">
     <use xlink:href="#md167a772c1" x="744.12" y="272.289823" style="fill: #ffffff; stroke: #ffffff; stroke-width: 1.125"/>
    </g>
   </g>
   <g id="patch_3">
    <path d="M 108 512.64 
L 108 69.12 
" style="fill: none; stroke: #cccccc; stroke-width: 0.8; stroke-linejoin: miter; stroke-linecap: square"/>
   </g>
   <g id="patch_4">
    <path d="M 777.6 512.64 
L 777.6 69.12 
" style="fill: none; stroke: #cccccc; stroke-width: 0.8; stroke-linejoin: miter; stroke-linecap: square"/>
   </g>
   <g id="patch_5">
    <path d="M 108 512.64 
L 777.6 512.64 
" style="fill: none; stroke: #cccccc; stroke-width: 0.8; stroke-linejoin: miter; stroke-linecap: square"/>
   </g>
   <g id="patch_6">
    <path d="M 108 69.12 
L 777.6 69.12 
" style="fill: none; stroke: #cccccc; stroke-width: 0.8; stroke-linejoin: miter; stroke-linecap: square"/>
   </g>
   <g id="text_20">
    <!-- Violin Plot Comparing Annualised Returns of DQN Models -->
    <g style="fill: #262626" transform="translate(271.8225 63.12) scale(0.12 -0.12)">
     <defs>
      <path id="DejaVuSans-56" d="M 1831 0 
L 50 4666 
L 709 4666 
L 2188 738 
L 3669 4666 
L 4325 4666 
L 2547 0 
L 1831 0 
z
" transform="scale(0.015625)"/>
      <path id="DejaVuSans-50" d="M 1259 4147 
L 1259 2394 
L 2053 2394 
Q 2494 2394 2734 2622 
Q 2975 2850 2975 3272 
Q 2975 3691 2734 3919 
Q 2494 4147 2053 4147 
L 1259 4147 
z
M 628 4666 
L 2053 4666 
Q 2838 4666 3239 4311 
Q 3641 3956 3641 3272 
Q 3641 2581 3239 2228 
Q 2838 1875 2053 1875 
L 1259 1875 
L 1259 0 
L 628 0 
L 628 4666 
z
" transform="scale(0.015625)"/>
      <path id="DejaVuSans-43" d="M 4122 4306 
L 4122 3641 
Q 3803 3938 3442 4084 
Q 3081 4231 2675 4231 
Q 1875 4231 1450 3742 
Q 1025 3253 1025 2328 
Q 1025 1406 1450 917 
Q 1875 428 2675 428 
Q 3081 428 3442 575 
Q 3803 722 4122 1019 
L 4122 359 
Q 3791 134 3420 21 
Q 3050 -91 2638 -91 
Q 1578 -91 968 557 
Q 359 1206 359 2328 
Q 359 3453 968 4101 
Q 1578 4750 2638 4750 
Q 3056 4750 3426 4639 
Q 3797 4528 4122 4306 
z
" transform="scale(0.015625)"/>
      <path id="DejaVuSans-70" d="M 1159 525 
L 1159 -1331 
L 581 -1331 
L 581 3500 
L 1159 3500 
L 1159 2969 
Q 1341 3281 1617 3432 
Q 1894 3584 2278 3584 
Q 2916 3584 3314 3078 
Q 3713 2572 3713 1747 
Q 3713 922 3314 415 
Q 2916 -91 2278 -91 
Q 1894 -91 1617 61 
Q 1341 213 1159 525 
z
M 3116 1747 
Q 3116 2381 2855 2742 
Q 2594 3103 2138 3103 
Q 1681 3103 1420 2742 
Q 1159 2381 1159 1747 
Q 1159 1113 1420 752 
Q 1681 391 2138 391 
Q 2594 391 2855 752 
Q 3116 1113 3116 1747 
z
" transform="scale(0.015625)"/>
      <path id="DejaVuSans-67" d="M 2906 1791 
Q 2906 2416 2648 2759 
Q 2391 3103 1925 3103 
Q 1463 3103 1205 2759 
Q 947 2416 947 1791 
Q 947 1169 1205 825 
Q 1463 481 1925 481 
Q 2391 481 2648 825 
Q 2906 1169 2906 1791 
z
M 3481 434 
Q 3481 -459 3084 -895 
Q 2688 -1331 1869 -1331 
Q 1566 -1331 1297 -1286 
Q 1028 -1241 775 -1147 
L 775 -588 
Q 1028 -725 1275 -790 
Q 1522 -856 1778 -856 
Q 2344 -856 2625 -561 
Q 2906 -266 2906 331 
L 2906 616 
Q 2728 306 2450 153 
Q 2172 0 1784 0 
Q 1141 0 747 490 
Q 353 981 353 1791 
Q 353 2603 747 3093 
Q 1141 3584 1784 3584 
Q 2172 3584 2450 3431 
Q 2728 3278 2906 2969 
L 2906 3500 
L 3481 3500 
L 3481 434 
z
" transform="scale(0.015625)"/>
     </defs>
     <use xlink:href="#DejaVuSans-56"/>
     <use xlink:href="#DejaVuSans-69" x="66.158203"/>
     <use xlink:href="#DejaVuSans-6f" x="93.941406"/>
     <use xlink:href="#DejaVuSans-6c" x="155.123047"/>
     <use xlink:href="#DejaVuSans-69" x="182.90625"/>
     <use xlink:href="#DejaVuSans-6e" x="210.689453"/>
     <use xlink:href="#DejaVuSans-20" x="274.068359"/>
     <use xlink:href="#DejaVuSans-50" x="305.855469"/>
     <use xlink:href="#DejaVuSans-6c" x="366.158203"/>
     <use xlink:href="#DejaVuSans-6f" x="393.941406"/>
     <use xlink:href="#DejaVuSans-74" x="455.123047"/>
     <use xlink:href="#DejaVuSans-20" x="494.332031"/>
     <use xlink:href="#DejaVuSans-43" x="526.119141"/>
     <use xlink:href="#DejaVuSans-6f" x="595.943359"/>
     <use xlink:href="#DejaVuSans-6d" x="657.125"/>
     <use xlink:href="#DejaVuSans-70" x="754.537109"/>
     <use xlink:href="#DejaVuSans-61" x="818.013672"/>
     <use xlink:href="#DejaVuSans-72" x="879.292969"/>
     <use xlink:href="#DejaVuSans-69" x="920.40625"/>
     <use xlink:href="#DejaVuSans-6e" x="948.189453"/>
     <use xlink:href="#DejaVuSans-67" x="1011.568359"/>
     <use xlink:href="#DejaVuSans-20" x="1075.044922"/>
     <use xlink:href="#DejaVuSans-41" x="1106.832031"/>
     <use xlink:href="#DejaVuSans-6e" x="1175.240234"/>
     <use xlink:href="#DejaVuSans-6e" x="1238.619141"/>
     <use xlink:href="#DejaVuSans-75" x="1301.998047"/>
     <use xlink:href="#DejaVuSans-61" x="1365.376953"/>
     <use xlink:href="#DejaVuSans-6c" x="1426.65625"/>
     <use xlink:href="#DejaVuSans-69" x="1454.439453"/>
     <use xlink:href="#DejaVuSans-73" x="1482.222656"/>
     <use xlink:href="#DejaVuSans-65" x="1534.322266"/>
     <use xlink:href="#DejaVuSans-64" x="1595.845703"/>
     <use xlink:href="#DejaVuSans-20" x="1659.322266"/>
     <use xlink:href="#DejaVuSans-52" x="1691.109375"/>
     <use xlink:href="#DejaVuSans-65" x="1756.091797"/>
     <use xlink:href="#DejaVuSans-74" x="1817.615234"/>
     <use xlink:href="#DejaVuSans-75" x="1856.824219"/>
     <use xlink:href="#DejaVuSans-72" x="1920.203125"/>
     <use xlink:href="#DejaVuSans-6e" x="1959.566406"/>
     <use xlink:href="#DejaVuSans-73" x="2022.945312"/>
     <use xlink:href="#DejaVuSans-20" x="2075.044922"/>
     <use xlink:href="#DejaVuSans-6f" x="2106.832031"/>
     <use xlink:href="#DejaVuSans-66" x="2168.013672"/>
     <use xlink:href="#DejaVuSans-20" x="2203.21875"/>
     <use xlink:href="#DejaVuSans-44" x="2235.005859"/>
     <use xlink:href="#DejaVuSans-51" x="2312.007812"/>
     <use xlink:href="#DejaVuSans-4e" x="2390.71875"/>
     <use xlink:href="#DejaVuSans-20" x="2465.523438"/>
     <use xlink:href="#DejaVuSans-4d" x="2497.310547"/>
     <use xlink:href="#DejaVuSans-6f" x="2583.589844"/>
     <use xlink:href="#DejaVuSans-64" x="2644.771484"/>
     <use xlink:href="#DejaVuSans-65" x="2708.248047"/>
     <use xlink:href="#DejaVuSans-6c" x="2769.771484"/>
     <use xlink:href="#DejaVuSans-73" x="2797.554688"/>
    </g>
   </g>
  </g>
 </g>
 <defs>
  <clipPath id="p9a6084c9e4">
   <rect x="108" y="69.12" width="669.6" height="443.52"/>
  </clipPath>
 </defs>
</svg>
