<?xml version="1.0" encoding="utf-8" standalone="no"?>
<!DOCTYPE svg PUBLIC "-//W3C//DTD SVG 1.1//EN"
  "http://www.w3.org/Graphics/SVG/1.1/DTD/svg11.dtd">
<svg xmlns:xlink="http://www.w3.org/1999/xlink" width="864pt" height="576pt" viewBox="0 0 864 576" xmlns="http://www.w3.org/2000/svg" version="1.1">
 <metadata>
  <rdf:RDF xmlns:dc="http://purl.org/dc/elements/1.1/" xmlns:cc="http://creativecommons.org/ns#" xmlns:rdf="http://www.w3.org/1999/02/22-rdf-syntax-ns#">
   <cc:Work>
    <dc:type rdf:resource="http://purl.org/dc/dcmitype/StillImage"/>
    <dc:date>2024-09-13T13:18:52.701605</dc:date>
    <dc:format>image/svg+xml</dc:format>
    <dc:creator>
     <cc:Agent>
      <dc:title>Matplotlib v3.7.1, https://matplotlib.org/</dc:title>
     </cc:Agent>
    </dc:creator>
   </cc:Work>
  </rdf:RDF>
 </metadata>
 <defs>
  <style type="text/css">*{stroke-linejoin: round; stroke-linecap: butt}</style>
 </defs>
 <g id="figure_1">
  <g id="patch_1">
   <path d="M 0 576 
L 864 576 
L 864 0 
L 0 0 
z
" style="fill: #ffffff"/>
  </g>
  <g id="axes_1">
   <g id="patch_2">
    <path d="M 108 512.64 
L 777.6 512.64 
L 777.6 69.12 
L 108 69.12 
z
" style="fill: #ffffff"/>
   </g>
   <g id="matplotlib.axis_1">
    <g id="xtick_1">
     <g id="text_1">
      <!-- ppo_dxy -->
      <g style="fill: #262626" transform="translate(122.579297 526.478594) scale(0.09 -0.09)">
       <defs>
        <path id="DejaVuSans-70" d="M 1159 525 
L 1159 -1331 
L 581 -1331 
L 581 3500 
L 1159 3500 
L 1159 2969 
Q 1341 3281 1617 3432 
Q 1894 3584 2278 3584 
Q 2916 3584 3314 3078 
Q 3713 2572 3713 1747 
Q 3713 922 3314 415 
Q 2916 -91 2278 -91 
Q 1894 -91 1617 61 
Q 1341 213 1159 525 
z
M 3116 1747 
Q 3116 2381 2855 2742 
Q 2594 3103 2138 3103 
Q 1681 3103 1420 2742 
Q 1159 2381 1159 1747 
Q 1159 1113 1420 752 
Q 1681 391 2138 391 
Q 2594 391 2855 752 
Q 3116 1113 3116 1747 
z
" transform="scale(0.015625)"/>
        <path id="DejaVuSans-6f" d="M 1959 3097 
Q 1497 3097 1228 2736 
Q 959 2375 959 1747 
Q 959 1119 1226 758 
Q 1494 397 1959 397 
Q 2419 397 2687 759 
Q 2956 1122 2956 1747 
Q 2956 2369 2687 2733 
Q 2419 3097 1959 3097 
z
M 1959 3584 
Q 2709 3584 3137 3096 
Q 3566 2609 3566 1747 
Q 3566 888 3137 398 
Q 2709 -91 1959 -91 
Q 1206 -91 779 398 
Q 353 888 353 1747 
Q 353 2609 779 3096 
Q 1206 3584 1959 3584 
z
" transform="scale(0.015625)"/>
        <path id="DejaVuSans-5f" d="M 3263 -1063 
L 3263 -1509 
L -63 -1509 
L -63 -1063 
L 3263 -1063 
z
" transform="scale(0.015625)"/>
        <path id="DejaVuSans-64" d="M 2906 2969 
L 2906 4863 
L 3481 4863 
L 3481 0 
L 2906 0 
L 2906 525 
Q 2725 213 2448 61 
Q 2172 -91 1784 -91 
Q 1150 -91 751 415 
Q 353 922 353 1747 
Q 353 2572 751 3078 
Q 1150 3584 1784 3584 
Q 2172 3584 2448 3432 
Q 2725 3281 2906 2969 
z
M 947 1747 
Q 947 1113 1208 752 
Q 1469 391 1925 391 
Q 2381 391 2643 752 
Q 2906 1113 2906 1747 
Q 2906 2381 2643 2742 
Q 2381 3103 1925 3103 
Q 1469 3103 1208 2742 
Q 947 2381 947 1747 
z
" transform="scale(0.015625)"/>
        <path id="DejaVuSans-78" d="M 3513 3500 
L 2247 1797 
L 3578 0 
L 2900 0 
L 1881 1375 
L 863 0 
L 184 0 
L 1544 1831 
L 300 3500 
L 978 3500 
L 1906 2253 
L 2834 3500 
L 3513 3500 
z
" transform="scale(0.015625)"/>
        <path id="DejaVuSans-79" d="M 2059 -325 
Q 1816 -950 1584 -1140 
Q 1353 -1331 966 -1331 
L 506 -1331 
L 506 -850 
L 844 -850 
Q 1081 -850 1212 -737 
Q 1344 -625 1503 -206 
L 1606 56 
L 191 3500 
L 800 3500 
L 1894 763 
L 2988 3500 
L 3597 3500 
L 2059 -325 
z
" transform="scale(0.015625)"/>
       </defs>
       <use xlink:href="#DejaVuSans-70"/>
       <use xlink:href="#DejaVuSans-70" x="63.476562"/>
       <use xlink:href="#DejaVuSans-6f" x="126.953125"/>
       <use xlink:href="#DejaVuSans-5f" x="188.134766"/>
       <use xlink:href="#DejaVuSans-64" x="238.134766"/>
       <use xlink:href="#DejaVuSans-78" x="301.611328"/>
       <use xlink:href="#DejaVuSans-79" x="360.791016"/>
      </g>
     </g>
    </g>
    <g id="xtick_2">
     <g id="text_2">
      <!-- ppo_mtf_2 -->
      <g style="fill: #262626" transform="translate(184.878281 526.478594) scale(0.09 -0.09)">
       <defs>
        <path id="DejaVuSans-6d" d="M 3328 2828 
Q 3544 3216 3844 3400 
Q 4144 3584 4550 3584 
Q 5097 3584 5394 3201 
Q 5691 2819 5691 2113 
L 5691 0 
L 5113 0 
L 5113 2094 
Q 5113 2597 4934 2840 
Q 4756 3084 4391 3084 
Q 3944 3084 3684 2787 
Q 3425 2491 3425 1978 
L 3425 0 
L 2847 0 
L 2847 2094 
Q 2847 2600 2669 2842 
Q 2491 3084 2119 3084 
Q 1678 3084 1418 2786 
Q 1159 2488 1159 1978 
L 1159 0 
L 581 0 
L 581 3500 
L 1159 3500 
L 1159 2956 
Q 1356 3278 1631 3431 
Q 1906 3584 2284 3584 
Q 2666 3584 2933 3390 
Q 3200 3197 3328 2828 
z
" transform="scale(0.015625)"/>
        <path id="DejaVuSans-74" d="M 1172 4494 
L 1172 3500 
L 2356 3500 
L 2356 3053 
L 1172 3053 
L 1172 1153 
Q 1172 725 1289 603 
Q 1406 481 1766 481 
L 2356 481 
L 2356 0 
L 1766 0 
Q 1100 0 847 248 
Q 594 497 594 1153 
L 594 3053 
L 172 3053 
L 172 3500 
L 594 3500 
L 594 4494 
L 1172 4494 
z
" transform="scale(0.015625)"/>
        <path id="DejaVuSans-66" d="M 2375 4863 
L 2375 4384 
L 1825 4384 
Q 1516 4384 1395 4259 
Q 1275 4134 1275 3809 
L 1275 3500 
L 2222 3500 
L 2222 3053 
L 1275 3053 
L 1275 0 
L 697 0 
L 697 3053 
L 147 3053 
L 147 3500 
L 697 3500 
L 697 3744 
Q 697 4328 969 4595 
Q 1241 4863 1831 4863 
L 2375 4863 
z
" transform="scale(0.015625)"/>
        <path id="DejaVuSans-32" d="M 1228 531 
L 3431 531 
L 3431 0 
L 469 0 
L 469 531 
Q 828 903 1448 1529 
Q 2069 2156 2228 2338 
Q 2531 2678 2651 2914 
Q 2772 3150 2772 3378 
Q 2772 3750 2511 3984 
Q 2250 4219 1831 4219 
Q 1534 4219 1204 4116 
Q 875 4013 500 3803 
L 500 4441 
Q 881 4594 1212 4672 
Q 1544 4750 1819 4750 
Q 2544 4750 2975 4387 
Q 3406 4025 3406 3419 
Q 3406 3131 3298 2873 
Q 3191 2616 2906 2266 
Q 2828 2175 2409 1742 
Q 1991 1309 1228 531 
z
" transform="scale(0.015625)"/>
       </defs>
       <use xlink:href="#DejaVuSans-70"/>
       <use xlink:href="#DejaVuSans-70" x="63.476562"/>
       <use xlink:href="#DejaVuSans-6f" x="126.953125"/>
       <use xlink:href="#DejaVuSans-5f" x="188.134766"/>
       <use xlink:href="#DejaVuSans-6d" x="238.134766"/>
       <use xlink:href="#DejaVuSans-74" x="335.546875"/>
       <use xlink:href="#DejaVuSans-66" x="374.755859"/>
       <use xlink:href="#DejaVuSans-5f" x="409.960938"/>
       <use xlink:href="#DejaVuSans-32" x="459.960938"/>
      </g>
     </g>
    </g>
    <g id="xtick_3">
     <g id="text_3">
      <!-- ppo_mtf_1 -->
      <g style="fill: #262626" transform="translate(251.838281 526.478594) scale(0.09 -0.09)">
       <defs>
        <path id="DejaVuSans-31" d="M 794 531 
L 1825 531 
L 1825 4091 
L 703 3866 
L 703 4441 
L 1819 4666 
L 2450 4666 
L 2450 531 
L 3481 531 
L 3481 0 
L 794 0 
L 794 531 
z
" transform="scale(0.015625)"/>
       </defs>
       <use xlink:href="#DejaVuSans-70"/>
       <use xlink:href="#DejaVuSans-70" x="63.476562"/>
       <use xlink:href="#DejaVuSans-6f" x="126.953125"/>
       <use xlink:href="#DejaVuSans-5f" x="188.134766"/>
       <use xlink:href="#DejaVuSans-6d" x="238.134766"/>
       <use xlink:href="#DejaVuSans-74" x="335.546875"/>
       <use xlink:href="#DejaVuSans-66" x="374.755859"/>
       <use xlink:href="#DejaVuSans-5f" x="409.960938"/>
       <use xlink:href="#DejaVuSans-31" x="459.960938"/>
      </g>
     </g>
    </g>
    <g id="xtick_4">
     <g id="text_4">
      <!-- ppo_lstm -->
      <g style="fill: #262626" transform="translate(321.901172 526.478594) scale(0.09 -0.09)">
       <defs>
        <path id="DejaVuSans-6c" d="M 603 4863 
L 1178 4863 
L 1178 0 
L 603 0 
L 603 4863 
z
" transform="scale(0.015625)"/>
        <path id="DejaVuSans-73" d="M 2834 3397 
L 2834 2853 
Q 2591 2978 2328 3040 
Q 2066 3103 1784 3103 
Q 1356 3103 1142 2972 
Q 928 2841 928 2578 
Q 928 2378 1081 2264 
Q 1234 2150 1697 2047 
L 1894 2003 
Q 2506 1872 2764 1633 
Q 3022 1394 3022 966 
Q 3022 478 2636 193 
Q 2250 -91 1575 -91 
Q 1294 -91 989 -36 
Q 684 19 347 128 
L 347 722 
Q 666 556 975 473 
Q 1284 391 1588 391 
Q 1994 391 2212 530 
Q 2431 669 2431 922 
Q 2431 1156 2273 1281 
Q 2116 1406 1581 1522 
L 1381 1569 
Q 847 1681 609 1914 
Q 372 2147 372 2553 
Q 372 3047 722 3315 
Q 1072 3584 1716 3584 
Q 2034 3584 2315 3537 
Q 2597 3491 2834 3397 
z
" transform="scale(0.015625)"/>
       </defs>
       <use xlink:href="#DejaVuSans-70"/>
       <use xlink:href="#DejaVuSans-70" x="63.476562"/>
       <use xlink:href="#DejaVuSans-6f" x="126.953125"/>
       <use xlink:href="#DejaVuSans-5f" x="188.134766"/>
       <use xlink:href="#DejaVuSans-6c" x="238.134766"/>
       <use xlink:href="#DejaVuSans-73" x="265.917969"/>
       <use xlink:href="#DejaVuSans-74" x="318.017578"/>
       <use xlink:href="#DejaVuSans-6d" x="357.226562"/>
      </g>
     </g>
    </g>
    <g id="xtick_5">
     <g id="text_5">
      <!-- ppo_SR_2 -->
      <g style="fill: #262626" transform="translate(387.50625 526.319687) scale(0.09 -0.09)">
       <defs>
        <path id="DejaVuSans-53" d="M 3425 4513 
L 3425 3897 
Q 3066 4069 2747 4153 
Q 2428 4238 2131 4238 
Q 1616 4238 1336 4038 
Q 1056 3838 1056 3469 
Q 1056 3159 1242 3001 
Q 1428 2844 1947 2747 
L 2328 2669 
Q 3034 2534 3370 2195 
Q 3706 1856 3706 1288 
Q 3706 609 3251 259 
Q 2797 -91 1919 -91 
Q 1588 -91 1214 -16 
Q 841 59 441 206 
L 441 856 
Q 825 641 1194 531 
Q 1563 422 1919 422 
Q 2459 422 2753 634 
Q 3047 847 3047 1241 
Q 3047 1584 2836 1778 
Q 2625 1972 2144 2069 
L 1759 2144 
Q 1053 2284 737 2584 
Q 422 2884 422 3419 
Q 422 4038 858 4394 
Q 1294 4750 2059 4750 
Q 2388 4750 2728 4690 
Q 3069 4631 3425 4513 
z
" transform="scale(0.015625)"/>
        <path id="DejaVuSans-52" d="M 2841 2188 
Q 3044 2119 3236 1894 
Q 3428 1669 3622 1275 
L 4263 0 
L 3584 0 
L 2988 1197 
Q 2756 1666 2539 1819 
Q 2322 1972 1947 1972 
L 1259 1972 
L 1259 0 
L 628 0 
L 628 4666 
L 2053 4666 
Q 2853 4666 3247 4331 
Q 3641 3997 3641 3322 
Q 3641 2881 3436 2590 
Q 3231 2300 2841 2188 
z
M 1259 4147 
L 1259 2491 
L 2053 2491 
Q 2509 2491 2742 2702 
Q 2975 2913 2975 3322 
Q 2975 3731 2742 3939 
Q 2509 4147 2053 4147 
L 1259 4147 
z
" transform="scale(0.015625)"/>
       </defs>
       <use xlink:href="#DejaVuSans-70"/>
       <use xlink:href="#DejaVuSans-70" x="63.476562"/>
       <use xlink:href="#DejaVuSans-6f" x="126.953125"/>
       <use xlink:href="#DejaVuSans-5f" x="188.134766"/>
       <use xlink:href="#DejaVuSans-53" x="238.134766"/>
       <use xlink:href="#DejaVuSans-52" x="301.611328"/>
       <use xlink:href="#DejaVuSans-5f" x="371.09375"/>
       <use xlink:href="#DejaVuSans-32" x="421.09375"/>
      </g>
     </g>
    </g>
    <g id="xtick_6">
     <g id="text_6">
      <!-- ppo_SR_1 -->
      <g style="fill: #262626" transform="translate(454.46625 526.319687) scale(0.09 -0.09)">
       <use xlink:href="#DejaVuSans-70"/>
       <use xlink:href="#DejaVuSans-70" x="63.476562"/>
       <use xlink:href="#DejaVuSans-6f" x="126.953125"/>
       <use xlink:href="#DejaVuSans-5f" x="188.134766"/>
       <use xlink:href="#DejaVuSans-53" x="238.134766"/>
       <use xlink:href="#DejaVuSans-52" x="301.611328"/>
       <use xlink:href="#DejaVuSans-5f" x="371.09375"/>
       <use xlink:href="#DejaVuSans-31" x="421.09375"/>
      </g>
     </g>
    </g>
    <g id="xtick_7">
     <g id="text_7">
      <!-- ppo_ewm -->
      <g style="fill: #262626" transform="translate(521.690625 526.228281) scale(0.09 -0.09)">
       <defs>
        <path id="DejaVuSans-65" d="M 3597 1894 
L 3597 1613 
L 953 1613 
Q 991 1019 1311 708 
Q 1631 397 2203 397 
Q 2534 397 2845 478 
Q 3156 559 3463 722 
L 3463 178 
Q 3153 47 2828 -22 
Q 2503 -91 2169 -91 
Q 1331 -91 842 396 
Q 353 884 353 1716 
Q 353 2575 817 3079 
Q 1281 3584 2069 3584 
Q 2775 3584 3186 3129 
Q 3597 2675 3597 1894 
z
M 3022 2063 
Q 3016 2534 2758 2815 
Q 2500 3097 2075 3097 
Q 1594 3097 1305 2825 
Q 1016 2553 972 2059 
L 3022 2063 
z
" transform="scale(0.015625)"/>
        <path id="DejaVuSans-77" d="M 269 3500 
L 844 3500 
L 1563 769 
L 2278 3500 
L 2956 3500 
L 3675 769 
L 4391 3500 
L 4966 3500 
L 4050 0 
L 3372 0 
L 2619 2869 
L 1863 0 
L 1184 0 
L 269 3500 
z
" transform="scale(0.015625)"/>
       </defs>
       <use xlink:href="#DejaVuSans-70"/>
       <use xlink:href="#DejaVuSans-70" x="63.476562"/>
       <use xlink:href="#DejaVuSans-6f" x="126.953125"/>
       <use xlink:href="#DejaVuSans-5f" x="188.134766"/>
       <use xlink:href="#DejaVuSans-65" x="238.134766"/>
       <use xlink:href="#DejaVuSans-77" x="299.658203"/>
       <use xlink:href="#DejaVuSans-6d" x="381.445312"/>
      </g>
     </g>
    </g>
    <g id="xtick_8">
     <g id="text_8">
      <!-- ppo_macd -->
      <g style="fill: #262626" transform="translate(587.010938 526.478594) scale(0.09 -0.09)">
       <defs>
        <path id="DejaVuSans-61" d="M 2194 1759 
Q 1497 1759 1228 1600 
Q 959 1441 959 1056 
Q 959 750 1161 570 
Q 1363 391 1709 391 
Q 2188 391 2477 730 
Q 2766 1069 2766 1631 
L 2766 1759 
L 2194 1759 
z
M 3341 1997 
L 3341 0 
L 2766 0 
L 2766 531 
Q 2569 213 2275 61 
Q 1981 -91 1556 -91 
Q 1019 -91 701 211 
Q 384 513 384 1019 
Q 384 1609 779 1909 
Q 1175 2209 1959 2209 
L 2766 2209 
L 2766 2266 
Q 2766 2663 2505 2880 
Q 2244 3097 1772 3097 
Q 1472 3097 1187 3025 
Q 903 2953 641 2809 
L 641 3341 
Q 956 3463 1253 3523 
Q 1550 3584 1831 3584 
Q 2591 3584 2966 3190 
Q 3341 2797 3341 1997 
z
" transform="scale(0.015625)"/>
        <path id="DejaVuSans-63" d="M 3122 3366 
L 3122 2828 
Q 2878 2963 2633 3030 
Q 2388 3097 2138 3097 
Q 1578 3097 1268 2742 
Q 959 2388 959 1747 
Q 959 1106 1268 751 
Q 1578 397 2138 397 
Q 2388 397 2633 464 
Q 2878 531 3122 666 
L 3122 134 
Q 2881 22 2623 -34 
Q 2366 -91 2075 -91 
Q 1284 -91 818 406 
Q 353 903 353 1747 
Q 353 2603 823 3093 
Q 1294 3584 2113 3584 
Q 2378 3584 2631 3529 
Q 2884 3475 3122 3366 
z
" transform="scale(0.015625)"/>
       </defs>
       <use xlink:href="#DejaVuSans-70"/>
       <use xlink:href="#DejaVuSans-70" x="63.476562"/>
       <use xlink:href="#DejaVuSans-6f" x="126.953125"/>
       <use xlink:href="#DejaVuSans-5f" x="188.134766"/>
       <use xlink:href="#DejaVuSans-6d" x="238.134766"/>
       <use xlink:href="#DejaVuSans-61" x="335.546875"/>
       <use xlink:href="#DejaVuSans-63" x="396.826172"/>
       <use xlink:href="#DejaVuSans-64" x="451.806641"/>
      </g>
     </g>
    </g>
    <g id="xtick_9">
     <g id="text_9">
      <!-- ppo_bb -->
      <g style="fill: #262626" transform="translate(660.729375 526.478594) scale(0.09 -0.09)">
       <defs>
        <path id="DejaVuSans-62" d="M 3116 1747 
Q 3116 2381 2855 2742 
Q 2594 3103 2138 3103 
Q 1681 3103 1420 2742 
Q 1159 2381 1159 1747 
Q 1159 1113 1420 752 
Q 1681 391 2138 391 
Q 2594 391 2855 752 
Q 3116 1113 3116 1747 
z
M 1159 2969 
Q 1341 3281 1617 3432 
Q 1894 3584 2278 3584 
Q 2916 3584 3314 3078 
Q 3713 2572 3713 1747 
Q 3713 922 3314 415 
Q 2916 -91 2278 -91 
Q 1894 -91 1617 61 
Q 1341 213 1159 525 
L 1159 0 
L 581 0 
L 581 4863 
L 1159 4863 
L 1159 2969 
z
" transform="scale(0.015625)"/>
       </defs>
       <use xlink:href="#DejaVuSans-70"/>
       <use xlink:href="#DejaVuSans-70" x="63.476562"/>
       <use xlink:href="#DejaVuSans-6f" x="126.953125"/>
       <use xlink:href="#DejaVuSans-5f" x="188.134766"/>
       <use xlink:href="#DejaVuSans-62" x="238.134766"/>
       <use xlink:href="#DejaVuSans-62" x="301.611328"/>
      </g>
     </g>
    </g>
    <g id="xtick_10">
     <g id="text_10">
      <!-- ppo_rsi -->
      <g style="fill: #262626" transform="translate(727.958672 526.478594) scale(0.09 -0.09)">
       <defs>
        <path id="DejaVuSans-72" d="M 2631 2963 
Q 2534 3019 2420 3045 
Q 2306 3072 2169 3072 
Q 1681 3072 1420 2755 
Q 1159 2438 1159 1844 
L 1159 0 
L 581 0 
L 581 3500 
L 1159 3500 
L 1159 2956 
Q 1341 3275 1631 3429 
Q 1922 3584 2338 3584 
Q 2397 3584 2469 3576 
Q 2541 3569 2628 3553 
L 2631 2963 
z
" transform="scale(0.015625)"/>
        <path id="DejaVuSans-69" d="M 603 3500 
L 1178 3500 
L 1178 0 
L 603 0 
L 603 3500 
z
M 603 4863 
L 1178 4863 
L 1178 4134 
L 603 4134 
L 603 4863 
z
" transform="scale(0.015625)"/>
       </defs>
       <use xlink:href="#DejaVuSans-70"/>
       <use xlink:href="#DejaVuSans-70" x="63.476562"/>
       <use xlink:href="#DejaVuSans-6f" x="126.953125"/>
       <use xlink:href="#DejaVuSans-5f" x="188.134766"/>
       <use xlink:href="#DejaVuSans-72" x="238.134766"/>
       <use xlink:href="#DejaVuSans-73" x="279.248047"/>
       <use xlink:href="#DejaVuSans-69" x="331.347656"/>
      </g>
     </g>
    </g>
    <g id="text_11">
     <!-- PPO Models -->
     <g style="fill: #262626" transform="translate(413.627344 540.199062) scale(0.1 -0.1)">
      <defs>
       <path id="DejaVuSans-50" d="M 1259 4147 
L 1259 2394 
L 2053 2394 
Q 2494 2394 2734 2622 
Q 2975 2850 2975 3272 
Q 2975 3691 2734 3919 
Q 2494 4147 2053 4147 
L 1259 4147 
z
M 628 4666 
L 2053 4666 
Q 2838 4666 3239 4311 
Q 3641 3956 3641 3272 
Q 3641 2581 3239 2228 
Q 2838 1875 2053 1875 
L 1259 1875 
L 1259 0 
L 628 0 
L 628 4666 
z
" transform="scale(0.015625)"/>
       <path id="DejaVuSans-4f" d="M 2522 4238 
Q 1834 4238 1429 3725 
Q 1025 3213 1025 2328 
Q 1025 1447 1429 934 
Q 1834 422 2522 422 
Q 3209 422 3611 934 
Q 4013 1447 4013 2328 
Q 4013 3213 3611 3725 
Q 3209 4238 2522 4238 
z
M 2522 4750 
Q 3503 4750 4090 4092 
Q 4678 3434 4678 2328 
Q 4678 1225 4090 567 
Q 3503 -91 2522 -91 
Q 1538 -91 948 565 
Q 359 1222 359 2328 
Q 359 3434 948 4092 
Q 1538 4750 2522 4750 
z
" transform="scale(0.015625)"/>
       <path id="DejaVuSans-20" transform="scale(0.015625)"/>
       <path id="DejaVuSans-4d" d="M 628 4666 
L 1569 4666 
L 2759 1491 
L 3956 4666 
L 4897 4666 
L 4897 0 
L 4281 0 
L 4281 4097 
L 3078 897 
L 2444 897 
L 1241 4097 
L 1241 0 
L 628 0 
L 628 4666 
z
" transform="scale(0.015625)"/>
      </defs>
      <use xlink:href="#DejaVuSans-50"/>
      <use xlink:href="#DejaVuSans-50" x="60.302734"/>
      <use xlink:href="#DejaVuSans-4f" x="120.605469"/>
      <use xlink:href="#DejaVuSans-20" x="199.316406"/>
      <use xlink:href="#DejaVuSans-4d" x="231.103516"/>
      <use xlink:href="#DejaVuSans-6f" x="317.382812"/>
      <use xlink:href="#DejaVuSans-64" x="378.564453"/>
      <use xlink:href="#DejaVuSans-65" x="442.041016"/>
      <use xlink:href="#DejaVuSans-6c" x="503.564453"/>
      <use xlink:href="#DejaVuSans-73" x="531.347656"/>
     </g>
    </g>
   </g>
   <g id="matplotlib.axis_2">
    <g id="ytick_1">
     <g id="line2d_1">
      <path d="M 108 470.586009 
L 777.6 470.586009 
" clip-path="url(#p8ce8bef786)" style="fill: none; stroke: #cccccc; stroke-width: 0.8; stroke-linecap: round"/>
     </g>
     <g id="text_12">
      <!-- −15 -->
      <g style="fill: #262626" transform="translate(79.895313 474.385227) scale(0.1 -0.1)">
       <defs>
        <path id="DejaVuSans-2212" d="M 678 2272 
L 4684 2272 
L 4684 1741 
L 678 1741 
L 678 2272 
z
" transform="scale(0.015625)"/>
        <path id="DejaVuSans-35" d="M 691 4666 
L 3169 4666 
L 3169 4134 
L 1269 4134 
L 1269 2991 
Q 1406 3038 1543 3061 
Q 1681 3084 1819 3084 
Q 2600 3084 3056 2656 
Q 3513 2228 3513 1497 
Q 3513 744 3044 326 
Q 2575 -91 1722 -91 
Q 1428 -91 1123 -41 
Q 819 9 494 109 
L 494 744 
Q 775 591 1075 516 
Q 1375 441 1709 441 
Q 2250 441 2565 725 
Q 2881 1009 2881 1497 
Q 2881 1984 2565 2268 
Q 2250 2553 1709 2553 
Q 1456 2553 1204 2497 
Q 953 2441 691 2322 
L 691 4666 
z
" transform="scale(0.015625)"/>
       </defs>
       <use xlink:href="#DejaVuSans-2212"/>
       <use xlink:href="#DejaVuSans-31" x="83.789062"/>
       <use xlink:href="#DejaVuSans-35" x="147.412109"/>
      </g>
     </g>
    </g>
    <g id="ytick_2">
     <g id="line2d_2">
      <path d="M 108 402.267655 
L 777.6 402.267655 
" clip-path="url(#p8ce8bef786)" style="fill: none; stroke: #cccccc; stroke-width: 0.8; stroke-linecap: round"/>
     </g>
     <g id="text_13">
      <!-- −10 -->
      <g style="fill: #262626" transform="translate(79.895313 406.066874) scale(0.1 -0.1)">
       <defs>
        <path id="DejaVuSans-30" d="M 2034 4250 
Q 1547 4250 1301 3770 
Q 1056 3291 1056 2328 
Q 1056 1369 1301 889 
Q 1547 409 2034 409 
Q 2525 409 2770 889 
Q 3016 1369 3016 2328 
Q 3016 3291 2770 3770 
Q 2525 4250 2034 4250 
z
M 2034 4750 
Q 2819 4750 3233 4129 
Q 3647 3509 3647 2328 
Q 3647 1150 3233 529 
Q 2819 -91 2034 -91 
Q 1250 -91 836 529 
Q 422 1150 422 2328 
Q 422 3509 836 4129 
Q 1250 4750 2034 4750 
z
" transform="scale(0.015625)"/>
       </defs>
       <use xlink:href="#DejaVuSans-2212"/>
       <use xlink:href="#DejaVuSans-31" x="83.789062"/>
       <use xlink:href="#DejaVuSans-30" x="147.412109"/>
      </g>
     </g>
    </g>
    <g id="ytick_3">
     <g id="line2d_3">
      <path d="M 108 333.949302 
L 777.6 333.949302 
" clip-path="url(#p8ce8bef786)" style="fill: none; stroke: #cccccc; stroke-width: 0.8; stroke-linecap: round"/>
     </g>
     <g id="text_14">
      <!-- −5 -->
      <g style="fill: #262626" transform="translate(86.257812 337.748521) scale(0.1 -0.1)">
       <use xlink:href="#DejaVuSans-2212"/>
       <use xlink:href="#DejaVuSans-35" x="83.789062"/>
      </g>
     </g>
    </g>
    <g id="ytick_4">
     <g id="line2d_4">
      <path d="M 108 265.630949 
L 777.6 265.630949 
" clip-path="url(#p8ce8bef786)" style="fill: none; stroke: #cccccc; stroke-width: 0.8; stroke-linecap: round"/>
     </g>
     <g id="text_15">
      <!-- 0 -->
      <g style="fill: #262626" transform="translate(94.6375 269.430167) scale(0.1 -0.1)">
       <use xlink:href="#DejaVuSans-30"/>
      </g>
     </g>
    </g>
    <g id="ytick_5">
     <g id="line2d_5">
      <path d="M 108 197.312595 
L 777.6 197.312595 
" clip-path="url(#p8ce8bef786)" style="fill: none; stroke: #cccccc; stroke-width: 0.8; stroke-linecap: round"/>
     </g>
     <g id="text_16">
      <!-- 5 -->
      <g style="fill: #262626" transform="translate(94.6375 201.111814) scale(0.1 -0.1)">
       <use xlink:href="#DejaVuSans-35"/>
      </g>
     </g>
    </g>
    <g id="ytick_6">
     <g id="line2d_6">
      <path d="M 108 128.994242 
L 777.6 128.994242 
" clip-path="url(#p8ce8bef786)" style="fill: none; stroke: #cccccc; stroke-width: 0.8; stroke-linecap: round"/>
     </g>
     <g id="text_17">
      <!-- 10 -->
      <g style="fill: #262626" transform="translate(88.275 132.793461) scale(0.1 -0.1)">
       <use xlink:href="#DejaVuSans-31"/>
       <use xlink:href="#DejaVuSans-30" x="63.623047"/>
      </g>
     </g>
    </g>
    <g id="text_18">
     <!-- Annualised Returns [%] -->
     <g style="fill: #262626" transform="translate(73.815625 349.530781) rotate(-90) scale(0.1 -0.1)">
      <defs>
       <path id="DejaVuSans-41" d="M 2188 4044 
L 1331 1722 
L 3047 1722 
L 2188 4044 
z
M 1831 4666 
L 2547 4666 
L 4325 0 
L 3669 0 
L 3244 1197 
L 1141 1197 
L 716 0 
L 50 0 
L 1831 4666 
z
" transform="scale(0.015625)"/>
       <path id="DejaVuSans-6e" d="M 3513 2113 
L 3513 0 
L 2938 0 
L 2938 2094 
Q 2938 2591 2744 2837 
Q 2550 3084 2163 3084 
Q 1697 3084 1428 2787 
Q 1159 2491 1159 1978 
L 1159 0 
L 581 0 
L 581 3500 
L 1159 3500 
L 1159 2956 
Q 1366 3272 1645 3428 
Q 1925 3584 2291 3584 
Q 2894 3584 3203 3211 
Q 3513 2838 3513 2113 
z
" transform="scale(0.015625)"/>
       <path id="DejaVuSans-75" d="M 544 1381 
L 544 3500 
L 1119 3500 
L 1119 1403 
Q 1119 906 1312 657 
Q 1506 409 1894 409 
Q 2359 409 2629 706 
Q 2900 1003 2900 1516 
L 2900 3500 
L 3475 3500 
L 3475 0 
L 2900 0 
L 2900 538 
Q 2691 219 2414 64 
Q 2138 -91 1772 -91 
Q 1169 -91 856 284 
Q 544 659 544 1381 
z
M 1991 3584 
L 1991 3584 
z
" transform="scale(0.015625)"/>
       <path id="DejaVuSans-5b" d="M 550 4863 
L 1875 4863 
L 1875 4416 
L 1125 4416 
L 1125 -397 
L 1875 -397 
L 1875 -844 
L 550 -844 
L 550 4863 
z
" transform="scale(0.015625)"/>
       <path id="DejaVuSans-25" d="M 4653 2053 
Q 4381 2053 4226 1822 
Q 4072 1591 4072 1178 
Q 4072 772 4226 539 
Q 4381 306 4653 306 
Q 4919 306 5073 539 
Q 5228 772 5228 1178 
Q 5228 1588 5073 1820 
Q 4919 2053 4653 2053 
z
M 4653 2450 
Q 5147 2450 5437 2106 
Q 5728 1763 5728 1178 
Q 5728 594 5436 251 
Q 5144 -91 4653 -91 
Q 4153 -91 3862 251 
Q 3572 594 3572 1178 
Q 3572 1766 3864 2108 
Q 4156 2450 4653 2450 
z
M 1428 4353 
Q 1159 4353 1004 4120 
Q 850 3888 850 3481 
Q 850 3069 1003 2837 
Q 1156 2606 1428 2606 
Q 1700 2606 1854 2837 
Q 2009 3069 2009 3481 
Q 2009 3884 1853 4118 
Q 1697 4353 1428 4353 
z
M 4250 4750 
L 4750 4750 
L 1831 -91 
L 1331 -91 
L 4250 4750 
z
M 1428 4750 
Q 1922 4750 2215 4408 
Q 2509 4066 2509 3481 
Q 2509 2891 2217 2550 
Q 1925 2209 1428 2209 
Q 931 2209 642 2551 
Q 353 2894 353 3481 
Q 353 4063 643 4406 
Q 934 4750 1428 4750 
z
" transform="scale(0.015625)"/>
       <path id="DejaVuSans-5d" d="M 1947 4863 
L 1947 -844 
L 622 -844 
L 622 -397 
L 1369 -397 
L 1369 4416 
L 622 4416 
L 622 4863 
L 1947 4863 
z
" transform="scale(0.015625)"/>
      </defs>
      <use xlink:href="#DejaVuSans-41"/>
      <use xlink:href="#DejaVuSans-6e" x="68.408203"/>
      <use xlink:href="#DejaVuSans-6e" x="131.787109"/>
      <use xlink:href="#DejaVuSans-75" x="195.166016"/>
      <use xlink:href="#DejaVuSans-61" x="258.544922"/>
      <use xlink:href="#DejaVuSans-6c" x="319.824219"/>
      <use xlink:href="#DejaVuSans-69" x="347.607422"/>
      <use xlink:href="#DejaVuSans-73" x="375.390625"/>
      <use xlink:href="#DejaVuSans-65" x="427.490234"/>
      <use xlink:href="#DejaVuSans-64" x="489.013672"/>
      <use xlink:href="#DejaVuSans-20" x="552.490234"/>
      <use xlink:href="#DejaVuSans-52" x="584.277344"/>
      <use xlink:href="#DejaVuSans-65" x="649.259766"/>
      <use xlink:href="#DejaVuSans-74" x="710.783203"/>
      <use xlink:href="#DejaVuSans-75" x="749.992188"/>
      <use xlink:href="#DejaVuSans-72" x="813.371094"/>
      <use xlink:href="#DejaVuSans-6e" x="852.734375"/>
      <use xlink:href="#DejaVuSans-73" x="916.113281"/>
      <use xlink:href="#DejaVuSans-20" x="968.212891"/>
      <use xlink:href="#DejaVuSans-5b" x="1000"/>
      <use xlink:href="#DejaVuSans-25" x="1039.013672"/>
      <use xlink:href="#DejaVuSans-5d" x="1134.033203"/>
     </g>
    </g>
   </g>
   <g id="PolyCollection_1">
    <defs>
     <path id="m0342f676b2" d="M 141.933601 -200.190487 
L 141.026399 -200.190487 
L 140.894402 -202.911797 
L 140.731058 -205.633108 
L 140.530949 -208.354418 
L 140.288225 -211.075728 
L 139.996696 -213.797038 
L 139.649956 -216.518348 
L 139.241541 -219.239658 
L 138.765128 -221.960969 
L 138.21477 -224.682279 
L 137.585172 -227.403589 
L 136.871987 -230.124899 
L 136.072143 -232.846209 
L 135.18417 -235.567519 
L 134.208529 -238.28883 
L 133.1479 -241.01014 
L 132.00743 -243.73145 
L 130.794904 -246.45276 
L 129.520819 -249.17407 
L 128.198336 -251.89538 
L 126.84311 -254.616691 
L 125.472968 -257.338001 
L 124.107464 -260.059311 
L 122.767297 -262.780621 
L 121.473639 -265.501931 
L 120.247398 -268.223241 
L 119.108454 -270.944551 
L 118.07492 -273.665862 
L 117.162481 -276.387172 
L 116.383832 -279.108482 
L 115.748278 -281.829792 
L 115.261495 -284.551102 
L 114.925468 -287.272412 
L 114.738605 -289.993723 
L 114.696 -292.715033 
L 114.789812 -295.436343 
L 115.009738 -298.157653 
L 115.343516 -300.878963 
L 115.777449 -303.600273 
L 116.29689 -306.321584 
L 116.886694 -309.042894 
L 117.531602 -311.764204 
L 118.216576 -314.485514 
L 118.927075 -317.206824 
L 119.649301 -319.928134 
L 120.370416 -322.649444 
L 121.078746 -325.370755 
L 121.763991 -328.092065 
L 122.417412 -330.813375 
L 123.032024 -333.534685 
L 123.602752 -336.255995 
L 124.12654 -338.977305 
L 124.60241 -341.698616 
L 125.031425 -344.419926 
L 125.416573 -347.141236 
L 125.762555 -349.862546 
L 126.075486 -352.583856 
L 126.362529 -355.305166 
L 126.631483 -358.026477 
L 126.890352 -360.747787 
L 127.146935 -363.469097 
L 127.408448 -366.190407 
L 127.681222 -368.911717 
L 127.970474 -371.633027 
L 128.280174 -374.354338 
L 128.612999 -377.075648 
L 128.970371 -379.796958 
L 129.352553 -382.518268 
L 129.758807 -385.239578 
L 130.187568 -387.960888 
L 130.636636 -390.682198 
L 131.103365 -393.403509 
L 131.584823 -396.124819 
L 132.077939 -398.846129 
L 132.579608 -401.567439 
L 133.086771 -404.288749 
L 133.596461 -407.010059 
L 134.10583 -409.73137 
L 134.61215 -412.45268 
L 135.112806 -415.17399 
L 135.605283 -417.8953 
L 136.087155 -420.61661 
L 136.556073 -423.33792 
L 137.009774 -426.059231 
L 137.446092 -428.780541 
L 137.862983 -431.501851 
L 138.258569 -434.223161 
L 138.631178 -436.944471 
L 138.979397 -439.665781 
L 139.302119 -442.387092 
L 139.59859 -445.108402 
L 139.868433 -447.829712 
L 140.111674 -450.551022 
L 140.328735 -453.272332 
L 140.520423 -455.993642 
L 140.687889 -458.714952 
L 140.832583 -461.436263 
L 140.956191 -464.157573 
L 141.060572 -466.878883 
L 141.147683 -469.600193 
L 141.812317 -469.600193 
L 141.812317 -469.600193 
L 141.899428 -466.878883 
L 142.003809 -464.157573 
L 142.127417 -461.436263 
L 142.272111 -458.714952 
L 142.439577 -455.993642 
L 142.631265 -453.272332 
L 142.848326 -450.551022 
L 143.091567 -447.829712 
L 143.36141 -445.108402 
L 143.657881 -442.387092 
L 143.980603 -439.665781 
L 144.328822 -436.944471 
L 144.701431 -434.223161 
L 145.097017 -431.501851 
L 145.513908 -428.780541 
L 145.950226 -426.059231 
L 146.403927 -423.33792 
L 146.872845 -420.61661 
L 147.354717 -417.8953 
L 147.847194 -415.17399 
L 148.34785 -412.45268 
L 148.85417 -409.73137 
L 149.363539 -407.010059 
L 149.873229 -404.288749 
L 150.380392 -401.567439 
L 150.882061 -398.846129 
L 151.375177 -396.124819 
L 151.856635 -393.403509 
L 152.323364 -390.682198 
L 152.772432 -387.960888 
L 153.201193 -385.239578 
L 153.607447 -382.518268 
L 153.989629 -379.796958 
L 154.347001 -377.075648 
L 154.679826 -374.354338 
L 154.989526 -371.633027 
L 155.278778 -368.911717 
L 155.551552 -366.190407 
L 155.813065 -363.469097 
L 156.069648 -360.747787 
L 156.328517 -358.026477 
L 156.597471 -355.305166 
L 156.884514 -352.583856 
L 157.197445 -349.862546 
L 157.543427 -347.141236 
L 157.928575 -344.419926 
L 158.35759 -341.698616 
L 158.83346 -338.977305 
L 159.357248 -336.255995 
L 159.927976 -333.534685 
L 160.542588 -330.813375 
L 161.196009 -328.092065 
L 161.881254 -325.370755 
L 162.589584 -322.649444 
L 163.310699 -319.928134 
L 164.032925 -317.206824 
L 164.743424 -314.485514 
L 165.428398 -311.764204 
L 166.073306 -309.042894 
L 166.66311 -306.321584 
L 167.182551 -303.600273 
L 167.616484 -300.878963 
L 167.950262 -298.157653 
L 168.170188 -295.436343 
L 168.264 -292.715033 
L 168.221395 -289.993723 
L 168.034532 -287.272412 
L 167.698505 -284.551102 
L 167.211722 -281.829792 
L 166.576168 -279.108482 
L 165.797519 -276.387172 
L 164.88508 -273.665862 
L 163.851546 -270.944551 
L 162.712602 -268.223241 
L 161.486361 -265.501931 
L 160.192703 -262.780621 
L 158.852536 -260.059311 
L 157.487032 -257.338001 
L 156.11689 -254.616691 
L 154.761664 -251.89538 
L 153.439181 -249.17407 
L 152.165096 -246.45276 
L 150.95257 -243.73145 
L 149.8121 -241.01014 
L 148.751471 -238.28883 
L 147.77583 -235.567519 
L 146.887857 -232.846209 
L 146.088013 -230.124899 
L 145.374828 -227.403589 
L 144.74523 -224.682279 
L 144.194872 -221.960969 
L 143.718459 -219.239658 
L 143.310044 -216.518348 
L 142.963304 -213.797038 
L 142.671775 -211.075728 
L 142.429051 -208.354418 
L 142.228942 -205.633108 
L 142.065598 -202.911797 
L 141.933601 -200.190487 
z
" style="stroke: #5f5f5f; stroke-width: 1.25"/>
    </defs>
    <g clip-path="url(#p8ce8bef786)">
     <use xlink:href="#m0342f676b2" x="0" y="576" style="fill: #96cac1; stroke: #5f5f5f; stroke-width: 1.25"/>
    </g>
   </g>
   <g id="PolyCollection_2">
    <defs>
     <path id="m2a0b937841" d="M 208.630263 -321.225401 
L 208.249737 -321.225401 
L 208.200319 -321.552628 
L 208.142142 -321.879854 
L 208.07481 -322.207081 
L 207.998222 -322.534308 
L 207.912625 -322.861534 
L 207.818661 -323.188761 
L 207.71738 -323.515987 
L 207.610229 -323.843214 
L 207.499005 -324.170441 
L 207.385771 -324.497667 
L 207.272743 -324.824894 
L 207.162157 -325.152121 
L 207.056117 -325.479347 
L 206.956451 -325.806574 
L 206.864576 -326.133801 
L 206.781401 -326.461027 
L 206.707267 -326.788254 
L 206.641945 -327.11548 
L 206.584673 -327.442707 
L 206.534258 -327.769934 
L 206.489207 -328.09716 
L 206.447887 -328.424387 
L 206.40869 -328.751614 
L 206.370202 -329.07884 
L 206.331327 -329.406067 
L 206.291395 -329.733293 
L 206.250203 -330.06052 
L 206.208028 -330.387747 
L 206.165577 -330.714973 
L 206.123908 -331.0422 
L 206.084315 -331.369427 
L 206.048199 -331.696653 
L 206.016921 -332.02388 
L 205.991671 -332.351107 
L 205.973325 -332.678333 
L 205.962336 -333.00556 
L 205.958625 -333.332786 
L 205.961506 -333.660013 
L 205.969627 -333.98724 
L 205.980941 -334.314466 
L 205.992711 -334.641693 
L 206.001542 -334.96892 
L 206.00345 -335.296146 
L 205.993965 -335.623373 
L 205.968257 -335.950599 
L 205.921278 -336.277826 
L 205.84791 -336.605053 
L 205.743088 -336.932279 
L 205.601893 -337.259506 
L 205.419589 -337.586733 
L 205.191597 -337.913959 
L 204.913402 -338.241186 
L 204.580402 -338.568412 
L 204.187724 -338.895639 
L 203.730039 -339.222866 
L 203.201432 -339.550092 
L 202.595374 -339.877319 
L 201.904847 -340.204546 
L 201.122681 -340.531772 
L 200.242111 -340.858999 
L 199.257576 -341.186226 
L 198.165715 -341.513452 
L 196.966509 -341.840679 
L 195.664463 -342.167905 
L 194.269711 -342.495132 
L 192.798898 -342.822359 
L 191.275702 -343.149585 
L 189.730865 -343.476812 
L 188.201648 -343.804039 
L 186.730667 -344.131265 
L 185.364124 -344.458492 
L 184.149529 -344.785718 
L 183.133057 -345.112945 
L 182.356747 -345.440172 
L 181.855767 -345.767398 
L 181.656 -346.094625 
L 181.772162 -346.421852 
L 182.206642 -346.749078 
L 182.949168 -347.076305 
L 183.977339 -347.403532 
L 185.257973 -347.730758 
L 186.749151 -348.057985 
L 188.402759 -348.385211 
L 190.167324 -348.712438 
L 191.990883 -349.039665 
L 193.823672 -349.366891 
L 195.620442 -349.694118 
L 197.342251 -350.021345 
L 198.957665 -350.348571 
L 200.443336 -350.675798 
L 201.78401 -351.003024 
L 202.97203 -351.330251 
L 204.00646 -351.657478 
L 204.891954 -351.984704 
L 205.637494 -352.311931 
L 206.255117 -352.639158 
L 206.758715 -352.966384 
L 207.162992 -353.293611 
L 207.482599 -353.620837 
L 209.397401 -353.620837 
L 209.397401 -353.620837 
L 209.717008 -353.293611 
L 210.121285 -352.966384 
L 210.624883 -352.639158 
L 211.242506 -352.311931 
L 211.988046 -351.984704 
L 212.87354 -351.657478 
L 213.90797 -351.330251 
L 215.09599 -351.003024 
L 216.436664 -350.675798 
L 217.922335 -350.348571 
L 219.537749 -350.021345 
L 221.259558 -349.694118 
L 223.056328 -349.366891 
L 224.889117 -349.039665 
L 226.712676 -348.712438 
L 228.477241 -348.385211 
L 230.130849 -348.057985 
L 231.622027 -347.730758 
L 232.902661 -347.403532 
L 233.930832 -347.076305 
L 234.673358 -346.749078 
L 235.107838 -346.421852 
L 235.224 -346.094625 
L 235.024233 -345.767398 
L 234.523253 -345.440172 
L 233.746943 -345.112945 
L 232.730471 -344.785718 
L 231.515876 -344.458492 
L 230.149333 -344.131265 
L 228.678352 -343.804039 
L 227.149135 -343.476812 
L 225.604298 -343.149585 
L 224.081102 -342.822359 
L 222.610289 -342.495132 
L 221.215537 -342.167905 
L 219.913491 -341.840679 
L 218.714285 -341.513452 
L 217.622424 -341.186226 
L 216.637889 -340.858999 
L 215.757319 -340.531772 
L 214.975153 -340.204546 
L 214.284626 -339.877319 
L 213.678568 -339.550092 
L 213.149961 -339.222866 
L 212.692276 -338.895639 
L 212.299598 -338.568412 
L 211.966598 -338.241186 
L 211.688403 -337.913959 
L 211.460411 -337.586733 
L 211.278107 -337.259506 
L 211.136912 -336.932279 
L 211.03209 -336.605053 
L 210.958722 -336.277826 
L 210.911743 -335.950599 
L 210.886035 -335.623373 
L 210.87655 -335.296146 
L 210.878458 -334.96892 
L 210.887289 -334.641693 
L 210.899059 -334.314466 
L 210.910373 -333.98724 
L 210.918494 -333.660013 
L 210.921375 -333.332786 
L 210.917664 -333.00556 
L 210.906675 -332.678333 
L 210.888329 -332.351107 
L 210.863079 -332.02388 
L 210.831801 -331.696653 
L 210.795685 -331.369427 
L 210.756092 -331.0422 
L 210.714423 -330.714973 
L 210.671972 -330.387747 
L 210.629797 -330.06052 
L 210.588605 -329.733293 
L 210.548673 -329.406067 
L 210.509798 -329.07884 
L 210.47131 -328.751614 
L 210.432113 -328.424387 
L 210.390793 -328.09716 
L 210.345742 -327.769934 
L 210.295327 -327.442707 
L 210.238055 -327.11548 
L 210.172733 -326.788254 
L 210.098599 -326.461027 
L 210.015424 -326.133801 
L 209.923549 -325.806574 
L 209.823883 -325.479347 
L 209.717843 -325.152121 
L 209.607257 -324.824894 
L 209.494229 -324.497667 
L 209.380995 -324.170441 
L 209.269771 -323.843214 
L 209.16262 -323.515987 
L 209.061339 -323.188761 
L 208.967375 -322.861534 
L 208.881778 -322.534308 
L 208.80519 -322.207081 
L 208.737858 -321.879854 
L 208.679681 -321.552628 
L 208.630263 -321.225401 
z
" style="stroke: #5f5f5f; stroke-width: 1.25"/>
    </defs>
    <g clip-path="url(#p8ce8bef786)">
     <use xlink:href="#m2a0b937841" x="0" y="576" style="fill: #f6f6bc; stroke: #5f5f5f; stroke-width: 1.25"/>
    </g>
   </g>
   <g id="PolyCollection_3">
    <defs>
     <path id="m282f16a8b0" d="M 275.680501 -83.52 
L 275.119499 -83.52 
L 275.040959 -87.345096 
L 274.947827 -91.170193 
L 274.839702 -94.995289 
L 274.716885 -98.820386 
L 274.580527 -102.645482 
L 274.432723 -106.470579 
L 274.27654 -110.295675 
L 274.115973 -114.120772 
L 273.955793 -117.945868 
L 273.801308 -121.770965 
L 273.658035 -125.596061 
L 273.531305 -129.421158 
L 273.425833 -133.246254 
L 273.345289 -137.071351 
L 273.291906 -140.896447 
L 273.266175 -144.721544 
L 273.26664 -148.54664 
L 273.289836 -152.371736 
L 273.330353 -156.196833 
L 273.381042 -160.021929 
L 273.433324 -163.847026 
L 273.477589 -167.672122 
L 273.503631 -171.497219 
L 273.501092 -175.322315 
L 273.459883 -179.147412 
L 273.37053 -182.972508 
L 273.224453 -186.797605 
L 273.014145 -190.622701 
L 272.733255 -194.447798 
L 272.376595 -198.272894 
L 271.94007 -202.097991 
L 271.420572 -205.923087 
L 270.815859 -209.748184 
L 270.124447 -213.57328 
L 269.345553 -217.398377 
L 268.47911 -221.223473 
L 267.525876 -225.048569 
L 266.48766 -228.873666 
L 265.367646 -232.698762 
L 264.170815 -236.523859 
L 262.904438 -240.348955 
L 261.578573 -244.174052 
L 260.206517 -247.999148 
L 258.805137 -251.824245 
L 257.394986 -255.649341 
L 256.000146 -259.474438 
L 254.647712 -263.299534 
L 253.366907 -267.124631 
L 252.187818 -270.949727 
L 251.139808 -274.774824 
L 250.24971 -278.59992 
L 249.539949 -282.425017 
L 249.02677 -286.250113 
L 248.718785 -290.075209 
L 248.616 -293.900306 
L 248.709501 -297.725402 
L 248.981866 -301.550499 
L 249.40832 -305.375595 
L 249.958556 -309.200692 
L 250.59905 -313.025788 
L 251.295652 -316.850885 
L 252.01618 -320.675981 
L 252.732745 -324.501078 
L 253.423589 -328.326174 
L 254.074242 -332.151271 
L 254.677928 -335.976367 
L 255.235227 -339.801464 
L 255.753085 -343.62656 
L 256.243331 -347.451657 
L 256.72092 -351.276753 
L 257.202101 -355.10185 
L 257.702712 -358.926946 
L 258.236752 -362.752042 
L 258.815327 -366.577139 
L 259.445997 -370.402235 
L 260.132517 -374.227332 
L 260.874911 -378.052428 
L 261.66979 -381.877525 
L 262.510851 -385.702621 
L 263.389444 -389.527718 
L 264.295188 -393.352814 
L 265.216552 -397.177911 
L 266.141412 -401.003007 
L 267.05756 -404.828104 
L 267.953157 -408.6532 
L 268.817145 -412.478297 
L 269.639612 -416.303393 
L 270.412092 -420.12849 
L 271.127803 -423.953586 
L 271.781811 -427.778682 
L 272.371096 -431.603779 
L 272.89454 -435.428875 
L 273.352805 -439.253972 
L 273.748152 -443.079068 
L 274.084171 -446.904165 
L 274.365492 -450.729261 
L 274.597453 -454.554358 
L 274.785796 -458.379454 
L 274.936369 -462.204551 
L 275.863631 -462.204551 
L 275.863631 -462.204551 
L 276.014204 -458.379454 
L 276.202547 -454.554358 
L 276.434508 -450.729261 
L 276.715829 -446.904165 
L 277.051848 -443.079068 
L 277.447195 -439.253972 
L 277.90546 -435.428875 
L 278.428904 -431.603779 
L 279.018189 -427.778682 
L 279.672197 -423.953586 
L 280.387908 -420.12849 
L 281.160388 -416.303393 
L 281.982855 -412.478297 
L 282.846843 -408.6532 
L 283.74244 -404.828104 
L 284.658588 -401.003007 
L 285.583448 -397.177911 
L 286.504812 -393.352814 
L 287.410556 -389.527718 
L 288.289149 -385.702621 
L 289.13021 -381.877525 
L 289.925089 -378.052428 
L 290.667483 -374.227332 
L 291.354003 -370.402235 
L 291.984673 -366.577139 
L 292.563248 -362.752042 
L 293.097288 -358.926946 
L 293.597899 -355.10185 
L 294.07908 -351.276753 
L 294.556669 -347.451657 
L 295.046915 -343.62656 
L 295.564773 -339.801464 
L 296.122072 -335.976367 
L 296.725758 -332.151271 
L 297.376411 -328.326174 
L 298.067255 -324.501078 
L 298.78382 -320.675981 
L 299.504348 -316.850885 
L 300.20095 -313.025788 
L 300.841444 -309.200692 
L 301.39168 -305.375595 
L 301.818134 -301.550499 
L 302.090499 -297.725402 
L 302.184 -293.900306 
L 302.081215 -290.075209 
L 301.77323 -286.250113 
L 301.260051 -282.425017 
L 300.55029 -278.59992 
L 299.660192 -274.774824 
L 298.612182 -270.949727 
L 297.433093 -267.124631 
L 296.152288 -263.299534 
L 294.799854 -259.474438 
L 293.405014 -255.649341 
L 291.994863 -251.824245 
L 290.593483 -247.999148 
L 289.221427 -244.174052 
L 287.895562 -240.348955 
L 286.629185 -236.523859 
L 285.432354 -232.698762 
L 284.31234 -228.873666 
L 283.274124 -225.048569 
L 282.32089 -221.223473 
L 281.454447 -217.398377 
L 280.675553 -213.57328 
L 279.984141 -209.748184 
L 279.379428 -205.923087 
L 278.85993 -202.097991 
L 278.423405 -198.272894 
L 278.066745 -194.447798 
L 277.785855 -190.622701 
L 277.575547 -186.797605 
L 277.42947 -182.972508 
L 277.340117 -179.147412 
L 277.298908 -175.322315 
L 277.296369 -171.497219 
L 277.322411 -167.672122 
L 277.366676 -163.847026 
L 277.418958 -160.021929 
L 277.469647 -156.196833 
L 277.510164 -152.371736 
L 277.53336 -148.54664 
L 277.533825 -144.721544 
L 277.508094 -140.896447 
L 277.454711 -137.071351 
L 277.374167 -133.246254 
L 277.268695 -129.421158 
L 277.141965 -125.596061 
L 276.998692 -121.770965 
L 276.844207 -117.945868 
L 276.684027 -114.120772 
L 276.52346 -110.295675 
L 276.367277 -106.470579 
L 276.219473 -102.645482 
L 276.083115 -98.820386 
L 275.960298 -94.995289 
L 275.852173 -91.170193 
L 275.759041 -87.345096 
L 275.680501 -83.52 
z
" style="stroke: #5f5f5f; stroke-width: 1.25"/>
    </defs>
    <g clip-path="url(#p8ce8bef786)">
     <use xlink:href="#m282f16a8b0" x="0" y="576" style="fill: #c1bed6; stroke: #5f5f5f; stroke-width: 1.25"/>
    </g>
   </g>
   <g id="PolyCollection_4">
    <defs>
     <path id="mf6092cbd85" d="M 342.724736 -233.272184 
L 341.995264 -233.272184 
L 341.895772 -234.85454 
L 341.776038 -236.436895 
L 341.633855 -238.019251 
L 341.467217 -239.601606 
L 341.274404 -241.183962 
L 341.054052 -242.766317 
L 340.805186 -244.348673 
L 340.527217 -245.931028 
L 340.21988 -247.513384 
L 339.883117 -249.095739 
L 339.516902 -250.678095 
L 339.121024 -252.26045 
L 338.694831 -253.842806 
L 338.236985 -255.425161 
L 337.745228 -257.007517 
L 337.216234 -258.589872 
L 336.645546 -260.172228 
L 336.027668 -261.754583 
L 335.356297 -263.336939 
L 334.624745 -264.919294 
L 333.826502 -266.50165 
L 332.955952 -268.084005 
L 332.009158 -269.666361 
L 330.984681 -271.248716 
L 329.884332 -272.831072 
L 328.7138 -274.413427 
L 327.483049 -275.995783 
L 326.206456 -277.578138 
L 324.902606 -279.160494 
L 323.593773 -280.742849 
L 322.305066 -282.325205 
L 321.063313 -283.90756 
L 319.895758 -285.489916 
L 318.828669 -287.072271 
L 317.885956 -288.654627 
L 317.08794 -290.236982 
L 316.45034 -291.819338 
L 315.983575 -293.401693 
L 315.692415 -294.984049 
L 315.576 -296.566404 
L 315.628201 -298.14876 
L 315.83826 -299.731115 
L 316.191649 -301.313471 
L 316.671038 -302.895826 
L 317.257301 -304.478182 
L 317.930454 -306.060537 
L 318.670489 -307.642893 
L 319.458034 -309.225248 
L 320.274841 -310.807604 
L 321.104108 -312.389959 
L 321.930657 -313.972315 
L 322.741014 -315.55467 
L 323.523431 -317.137026 
L 324.267897 -318.719382 
L 324.966161 -320.301737 
L 325.611798 -321.884093 
L 326.200298 -323.466448 
L 326.729181 -325.048804 
L 327.198106 -326.631159 
L 327.608938 -328.213515 
L 327.96574 -329.79587 
L 328.274677 -331.378226 
L 328.543787 -332.960581 
L 328.782649 -334.542937 
L 329.001934 -336.125292 
L 329.21288 -337.707648 
L 329.426716 -339.290003 
L 329.654092 -340.872359 
L 329.904537 -342.454714 
L 330.186012 -344.03707 
L 330.504559 -345.619425 
L 330.864091 -347.201781 
L 331.266317 -348.784136 
L 331.7108 -350.366492 
L 332.195128 -351.948847 
L 332.715181 -353.531203 
L 333.26546 -355.113558 
L 333.839451 -356.695914 
L 334.429986 -358.278269 
L 335.029597 -359.860625 
L 335.630827 -361.44298 
L 336.226492 -363.025336 
L 336.809898 -364.607691 
L 337.375005 -366.190047 
L 337.916535 -367.772402 
L 338.430049 -369.354758 
L 338.911985 -370.937113 
L 339.359664 -372.519469 
L 339.771271 -374.101824 
L 340.145828 -375.68418 
L 340.483131 -377.266535 
L 340.783688 -378.848891 
L 341.048635 -380.431246 
L 341.279642 -382.013602 
L 341.47882 -383.595957 
L 341.648608 -385.178313 
L 341.791673 -386.760668 
L 341.910803 -388.343024 
L 342.008818 -389.925379 
L 342.711182 -389.925379 
L 342.711182 -389.925379 
L 342.809197 -388.343024 
L 342.928327 -386.760668 
L 343.071392 -385.178313 
L 343.24118 -383.595957 
L 343.440358 -382.013602 
L 343.671365 -380.431246 
L 343.936312 -378.848891 
L 344.236869 -377.266535 
L 344.574172 -375.68418 
L 344.948729 -374.101824 
L 345.360336 -372.519469 
L 345.808015 -370.937113 
L 346.289951 -369.354758 
L 346.803465 -367.772402 
L 347.344995 -366.190047 
L 347.910102 -364.607691 
L 348.493508 -363.025336 
L 349.089173 -361.44298 
L 349.690403 -359.860625 
L 350.290014 -358.278269 
L 350.880549 -356.695914 
L 351.45454 -355.113558 
L 352.004819 -353.531203 
L 352.524872 -351.948847 
L 353.0092 -350.366492 
L 353.453683 -348.784136 
L 353.855909 -347.201781 
L 354.215441 -345.619425 
L 354.533988 -344.03707 
L 354.815463 -342.454714 
L 355.065908 -340.872359 
L 355.293284 -339.290003 
L 355.50712 -337.707648 
L 355.718066 -336.125292 
L 355.937351 -334.542937 
L 356.176213 -332.960581 
L 356.445323 -331.378226 
L 356.75426 -329.79587 
L 357.111062 -328.213515 
L 357.521894 -326.631159 
L 357.990819 -325.048804 
L 358.519702 -323.466448 
L 359.108202 -321.884093 
L 359.753839 -320.301737 
L 360.452103 -318.719382 
L 361.196569 -317.137026 
L 361.978986 -315.55467 
L 362.789343 -313.972315 
L 363.615892 -312.389959 
L 364.445159 -310.807604 
L 365.261966 -309.225248 
L 366.049511 -307.642893 
L 366.789546 -306.060537 
L 367.462699 -304.478182 
L 368.048962 -302.895826 
L 368.528351 -301.313471 
L 368.88174 -299.731115 
L 369.091799 -298.14876 
L 369.144 -296.566404 
L 369.027585 -294.984049 
L 368.736425 -293.401693 
L 368.26966 -291.819338 
L 367.63206 -290.236982 
L 366.834044 -288.654627 
L 365.891331 -287.072271 
L 364.824242 -285.489916 
L 363.656687 -283.90756 
L 362.414934 -282.325205 
L 361.126227 -280.742849 
L 359.817394 -279.160494 
L 358.513544 -277.578138 
L 357.236951 -275.995783 
L 356.0062 -274.413427 
L 354.835668 -272.831072 
L 353.735319 -271.248716 
L 352.710842 -269.666361 
L 351.764048 -268.084005 
L 350.893498 -266.50165 
L 350.095255 -264.919294 
L 349.363703 -263.336939 
L 348.692332 -261.754583 
L 348.074454 -260.172228 
L 347.503766 -258.589872 
L 346.974772 -257.007517 
L 346.483015 -255.425161 
L 346.025169 -253.842806 
L 345.598976 -252.26045 
L 345.203098 -250.678095 
L 344.836883 -249.095739 
L 344.50012 -247.513384 
L 344.192783 -245.931028 
L 343.914814 -244.348673 
L 343.665948 -242.766317 
L 343.445596 -241.183962 
L 343.252783 -239.601606 
L 343.086145 -238.019251 
L 342.943962 -236.436895 
L 342.824228 -234.85454 
L 342.724736 -233.272184 
z
" style="stroke: #5f5f5f; stroke-width: 1.25"/>
    </defs>
    <g clip-path="url(#p8ce8bef786)">
     <use xlink:href="#mf6092cbd85" x="0" y="576" style="fill: #ea8e83; stroke: #5f5f5f; stroke-width: 1.25"/>
    </g>
   </g>
   <g id="PolyCollection_5">
    <defs>
     <path id="m01334f633b" d="M 409.637868 -319.727842 
L 409.002132 -319.727842 
L 408.914042 -320.161232 
L 408.807907 -320.594622 
L 408.681842 -321.028011 
L 408.534216 -321.461401 
L 408.363768 -321.89479 
L 408.169716 -322.32818 
L 407.951862 -322.76157 
L 407.710668 -323.194959 
L 407.447316 -323.628349 
L 407.163722 -324.061739 
L 406.862525 -324.495128 
L 406.54703 -324.928518 
L 406.221107 -325.361907 
L 405.889063 -325.795297 
L 405.555465 -326.228687 
L 405.224938 -326.662076 
L 404.901936 -327.095466 
L 404.590492 -327.528856 
L 404.29395 -327.962245 
L 404.014709 -328.395635 
L 403.753969 -328.829024 
L 403.511514 -329.262414 
L 403.285544 -329.695804 
L 403.072578 -330.129193 
L 402.867454 -330.562583 
L 402.663435 -330.995973 
L 402.45244 -331.429362 
L 402.225393 -331.862752 
L 401.972692 -332.296141 
L 401.684753 -332.729531 
L 401.352619 -333.162921 
L 400.968567 -333.59631 
L 400.526664 -334.0297 
L 400.023235 -334.46309 
L 399.457167 -334.896479 
L 398.830036 -335.329869 
L 398.146031 -335.763258 
L 397.411663 -336.196648 
L 396.635294 -336.630038 
L 395.826521 -337.063427 
L 394.995475 -337.496817 
L 394.152101 -337.930207 
L 393.305499 -338.363596 
L 392.463393 -338.796986 
L 391.631782 -339.230375 
L 390.814829 -339.663765 
L 390.014992 -340.097155 
L 389.233393 -340.530544 
L 388.470391 -340.963934 
L 387.726298 -341.397324 
L 387.002156 -341.830713 
L 386.300492 -342.264103 
L 385.625945 -342.697492 
L 384.985695 -343.130882 
L 384.389624 -343.564272 
L 383.850167 -343.997661 
L 383.381847 -344.431051 
L 383.000528 -344.864441 
L 382.722441 -345.29783 
L 382.563069 -345.73122 
L 382.536 -346.164609 
L 382.651853 -346.597999 
L 382.917379 -347.031389 
L 383.334833 -347.464778 
L 383.901647 -347.898168 
L 384.610472 -348.331558 
L 385.449529 -348.764947 
L 386.403277 -349.198337 
L 387.453288 -349.631726 
L 388.579276 -350.065116 
L 389.760168 -350.498506 
L 390.975139 -350.931895 
L 392.204524 -351.365285 
L 393.430556 -351.798675 
L 394.637889 -352.232064 
L 395.813884 -352.665454 
L 396.948682 -353.098843 
L 398.035082 -353.532233 
L 399.068263 -353.965623 
L 400.045405 -354.399012 
L 400.965263 -354.832402 
L 401.827733 -355.265792 
L 402.633458 -355.699181 
L 403.383503 -356.132571 
L 404.07911 -356.56596 
L 404.72155 -356.99935 
L 405.312055 -357.43274 
L 405.85182 -357.866129 
L 406.342058 -358.299519 
L 406.784084 -358.732909 
L 407.179399 -359.166298 
L 407.529772 -359.599688 
L 407.837294 -360.033077 
L 408.104391 -360.466467 
L 408.333819 -360.899857 
L 408.528609 -361.333246 
L 408.692 -361.766636 
L 408.827352 -362.200026 
L 408.938046 -362.633415 
L 409.701954 -362.633415 
L 409.701954 -362.633415 
L 409.812648 -362.200026 
L 409.948 -361.766636 
L 410.111391 -361.333246 
L 410.306181 -360.899857 
L 410.535609 -360.466467 
L 410.802706 -360.033077 
L 411.110228 -359.599688 
L 411.460601 -359.166298 
L 411.855916 -358.732909 
L 412.297942 -358.299519 
L 412.78818 -357.866129 
L 413.327945 -357.43274 
L 413.91845 -356.99935 
L 414.56089 -356.56596 
L 415.256497 -356.132571 
L 416.006542 -355.699181 
L 416.812267 -355.265792 
L 417.674737 -354.832402 
L 418.594595 -354.399012 
L 419.571737 -353.965623 
L 420.604918 -353.532233 
L 421.691318 -353.098843 
L 422.826116 -352.665454 
L 424.002111 -352.232064 
L 425.209444 -351.798675 
L 426.435476 -351.365285 
L 427.664861 -350.931895 
L 428.879832 -350.498506 
L 430.060724 -350.065116 
L 431.186712 -349.631726 
L 432.236723 -349.198337 
L 433.190471 -348.764947 
L 434.029528 -348.331558 
L 434.738353 -347.898168 
L 435.305167 -347.464778 
L 435.722621 -347.031389 
L 435.988147 -346.597999 
L 436.104 -346.164609 
L 436.076931 -345.73122 
L 435.917559 -345.29783 
L 435.639472 -344.864441 
L 435.258153 -344.431051 
L 434.789833 -343.997661 
L 434.250376 -343.564272 
L 433.654305 -343.130882 
L 433.014055 -342.697492 
L 432.339508 -342.264103 
L 431.637844 -341.830713 
L 430.913702 -341.397324 
L 430.169609 -340.963934 
L 429.406607 -340.530544 
L 428.625008 -340.097155 
L 427.825171 -339.663765 
L 427.008218 -339.230375 
L 426.176607 -338.796986 
L 425.334501 -338.363596 
L 424.487899 -337.930207 
L 423.644525 -337.496817 
L 422.813479 -337.063427 
L 422.004706 -336.630038 
L 421.228337 -336.196648 
L 420.493969 -335.763258 
L 419.809964 -335.329869 
L 419.182833 -334.896479 
L 418.616765 -334.46309 
L 418.113336 -334.0297 
L 417.671433 -333.59631 
L 417.287381 -333.162921 
L 416.955247 -332.729531 
L 416.667308 -332.296141 
L 416.414607 -331.862752 
L 416.18756 -331.429362 
L 415.976565 -330.995973 
L 415.772546 -330.562583 
L 415.567422 -330.129193 
L 415.354456 -329.695804 
L 415.128486 -329.262414 
L 414.886031 -328.829024 
L 414.625291 -328.395635 
L 414.34605 -327.962245 
L 414.049508 -327.528856 
L 413.738064 -327.095466 
L 413.415062 -326.662076 
L 413.084535 -326.228687 
L 412.750937 -325.795297 
L 412.418893 -325.361907 
L 412.09297 -324.928518 
L 411.777475 -324.495128 
L 411.476278 -324.061739 
L 411.192684 -323.628349 
L 410.929332 -323.194959 
L 410.688138 -322.76157 
L 410.470284 -322.32818 
L 410.276232 -321.89479 
L 410.105784 -321.461401 
L 409.958158 -321.028011 
L 409.832093 -320.594622 
L 409.725958 -320.161232 
L 409.637868 -319.727842 
z
" style="stroke: #5f5f5f; stroke-width: 1.25"/>
    </defs>
    <g clip-path="url(#p8ce8bef786)">
     <use xlink:href="#m01334f633b" x="0" y="576" style="fill: #8aafc9; stroke: #5f5f5f; stroke-width: 1.25"/>
    </g>
   </g>
   <g id="PolyCollection_6">
    <defs>
     <path id="mf6a611ec17" d="M 476.787695 -157.306339 
L 475.772305 -157.306339 
L 475.637534 -160.2743 
L 475.475988 -163.242261 
L 475.284878 -166.210221 
L 475.061759 -169.178182 
L 474.8047 -172.146143 
L 474.512456 -175.114104 
L 474.184618 -178.082065 
L 473.821744 -181.050025 
L 473.425447 -184.017986 
L 472.998421 -186.985947 
L 472.54442 -189.953908 
L 472.068153 -192.921869 
L 471.575127 -195.88983 
L 471.071422 -198.85779 
L 470.563428 -201.825751 
L 470.057551 -204.793712 
L 469.559914 -207.761673 
L 469.076078 -210.729634 
L 468.610799 -213.697594 
L 468.167845 -216.665555 
L 467.749882 -219.633516 
L 467.358432 -222.601477 
L 466.993899 -225.569438 
L 466.655658 -228.537399 
L 466.34218 -231.505359 
L 466.051174 -234.47332 
L 465.779724 -237.441281 
L 465.524403 -240.409242 
L 465.281338 -243.377203 
L 465.046232 -246.345164 
L 464.814329 -249.313124 
L 464.580356 -252.281085 
L 464.338432 -255.249046 
L 464.082005 -258.217007 
L 463.803826 -261.184968 
L 463.496 -264.152928 
L 463.150145 -267.120889 
L 462.757668 -270.08885 
L 462.310185 -273.056811 
L 461.800052 -276.024772 
L 461.221001 -278.992733 
L 460.568839 -281.960693 
L 459.842155 -284.928654 
L 459.042967 -287.896615 
L 458.177248 -290.864576 
L 457.255269 -293.832537 
L 456.291686 -296.800497 
L 455.305344 -299.768458 
L 454.318768 -302.736419 
L 453.357351 -305.70438 
L 452.448268 -308.672341 
L 451.619174 -311.640302 
L 450.896772 -314.608262 
L 450.305351 -317.576223 
L 449.865402 -320.544184 
L 449.592421 -323.512145 
L 449.496 -326.480106 
L 449.579275 -329.448067 
L 449.838794 -332.416027 
L 450.264801 -335.383988 
L 450.841936 -338.351949 
L 451.55027 -341.31991 
L 452.366619 -344.287871 
L 453.266005 -347.255831 
L 454.223162 -350.223792 
L 455.21397 -353.191753 
L 456.2167 -356.159714 
L 457.212995 -359.127675 
L 458.188526 -362.095636 
L 459.133287 -365.063596 
L 460.041545 -368.031557 
L 460.911478 -370.999518 
L 461.744546 -373.967479 
L 462.54469 -376.93544 
L 463.317435 -379.903401 
L 464.06898 -382.871361 
L 464.805359 -385.839322 
L 465.531728 -388.807283 
L 466.251836 -391.775244 
L 466.967691 -394.743205 
L 467.679437 -397.711165 
L 468.385414 -400.679126 
L 469.082387 -403.647087 
L 469.765888 -406.615048 
L 470.430639 -409.583009 
L 471.070999 -412.55097 
L 471.681407 -415.51893 
L 472.256767 -418.486891 
L 472.792768 -421.454852 
L 473.286108 -424.422813 
L 473.734632 -427.390774 
L 474.137369 -430.358734 
L 474.494498 -433.326695 
L 474.807236 -436.294656 
L 475.077688 -439.262617 
L 475.308663 -442.230578 
L 475.503478 -445.198539 
L 475.665762 -448.166499 
L 475.799285 -451.13446 
L 476.760715 -451.13446 
L 476.760715 -451.13446 
L 476.894238 -448.166499 
L 477.056522 -445.198539 
L 477.251337 -442.230578 
L 477.482312 -439.262617 
L 477.752764 -436.294656 
L 478.065502 -433.326695 
L 478.422631 -430.358734 
L 478.825368 -427.390774 
L 479.273892 -424.422813 
L 479.767232 -421.454852 
L 480.303233 -418.486891 
L 480.878593 -415.51893 
L 481.489001 -412.55097 
L 482.129361 -409.583009 
L 482.794112 -406.615048 
L 483.477613 -403.647087 
L 484.174586 -400.679126 
L 484.880563 -397.711165 
L 485.592309 -394.743205 
L 486.308164 -391.775244 
L 487.028272 -388.807283 
L 487.754641 -385.839322 
L 488.49102 -382.871361 
L 489.242565 -379.903401 
L 490.01531 -376.93544 
L 490.815454 -373.967479 
L 491.648522 -370.999518 
L 492.518455 -368.031557 
L 493.426713 -365.063596 
L 494.371474 -362.095636 
L 495.347005 -359.127675 
L 496.3433 -356.159714 
L 497.34603 -353.191753 
L 498.336838 -350.223792 
L 499.293995 -347.255831 
L 500.193381 -344.287871 
L 501.00973 -341.31991 
L 501.718064 -338.351949 
L 502.295199 -335.383988 
L 502.721206 -332.416027 
L 502.980725 -329.448067 
L 503.064 -326.480106 
L 502.967579 -323.512145 
L 502.694598 -320.544184 
L 502.254649 -317.576223 
L 501.663228 -314.608262 
L 500.940826 -311.640302 
L 500.111732 -308.672341 
L 499.202649 -305.70438 
L 498.241232 -302.736419 
L 497.254656 -299.768458 
L 496.268314 -296.800497 
L 495.304731 -293.832537 
L 494.382752 -290.864576 
L 493.517033 -287.896615 
L 492.717845 -284.928654 
L 491.991161 -281.960693 
L 491.338999 -278.992733 
L 490.759948 -276.024772 
L 490.249815 -273.056811 
L 489.802332 -270.08885 
L 489.409855 -267.120889 
L 489.064 -264.152928 
L 488.756174 -261.184968 
L 488.477995 -258.217007 
L 488.221568 -255.249046 
L 487.979644 -252.281085 
L 487.745671 -249.313124 
L 487.513768 -246.345164 
L 487.278662 -243.377203 
L 487.035597 -240.409242 
L 486.780276 -237.441281 
L 486.508826 -234.47332 
L 486.21782 -231.505359 
L 485.904342 -228.537399 
L 485.566101 -225.569438 
L 485.201568 -222.601477 
L 484.810118 -219.633516 
L 484.392155 -216.665555 
L 483.949201 -213.697594 
L 483.483922 -210.729634 
L 483.000086 -207.761673 
L 482.502449 -204.793712 
L 481.996572 -201.825751 
L 481.488578 -198.85779 
L 480.984873 -195.88983 
L 480.491847 -192.921869 
L 480.01558 -189.953908 
L 479.561579 -186.985947 
L 479.134553 -184.017986 
L 478.738256 -181.050025 
L 478.375382 -178.082065 
L 478.047544 -175.114104 
L 477.7553 -172.146143 
L 477.498241 -169.178182 
L 477.275122 -166.210221 
L 477.084012 -163.242261 
L 476.922466 -160.2743 
L 476.787695 -157.306339 
z
" style="stroke: #5f5f5f; stroke-width: 1.25"/>
    </defs>
    <g clip-path="url(#p8ce8bef786)">
     <use xlink:href="#mf6a611ec17" x="0" y="576" style="fill: #eab375; stroke: #5f5f5f; stroke-width: 1.25"/>
    </g>
   </g>
   <g id="PolyCollection_7">
    <defs>
     <path id="me247968cc6" d="M 543.972248 -173.724226 
L 542.507752 -173.724226 
L 542.290424 -176.778704 
L 542.022344 -179.833181 
L 541.695894 -182.887659 
L 541.303466 -185.942136 
L 540.837796 -188.996614 
L 540.292341 -192.051091 
L 539.6617 -195.105569 
L 538.94203 -198.160046 
L 538.131451 -201.214523 
L 537.230399 -204.269001 
L 536.241895 -207.323478 
L 535.171698 -210.377956 
L 534.028333 -213.432433 
L 532.822957 -216.486911 
L 531.569085 -219.541388 
L 530.282163 -222.595866 
L 528.979031 -225.650343 
L 527.677289 -228.704821 
L 526.394627 -231.759298 
L 525.148153 -234.813776 
L 523.953758 -237.868253 
L 522.825588 -240.92273 
L 521.775612 -243.977208 
L 520.81335 -247.031685 
L 519.945738 -250.086163 
L 519.177143 -253.14064 
L 518.509503 -256.195118 
L 517.942574 -259.249595 
L 517.474255 -262.304073 
L 517.100959 -265.35855 
L 516.818007 -268.413028 
L 516.620013 -271.467505 
L 516.501253 -274.521983 
L 516.456 -277.57646 
L 516.47881 -280.630937 
L 516.564762 -283.685415 
L 516.70964 -286.739892 
L 516.910058 -289.79437 
L 517.16352 -292.848847 
L 517.468406 -295.903325 
L 517.823889 -298.957802 
L 518.22978 -302.01228 
L 518.686301 -305.066757 
L 519.193802 -308.121235 
L 519.752438 -311.175712 
L 520.361826 -314.23019 
L 521.020719 -317.284667 
L 521.726718 -320.339144 
L 522.476057 -323.393622 
L 523.263486 -326.448099 
L 524.08227 -329.502577 
L 524.924311 -332.557054 
L 525.780392 -335.611532 
L 526.640521 -338.666009 
L 527.494361 -341.720487 
L 528.331701 -344.774964 
L 529.142941 -347.829442 
L 529.919538 -350.883919 
L 530.654401 -353.938396 
L 531.342174 -356.992874 
L 531.979422 -360.047351 
L 532.564685 -363.101829 
L 533.09841 -366.156306 
L 533.58278 -369.210784 
L 534.021448 -372.265261 
L 534.419215 -375.319739 
L 534.781671 -378.374216 
L 535.114838 -381.428694 
L 535.424827 -384.483171 
L 535.717543 -387.537649 
L 535.998454 -390.592126 
L 536.272409 -393.646603 
L 536.543533 -396.701081 
L 536.815174 -399.755558 
L 537.089894 -402.810036 
L 537.369499 -405.864513 
L 537.655088 -408.918991 
L 537.947114 -411.973468 
L 538.245443 -415.027946 
L 538.549415 -418.082423 
L 538.857899 -421.136901 
L 539.16935 -424.191378 
L 539.481861 -427.245856 
L 539.793233 -430.300333 
L 540.101043 -433.35481 
L 540.402727 -436.409288 
L 540.695684 -439.463765 
L 540.97737 -442.518243 
L 541.245405 -445.57272 
L 541.497677 -448.627198 
L 541.732421 -451.681675 
L 541.948295 -454.736153 
L 542.144422 -457.79063 
L 542.320408 -460.845108 
L 542.476329 -463.899585 
L 542.612704 -466.954063 
L 542.730435 -470.00854 
L 542.830735 -473.063017 
L 542.915055 -476.117495 
L 543.564945 -476.117495 
L 543.564945 -476.117495 
L 543.649265 -473.063017 
L 543.749565 -470.00854 
L 543.867296 -466.954063 
L 544.003671 -463.899585 
L 544.159592 -460.845108 
L 544.335578 -457.79063 
L 544.531705 -454.736153 
L 544.747579 -451.681675 
L 544.982323 -448.627198 
L 545.234595 -445.57272 
L 545.50263 -442.518243 
L 545.784316 -439.463765 
L 546.077273 -436.409288 
L 546.378957 -433.35481 
L 546.686767 -430.300333 
L 546.998139 -427.245856 
L 547.31065 -424.191378 
L 547.622101 -421.136901 
L 547.930585 -418.082423 
L 548.234557 -415.027946 
L 548.532886 -411.973468 
L 548.824912 -408.918991 
L 549.110501 -405.864513 
L 549.390106 -402.810036 
L 549.664826 -399.755558 
L 549.936467 -396.701081 
L 550.207591 -393.646603 
L 550.481546 -390.592126 
L 550.762457 -387.537649 
L 551.055173 -384.483171 
L 551.365162 -381.428694 
L 551.698329 -378.374216 
L 552.060785 -375.319739 
L 552.458552 -372.265261 
L 552.89722 -369.210784 
L 553.38159 -366.156306 
L 553.915315 -363.101829 
L 554.500578 -360.047351 
L 555.137826 -356.992874 
L 555.825599 -353.938396 
L 556.560462 -350.883919 
L 557.337059 -347.829442 
L 558.148299 -344.774964 
L 558.985639 -341.720487 
L 559.839479 -338.666009 
L 560.699608 -335.611532 
L 561.555689 -332.557054 
L 562.39773 -329.502577 
L 563.216514 -326.448099 
L 564.003943 -323.393622 
L 564.753282 -320.339144 
L 565.459281 -317.284667 
L 566.118174 -314.23019 
L 566.727562 -311.175712 
L 567.286198 -308.121235 
L 567.793699 -305.066757 
L 568.25022 -302.01228 
L 568.656111 -298.957802 
L 569.011594 -295.903325 
L 569.31648 -292.848847 
L 569.569942 -289.79437 
L 569.77036 -286.739892 
L 569.915238 -283.685415 
L 570.00119 -280.630937 
L 570.024 -277.57646 
L 569.978747 -274.521983 
L 569.859987 -271.467505 
L 569.661993 -268.413028 
L 569.379041 -265.35855 
L 569.005745 -262.304073 
L 568.537426 -259.249595 
L 567.970497 -256.195118 
L 567.302857 -253.14064 
L 566.534262 -250.086163 
L 565.66665 -247.031685 
L 564.704388 -243.977208 
L 563.654412 -240.92273 
L 562.526242 -237.868253 
L 561.331847 -234.813776 
L 560.085373 -231.759298 
L 558.802711 -228.704821 
L 557.500969 -225.650343 
L 556.197837 -222.595866 
L 554.910915 -219.541388 
L 553.657043 -216.486911 
L 552.451667 -213.432433 
L 551.308302 -210.377956 
L 550.238105 -207.323478 
L 549.249601 -204.269001 
L 548.348549 -201.214523 
L 547.53797 -198.160046 
L 546.8183 -195.105569 
L 546.187659 -192.051091 
L 545.642204 -188.996614 
L 545.176534 -185.942136 
L 544.784106 -182.887659 
L 544.457656 -179.833181 
L 544.189576 -176.778704 
L 543.972248 -173.724226 
z
" style="stroke: #5f5f5f; stroke-width: 1.25"/>
    </defs>
    <g clip-path="url(#p8ce8bef786)">
     <use xlink:href="#me247968cc6" x="0" y="576" style="fill: #afcf78; stroke: #5f5f5f; stroke-width: 1.25"/>
    </g>
   </g>
   <g id="PolyCollection_8">
    <defs>
     <path id="m88efa53a6d" d="M 610.78788 -170.63674 
L 609.61212 -170.63674 
L 609.443201 -173.8295 
L 609.238295 -177.022261 
L 608.993511 -180.215021 
L 608.705555 -183.407781 
L 608.372011 -186.600541 
L 607.99162 -189.793301 
L 607.564524 -192.986062 
L 607.092449 -196.178822 
L 606.578799 -199.371582 
L 606.028633 -202.564342 
L 605.448516 -205.757102 
L 604.846221 -208.949863 
L 604.230303 -212.142623 
L 603.60955 -215.335383 
L 602.992345 -218.528143 
L 602.385982 -221.720903 
L 601.795987 -224.913664 
L 601.225505 -228.106424 
L 600.674813 -231.299184 
L 600.141007 -234.491944 
L 599.617935 -237.684704 
L 599.096386 -240.877465 
L 598.564567 -244.070225 
L 598.00886 -247.262985 
L 597.414835 -250.455745 
L 596.768452 -253.648505 
L 596.057391 -256.841266 
L 595.272404 -260.034026 
L 594.408576 -263.226786 
L 593.466392 -266.419546 
L 592.452492 -269.612306 
L 591.380014 -272.805067 
L 590.268487 -275.997827 
L 589.143205 -279.190587 
L 588.03414 -282.383347 
L 586.97441 -285.576107 
L 585.998431 -288.768868 
L 585.139875 -291.961628 
L 584.429595 -295.154388 
L 583.893679 -298.347148 
L 583.5518 -301.539908 
L 583.416 -304.732669 
L 583.489996 -307.925429 
L 583.76908 -311.118189 
L 584.240608 -314.310949 
L 584.885015 -317.503709 
L 585.677288 -320.69647 
L 586.588728 -323.88923 
L 587.588872 -327.08199 
L 588.64739 -330.27475 
L 589.735814 -333.46751 
L 590.828955 -336.660271 
L 591.905923 -339.853031 
L 592.950686 -343.045791 
L 593.952182 -346.238551 
L 594.904002 -349.431311 
L 595.803741 -352.624072 
L 596.652114 -355.816832 
L 597.45196 -359.009592 
L 598.207238 -362.202352 
L 598.922145 -365.395112 
L 599.600405 -368.587873 
L 600.2448 -371.780633 
L 600.856947 -374.973393 
L 601.437313 -378.166153 
L 601.985418 -381.358913 
L 602.500174 -384.551674 
L 602.980301 -387.744434 
L 603.424741 -390.937194 
L 603.833025 -394.129954 
L 604.205546 -397.322714 
L 604.543723 -400.515475 
L 604.850028 -403.708235 
L 605.127907 -406.900995 
L 605.381596 -410.093755 
L 605.615863 -413.286515 
L 605.835711 -416.479276 
L 606.046066 -419.672036 
L 606.251481 -422.864796 
L 606.455879 -426.057556 
L 606.662346 -429.250316 
L 606.872998 -432.443077 
L 607.088922 -435.635837 
L 607.310179 -438.828597 
L 607.535887 -442.021357 
L 607.764358 -445.214117 
L 607.993274 -448.406878 
L 608.2199 -451.599638 
L 608.441304 -454.792398 
L 608.654569 -457.985158 
L 608.856992 -461.177918 
L 609.046241 -464.370679 
L 609.220472 -467.563439 
L 609.378404 -470.756199 
L 609.519343 -473.948959 
L 609.643161 -477.141719 
L 609.750243 -480.33448 
L 609.841412 -483.52724 
L 609.917825 -486.72 
L 610.482175 -486.72 
L 610.482175 -486.72 
L 610.558588 -483.52724 
L 610.649757 -480.33448 
L 610.756839 -477.141719 
L 610.880657 -473.948959 
L 611.021596 -470.756199 
L 611.179528 -467.563439 
L 611.353759 -464.370679 
L 611.543008 -461.177918 
L 611.745431 -457.985158 
L 611.958696 -454.792398 
L 612.1801 -451.599638 
L 612.406726 -448.406878 
L 612.635642 -445.214117 
L 612.864113 -442.021357 
L 613.089821 -438.828597 
L 613.311078 -435.635837 
L 613.527002 -432.443077 
L 613.737654 -429.250316 
L 613.944121 -426.057556 
L 614.148519 -422.864796 
L 614.353934 -419.672036 
L 614.564289 -416.479276 
L 614.784137 -413.286515 
L 615.018404 -410.093755 
L 615.272093 -406.900995 
L 615.549972 -403.708235 
L 615.856277 -400.515475 
L 616.194454 -397.322714 
L 616.566975 -394.129954 
L 616.975259 -390.937194 
L 617.419699 -387.744434 
L 617.899826 -384.551674 
L 618.414582 -381.358913 
L 618.962687 -378.166153 
L 619.543053 -374.973393 
L 620.1552 -371.780633 
L 620.799595 -368.587873 
L 621.477855 -365.395112 
L 622.192762 -362.202352 
L 622.94804 -359.009592 
L 623.747886 -355.816832 
L 624.596259 -352.624072 
L 625.495998 -349.431311 
L 626.447818 -346.238551 
L 627.449314 -343.045791 
L 628.494077 -339.853031 
L 629.571045 -336.660271 
L 630.664186 -333.46751 
L 631.75261 -330.27475 
L 632.811128 -327.08199 
L 633.811272 -323.88923 
L 634.722712 -320.69647 
L 635.514985 -317.503709 
L 636.159392 -314.310949 
L 636.63092 -311.118189 
L 636.910004 -307.925429 
L 636.984 -304.732669 
L 636.8482 -301.539908 
L 636.506321 -298.347148 
L 635.970405 -295.154388 
L 635.260125 -291.961628 
L 634.401569 -288.768868 
L 633.42559 -285.576107 
L 632.36586 -282.383347 
L 631.256795 -279.190587 
L 630.131513 -275.997827 
L 629.019986 -272.805067 
L 627.947508 -269.612306 
L 626.933608 -266.419546 
L 625.991424 -263.226786 
L 625.127596 -260.034026 
L 624.342609 -256.841266 
L 623.631548 -253.648505 
L 622.985165 -250.455745 
L 622.39114 -247.262985 
L 621.835433 -244.070225 
L 621.303614 -240.877465 
L 620.782065 -237.684704 
L 620.258993 -234.491944 
L 619.725187 -231.299184 
L 619.174495 -228.106424 
L 618.604013 -224.913664 
L 618.014018 -221.720903 
L 617.407655 -218.528143 
L 616.79045 -215.335383 
L 616.169697 -212.142623 
L 615.553779 -208.949863 
L 614.951484 -205.757102 
L 614.371367 -202.564342 
L 613.821201 -199.371582 
L 613.307551 -196.178822 
L 612.835476 -192.986062 
L 612.40838 -189.793301 
L 612.027989 -186.600541 
L 611.694445 -183.407781 
L 611.406489 -180.215021 
L 611.161705 -177.022261 
L 610.956799 -173.8295 
L 610.78788 -170.63674 
z
" style="stroke: #5f5f5f; stroke-width: 1.25"/>
    </defs>
    <g clip-path="url(#p8ce8bef786)">
     <use xlink:href="#m88efa53a6d" x="0" y="576" style="fill: #f6d3e5; stroke: #5f5f5f; stroke-width: 1.25"/>
    </g>
   </g>
   <g id="PolyCollection_9">
    <defs>
     <path id="m8d5411229e" d="M 677.492515 -248.365679 
L 676.827485 -248.365679 
L 676.735154 -250.142737 
L 676.623575 -251.919794 
L 676.490436 -253.696852 
L 676.333501 -255.473909 
L 676.150655 -257.250967 
L 675.939945 -259.028024 
L 675.699598 -260.805082 
L 675.428025 -262.582139 
L 675.123806 -264.359197 
L 674.785662 -266.136254 
L 674.412425 -267.913312 
L 674.00302 -269.690369 
L 673.556461 -271.467427 
L 673.071877 -273.244484 
L 672.548571 -275.021542 
L 671.986113 -276.798599 
L 671.384446 -278.575657 
L 670.744005 -280.352714 
L 670.065821 -282.129772 
L 669.351578 -283.906829 
L 668.603621 -285.683887 
L 667.824888 -287.460944 
L 667.018762 -289.238002 
L 666.188869 -291.015059 
L 665.338833 -292.792117 
L 664.47203 -294.569174 
L 663.591386 -296.346232 
L 662.699271 -298.123289 
L 661.797509 -299.900347 
L 660.887544 -301.677404 
L 659.970765 -303.454462 
L 659.048945 -305.231519 
L 658.124788 -307.008577 
L 657.202478 -308.785634 
L 656.288186 -310.562692 
L 655.390433 -312.339749 
L 654.520251 -314.116807 
L 653.69108 -315.893864 
L 652.918377 -317.670922 
L 652.218947 -319.447979 
L 651.610019 -321.225037 
L 651.108156 -323.002094 
L 650.72807 -324.779152 
L 650.481464 -326.556209 
L 650.376 -328.333267 
L 650.414497 -330.110324 
L 650.594451 -331.887382 
L 650.907914 -333.664439 
L 651.34178 -335.441497 
L 651.878449 -337.218554 
L 652.496837 -338.995612 
L 653.173647 -340.772669 
L 653.884822 -342.549727 
L 654.607048 -344.326784 
L 655.319204 -346.103842 
L 656.00364 -347.880899 
L 656.647186 -349.657957 
L 657.241814 -351.435014 
L 657.7849 -353.212072 
L 658.27908 -354.989129 
L 658.731709 -356.766187 
L 659.153975 -358.543244 
L 659.559752 -360.320302 
L 659.964285 -362.097359 
L 660.382832 -363.874417 
L 660.829365 -365.651474 
L 661.315446 -367.428532 
L 661.849362 -369.205589 
L 662.435588 -370.982647 
L 663.074594 -372.759704 
L 663.763004 -374.536762 
L 664.494061 -376.313819 
L 665.258338 -378.090877 
L 666.044605 -379.867934 
L 666.840762 -381.644992 
L 667.634745 -383.422049 
L 668.415317 -385.199107 
L 669.172695 -386.976164 
L 669.89896 -388.753222 
L 670.588252 -390.530279 
L 671.236755 -392.307337 
L 671.842517 -394.084394 
L 672.405142 -395.861452 
L 672.925411 -397.638509 
L 673.404898 -399.415567 
L 673.84561 -401.192624 
L 674.249688 -402.969682 
L 674.619202 -404.746739 
L 674.956023 -406.523797 
L 675.261785 -408.300854 
L 675.537907 -410.077912 
L 675.785659 -411.854969 
L 676.006252 -413.632027 
L 676.20092 -415.409084 
L 676.370998 -417.186142 
L 676.517968 -418.9632 
L 676.643475 -420.740257 
L 676.749316 -422.517315 
L 676.837409 -424.294372 
L 677.482591 -424.294372 
L 677.482591 -424.294372 
L 677.570684 -422.517315 
L 677.676525 -420.740257 
L 677.802032 -418.9632 
L 677.949002 -417.186142 
L 678.11908 -415.409084 
L 678.313748 -413.632027 
L 678.534341 -411.854969 
L 678.782093 -410.077912 
L 679.058215 -408.300854 
L 679.363977 -406.523797 
L 679.700798 -404.746739 
L 680.070312 -402.969682 
L 680.47439 -401.192624 
L 680.915102 -399.415567 
L 681.394589 -397.638509 
L 681.914858 -395.861452 
L 682.477483 -394.084394 
L 683.083245 -392.307337 
L 683.731748 -390.530279 
L 684.42104 -388.753222 
L 685.147305 -386.976164 
L 685.904683 -385.199107 
L 686.685255 -383.422049 
L 687.479238 -381.644992 
L 688.275395 -379.867934 
L 689.061662 -378.090877 
L 689.825939 -376.313819 
L 690.556996 -374.536762 
L 691.245406 -372.759704 
L 691.884412 -370.982647 
L 692.470638 -369.205589 
L 693.004554 -367.428532 
L 693.490635 -365.651474 
L 693.937168 -363.874417 
L 694.355715 -362.097359 
L 694.760248 -360.320302 
L 695.166025 -358.543244 
L 695.588291 -356.766187 
L 696.04092 -354.989129 
L 696.5351 -353.212072 
L 697.078186 -351.435014 
L 697.672814 -349.657957 
L 698.31636 -347.880899 
L 699.000796 -346.103842 
L 699.712952 -344.326784 
L 700.435178 -342.549727 
L 701.146353 -340.772669 
L 701.823163 -338.995612 
L 702.441551 -337.218554 
L 702.97822 -335.441497 
L 703.412086 -333.664439 
L 703.725549 -331.887382 
L 703.905503 -330.110324 
L 703.944 -328.333267 
L 703.838536 -326.556209 
L 703.59193 -324.779152 
L 703.211844 -323.002094 
L 702.709981 -321.225037 
L 702.101053 -319.447979 
L 701.401623 -317.670922 
L 700.62892 -315.893864 
L 699.799749 -314.116807 
L 698.929567 -312.339749 
L 698.031814 -310.562692 
L 697.117522 -308.785634 
L 696.195212 -307.008577 
L 695.271055 -305.231519 
L 694.349235 -303.454462 
L 693.432456 -301.677404 
L 692.522491 -299.900347 
L 691.620729 -298.123289 
L 690.728614 -296.346232 
L 689.84797 -294.569174 
L 688.981167 -292.792117 
L 688.131131 -291.015059 
L 687.301238 -289.238002 
L 686.495112 -287.460944 
L 685.716379 -285.683887 
L 684.968422 -283.906829 
L 684.254179 -282.129772 
L 683.575995 -280.352714 
L 682.935554 -278.575657 
L 682.333887 -276.798599 
L 681.771429 -275.021542 
L 681.248123 -273.244484 
L 680.763539 -271.467427 
L 680.31698 -269.690369 
L 679.907575 -267.913312 
L 679.534338 -266.136254 
L 679.196194 -264.359197 
L 678.891975 -262.582139 
L 678.620402 -260.805082 
L 678.380055 -259.028024 
L 678.169345 -257.250967 
L 677.986499 -255.473909 
L 677.829564 -253.696852 
L 677.696425 -251.919794 
L 677.584846 -250.142737 
L 677.492515 -248.365679 
z
" style="stroke: #5f5f5f; stroke-width: 1.25"/>
    </defs>
    <g clip-path="url(#p8ce8bef786)">
     <use xlink:href="#m8d5411229e" x="0" y="576" style="fill: #d9d9d9; stroke: #5f5f5f; stroke-width: 1.25"/>
    </g>
   </g>
   <g id="PolyCollection_10">
    <defs>
     <path id="m162a9d0ee6" d="M 744.507557 -196.931877 
L 743.732443 -196.931877 
L 743.624079 -199.227678 
L 743.493393 -201.523478 
L 743.338106 -203.819279 
L 743.156293 -206.115079 
L 742.946526 -208.41088 
L 742.707999 -210.706681 
L 742.440623 -213.002481 
L 742.145066 -215.298282 
L 741.822744 -217.594082 
L 741.475725 -219.889883 
L 741.106577 -222.185684 
L 740.718142 -224.481484 
L 740.31326 -226.777285 
L 739.894475 -229.073085 
L 739.463745 -231.368886 
L 739.022193 -233.664687 
L 738.569944 -235.960487 
L 738.106066 -238.256288 
L 737.628645 -240.552088 
L 737.134998 -242.847889 
L 736.622013 -245.143689 
L 736.086594 -247.43949 
L 735.526165 -249.735291 
L 734.939173 -252.031091 
L 734.325541 -254.326892 
L 733.687003 -256.622692 
L 733.027259 -258.918493 
L 732.351938 -261.214294 
L 731.66833 -263.510094 
L 730.984911 -265.805895 
L 730.310691 -268.101695 
L 729.654444 -270.397496 
L 729.023896 -272.693297 
L 728.424957 -274.989097 
L 727.861075 -277.284898 
L 727.332803 -279.580698 
L 726.837618 -281.876499 
L 726.370039 -284.1723 
L 725.92205 -286.4681 
L 725.483784 -288.763901 
L 725.044434 -291.059701 
L 724.593299 -293.355502 
L 724.12088 -295.651303 
L 723.619912 -297.947103 
L 723.086247 -300.242904 
L 722.519502 -302.538704 
L 721.923407 -304.834505 
L 721.30582 -307.130306 
L 720.678424 -309.426106 
L 720.056113 -311.721907 
L 719.456151 -314.017707 
L 718.897172 -316.313508 
L 718.398111 -318.609308 
L 717.977174 -320.905109 
L 717.650907 -323.20091 
L 717.433449 -325.49671 
L 717.336 -327.792511 
L 717.366509 -330.088311 
L 717.529585 -332.384112 
L 717.82658 -334.679913 
L 718.255812 -336.975713 
L 718.812855 -339.271514 
L 719.490876 -341.567314 
L 720.280954 -343.863115 
L 721.172375 -346.158916 
L 722.152899 -348.454716 
L 723.209005 -350.750517 
L 724.326133 -353.046317 
L 725.488949 -355.342118 
L 726.681656 -357.637919 
L 727.888362 -359.933719 
L 729.09349 -362.22952 
L 730.282237 -364.52532 
L 731.441031 -366.821121 
L 732.557958 -369.116922 
L 733.623121 -371.412722 
L 734.628887 -373.708523 
L 735.570007 -376.004323 
L 736.443584 -378.300124 
L 737.248905 -380.595925 
L 737.987143 -382.891725 
L 738.660984 -385.187526 
L 739.27419 -387.483326 
L 739.831165 -389.779127 
L 740.336558 -392.074928 
L 740.79492 -394.370728 
L 741.210465 -396.666529 
L 741.586911 -398.962329 
L 741.927423 -401.25813 
L 742.234632 -403.55393 
L 742.510715 -405.849731 
L 742.757505 -408.145532 
L 742.976626 -410.441332 
L 743.169606 -412.737133 
L 743.33798 -415.032933 
L 743.483358 -417.328734 
L 743.607461 -419.624535 
L 743.712122 -421.920335 
L 743.799264 -424.216136 
L 744.440736 -424.216136 
L 744.440736 -424.216136 
L 744.527878 -421.920335 
L 744.632539 -419.624535 
L 744.756642 -417.328734 
L 744.90202 -415.032933 
L 745.070394 -412.737133 
L 745.263374 -410.441332 
L 745.482495 -408.145532 
L 745.729285 -405.849731 
L 746.005368 -403.55393 
L 746.312577 -401.25813 
L 746.653089 -398.962329 
L 747.029535 -396.666529 
L 747.44508 -394.370728 
L 747.903442 -392.074928 
L 748.408835 -389.779127 
L 748.96581 -387.483326 
L 749.579016 -385.187526 
L 750.252857 -382.891725 
L 750.991095 -380.595925 
L 751.796416 -378.300124 
L 752.669993 -376.004323 
L 753.611113 -373.708523 
L 754.616879 -371.412722 
L 755.682042 -369.116922 
L 756.798969 -366.821121 
L 757.957763 -364.52532 
L 759.14651 -362.22952 
L 760.351638 -359.933719 
L 761.558344 -357.637919 
L 762.751051 -355.342118 
L 763.913867 -353.046317 
L 765.030995 -350.750517 
L 766.087101 -348.454716 
L 767.067625 -346.158916 
L 767.959046 -343.863115 
L 768.749124 -341.567314 
L 769.427145 -339.271514 
L 769.984188 -336.975713 
L 770.41342 -334.679913 
L 770.710415 -332.384112 
L 770.873491 -330.088311 
L 770.904 -327.792511 
L 770.806551 -325.49671 
L 770.589093 -323.20091 
L 770.262826 -320.905109 
L 769.841889 -318.609308 
L 769.342828 -316.313508 
L 768.783849 -314.017707 
L 768.183887 -311.721907 
L 767.561576 -309.426106 
L 766.93418 -307.130306 
L 766.316593 -304.834505 
L 765.720498 -302.538704 
L 765.153753 -300.242904 
L 764.620088 -297.947103 
L 764.11912 -295.651303 
L 763.646701 -293.355502 
L 763.195566 -291.059701 
L 762.756216 -288.763901 
L 762.31795 -286.4681 
L 761.869961 -284.1723 
L 761.402382 -281.876499 
L 760.907197 -279.580698 
L 760.378925 -277.284898 
L 759.815043 -274.989097 
L 759.216104 -272.693297 
L 758.585556 -270.397496 
L 757.929309 -268.101695 
L 757.255089 -265.805895 
L 756.57167 -263.510094 
L 755.888062 -261.214294 
L 755.212741 -258.918493 
L 754.552997 -256.622692 
L 753.914459 -254.326892 
L 753.300827 -252.031091 
L 752.713835 -249.735291 
L 752.153406 -247.43949 
L 751.617987 -245.143689 
L 751.105002 -242.847889 
L 750.611355 -240.552088 
L 750.133934 -238.256288 
L 749.670056 -235.960487 
L 749.217807 -233.664687 
L 748.776255 -231.368886 
L 748.345525 -229.073085 
L 747.92674 -226.777285 
L 747.521858 -224.481484 
L 747.133423 -222.185684 
L 746.764275 -219.889883 
L 746.417256 -217.594082 
L 746.094934 -215.298282 
L 745.799377 -213.002481 
L 745.532001 -210.706681 
L 745.293474 -208.41088 
L 745.083707 -206.115079 
L 744.901894 -203.819279 
L 744.746607 -201.523478 
L 744.615921 -199.227678 
L 744.507557 -196.931877 
z
" style="stroke: #5f5f5f; stroke-width: 1.25"/>
    </defs>
    <g clip-path="url(#p8ce8bef786)">
     <use xlink:href="#m162a9d0ee6" x="0" y="576" style="fill: #b588b5; stroke: #5f5f5f; stroke-width: 1.25"/>
    </g>
   </g>
   <g id="line2d_7">
    <path d="M 141.48 326.98083 
L 141.48 155.22849 
" clip-path="url(#p8ce8bef786)" style="fill: none; stroke: #5f5f5f; stroke-width: 1.875; stroke-linecap: round"/>
   </g>
   <g id="line2d_8">
    <path d="M 141.48 296.374208 
L 141.48 214.93873 
" clip-path="url(#p8ce8bef786)" style="fill: none; stroke: #5f5f5f; stroke-width: 5.625; stroke-linecap: round"/>
   </g>
   <g id="line2d_9">
    <path d="M 141.48 265.904222 
" clip-path="url(#p8ce8bef786)" style="fill: none; stroke: #5f5f5f; stroke-width: 1.5; stroke-linecap: round"/>
    <defs>
     <path id="m98e7ec812e" d="M 2.34375 0 
L -2.34375 -0 
" style="stroke: #ffffff; stroke-width: 1.125"/>
    </defs>
    <g clip-path="url(#p8ce8bef786)">
     <use xlink:href="#m98e7ec812e" x="141.48" y="265.904222" style="fill: #ffffff; stroke: #ffffff; stroke-width: 1.125"/>
    </g>
   </g>
   <g id="line2d_10">
    <path d="M 208.44 233.384686 
L 208.44 227.919218 
" clip-path="url(#p8ce8bef786)" style="fill: none; stroke: #5f5f5f; stroke-width: 1.875; stroke-linecap: round"/>
   </g>
   <g id="line2d_11">
    <path d="M 208.44 231.471772 
L 208.44 229.558858 
" clip-path="url(#p8ce8bef786)" style="fill: none; stroke: #5f5f5f; stroke-width: 5.625; stroke-linecap: round"/>
   </g>
   <g id="line2d_12">
    <path d="M 208.44 229.558858 
" clip-path="url(#p8ce8bef786)" style="fill: none; stroke: #5f5f5f; stroke-width: 1.5; stroke-linecap: round"/>
    <g clip-path="url(#p8ce8bef786)">
     <use xlink:href="#m98e7ec812e" x="208.44" y="229.558858" style="fill: #ffffff; stroke: #ffffff; stroke-width: 1.125"/>
    </g>
   </g>
   <g id="line2d_13">
    <path d="M 275.4 350.345707 
L 275.4 173.811082 
" clip-path="url(#p8ce8bef786)" style="fill: none; stroke: #5f5f5f; stroke-width: 1.875; stroke-linecap: round"/>
   </g>
   <g id="line2d_14">
    <path d="M 275.4 300.336672 
L 275.4 229.285585 
" clip-path="url(#p8ce8bef786)" style="fill: none; stroke: #5f5f5f; stroke-width: 5.625; stroke-linecap: round"/>
   </g>
   <g id="line2d_15">
    <path d="M 275.4 276.288612 
" clip-path="url(#p8ce8bef786)" style="fill: none; stroke: #5f5f5f; stroke-width: 1.5; stroke-linecap: round"/>
    <g clip-path="url(#p8ce8bef786)">
     <use xlink:href="#m98e7ec812e" x="275.4" y="276.288612" style="fill: #ffffff; stroke: #ffffff; stroke-width: 1.125"/>
    </g>
   </g>
   <g id="line2d_16">
    <path d="M 342.36 315.230073 
L 342.36 213.572363 
" clip-path="url(#p8ce8bef786)" style="fill: none; stroke: #5f5f5f; stroke-width: 1.875; stroke-linecap: round"/>
   </g>
   <g id="line2d_17">
    <path d="M 342.36 284.760088 
L 342.36 251.830641 
" clip-path="url(#p8ce8bef786)" style="fill: none; stroke: #5f5f5f; stroke-width: 5.625; stroke-linecap: round"/>
   </g>
   <g id="line2d_18">
    <path d="M 342.36 273.829151 
" clip-path="url(#p8ce8bef786)" style="fill: none; stroke: #5f5f5f; stroke-width: 1.5; stroke-linecap: round"/>
    <g clip-path="url(#p8ce8bef786)">
     <use xlink:href="#m98e7ec812e" x="342.36" y="273.829151" style="fill: #ffffff; stroke: #ffffff; stroke-width: 1.125"/>
    </g>
   </g>
   <g id="line2d_19">
    <path d="M 409.32 245.545353 
L 409.32 220.677472 
" clip-path="url(#p8ce8bef786)" style="fill: none; stroke: #5f5f5f; stroke-width: 1.875; stroke-linecap: round"/>
   </g>
   <g id="line2d_20">
    <path d="M 409.32 236.254057 
L 409.32 228.739038 
" clip-path="url(#p8ce8bef786)" style="fill: none; stroke: #5f5f5f; stroke-width: 5.625; stroke-linecap: round"/>
   </g>
   <g id="line2d_21">
    <path d="M 409.32 230.651952 
" clip-path="url(#p8ce8bef786)" style="fill: none; stroke: #5f5f5f; stroke-width: 1.5; stroke-linecap: round"/>
    <g clip-path="url(#p8ce8bef786)">
     <use xlink:href="#m98e7ec812e" x="409.32" y="230.651952" style="fill: #ffffff; stroke: #ffffff; stroke-width: 1.125"/>
    </g>
   </g>
   <g id="line2d_22">
    <path d="M 476.28 364.829198 
L 476.28 178.730003 
" clip-path="url(#p8ce8bef786)" style="fill: none; stroke: #5f5f5f; stroke-width: 1.875; stroke-linecap: round"/>
   </g>
   <g id="line2d_23">
    <path d="M 476.28 295.964298 
L 476.28 239.260064 
" clip-path="url(#p8ce8bef786)" style="fill: none; stroke: #5f5f5f; stroke-width: 5.625; stroke-linecap: round"/>
   </g>
   <g id="line2d_24">
    <path d="M 476.28 254.426739 
" clip-path="url(#p8ce8bef786)" style="fill: none; stroke: #5f5f5f; stroke-width: 1.5; stroke-linecap: round"/>
    <g clip-path="url(#p8ce8bef786)">
     <use xlink:href="#m98e7ec812e" x="476.28" y="254.426739" style="fill: #ffffff; stroke: #ffffff; stroke-width: 1.125"/>
    </g>
   </g>
   <g id="line2d_25">
    <path d="M 543.24 348.432793 
L 543.24 153.725486 
" clip-path="url(#p8ce8bef786)" style="fill: none; stroke: #5f5f5f; stroke-width: 1.875; stroke-linecap: round"/>
   </g>
   <g id="line2d_26">
    <path d="M 543.24 315.913257 
L 543.24 249.507817 
" clip-path="url(#p8ce8bef786)" style="fill: none; stroke: #5f5f5f; stroke-width: 5.625; stroke-linecap: round"/>
   </g>
   <g id="line2d_27">
    <path d="M 543.24 283.666994 
" clip-path="url(#p8ce8bef786)" style="fill: none; stroke: #5f5f5f; stroke-width: 1.5; stroke-linecap: round"/>
    <g clip-path="url(#p8ce8bef786)">
     <use xlink:href="#m98e7ec812e" x="543.24" y="283.666994" style="fill: #ffffff; stroke: #ffffff; stroke-width: 1.125"/>
    </g>
   </g>
   <g id="line2d_28">
    <path d="M 610.2 323.701549 
L 610.2 215.621914 
" clip-path="url(#p8ce8bef786)" style="fill: none; stroke: #5f5f5f; stroke-width: 1.875; stroke-linecap: round"/>
   </g>
   <g id="line2d_29">
    <path d="M 610.2 283.940267 
L 610.2 252.377188 
" clip-path="url(#p8ce8bef786)" style="fill: none; stroke: #5f5f5f; stroke-width: 5.625; stroke-linecap: round"/>
   </g>
   <g id="line2d_30">
    <path d="M 610.2 271.506327 
" clip-path="url(#p8ce8bef786)" style="fill: none; stroke: #5f5f5f; stroke-width: 1.5; stroke-linecap: round"/>
    <g clip-path="url(#p8ce8bef786)">
     <use xlink:href="#m98e7ec812e" x="610.2" y="271.506327" style="fill: #ffffff; stroke: #ffffff; stroke-width: 1.125"/>
    </g>
   </g>
   <g id="line2d_31">
    <path d="M 677.16 297.740575 
L 677.16 181.599374 
" clip-path="url(#p8ce8bef786)" style="fill: none; stroke: #5f5f5f; stroke-width: 1.875; stroke-linecap: round"/>
   </g>
   <g id="line2d_32">
    <path d="M 677.16 257.979293 
L 677.16 217.398191 
" clip-path="url(#p8ce8bef786)" style="fill: none; stroke: #5f5f5f; stroke-width: 5.625; stroke-linecap: round"/>
   </g>
   <g id="line2d_33">
    <path d="M 677.16 244.998806 
" clip-path="url(#p8ce8bef786)" style="fill: none; stroke: #5f5f5f; stroke-width: 1.5; stroke-linecap: round"/>
    <g clip-path="url(#p8ce8bef786)">
     <use xlink:href="#m98e7ec812e" x="677.16" y="244.998806" style="fill: #ffffff; stroke: #ffffff; stroke-width: 1.125"/>
    </g>
   </g>
   <g id="line2d_34">
    <path d="M 744.12 340.234591 
L 744.12 190.617397 
" clip-path="url(#p8ce8bef786)" style="fill: none; stroke: #5f5f5f; stroke-width: 1.875; stroke-linecap: round"/>
   </g>
   <g id="line2d_35">
    <path d="M 744.12 291.182013 
L 744.12 234.88769 
" clip-path="url(#p8ce8bef786)" style="fill: none; stroke: #5f5f5f; stroke-width: 5.625; stroke-linecap: round"/>
   </g>
   <g id="line2d_36">
    <path d="M 744.12 256.476289 
" clip-path="url(#p8ce8bef786)" style="fill: none; stroke: #5f5f5f; stroke-width: 1.5; stroke-linecap: round"/>
    <g clip-path="url(#p8ce8bef786)">
     <use xlink:href="#m98e7ec812e" x="744.12" y="256.476289" style="fill: #ffffff; stroke: #ffffff; stroke-width: 1.125"/>
    </g>
   </g>
   <g id="patch_3">
    <path d="M 108 512.64 
L 108 69.12 
" style="fill: none; stroke: #cccccc; stroke-width: 0.8; stroke-linejoin: miter; stroke-linecap: square"/>
   </g>
   <g id="patch_4">
    <path d="M 777.6 512.64 
L 777.6 69.12 
" style="fill: none; stroke: #cccccc; stroke-width: 0.8; stroke-linejoin: miter; stroke-linecap: square"/>
   </g>
   <g id="patch_5">
    <path d="M 108 512.64 
L 777.6 512.64 
" style="fill: none; stroke: #cccccc; stroke-width: 0.8; stroke-linejoin: miter; stroke-linecap: square"/>
   </g>
   <g id="patch_6">
    <path d="M 108 69.12 
L 777.6 69.12 
" style="fill: none; stroke: #cccccc; stroke-width: 0.8; stroke-linejoin: miter; stroke-linecap: square"/>
   </g>
   <g id="text_19">
    <!-- Violin Plot Comparing Annualised Returns of PPO Models -->
    <g style="fill: #262626" transform="translate(273.695625 63.12) scale(0.12 -0.12)">
     <defs>
      <path id="DejaVuSans-56" d="M 1831 0 
L 50 4666 
L 709 4666 
L 2188 738 
L 3669 4666 
L 4325 4666 
L 2547 0 
L 1831 0 
z
" transform="scale(0.015625)"/>
      <path id="DejaVuSans-43" d="M 4122 4306 
L 4122 3641 
Q 3803 3938 3442 4084 
Q 3081 4231 2675 4231 
Q 1875 4231 1450 3742 
Q 1025 3253 1025 2328 
Q 1025 1406 1450 917 
Q 1875 428 2675 428 
Q 3081 428 3442 575 
Q 3803 722 4122 1019 
L 4122 359 
Q 3791 134 3420 21 
Q 3050 -91 2638 -91 
Q 1578 -91 968 557 
Q 359 1206 359 2328 
Q 359 3453 968 4101 
Q 1578 4750 2638 4750 
Q 3056 4750 3426 4639 
Q 3797 4528 4122 4306 
z
" transform="scale(0.015625)"/>
      <path id="DejaVuSans-67" d="M 2906 1791 
Q 2906 2416 2648 2759 
Q 2391 3103 1925 3103 
Q 1463 3103 1205 2759 
Q 947 2416 947 1791 
Q 947 1169 1205 825 
Q 1463 481 1925 481 
Q 2391 481 2648 825 
Q 2906 1169 2906 1791 
z
M 3481 434 
Q 3481 -459 3084 -895 
Q 2688 -1331 1869 -1331 
Q 1566 -1331 1297 -1286 
Q 1028 -1241 775 -1147 
L 775 -588 
Q 1028 -725 1275 -790 
Q 1522 -856 1778 -856 
Q 2344 -856 2625 -561 
Q 2906 -266 2906 331 
L 2906 616 
Q 2728 306 2450 153 
Q 2172 0 1784 0 
Q 1141 0 747 490 
Q 353 981 353 1791 
Q 353 2603 747 3093 
Q 1141 3584 1784 3584 
Q 2172 3584 2450 3431 
Q 2728 3278 2906 2969 
L 2906 3500 
L 3481 3500 
L 3481 434 
z
" transform="scale(0.015625)"/>
     </defs>
     <use xlink:href="#DejaVuSans-56"/>
     <use xlink:href="#DejaVuSans-69" x="66.158203"/>
     <use xlink:href="#DejaVuSans-6f" x="93.941406"/>
     <use xlink:href="#DejaVuSans-6c" x="155.123047"/>
     <use xlink:href="#DejaVuSans-69" x="182.90625"/>
     <use xlink:href="#DejaVuSans-6e" x="210.689453"/>
     <use xlink:href="#DejaVuSans-20" x="274.068359"/>
     <use xlink:href="#DejaVuSans-50" x="305.855469"/>
     <use xlink:href="#DejaVuSans-6c" x="366.158203"/>
     <use xlink:href="#DejaVuSans-6f" x="393.941406"/>
     <use xlink:href="#DejaVuSans-74" x="455.123047"/>
     <use xlink:href="#DejaVuSans-20" x="494.332031"/>
     <use xlink:href="#DejaVuSans-43" x="526.119141"/>
     <use xlink:href="#DejaVuSans-6f" x="595.943359"/>
     <use xlink:href="#DejaVuSans-6d" x="657.125"/>
     <use xlink:href="#DejaVuSans-70" x="754.537109"/>
     <use xlink:href="#DejaVuSans-61" x="818.013672"/>
     <use xlink:href="#DejaVuSans-72" x="879.292969"/>
     <use xlink:href="#DejaVuSans-69" x="920.40625"/>
     <use xlink:href="#DejaVuSans-6e" x="948.189453"/>
     <use xlink:href="#DejaVuSans-67" x="1011.568359"/>
     <use xlink:href="#DejaVuSans-20" x="1075.044922"/>
     <use xlink:href="#DejaVuSans-41" x="1106.832031"/>
     <use xlink:href="#DejaVuSans-6e" x="1175.240234"/>
     <use xlink:href="#DejaVuSans-6e" x="1238.619141"/>
     <use xlink:href="#DejaVuSans-75" x="1301.998047"/>
     <use xlink:href="#DejaVuSans-61" x="1365.376953"/>
     <use xlink:href="#DejaVuSans-6c" x="1426.65625"/>
     <use xlink:href="#DejaVuSans-69" x="1454.439453"/>
     <use xlink:href="#DejaVuSans-73" x="1482.222656"/>
     <use xlink:href="#DejaVuSans-65" x="1534.322266"/>
     <use xlink:href="#DejaVuSans-64" x="1595.845703"/>
     <use xlink:href="#DejaVuSans-20" x="1659.322266"/>
     <use xlink:href="#DejaVuSans-52" x="1691.109375"/>
     <use xlink:href="#DejaVuSans-65" x="1756.091797"/>
     <use xlink:href="#DejaVuSans-74" x="1817.615234"/>
     <use xlink:href="#DejaVuSans-75" x="1856.824219"/>
     <use xlink:href="#DejaVuSans-72" x="1920.203125"/>
     <use xlink:href="#DejaVuSans-6e" x="1959.566406"/>
     <use xlink:href="#DejaVuSans-73" x="2022.945312"/>
     <use xlink:href="#DejaVuSans-20" x="2075.044922"/>
     <use xlink:href="#DejaVuSans-6f" x="2106.832031"/>
     <use xlink:href="#DejaVuSans-66" x="2168.013672"/>
     <use xlink:href="#DejaVuSans-20" x="2203.21875"/>
     <use xlink:href="#DejaVuSans-50" x="2235.005859"/>
     <use xlink:href="#DejaVuSans-50" x="2295.308594"/>
     <use xlink:href="#DejaVuSans-4f" x="2355.611328"/>
     <use xlink:href="#DejaVuSans-20" x="2434.322266"/>
     <use xlink:href="#DejaVuSans-4d" x="2466.109375"/>
     <use xlink:href="#DejaVuSans-6f" x="2552.388672"/>
     <use xlink:href="#DejaVuSans-64" x="2613.570312"/>
     <use xlink:href="#DejaVuSans-65" x="2677.046875"/>
     <use xlink:href="#DejaVuSans-6c" x="2738.570312"/>
     <use xlink:href="#DejaVuSans-73" x="2766.353516"/>
    </g>
   </g>
  </g>
 </g>
 <defs>
  <clipPath id="p8ce8bef786">
   <rect x="108" y="69.12" width="669.6" height="443.52"/>
  </clipPath>
 </defs>
</svg>
