<?xml version="1.0" encoding="utf-8" standalone="no"?>
<!DOCTYPE svg PUBLIC "-//W3C//DTD SVG 1.1//EN"
  "http://www.w3.org/Graphics/SVG/1.1/DTD/svg11.dtd">
<svg xmlns:xlink="http://www.w3.org/1999/xlink" width="720pt" height="504pt" viewBox="0 0 720 504" xmlns="http://www.w3.org/2000/svg" version="1.1">
 <metadata>
  <rdf:RDF xmlns:dc="http://purl.org/dc/elements/1.1/" xmlns:cc="http://creativecommons.org/ns#" xmlns:rdf="http://www.w3.org/1999/02/22-rdf-syntax-ns#">
   <cc:Work>
    <dc:type rdf:resource="http://purl.org/dc/dcmitype/StillImage"/>
    <dc:date>2024-09-15T16:38:29.731221</dc:date>
    <dc:format>image/svg+xml</dc:format>
    <dc:creator>
     <cc:Agent>
      <dc:title>Matplotlib v3.7.1, https://matplotlib.org/</dc:title>
     </cc:Agent>
    </dc:creator>
   </cc:Work>
  </rdf:RDF>
 </metadata>
 <defs>
  <style type="text/css">*{stroke-linejoin: round; stroke-linecap: butt}</style>
 </defs>
 <g id="figure_1">
  <g id="patch_1">
   <path d="M 0 504 
L 720 504 
L 720 0 
L 0 0 
z
" style="fill: #ffffff"/>
  </g>
  <g id="axes_1">
   <g id="patch_2">
    <path d="M 90 448.56 
L 648 448.56 
L 648 60.48 
L 90 60.48 
z
" style="fill: #ffffff"/>
   </g>
   <g id="matplotlib.axis_1">
    <g id="xtick_1">
     <g id="line2d_1">
      <path d="M 137.181818 448.56 
L 137.181818 60.48 
" clip-path="url(#pdad47f38f7)" style="fill: none; stroke: #cccccc; stroke-width: 0.8; stroke-linecap: round"/>
     </g>
     <g id="text_1">
      <!-- 2004-06 -->
      <g style="fill: #262626" transform="translate(116.290412 463.158437) scale(0.1 -0.1)">
       <defs>
        <path id="DejaVuSans-32" d="M 1228 531 
L 3431 531 
L 3431 0 
L 469 0 
L 469 531 
Q 828 903 1448 1529 
Q 2069 2156 2228 2338 
Q 2531 2678 2651 2914 
Q 2772 3150 2772 3378 
Q 2772 3750 2511 3984 
Q 2250 4219 1831 4219 
Q 1534 4219 1204 4116 
Q 875 4013 500 3803 
L 500 4441 
Q 881 4594 1212 4672 
Q 1544 4750 1819 4750 
Q 2544 4750 2975 4387 
Q 3406 4025 3406 3419 
Q 3406 3131 3298 2873 
Q 3191 2616 2906 2266 
Q 2828 2175 2409 1742 
Q 1991 1309 1228 531 
z
" transform="scale(0.015625)"/>
        <path id="DejaVuSans-30" d="M 2034 4250 
Q 1547 4250 1301 3770 
Q 1056 3291 1056 2328 
Q 1056 1369 1301 889 
Q 1547 409 2034 409 
Q 2525 409 2770 889 
Q 3016 1369 3016 2328 
Q 3016 3291 2770 3770 
Q 2525 4250 2034 4250 
z
M 2034 4750 
Q 2819 4750 3233 4129 
Q 3647 3509 3647 2328 
Q 3647 1150 3233 529 
Q 2819 -91 2034 -91 
Q 1250 -91 836 529 
Q 422 1150 422 2328 
Q 422 3509 836 4129 
Q 1250 4750 2034 4750 
z
" transform="scale(0.015625)"/>
        <path id="DejaVuSans-34" d="M 2419 4116 
L 825 1625 
L 2419 1625 
L 2419 4116 
z
M 2253 4666 
L 3047 4666 
L 3047 1625 
L 3713 1625 
L 3713 1100 
L 3047 1100 
L 3047 0 
L 2419 0 
L 2419 1100 
L 313 1100 
L 313 1709 
L 2253 4666 
z
" transform="scale(0.015625)"/>
        <path id="DejaVuSans-2d" d="M 313 2009 
L 1997 2009 
L 1997 1497 
L 313 1497 
L 313 2009 
z
" transform="scale(0.015625)"/>
        <path id="DejaVuSans-36" d="M 2113 2584 
Q 1688 2584 1439 2293 
Q 1191 2003 1191 1497 
Q 1191 994 1439 701 
Q 1688 409 2113 409 
Q 2538 409 2786 701 
Q 3034 994 3034 1497 
Q 3034 2003 2786 2293 
Q 2538 2584 2113 2584 
z
M 3366 4563 
L 3366 3988 
Q 3128 4100 2886 4159 
Q 2644 4219 2406 4219 
Q 1781 4219 1451 3797 
Q 1122 3375 1075 2522 
Q 1259 2794 1537 2939 
Q 1816 3084 2150 3084 
Q 2853 3084 3261 2657 
Q 3669 2231 3669 1497 
Q 3669 778 3244 343 
Q 2819 -91 2113 -91 
Q 1303 -91 875 529 
Q 447 1150 447 2328 
Q 447 3434 972 4092 
Q 1497 4750 2381 4750 
Q 2619 4750 2861 4703 
Q 3103 4656 3366 4563 
z
" transform="scale(0.015625)"/>
       </defs>
       <use xlink:href="#DejaVuSans-32"/>
       <use xlink:href="#DejaVuSans-30" x="63.623047"/>
       <use xlink:href="#DejaVuSans-30" x="127.246094"/>
       <use xlink:href="#DejaVuSans-34" x="190.869141"/>
       <use xlink:href="#DejaVuSans-2d" x="254.492188"/>
       <use xlink:href="#DejaVuSans-30" x="290.576172"/>
       <use xlink:href="#DejaVuSans-36" x="354.199219"/>
      </g>
     </g>
    </g>
    <g id="xtick_2">
     <g id="line2d_2">
      <path d="M 191.727273 448.56 
L 191.727273 60.48 
" clip-path="url(#pdad47f38f7)" style="fill: none; stroke: #cccccc; stroke-width: 0.8; stroke-linecap: round"/>
     </g>
     <g id="text_2">
      <!-- 2004-07 -->
      <g style="fill: #262626" transform="translate(170.835866 463.158437) scale(0.1 -0.1)">
       <defs>
        <path id="DejaVuSans-37" d="M 525 4666 
L 3525 4666 
L 3525 4397 
L 1831 0 
L 1172 0 
L 2766 4134 
L 525 4134 
L 525 4666 
z
" transform="scale(0.015625)"/>
       </defs>
       <use xlink:href="#DejaVuSans-32"/>
       <use xlink:href="#DejaVuSans-30" x="63.623047"/>
       <use xlink:href="#DejaVuSans-30" x="127.246094"/>
       <use xlink:href="#DejaVuSans-34" x="190.869141"/>
       <use xlink:href="#DejaVuSans-2d" x="254.492188"/>
       <use xlink:href="#DejaVuSans-30" x="290.576172"/>
       <use xlink:href="#DejaVuSans-37" x="354.199219"/>
      </g>
     </g>
    </g>
    <g id="xtick_3">
     <g id="line2d_3">
      <path d="M 248.090909 448.56 
L 248.090909 60.48 
" clip-path="url(#pdad47f38f7)" style="fill: none; stroke: #cccccc; stroke-width: 0.8; stroke-linecap: round"/>
     </g>
     <g id="text_3">
      <!-- 2004-08 -->
      <g style="fill: #262626" transform="translate(227.199503 463.158437) scale(0.1 -0.1)">
       <defs>
        <path id="DejaVuSans-38" d="M 2034 2216 
Q 1584 2216 1326 1975 
Q 1069 1734 1069 1313 
Q 1069 891 1326 650 
Q 1584 409 2034 409 
Q 2484 409 2743 651 
Q 3003 894 3003 1313 
Q 3003 1734 2745 1975 
Q 2488 2216 2034 2216 
z
M 1403 2484 
Q 997 2584 770 2862 
Q 544 3141 544 3541 
Q 544 4100 942 4425 
Q 1341 4750 2034 4750 
Q 2731 4750 3128 4425 
Q 3525 4100 3525 3541 
Q 3525 3141 3298 2862 
Q 3072 2584 2669 2484 
Q 3125 2378 3379 2068 
Q 3634 1759 3634 1313 
Q 3634 634 3220 271 
Q 2806 -91 2034 -91 
Q 1263 -91 848 271 
Q 434 634 434 1313 
Q 434 1759 690 2068 
Q 947 2378 1403 2484 
z
M 1172 3481 
Q 1172 3119 1398 2916 
Q 1625 2713 2034 2713 
Q 2441 2713 2670 2916 
Q 2900 3119 2900 3481 
Q 2900 3844 2670 4047 
Q 2441 4250 2034 4250 
Q 1625 4250 1398 4047 
Q 1172 3844 1172 3481 
z
" transform="scale(0.015625)"/>
       </defs>
       <use xlink:href="#DejaVuSans-32"/>
       <use xlink:href="#DejaVuSans-30" x="63.623047"/>
       <use xlink:href="#DejaVuSans-30" x="127.246094"/>
       <use xlink:href="#DejaVuSans-34" x="190.869141"/>
       <use xlink:href="#DejaVuSans-2d" x="254.492188"/>
       <use xlink:href="#DejaVuSans-30" x="290.576172"/>
       <use xlink:href="#DejaVuSans-38" x="354.199219"/>
      </g>
     </g>
    </g>
    <g id="xtick_4">
     <g id="line2d_4">
      <path d="M 304.454545 448.56 
L 304.454545 60.48 
" clip-path="url(#pdad47f38f7)" style="fill: none; stroke: #cccccc; stroke-width: 0.8; stroke-linecap: round"/>
     </g>
     <g id="text_4">
      <!-- 2004-09 -->
      <g style="fill: #262626" transform="translate(283.563139 463.158437) scale(0.1 -0.1)">
       <defs>
        <path id="DejaVuSans-39" d="M 703 97 
L 703 672 
Q 941 559 1184 500 
Q 1428 441 1663 441 
Q 2288 441 2617 861 
Q 2947 1281 2994 2138 
Q 2813 1869 2534 1725 
Q 2256 1581 1919 1581 
Q 1219 1581 811 2004 
Q 403 2428 403 3163 
Q 403 3881 828 4315 
Q 1253 4750 1959 4750 
Q 2769 4750 3195 4129 
Q 3622 3509 3622 2328 
Q 3622 1225 3098 567 
Q 2575 -91 1691 -91 
Q 1453 -91 1209 -44 
Q 966 3 703 97 
z
M 1959 2075 
Q 2384 2075 2632 2365 
Q 2881 2656 2881 3163 
Q 2881 3666 2632 3958 
Q 2384 4250 1959 4250 
Q 1534 4250 1286 3958 
Q 1038 3666 1038 3163 
Q 1038 2656 1286 2365 
Q 1534 2075 1959 2075 
z
" transform="scale(0.015625)"/>
       </defs>
       <use xlink:href="#DejaVuSans-32"/>
       <use xlink:href="#DejaVuSans-30" x="63.623047"/>
       <use xlink:href="#DejaVuSans-30" x="127.246094"/>
       <use xlink:href="#DejaVuSans-34" x="190.869141"/>
       <use xlink:href="#DejaVuSans-2d" x="254.492188"/>
       <use xlink:href="#DejaVuSans-30" x="290.576172"/>
       <use xlink:href="#DejaVuSans-39" x="354.199219"/>
      </g>
     </g>
    </g>
    <g id="xtick_5">
     <g id="line2d_5">
      <path d="M 359 448.56 
L 359 60.48 
" clip-path="url(#pdad47f38f7)" style="fill: none; stroke: #cccccc; stroke-width: 0.8; stroke-linecap: round"/>
     </g>
     <g id="text_5">
      <!-- 2004-10 -->
      <g style="fill: #262626" transform="translate(338.108594 463.158437) scale(0.1 -0.1)">
       <defs>
        <path id="DejaVuSans-31" d="M 794 531 
L 1825 531 
L 1825 4091 
L 703 3866 
L 703 4441 
L 1819 4666 
L 2450 4666 
L 2450 531 
L 3481 531 
L 3481 0 
L 794 0 
L 794 531 
z
" transform="scale(0.015625)"/>
       </defs>
       <use xlink:href="#DejaVuSans-32"/>
       <use xlink:href="#DejaVuSans-30" x="63.623047"/>
       <use xlink:href="#DejaVuSans-30" x="127.246094"/>
       <use xlink:href="#DejaVuSans-34" x="190.869141"/>
       <use xlink:href="#DejaVuSans-2d" x="254.492188"/>
       <use xlink:href="#DejaVuSans-31" x="290.576172"/>
       <use xlink:href="#DejaVuSans-30" x="354.199219"/>
      </g>
     </g>
    </g>
    <g id="xtick_6">
     <g id="line2d_6">
      <path d="M 415.363636 448.56 
L 415.363636 60.48 
" clip-path="url(#pdad47f38f7)" style="fill: none; stroke: #cccccc; stroke-width: 0.8; stroke-linecap: round"/>
     </g>
     <g id="text_6">
      <!-- 2004-11 -->
      <g style="fill: #262626" transform="translate(394.47223 463.158437) scale(0.1 -0.1)">
       <use xlink:href="#DejaVuSans-32"/>
       <use xlink:href="#DejaVuSans-30" x="63.623047"/>
       <use xlink:href="#DejaVuSans-30" x="127.246094"/>
       <use xlink:href="#DejaVuSans-34" x="190.869141"/>
       <use xlink:href="#DejaVuSans-2d" x="254.492188"/>
       <use xlink:href="#DejaVuSans-31" x="290.576172"/>
       <use xlink:href="#DejaVuSans-31" x="354.199219"/>
      </g>
     </g>
    </g>
    <g id="xtick_7">
     <g id="line2d_7">
      <path d="M 469.909091 448.56 
L 469.909091 60.48 
" clip-path="url(#pdad47f38f7)" style="fill: none; stroke: #cccccc; stroke-width: 0.8; stroke-linecap: round"/>
     </g>
     <g id="text_7">
      <!-- 2004-12 -->
      <g style="fill: #262626" transform="translate(449.017685 463.158437) scale(0.1 -0.1)">
       <use xlink:href="#DejaVuSans-32"/>
       <use xlink:href="#DejaVuSans-30" x="63.623047"/>
       <use xlink:href="#DejaVuSans-30" x="127.246094"/>
       <use xlink:href="#DejaVuSans-34" x="190.869141"/>
       <use xlink:href="#DejaVuSans-2d" x="254.492188"/>
       <use xlink:href="#DejaVuSans-31" x="290.576172"/>
       <use xlink:href="#DejaVuSans-32" x="354.199219"/>
      </g>
     </g>
    </g>
    <g id="xtick_8">
     <g id="line2d_8">
      <path d="M 526.272727 448.56 
L 526.272727 60.48 
" clip-path="url(#pdad47f38f7)" style="fill: none; stroke: #cccccc; stroke-width: 0.8; stroke-linecap: round"/>
     </g>
     <g id="text_8">
      <!-- 2005-01 -->
      <g style="fill: #262626" transform="translate(505.381321 463.158437) scale(0.1 -0.1)">
       <defs>
        <path id="DejaVuSans-35" d="M 691 4666 
L 3169 4666 
L 3169 4134 
L 1269 4134 
L 1269 2991 
Q 1406 3038 1543 3061 
Q 1681 3084 1819 3084 
Q 2600 3084 3056 2656 
Q 3513 2228 3513 1497 
Q 3513 744 3044 326 
Q 2575 -91 1722 -91 
Q 1428 -91 1123 -41 
Q 819 9 494 109 
L 494 744 
Q 775 591 1075 516 
Q 1375 441 1709 441 
Q 2250 441 2565 725 
Q 2881 1009 2881 1497 
Q 2881 1984 2565 2268 
Q 2250 2553 1709 2553 
Q 1456 2553 1204 2497 
Q 953 2441 691 2322 
L 691 4666 
z
" transform="scale(0.015625)"/>
       </defs>
       <use xlink:href="#DejaVuSans-32"/>
       <use xlink:href="#DejaVuSans-30" x="63.623047"/>
       <use xlink:href="#DejaVuSans-30" x="127.246094"/>
       <use xlink:href="#DejaVuSans-35" x="190.869141"/>
       <use xlink:href="#DejaVuSans-2d" x="254.492188"/>
       <use xlink:href="#DejaVuSans-30" x="290.576172"/>
       <use xlink:href="#DejaVuSans-31" x="354.199219"/>
      </g>
     </g>
    </g>
    <g id="xtick_9">
     <g id="line2d_9">
      <path d="M 582.636364 448.56 
L 582.636364 60.48 
" clip-path="url(#pdad47f38f7)" style="fill: none; stroke: #cccccc; stroke-width: 0.8; stroke-linecap: round"/>
     </g>
     <g id="text_9">
      <!-- 2005-02 -->
      <g style="fill: #262626" transform="translate(561.744957 463.158437) scale(0.1 -0.1)">
       <use xlink:href="#DejaVuSans-32"/>
       <use xlink:href="#DejaVuSans-30" x="63.623047"/>
       <use xlink:href="#DejaVuSans-30" x="127.246094"/>
       <use xlink:href="#DejaVuSans-35" x="190.869141"/>
       <use xlink:href="#DejaVuSans-2d" x="254.492188"/>
       <use xlink:href="#DejaVuSans-30" x="290.576172"/>
       <use xlink:href="#DejaVuSans-32" x="354.199219"/>
      </g>
     </g>
    </g>
    <g id="xtick_10">
     <g id="line2d_10">
      <path d="M 633.545455 448.56 
L 633.545455 60.48 
" clip-path="url(#pdad47f38f7)" style="fill: none; stroke: #cccccc; stroke-width: 0.8; stroke-linecap: round"/>
     </g>
     <g id="text_10">
      <!-- 2005-03 -->
      <g style="fill: #262626" transform="translate(612.654048 463.158437) scale(0.1 -0.1)">
       <defs>
        <path id="DejaVuSans-33" d="M 2597 2516 
Q 3050 2419 3304 2112 
Q 3559 1806 3559 1356 
Q 3559 666 3084 287 
Q 2609 -91 1734 -91 
Q 1441 -91 1130 -33 
Q 819 25 488 141 
L 488 750 
Q 750 597 1062 519 
Q 1375 441 1716 441 
Q 2309 441 2620 675 
Q 2931 909 2931 1356 
Q 2931 1769 2642 2001 
Q 2353 2234 1838 2234 
L 1294 2234 
L 1294 2753 
L 1863 2753 
Q 2328 2753 2575 2939 
Q 2822 3125 2822 3475 
Q 2822 3834 2567 4026 
Q 2313 4219 1838 4219 
Q 1578 4219 1281 4162 
Q 984 4106 628 3988 
L 628 4550 
Q 988 4650 1302 4700 
Q 1616 4750 1894 4750 
Q 2613 4750 3031 4423 
Q 3450 4097 3450 3541 
Q 3450 3153 3228 2886 
Q 3006 2619 2597 2516 
z
" transform="scale(0.015625)"/>
       </defs>
       <use xlink:href="#DejaVuSans-32"/>
       <use xlink:href="#DejaVuSans-30" x="63.623047"/>
       <use xlink:href="#DejaVuSans-30" x="127.246094"/>
       <use xlink:href="#DejaVuSans-35" x="190.869141"/>
       <use xlink:href="#DejaVuSans-2d" x="254.492188"/>
       <use xlink:href="#DejaVuSans-30" x="290.576172"/>
       <use xlink:href="#DejaVuSans-33" x="354.199219"/>
      </g>
     </g>
    </g>
    <g id="text_11">
     <!-- Date -->
     <g style="fill: #262626" transform="translate(357.049219 476.836563) scale(0.1 -0.1)">
      <defs>
       <path id="DejaVuSans-44" d="M 1259 4147 
L 1259 519 
L 2022 519 
Q 2988 519 3436 956 
Q 3884 1394 3884 2338 
Q 3884 3275 3436 3711 
Q 2988 4147 2022 4147 
L 1259 4147 
z
M 628 4666 
L 1925 4666 
Q 3281 4666 3915 4102 
Q 4550 3538 4550 2338 
Q 4550 1131 3912 565 
Q 3275 0 1925 0 
L 628 0 
L 628 4666 
z
" transform="scale(0.015625)"/>
       <path id="DejaVuSans-61" d="M 2194 1759 
Q 1497 1759 1228 1600 
Q 959 1441 959 1056 
Q 959 750 1161 570 
Q 1363 391 1709 391 
Q 2188 391 2477 730 
Q 2766 1069 2766 1631 
L 2766 1759 
L 2194 1759 
z
M 3341 1997 
L 3341 0 
L 2766 0 
L 2766 531 
Q 2569 213 2275 61 
Q 1981 -91 1556 -91 
Q 1019 -91 701 211 
Q 384 513 384 1019 
Q 384 1609 779 1909 
Q 1175 2209 1959 2209 
L 2766 2209 
L 2766 2266 
Q 2766 2663 2505 2880 
Q 2244 3097 1772 3097 
Q 1472 3097 1187 3025 
Q 903 2953 641 2809 
L 641 3341 
Q 956 3463 1253 3523 
Q 1550 3584 1831 3584 
Q 2591 3584 2966 3190 
Q 3341 2797 3341 1997 
z
" transform="scale(0.015625)"/>
       <path id="DejaVuSans-74" d="M 1172 4494 
L 1172 3500 
L 2356 3500 
L 2356 3053 
L 1172 3053 
L 1172 1153 
Q 1172 725 1289 603 
Q 1406 481 1766 481 
L 2356 481 
L 2356 0 
L 1766 0 
Q 1100 0 847 248 
Q 594 497 594 1153 
L 594 3053 
L 172 3053 
L 172 3500 
L 594 3500 
L 594 4494 
L 1172 4494 
z
" transform="scale(0.015625)"/>
       <path id="DejaVuSans-65" d="M 3597 1894 
L 3597 1613 
L 953 1613 
Q 991 1019 1311 708 
Q 1631 397 2203 397 
Q 2534 397 2845 478 
Q 3156 559 3463 722 
L 3463 178 
Q 3153 47 2828 -22 
Q 2503 -91 2169 -91 
Q 1331 -91 842 396 
Q 353 884 353 1716 
Q 353 2575 817 3079 
Q 1281 3584 2069 3584 
Q 2775 3584 3186 3129 
Q 3597 2675 3597 1894 
z
M 3022 2063 
Q 3016 2534 2758 2815 
Q 2500 3097 2075 3097 
Q 1594 3097 1305 2825 
Q 1016 2553 972 2059 
L 3022 2063 
z
" transform="scale(0.015625)"/>
      </defs>
      <use xlink:href="#DejaVuSans-44"/>
      <use xlink:href="#DejaVuSans-61" x="77.001953"/>
      <use xlink:href="#DejaVuSans-74" x="138.28125"/>
      <use xlink:href="#DejaVuSans-65" x="177.490234"/>
     </g>
    </g>
   </g>
   <g id="matplotlib.axis_2">
    <g id="ytick_1">
     <g id="line2d_11">
      <path d="M 90 427.772561 
L 648 427.772561 
" clip-path="url(#pdad47f38f7)" style="fill: none; stroke: #cccccc; stroke-width: 0.8; stroke-linecap: round"/>
     </g>
     <g id="text_12">
      <!-- 1.775 -->
      <g style="fill: #262626" transform="translate(54.371875 431.57178) scale(0.1 -0.1)">
       <defs>
        <path id="DejaVuSans-2e" d="M 684 794 
L 1344 794 
L 1344 0 
L 684 0 
L 684 794 
z
" transform="scale(0.015625)"/>
       </defs>
       <use xlink:href="#DejaVuSans-31"/>
       <use xlink:href="#DejaVuSans-2e" x="63.623047"/>
       <use xlink:href="#DejaVuSans-37" x="95.410156"/>
       <use xlink:href="#DejaVuSans-37" x="159.033203"/>
       <use xlink:href="#DejaVuSans-35" x="222.65625"/>
      </g>
     </g>
    </g>
    <g id="ytick_2">
     <g id="line2d_12">
      <path d="M 90 376.951855 
L 648 376.951855 
" clip-path="url(#pdad47f38f7)" style="fill: none; stroke: #cccccc; stroke-width: 0.8; stroke-linecap: round"/>
     </g>
     <g id="text_13">
      <!-- 1.800 -->
      <g style="fill: #262626" transform="translate(54.371875 380.751073) scale(0.1 -0.1)">
       <use xlink:href="#DejaVuSans-31"/>
       <use xlink:href="#DejaVuSans-2e" x="63.623047"/>
       <use xlink:href="#DejaVuSans-38" x="95.410156"/>
       <use xlink:href="#DejaVuSans-30" x="159.033203"/>
       <use xlink:href="#DejaVuSans-30" x="222.65625"/>
      </g>
     </g>
    </g>
    <g id="ytick_3">
     <g id="line2d_13">
      <path d="M 90 326.131148 
L 648 326.131148 
" clip-path="url(#pdad47f38f7)" style="fill: none; stroke: #cccccc; stroke-width: 0.8; stroke-linecap: round"/>
     </g>
     <g id="text_14">
      <!-- 1.825 -->
      <g style="fill: #262626" transform="translate(54.371875 329.930367) scale(0.1 -0.1)">
       <use xlink:href="#DejaVuSans-31"/>
       <use xlink:href="#DejaVuSans-2e" x="63.623047"/>
       <use xlink:href="#DejaVuSans-38" x="95.410156"/>
       <use xlink:href="#DejaVuSans-32" x="159.033203"/>
       <use xlink:href="#DejaVuSans-35" x="222.65625"/>
      </g>
     </g>
    </g>
    <g id="ytick_4">
     <g id="line2d_14">
      <path d="M 90 275.310441 
L 648 275.310441 
" clip-path="url(#pdad47f38f7)" style="fill: none; stroke: #cccccc; stroke-width: 0.8; stroke-linecap: round"/>
     </g>
     <g id="text_15">
      <!-- 1.850 -->
      <g style="fill: #262626" transform="translate(54.371875 279.10966) scale(0.1 -0.1)">
       <use xlink:href="#DejaVuSans-31"/>
       <use xlink:href="#DejaVuSans-2e" x="63.623047"/>
       <use xlink:href="#DejaVuSans-38" x="95.410156"/>
       <use xlink:href="#DejaVuSans-35" x="159.033203"/>
       <use xlink:href="#DejaVuSans-30" x="222.65625"/>
      </g>
     </g>
    </g>
    <g id="ytick_5">
     <g id="line2d_15">
      <path d="M 90 224.489734 
L 648 224.489734 
" clip-path="url(#pdad47f38f7)" style="fill: none; stroke: #cccccc; stroke-width: 0.8; stroke-linecap: round"/>
     </g>
     <g id="text_16">
      <!-- 1.875 -->
      <g style="fill: #262626" transform="translate(54.371875 228.288953) scale(0.1 -0.1)">
       <use xlink:href="#DejaVuSans-31"/>
       <use xlink:href="#DejaVuSans-2e" x="63.623047"/>
       <use xlink:href="#DejaVuSans-38" x="95.410156"/>
       <use xlink:href="#DejaVuSans-37" x="159.033203"/>
       <use xlink:href="#DejaVuSans-35" x="222.65625"/>
      </g>
     </g>
    </g>
    <g id="ytick_6">
     <g id="line2d_16">
      <path d="M 90 173.669027 
L 648 173.669027 
" clip-path="url(#pdad47f38f7)" style="fill: none; stroke: #cccccc; stroke-width: 0.8; stroke-linecap: round"/>
     </g>
     <g id="text_17">
      <!-- 1.900 -->
      <g style="fill: #262626" transform="translate(54.371875 177.468246) scale(0.1 -0.1)">
       <use xlink:href="#DejaVuSans-31"/>
       <use xlink:href="#DejaVuSans-2e" x="63.623047"/>
       <use xlink:href="#DejaVuSans-39" x="95.410156"/>
       <use xlink:href="#DejaVuSans-30" x="159.033203"/>
       <use xlink:href="#DejaVuSans-30" x="222.65625"/>
      </g>
     </g>
    </g>
    <g id="ytick_7">
     <g id="line2d_17">
      <path d="M 90 122.84832 
L 648 122.84832 
" clip-path="url(#pdad47f38f7)" style="fill: none; stroke: #cccccc; stroke-width: 0.8; stroke-linecap: round"/>
     </g>
     <g id="text_18">
      <!-- 1.925 -->
      <g style="fill: #262626" transform="translate(54.371875 126.647539) scale(0.1 -0.1)">
       <use xlink:href="#DejaVuSans-31"/>
       <use xlink:href="#DejaVuSans-2e" x="63.623047"/>
       <use xlink:href="#DejaVuSans-39" x="95.410156"/>
       <use xlink:href="#DejaVuSans-32" x="159.033203"/>
       <use xlink:href="#DejaVuSans-35" x="222.65625"/>
      </g>
     </g>
    </g>
    <g id="ytick_8">
     <g id="line2d_18">
      <path d="M 90 72.027614 
L 648 72.027614 
" clip-path="url(#pdad47f38f7)" style="fill: none; stroke: #cccccc; stroke-width: 0.8; stroke-linecap: round"/>
     </g>
     <g id="text_19">
      <!-- 1.950 -->
      <g style="fill: #262626" transform="translate(54.371875 75.826832) scale(0.1 -0.1)">
       <use xlink:href="#DejaVuSans-31"/>
       <use xlink:href="#DejaVuSans-2e" x="63.623047"/>
       <use xlink:href="#DejaVuSans-39" x="95.410156"/>
       <use xlink:href="#DejaVuSans-35" x="159.033203"/>
       <use xlink:href="#DejaVuSans-30" x="222.65625"/>
      </g>
     </g>
    </g>
    <g id="text_20">
     <!-- Price [$/£] -->
     <g style="fill: #262626" transform="translate(48.292187 280.255156) rotate(-90) scale(0.1 -0.1)">
      <defs>
       <path id="DejaVuSans-50" d="M 1259 4147 
L 1259 2394 
L 2053 2394 
Q 2494 2394 2734 2622 
Q 2975 2850 2975 3272 
Q 2975 3691 2734 3919 
Q 2494 4147 2053 4147 
L 1259 4147 
z
M 628 4666 
L 2053 4666 
Q 2838 4666 3239 4311 
Q 3641 3956 3641 3272 
Q 3641 2581 3239 2228 
Q 2838 1875 2053 1875 
L 1259 1875 
L 1259 0 
L 628 0 
L 628 4666 
z
" transform="scale(0.015625)"/>
       <path id="DejaVuSans-72" d="M 2631 2963 
Q 2534 3019 2420 3045 
Q 2306 3072 2169 3072 
Q 1681 3072 1420 2755 
Q 1159 2438 1159 1844 
L 1159 0 
L 581 0 
L 581 3500 
L 1159 3500 
L 1159 2956 
Q 1341 3275 1631 3429 
Q 1922 3584 2338 3584 
Q 2397 3584 2469 3576 
Q 2541 3569 2628 3553 
L 2631 2963 
z
" transform="scale(0.015625)"/>
       <path id="DejaVuSans-69" d="M 603 3500 
L 1178 3500 
L 1178 0 
L 603 0 
L 603 3500 
z
M 603 4863 
L 1178 4863 
L 1178 4134 
L 603 4134 
L 603 4863 
z
" transform="scale(0.015625)"/>
       <path id="DejaVuSans-63" d="M 3122 3366 
L 3122 2828 
Q 2878 2963 2633 3030 
Q 2388 3097 2138 3097 
Q 1578 3097 1268 2742 
Q 959 2388 959 1747 
Q 959 1106 1268 751 
Q 1578 397 2138 397 
Q 2388 397 2633 464 
Q 2878 531 3122 666 
L 3122 134 
Q 2881 22 2623 -34 
Q 2366 -91 2075 -91 
Q 1284 -91 818 406 
Q 353 903 353 1747 
Q 353 2603 823 3093 
Q 1294 3584 2113 3584 
Q 2378 3584 2631 3529 
Q 2884 3475 3122 3366 
z
" transform="scale(0.015625)"/>
       <path id="DejaVuSans-20" transform="scale(0.015625)"/>
       <path id="DejaVuSans-5b" d="M 550 4863 
L 1875 4863 
L 1875 4416 
L 1125 4416 
L 1125 -397 
L 1875 -397 
L 1875 -844 
L 550 -844 
L 550 4863 
z
" transform="scale(0.015625)"/>
       <path id="DejaVuSans-24" d="M 2163 -941 
L 1850 -941 
L 1847 0 
Q 1519 6 1191 76 
Q 863 147 531 288 
L 531 850 
Q 850 650 1176 548 
Q 1503 447 1850 444 
L 1850 1869 
Q 1159 1981 845 2250 
Q 531 2519 531 2988 
Q 531 3497 872 3790 
Q 1213 4084 1850 4128 
L 1850 4863 
L 2163 4863 
L 2163 4138 
Q 2453 4125 2725 4076 
Q 2997 4028 3256 3944 
L 3256 3397 
Q 2997 3528 2723 3600 
Q 2450 3672 2163 3684 
L 2163 2350 
Q 2872 2241 3206 1959 
Q 3541 1678 3541 1191 
Q 3541 663 3186 358 
Q 2831 53 2163 6 
L 2163 -941 
z
M 1850 2406 
L 1850 3688 
Q 1488 3647 1297 3481 
Q 1106 3316 1106 3041 
Q 1106 2772 1282 2622 
Q 1459 2472 1850 2406 
z
M 2163 1806 
L 2163 453 
Q 2559 506 2761 678 
Q 2963 850 2963 1131 
Q 2963 1406 2770 1568 
Q 2578 1731 2163 1806 
z
" transform="scale(0.015625)"/>
       <path id="DejaVuSans-2f" d="M 1625 4666 
L 2156 4666 
L 531 -594 
L 0 -594 
L 1625 4666 
z
" transform="scale(0.015625)"/>
       <path id="DejaVuSans-a3" d="M 3444 4563 
L 3444 3994 
Q 3206 4122 2993 4186 
Q 2781 4250 2591 4250 
Q 2128 4250 1947 4008 
Q 1766 3766 1766 3103 
L 1766 2431 
L 2988 2431 
L 2988 1984 
L 1766 1984 
L 1766 531 
L 3506 531 
L 3506 0 
L 403 0 
L 403 531 
L 1141 531 
L 1141 1984 
L 519 1984 
L 519 2431 
L 1141 2431 
L 1141 3175 
Q 1141 3991 1475 4370 
Q 1809 4750 2534 4750 
Q 2725 4750 2961 4701 
Q 3197 4653 3444 4563 
z
" transform="scale(0.015625)"/>
       <path id="DejaVuSans-5d" d="M 1947 4863 
L 1947 -844 
L 622 -844 
L 622 -397 
L 1369 -397 
L 1369 4416 
L 622 4416 
L 622 4863 
L 1947 4863 
z
" transform="scale(0.015625)"/>
      </defs>
      <use xlink:href="#DejaVuSans-50"/>
      <use xlink:href="#DejaVuSans-72" x="58.552734"/>
      <use xlink:href="#DejaVuSans-69" x="99.666016"/>
      <use xlink:href="#DejaVuSans-63" x="127.449219"/>
      <use xlink:href="#DejaVuSans-65" x="182.429688"/>
      <use xlink:href="#DejaVuSans-20" x="243.953125"/>
      <use xlink:href="#DejaVuSans-5b" x="275.740234"/>
      <use xlink:href="#DejaVuSans-24" x="314.753906"/>
      <use xlink:href="#DejaVuSans-2f" x="378.376953"/>
      <use xlink:href="#DejaVuSans-a3" x="412.068359"/>
      <use xlink:href="#DejaVuSans-5d" x="475.691406"/>
     </g>
    </g>
   </g>
   <g id="PolyCollection_1"/>
   <g id="PolyCollection_2"/>
   <g id="PolyCollection_3"/>
   <g id="line2d_19">
    <path d="M 115.363636 430.92 
L 117.181818 424.349368 
L 122.636364 418.24558 
L 124.454545 404.899479 
L 126.272727 393.246027 
L 128.090909 375.100791 
L 129.909091 362.090115 
L 135.363636 351.804357 
L 137.181818 340.325665 
L 139 333.709766 
L 140.818182 326.263063 
L 142.636364 320.580945 
L 148.090909 315.09893 
L 149.909091 311.415864 
L 151.727273 313.103852 
L 153.545455 308.800135 
L 155.363636 315.199708 
L 160.818182 321.780564 
L 162.636364 319.160722 
L 164.454545 320.479999 
L 166.272727 317.79217 
L 168.090909 313.652989 
L 173.545455 312.850153 
L 175.363636 316.729708 
L 177.181818 321.865774 
L 179 323.253076 
L 180.818182 323.387973 
L 186.272727 321.906626 
L 188.090909 329.254548 
L 189.909091 330.580976 
L 191.727273 331.601869 
L 193.545455 328.640775 
L 199 325.699863 
L 200.818182 319.442069 
L 202.636364 308.871577 
L 204.454545 301.838569 
L 206.272727 291.728964 
L 211.727273 283.570944 
L 213.545455 278.830164 
L 215.363636 275.682353 
L 217.181818 274.394779 
L 219 265.308214 
L 224.454545 259.945349 
L 226.272727 261.916575 
L 228.090909 268.745977 
L 229.909091 272.125849 
L 231.727273 279.669098 
L 237.181818 282.327983 
L 239 291.906626 
L 242.636364 307.713185 
L 244.454545 312.579477 
L 249.909091 315.580506 
L 251.727273 317.737796 
L 253.545455 319.219688 
L 255.363636 321.014644 
L 257.181818 315.90043 
L 262.636364 311.478521 
L 264.454545 313.235698 
L 266.272727 313.53924 
L 268.090909 316.835381 
L 269.909091 311.495883 
L 275.363636 307.762171 
L 277.181818 310.384588 
L 279 314.068127 
L 280.818182 313.386766 
L 282.636364 318.290878 
L 288.090909 326.202169 
L 289.909091 339.479816 
L 291.727273 348.439486 
L 293.545455 355.895477 
L 295.363636 364.056132 
L 300.818182 368.585572 
L 302.636364 369.248919 
L 306.272727 377.583388 
L 308.090909 387.210591 
L 313.545455 393.125498 
L 315.363636 400.054504 
L 317.181818 400.554262 
L 319 399.978717 
L 320.818182 395.32659 
L 326.272727 392.74937 
L 328.090909 390.49041 
L 329.909091 397.292676 
L 331.727273 395.789941 
L 333.545455 395.358602 
L 339 397.044325 
L 340.818182 394.372783 
L 342.636364 393.36255 
L 344.454545 390.928506 
L 346.272727 386.144663 
L 351.727273 379.59238 
L 353.545455 373.495545 
L 355.363636 374.060771 
L 357.181818 369.431289 
L 359 371.296839 
L 364.454545 378.806044 
L 368.090909 392.036739 
L 369.909091 396.135067 
L 371.727273 394.24872 
L 377.181818 391.321542 
L 379 392.070917 
L 380.818182 391.769468 
L 382.636364 389.98214 
L 384.454545 385.506694 
L 389.909091 384.696269 
L 391.727273 381.556088 
L 393.545455 374.008628 
L 395.363636 363.422816 
L 397.181818 354.219909 
L 402.636364 341.77592 
L 404.454545 334.212554 
L 406.272727 331.341204 
L 408.090909 329.044125 
L 409.909091 323.135519 
L 415.363636 320.600024 
L 417.181818 315.692736 
L 419 308.588376 
L 420.818182 304.414465 
L 422.636364 295.631423 
L 428.090909 289.697431 
L 429.909091 284.502202 
L 431.727273 283.927456 
L 433.545455 285.003664 
L 435.363636 280.102782 
L 440.818182 280.601852 
L 442.636364 278.246625 
L 444.454545 273.840517 
L 446.272727 274.828916 
L 448.090909 270.825413 
L 453.545455 267.734823 
L 455.363636 261.531704 
L 457.181818 251.637568 
L 459 239.381764 
L 460.818182 228.878234 
L 466.272727 220.883196 
L 468.090909 207.537332 
L 469.909091 187.300656 
L 471.727273 174.815941 
L 473.545455 156.661892 
L 479 145.139107 
L 480.818182 132.505321 
L 482.636364 125.661388 
L 484.454545 125.790343 
L 486.272727 129.962822 
L 491.727273 129.020889 
L 493.545455 126.77484 
L 495.363636 118.873824 
L 497.181818 117.067923 
L 499 111.307914 
L 504.454545 104.670331 
L 506.272727 106.674788 
L 508.090909 114.014994 
L 509.909091 116.232541 
L 511.727273 118.81849 
L 517.181818 115.59539 
L 519 116.155191 
L 520.818182 120.375148 
L 522.636364 121.350749 
L 524.454545 123.768064 
L 529.909091 131.871143 
L 531.727273 146.900836 
L 533.545455 158.144798 
L 537.181818 183.051487 
L 542.636364 190.561783 
L 544.454545 195.881704 
L 546.272727 195.213724 
L 548.090909 198.62628 
L 549.909091 205.591112 
L 555.363636 216.572741 
L 557.181818 222.909705 
L 559 224.889784 
L 560.818182 226.601915 
L 562.636364 225.287474 
L 568.090909 223.547605 
L 569.909091 228.080185 
L 571.727273 224.473446 
L 573.545455 217.970433 
L 575.363636 213.668566 
L 580.818182 212.093616 
L 582.636364 211.194279 
L 584.454545 209.912122 
L 586.272727 209.823938 
L 588.090909 213.451918 
L 593.545455 222.566625 
L 595.363636 231.524903 
L 597.181818 236.547705 
L 599 236.936942 
L 600.818182 236.523831 
L 606.272727 229.163416 
L 608.090909 219.974177 
L 609.909091 217.138104 
L 611.727273 210.470612 
L 613.545455 205.341121 
L 619 200.302427 
L 620.818182 190.420179 
L 622.636364 184.469555 
L 622.636364 184.469555 
" clip-path="url(#pdad47f38f7)" style="fill: none; stroke: #008000; stroke-width: 1.5; stroke-linecap: round"/>
   </g>
   <g id="line2d_20">
    <path d="M 115.363636 418.832976 
L 117.181818 416.855249 
L 122.636364 414.662409 
L 126.272727 402.742077 
L 128.090909 393.197102 
L 129.909091 385.278084 
L 135.363636 378.171726 
L 137.181818 370.194504 
L 139 364.199425 
L 140.818182 357.749599 
L 142.636364 352.045111 
L 148.090909 346.43804 
L 149.909091 341.699522 
L 151.727273 339.619168 
L 153.545455 335.04451 
L 155.363636 335.592462 
L 160.818182 336.784036 
L 162.636364 334.10759 
L 164.454545 333.312306 
L 166.272727 330.810263 
L 168.090909 327.599406 
L 173.545455 325.888873 
L 175.363636 326.494497 
L 177.181818 328.010263 
L 179 328.085694 
L 186.272727 326.574591 
L 188.090909 329.629033 
L 191.727273 330.745043 
L 193.545455 329.416601 
L 199 327.942278 
L 200.818182 324.748813 
L 202.636364 319.209841 
L 204.454545 314.876193 
L 206.272727 308.820417 
L 211.727273 303.307888 
L 213.545455 299.170665 
L 215.363636 295.734517 
L 217.181818 293.211656 
L 219 287.092637 
L 224.454545 282.464185 
L 226.272727 281.258213 
L 228.090909 282.668248 
L 229.909091 282.951781 
L 231.727273 285.512763 
L 237.181818 286.222359 
L 239 290.412725 
L 240.818182 294.223368 
L 242.636364 298.594965 
L 244.454545 301.780649 
L 249.909091 304.23817 
L 251.727273 306.345673 
L 255.363636 310.046602 
L 257.181818 308.655838 
L 262.636364 307.240128 
L 264.454545 308.480535 
L 266.272727 309.077951 
L 268.090909 311.072427 
L 269.909091 309.078662 
L 275.363636 307.530915 
L 277.181818 308.801709 
L 279 310.706526 
L 280.818182 310.702221 
L 282.636364 313.293183 
L 288.090909 317.536436 
L 289.909091 324.684433 
L 291.727273 330.360026 
L 293.545455 335.632352 
L 295.363636 341.448199 
L 300.818182 345.758212 
L 302.636364 348.248126 
L 306.272727 356.237305 
L 308.090909 362.854648 
L 313.545455 367.990884 
L 315.363636 373.684183 
L 317.181818 376.433622 
L 319 378.456757 
L 320.818182 378.291169 
L 326.272727 378.686342 
L 328.090909 378.949983 
L 329.909091 383.288246 
L 331.727273 383.906413 
L 333.545455 384.832778 
L 339 386.637963 
L 340.818182 386.356882 
L 342.636364 386.639237 
L 344.454545 386.120485 
L 346.272727 384.300371 
L 351.727273 381.355883 
L 353.545455 378.284675 
L 355.363636 378.097723 
L 357.181818 375.508736 
L 359 375.818289 
L 364.454545 378.963486 
L 366.272727 382.080185 
L 368.090909 385.563338 
L 369.909091 388.131438 
L 371.727273 387.995428 
L 377.181818 387.197085 
L 379 387.946736 
L 380.818182 388.195968 
L 382.636364 387.685193 
L 384.454545 385.772785 
L 389.909091 385.361526 
L 391.727273 383.802844 
L 393.545455 379.994839 
L 397.181818 368.957615 
L 402.636364 361.628315 
L 404.454545 356.136007 
L 406.272727 352.68075 
L 408.090909 349.554565 
L 409.909091 344.787568 
L 415.363636 341.51809 
L 417.181818 337.189089 
L 419 331.758789 
L 420.818182 327.564506 
L 422.636364 321.177339 
L 428.090909 315.918685 
L 429.909091 310.947504 
L 431.727273 308.155215 
L 433.545455 306.360289 
L 435.363636 301.992572 
L 440.818182 300.145482 
L 442.636364 297.162648 
L 444.454545 293.262975 
L 446.272727 291.883883 
L 448.090909 288.353171 
L 453.545455 285.212151 
L 455.363636 280.593777 
L 457.181818 274.066848 
L 460.818182 258.548866 
L 466.272727 251.91593 
L 468.090909 242.605258 
L 469.909091 229.628944 
L 471.727273 219.652576 
L 473.545455 206.737635 
L 479 196.481476 
L 480.818182 185.575638 
L 482.636364 177.262306 
L 484.454545 172.40934 
L 486.272727 169.956331 
L 491.727273 165.698885 
L 493.545455 161.136196 
L 495.363636 154.101297 
L 497.181818 149.886347 
L 499 144.017921 
L 506.272727 135.546756 
L 508.090909 136.292381 
L 509.909091 135.2267 
L 511.727273 134.649136 
L 517.181818 131.606646 
L 519 130.348337 
L 520.818182 131.006112 
L 522.636364 130.458211 
L 524.454545 130.741936 
L 529.909091 133.936367 
L 531.727273 140.896676 
L 533.545455 146.822768 
L 537.181818 161.368704 
L 542.636364 167.010062 
L 544.454545 171.786379 
L 546.272727 173.763086 
L 548.090909 177.43103 
L 549.909091 182.766212 
L 555.363636 190.169359 
L 557.181818 195.701569 
L 559 199.235715 
L 560.818182 202.49426 
L 562.636364 204.164303 
L 568.090909 205.347525 
L 569.909091 209.239237 
L 571.727273 209.316118 
L 573.545455 207.663001 
L 575.363636 206.596153 
L 580.818182 206.519739 
L 582.636364 206.622329 
L 584.454545 206.447202 
L 586.272727 206.735202 
L 588.090909 208.756977 
L 593.545455 213.544451 
L 595.363636 218.669552 
L 597.181818 222.285682 
L 599 223.829321 
L 600.818182 224.880946 
L 606.272727 222.484833 
L 608.090909 218.74506 
L 609.909091 217.511608 
L 611.727273 214.30104 
L 613.545455 211.493622 
L 619 208.508292 
L 620.818182 203.020948 
L 622.636364 198.987245 
L 622.636364 198.987245 
" clip-path="url(#pdad47f38f7)" style="fill: none; stroke-dasharray: 5.55,2.4; stroke-dashoffset: 0; stroke: #ffa500; stroke-width: 1.5"/>
   </g>
   <g id="line2d_21">
    <path d="M 115.363636 426.745983 
L 117.181818 398.066842 
L 122.636364 393.830428 
L 124.454545 351.515074 
L 126.272727 346.632221 
L 128.090909 302.519847 
L 129.909091 310.047411 
L 135.363636 310.661325 
L 137.181818 294.410895 
L 139 307.246173 
L 140.818182 296.476249 
L 142.636364 297.852474 
L 148.090909 293.17087 
L 149.909091 296.683597 
L 151.727273 319.855807 
L 153.545455 291.585264 
L 155.363636 340.798004 
L 160.818182 348.103989 
L 162.636364 308.68135 
L 164.454545 325.757107 
L 166.272727 307.040857 
L 168.090909 297.096262 
L 173.545455 309.638812 
L 175.363636 332.247928 
L 177.181818 342.410037 
L 179 328.802284 
L 180.818182 323.927562 
L 186.272727 315.981236 
L 188.090909 358.646236 
L 189.909091 335.886691 
L 191.727273 335.685441 
L 193.545455 316.7964 
L 199 313.936211 
L 200.818182 294.410895 
L 202.636364 266.589608 
L 204.454545 273.706539 
L 206.272727 251.290542 
L 211.727273 250.938863 
L 213.545455 259.867045 
L 215.363636 263.09111 
L 217.181818 269.244481 
L 219 228.961956 
L 224.454545 238.493888 
L 226.272727 269.801476 
L 228.090909 296.063585 
L 229.909091 285.64534 
L 231.727273 309.842095 
L 237.181818 292.963522 
L 239 330.221198 
L 240.818182 330.424481 
L 242.636364 340.125138 
L 244.454545 332.044645 
L 249.909091 327.58462 
L 253.545455 325.147259 
L 255.363636 328.194469 
L 257.181818 295.443572 
L 262.636364 293.790883 
L 264.454545 320.264405 
L 266.272727 314.753408 
L 268.090909 330.019948 
L 269.909091 290.13789 
L 275.363636 292.827322 
L 277.181818 320.874254 
L 279 328.802284 
L 280.818182 310.661325 
L 282.636364 337.907322 
L 288.090909 357.847335 
L 289.909091 392.590403 
L 291.727273 384.278168 
L 293.545455 385.719443 
L 295.363636 396.698748 
L 300.818182 386.703332 
L 302.636364 371.902309 
L 304.454545 390.368521 
L 306.272727 394.025579 
L 308.090909 425.719405 
L 313.545455 416.785125 
L 315.363636 427.770529 
L 317.181818 402.553294 
L 319 397.676539 
L 320.818182 376.718079 
L 326.272727 382.440491 
L 328.090909 381.454569 
L 329.909091 424.501741 
L 331.727273 389.779001 
L 333.545455 393.633243 
L 339 403.787221 
L 340.818182 383.686615 
L 342.636364 389.321615 
L 344.454545 381.192334 
L 346.272727 367.009292 
L 353.545455 349.108206 
L 355.363636 376.321678 
L 357.181818 350.913357 
L 359 378.759039 
L 364.454545 408.842865 
L 366.272727 411.688824 
L 368.090909 418.653294 
L 369.909091 412.528382 
L 371.727273 386.703332 
L 377.181818 379.612827 
L 379 395.06842 
L 380.818182 390.563673 
L 382.636364 382.832827 
L 384.454545 367.60491 
L 389.909091 381.454569 
L 391.727273 368.995365 
L 393.545455 343.818787 
L 395.363636 321.07957 
L 397.181818 317.408282 
L 402.636364 291.999961 
L 404.454545 303.95909 
L 406.272727 319.855807 
L 408.090909 319.855807 
L 409.909091 299.501097 
L 415.363636 310.458042 
L 417.181818 296.063585 
L 419 280.170933 
L 420.818182 287.718825 
L 422.636364 260.499254 
L 428.090909 265.961464 
L 429.909091 263.721287 
L 431.727273 281.628471 
L 433.545455 289.308496 
L 435.363636 260.499254 
L 440.818182 282.59813 
L 442.636364 268.825719 
L 444.454545 256.216085 
L 446.272727 278.782512 
L 448.090909 254.811401 
L 453.545455 255.372461 
L 455.363636 236.719229 
L 457.181818 212.061022 
L 459 190.358547 
L 460.818182 186.864116 
L 466.272727 188.903042 
L 468.090909 154.153876 
L 469.909091 106.353952 
L 471.727273 124.877083 
L 473.545455 84.045694 
L 479 99.047967 
L 480.818182 81.970177 
L 482.636364 98.285656 
L 484.454545 126.306161 
L 486.272727 146.65274 
L 493.545455 117.790644 
L 495.363636 87.26976 
L 497.181818 109.844318 
L 499 88.267879 
L 504.454545 78.12 
L 506.272727 114.692613 
L 508.090909 143.37582 
L 509.909091 125.102727 
L 511.727273 129.162285 
L 517.181818 102.702992 
L 519 118.394394 
L 520.818182 137.254974 
L 522.636364 125.253156 
L 524.454545 133.437323 
L 529.909091 164.283459 
L 531.727273 207.019608 
L 533.545455 203.120643 
L 535.363636 221.46082 
L 537.181818 232.025429 
L 542.636364 220.602966 
L 544.454545 217.161388 
L 546.272727 192.541805 
L 548.090909 212.276502 
L 549.909091 233.450441 
L 555.363636 260.499254 
L 557.181818 248.257562 
L 559 232.8101 
L 560.818182 233.450441 
L 562.636364 220.029709 
L 568.090909 216.588131 
L 569.909091 246.210504 
L 571.727273 210.046489 
L 573.545455 191.958383 
L 575.363636 196.461098 
L 580.818182 205.793813 
L 582.636364 207.596931 
L 584.454545 204.783497 
L 586.272727 209.471199 
L 588.090909 227.963838 
L 593.545455 259.025454 
L 595.363636 267.358017 
L 597.181818 256.638913 
L 599 238.493888 
L 600.818182 234.871388 
L 606.272727 199.721754 
L 608.090909 183.217222 
L 609.909091 205.793813 
L 611.727273 183.800643 
L 613.545455 184.823156 
L 619 180.147651 
L 620.818182 150.891187 
L 622.636364 160.667058 
L 622.636364 160.667058 
" clip-path="url(#pdad47f38f7)" style="fill: none; stroke-dasharray: 1.5,2.475; stroke-dashoffset: 0; stroke: #0000ff; stroke-width: 1.5"/>
   </g>
   <g id="patch_3">
    <path d="M 90 448.56 
L 90 60.48 
" style="fill: none; stroke: #cccccc; stroke-width: 0.8; stroke-linejoin: miter; stroke-linecap: square"/>
   </g>
   <g id="patch_4">
    <path d="M 648 448.56 
L 648 60.48 
" style="fill: none; stroke: #cccccc; stroke-width: 0.8; stroke-linejoin: miter; stroke-linecap: square"/>
   </g>
   <g id="patch_5">
    <path d="M 90 448.56 
L 648 448.56 
" style="fill: none; stroke: #cccccc; stroke-width: 0.8; stroke-linejoin: miter; stroke-linecap: square"/>
   </g>
   <g id="patch_6">
    <path d="M 90 60.48 
L 648 60.48 
" style="fill: none; stroke: #cccccc; stroke-width: 0.8; stroke-linejoin: miter; stroke-linecap: square"/>
   </g>
   <g id="text_21">
    <!-- Exponential Moving Averages and GBPUSD Closing Price. -->
    <g style="fill: #262626" transform="translate(197.665312 54.48) scale(0.12 -0.12)">
     <defs>
      <path id="DejaVuSans-45" d="M 628 4666 
L 3578 4666 
L 3578 4134 
L 1259 4134 
L 1259 2753 
L 3481 2753 
L 3481 2222 
L 1259 2222 
L 1259 531 
L 3634 531 
L 3634 0 
L 628 0 
L 628 4666 
z
" transform="scale(0.015625)"/>
      <path id="DejaVuSans-78" d="M 3513 3500 
L 2247 1797 
L 3578 0 
L 2900 0 
L 1881 1375 
L 863 0 
L 184 0 
L 1544 1831 
L 300 3500 
L 978 3500 
L 1906 2253 
L 2834 3500 
L 3513 3500 
z
" transform="scale(0.015625)"/>
      <path id="DejaVuSans-70" d="M 1159 525 
L 1159 -1331 
L 581 -1331 
L 581 3500 
L 1159 3500 
L 1159 2969 
Q 1341 3281 1617 3432 
Q 1894 3584 2278 3584 
Q 2916 3584 3314 3078 
Q 3713 2572 3713 1747 
Q 3713 922 3314 415 
Q 2916 -91 2278 -91 
Q 1894 -91 1617 61 
Q 1341 213 1159 525 
z
M 3116 1747 
Q 3116 2381 2855 2742 
Q 2594 3103 2138 3103 
Q 1681 3103 1420 2742 
Q 1159 2381 1159 1747 
Q 1159 1113 1420 752 
Q 1681 391 2138 391 
Q 2594 391 2855 752 
Q 3116 1113 3116 1747 
z
" transform="scale(0.015625)"/>
      <path id="DejaVuSans-6f" d="M 1959 3097 
Q 1497 3097 1228 2736 
Q 959 2375 959 1747 
Q 959 1119 1226 758 
Q 1494 397 1959 397 
Q 2419 397 2687 759 
Q 2956 1122 2956 1747 
Q 2956 2369 2687 2733 
Q 2419 3097 1959 3097 
z
M 1959 3584 
Q 2709 3584 3137 3096 
Q 3566 2609 3566 1747 
Q 3566 888 3137 398 
Q 2709 -91 1959 -91 
Q 1206 -91 779 398 
Q 353 888 353 1747 
Q 353 2609 779 3096 
Q 1206 3584 1959 3584 
z
" transform="scale(0.015625)"/>
      <path id="DejaVuSans-6e" d="M 3513 2113 
L 3513 0 
L 2938 0 
L 2938 2094 
Q 2938 2591 2744 2837 
Q 2550 3084 2163 3084 
Q 1697 3084 1428 2787 
Q 1159 2491 1159 1978 
L 1159 0 
L 581 0 
L 581 3500 
L 1159 3500 
L 1159 2956 
Q 1366 3272 1645 3428 
Q 1925 3584 2291 3584 
Q 2894 3584 3203 3211 
Q 3513 2838 3513 2113 
z
" transform="scale(0.015625)"/>
      <path id="DejaVuSans-6c" d="M 603 4863 
L 1178 4863 
L 1178 0 
L 603 0 
L 603 4863 
z
" transform="scale(0.015625)"/>
      <path id="DejaVuSans-4d" d="M 628 4666 
L 1569 4666 
L 2759 1491 
L 3956 4666 
L 4897 4666 
L 4897 0 
L 4281 0 
L 4281 4097 
L 3078 897 
L 2444 897 
L 1241 4097 
L 1241 0 
L 628 0 
L 628 4666 
z
" transform="scale(0.015625)"/>
      <path id="DejaVuSans-76" d="M 191 3500 
L 800 3500 
L 1894 563 
L 2988 3500 
L 3597 3500 
L 2284 0 
L 1503 0 
L 191 3500 
z
" transform="scale(0.015625)"/>
      <path id="DejaVuSans-67" d="M 2906 1791 
Q 2906 2416 2648 2759 
Q 2391 3103 1925 3103 
Q 1463 3103 1205 2759 
Q 947 2416 947 1791 
Q 947 1169 1205 825 
Q 1463 481 1925 481 
Q 2391 481 2648 825 
Q 2906 1169 2906 1791 
z
M 3481 434 
Q 3481 -459 3084 -895 
Q 2688 -1331 1869 -1331 
Q 1566 -1331 1297 -1286 
Q 1028 -1241 775 -1147 
L 775 -588 
Q 1028 -725 1275 -790 
Q 1522 -856 1778 -856 
Q 2344 -856 2625 -561 
Q 2906 -266 2906 331 
L 2906 616 
Q 2728 306 2450 153 
Q 2172 0 1784 0 
Q 1141 0 747 490 
Q 353 981 353 1791 
Q 353 2603 747 3093 
Q 1141 3584 1784 3584 
Q 2172 3584 2450 3431 
Q 2728 3278 2906 2969 
L 2906 3500 
L 3481 3500 
L 3481 434 
z
" transform="scale(0.015625)"/>
      <path id="DejaVuSans-41" d="M 2188 4044 
L 1331 1722 
L 3047 1722 
L 2188 4044 
z
M 1831 4666 
L 2547 4666 
L 4325 0 
L 3669 0 
L 3244 1197 
L 1141 1197 
L 716 0 
L 50 0 
L 1831 4666 
z
" transform="scale(0.015625)"/>
      <path id="DejaVuSans-73" d="M 2834 3397 
L 2834 2853 
Q 2591 2978 2328 3040 
Q 2066 3103 1784 3103 
Q 1356 3103 1142 2972 
Q 928 2841 928 2578 
Q 928 2378 1081 2264 
Q 1234 2150 1697 2047 
L 1894 2003 
Q 2506 1872 2764 1633 
Q 3022 1394 3022 966 
Q 3022 478 2636 193 
Q 2250 -91 1575 -91 
Q 1294 -91 989 -36 
Q 684 19 347 128 
L 347 722 
Q 666 556 975 473 
Q 1284 391 1588 391 
Q 1994 391 2212 530 
Q 2431 669 2431 922 
Q 2431 1156 2273 1281 
Q 2116 1406 1581 1522 
L 1381 1569 
Q 847 1681 609 1914 
Q 372 2147 372 2553 
Q 372 3047 722 3315 
Q 1072 3584 1716 3584 
Q 2034 3584 2315 3537 
Q 2597 3491 2834 3397 
z
" transform="scale(0.015625)"/>
      <path id="DejaVuSans-64" d="M 2906 2969 
L 2906 4863 
L 3481 4863 
L 3481 0 
L 2906 0 
L 2906 525 
Q 2725 213 2448 61 
Q 2172 -91 1784 -91 
Q 1150 -91 751 415 
Q 353 922 353 1747 
Q 353 2572 751 3078 
Q 1150 3584 1784 3584 
Q 2172 3584 2448 3432 
Q 2725 3281 2906 2969 
z
M 947 1747 
Q 947 1113 1208 752 
Q 1469 391 1925 391 
Q 2381 391 2643 752 
Q 2906 1113 2906 1747 
Q 2906 2381 2643 2742 
Q 2381 3103 1925 3103 
Q 1469 3103 1208 2742 
Q 947 2381 947 1747 
z
" transform="scale(0.015625)"/>
      <path id="DejaVuSans-47" d="M 3809 666 
L 3809 1919 
L 2778 1919 
L 2778 2438 
L 4434 2438 
L 4434 434 
Q 4069 175 3628 42 
Q 3188 -91 2688 -91 
Q 1594 -91 976 548 
Q 359 1188 359 2328 
Q 359 3472 976 4111 
Q 1594 4750 2688 4750 
Q 3144 4750 3555 4637 
Q 3966 4525 4313 4306 
L 4313 3634 
Q 3963 3931 3569 4081 
Q 3175 4231 2741 4231 
Q 1884 4231 1454 3753 
Q 1025 3275 1025 2328 
Q 1025 1384 1454 906 
Q 1884 428 2741 428 
Q 3075 428 3337 486 
Q 3600 544 3809 666 
z
" transform="scale(0.015625)"/>
      <path id="DejaVuSans-42" d="M 1259 2228 
L 1259 519 
L 2272 519 
Q 2781 519 3026 730 
Q 3272 941 3272 1375 
Q 3272 1813 3026 2020 
Q 2781 2228 2272 2228 
L 1259 2228 
z
M 1259 4147 
L 1259 2741 
L 2194 2741 
Q 2656 2741 2882 2914 
Q 3109 3088 3109 3444 
Q 3109 3797 2882 3972 
Q 2656 4147 2194 4147 
L 1259 4147 
z
M 628 4666 
L 2241 4666 
Q 2963 4666 3353 4366 
Q 3744 4066 3744 3513 
Q 3744 3084 3544 2831 
Q 3344 2578 2956 2516 
Q 3422 2416 3680 2098 
Q 3938 1781 3938 1306 
Q 3938 681 3513 340 
Q 3088 0 2303 0 
L 628 0 
L 628 4666 
z
" transform="scale(0.015625)"/>
      <path id="DejaVuSans-55" d="M 556 4666 
L 1191 4666 
L 1191 1831 
Q 1191 1081 1462 751 
Q 1734 422 2344 422 
Q 2950 422 3222 751 
Q 3494 1081 3494 1831 
L 3494 4666 
L 4128 4666 
L 4128 1753 
Q 4128 841 3676 375 
Q 3225 -91 2344 -91 
Q 1459 -91 1007 375 
Q 556 841 556 1753 
L 556 4666 
z
" transform="scale(0.015625)"/>
      <path id="DejaVuSans-53" d="M 3425 4513 
L 3425 3897 
Q 3066 4069 2747 4153 
Q 2428 4238 2131 4238 
Q 1616 4238 1336 4038 
Q 1056 3838 1056 3469 
Q 1056 3159 1242 3001 
Q 1428 2844 1947 2747 
L 2328 2669 
Q 3034 2534 3370 2195 
Q 3706 1856 3706 1288 
Q 3706 609 3251 259 
Q 2797 -91 1919 -91 
Q 1588 -91 1214 -16 
Q 841 59 441 206 
L 441 856 
Q 825 641 1194 531 
Q 1563 422 1919 422 
Q 2459 422 2753 634 
Q 3047 847 3047 1241 
Q 3047 1584 2836 1778 
Q 2625 1972 2144 2069 
L 1759 2144 
Q 1053 2284 737 2584 
Q 422 2884 422 3419 
Q 422 4038 858 4394 
Q 1294 4750 2059 4750 
Q 2388 4750 2728 4690 
Q 3069 4631 3425 4513 
z
" transform="scale(0.015625)"/>
      <path id="DejaVuSans-43" d="M 4122 4306 
L 4122 3641 
Q 3803 3938 3442 4084 
Q 3081 4231 2675 4231 
Q 1875 4231 1450 3742 
Q 1025 3253 1025 2328 
Q 1025 1406 1450 917 
Q 1875 428 2675 428 
Q 3081 428 3442 575 
Q 3803 722 4122 1019 
L 4122 359 
Q 3791 134 3420 21 
Q 3050 -91 2638 -91 
Q 1578 -91 968 557 
Q 359 1206 359 2328 
Q 359 3453 968 4101 
Q 1578 4750 2638 4750 
Q 3056 4750 3426 4639 
Q 3797 4528 4122 4306 
z
" transform="scale(0.015625)"/>
     </defs>
     <use xlink:href="#DejaVuSans-45"/>
     <use xlink:href="#DejaVuSans-78" x="63.183594"/>
     <use xlink:href="#DejaVuSans-70" x="122.363281"/>
     <use xlink:href="#DejaVuSans-6f" x="185.839844"/>
     <use xlink:href="#DejaVuSans-6e" x="247.021484"/>
     <use xlink:href="#DejaVuSans-65" x="310.400391"/>
     <use xlink:href="#DejaVuSans-6e" x="371.923828"/>
     <use xlink:href="#DejaVuSans-74" x="435.302734"/>
     <use xlink:href="#DejaVuSans-69" x="474.511719"/>
     <use xlink:href="#DejaVuSans-61" x="502.294922"/>
     <use xlink:href="#DejaVuSans-6c" x="563.574219"/>
     <use xlink:href="#DejaVuSans-20" x="591.357422"/>
     <use xlink:href="#DejaVuSans-4d" x="623.144531"/>
     <use xlink:href="#DejaVuSans-6f" x="709.423828"/>
     <use xlink:href="#DejaVuSans-76" x="770.605469"/>
     <use xlink:href="#DejaVuSans-69" x="829.785156"/>
     <use xlink:href="#DejaVuSans-6e" x="857.568359"/>
     <use xlink:href="#DejaVuSans-67" x="920.947266"/>
     <use xlink:href="#DejaVuSans-20" x="984.423828"/>
     <use xlink:href="#DejaVuSans-41" x="1016.210938"/>
     <use xlink:href="#DejaVuSans-76" x="1078.744141"/>
     <use xlink:href="#DejaVuSans-65" x="1137.923828"/>
     <use xlink:href="#DejaVuSans-72" x="1199.447266"/>
     <use xlink:href="#DejaVuSans-61" x="1240.560547"/>
     <use xlink:href="#DejaVuSans-67" x="1301.839844"/>
     <use xlink:href="#DejaVuSans-65" x="1365.316406"/>
     <use xlink:href="#DejaVuSans-73" x="1426.839844"/>
     <use xlink:href="#DejaVuSans-20" x="1478.939453"/>
     <use xlink:href="#DejaVuSans-61" x="1510.726562"/>
     <use xlink:href="#DejaVuSans-6e" x="1572.005859"/>
     <use xlink:href="#DejaVuSans-64" x="1635.384766"/>
     <use xlink:href="#DejaVuSans-20" x="1698.861328"/>
     <use xlink:href="#DejaVuSans-47" x="1730.648438"/>
     <use xlink:href="#DejaVuSans-42" x="1808.138672"/>
     <use xlink:href="#DejaVuSans-50" x="1876.742188"/>
     <use xlink:href="#DejaVuSans-55" x="1937.044922"/>
     <use xlink:href="#DejaVuSans-53" x="2010.238281"/>
     <use xlink:href="#DejaVuSans-44" x="2073.714844"/>
     <use xlink:href="#DejaVuSans-20" x="2150.716797"/>
     <use xlink:href="#DejaVuSans-43" x="2182.503906"/>
     <use xlink:href="#DejaVuSans-6c" x="2252.328125"/>
     <use xlink:href="#DejaVuSans-6f" x="2280.111328"/>
     <use xlink:href="#DejaVuSans-73" x="2341.292969"/>
     <use xlink:href="#DejaVuSans-69" x="2393.392578"/>
     <use xlink:href="#DejaVuSans-6e" x="2421.175781"/>
     <use xlink:href="#DejaVuSans-67" x="2484.554688"/>
     <use xlink:href="#DejaVuSans-20" x="2548.03125"/>
     <use xlink:href="#DejaVuSans-50" x="2579.818359"/>
     <use xlink:href="#DejaVuSans-72" x="2638.371094"/>
     <use xlink:href="#DejaVuSans-69" x="2679.484375"/>
     <use xlink:href="#DejaVuSans-63" x="2707.267578"/>
     <use xlink:href="#DejaVuSans-65" x="2762.248047"/>
     <use xlink:href="#DejaVuSans-2e" x="2823.771484"/>
    </g>
   </g>
   <g id="legend_1">
    <g id="patch_7">
     <path d="M 544.873438 112.514375 
L 641 112.514375 
Q 643 112.514375 643 110.514375 
L 643 67.48 
Q 643 65.48 641 65.48 
L 544.873438 65.48 
Q 542.873438 65.48 542.873438 67.48 
L 542.873438 110.514375 
Q 542.873438 112.514375 544.873438 112.514375 
z
" style="fill: #ffffff; opacity: 0.8; stroke: #cccccc; stroke-linejoin: miter"/>
    </g>
    <g id="line2d_22">
     <path d="M 546.873438 73.578438 
L 556.873438 73.578438 
L 566.873438 73.578438 
" style="fill: none; stroke: #008000; stroke-width: 1.5; stroke-linecap: round"/>
    </g>
    <g id="text_22">
     <!-- EMA 9 -->
     <g style="fill: #262626" transform="translate(574.873438 77.078438) scale(0.1 -0.1)">
      <use xlink:href="#DejaVuSans-45"/>
      <use xlink:href="#DejaVuSans-4d" x="63.183594"/>
      <use xlink:href="#DejaVuSans-41" x="149.462891"/>
      <use xlink:href="#DejaVuSans-20" x="217.871094"/>
      <use xlink:href="#DejaVuSans-39" x="249.658203"/>
     </g>
    </g>
    <g id="line2d_23">
     <path d="M 546.873438 88.256563 
L 556.873438 88.256563 
L 566.873438 88.256563 
" style="fill: none; stroke-dasharray: 5.55,2.4; stroke-dashoffset: 0; stroke: #ffa500; stroke-width: 1.5"/>
    </g>
    <g id="text_23">
     <!-- EMA 20 -->
     <g style="fill: #262626" transform="translate(574.873438 91.756563) scale(0.1 -0.1)">
      <use xlink:href="#DejaVuSans-45"/>
      <use xlink:href="#DejaVuSans-4d" x="63.183594"/>
      <use xlink:href="#DejaVuSans-41" x="149.462891"/>
      <use xlink:href="#DejaVuSans-20" x="217.871094"/>
      <use xlink:href="#DejaVuSans-32" x="249.658203"/>
      <use xlink:href="#DejaVuSans-30" x="313.28125"/>
     </g>
    </g>
    <g id="line2d_24">
     <path d="M 546.873438 102.934687 
L 556.873438 102.934687 
L 566.873438 102.934687 
" style="fill: none; stroke-dasharray: 1.5,2.475; stroke-dashoffset: 0; stroke: #0000ff; stroke-width: 1.5"/>
    </g>
    <g id="text_24">
     <!-- Closing Price -->
     <g style="fill: #262626" transform="translate(574.873438 106.434687) scale(0.1 -0.1)">
      <use xlink:href="#DejaVuSans-43"/>
      <use xlink:href="#DejaVuSans-6c" x="69.824219"/>
      <use xlink:href="#DejaVuSans-6f" x="97.607422"/>
      <use xlink:href="#DejaVuSans-73" x="158.789062"/>
      <use xlink:href="#DejaVuSans-69" x="210.888672"/>
      <use xlink:href="#DejaVuSans-6e" x="238.671875"/>
      <use xlink:href="#DejaVuSans-67" x="302.050781"/>
      <use xlink:href="#DejaVuSans-20" x="365.527344"/>
      <use xlink:href="#DejaVuSans-50" x="397.314453"/>
      <use xlink:href="#DejaVuSans-72" x="455.867188"/>
      <use xlink:href="#DejaVuSans-69" x="496.980469"/>
      <use xlink:href="#DejaVuSans-63" x="524.763672"/>
      <use xlink:href="#DejaVuSans-65" x="579.744141"/>
     </g>
    </g>
   </g>
  </g>
 </g>
 <defs>
  <clipPath id="pdad47f38f7">
   <rect x="90" y="60.48" width="558" height="388.08"/>
  </clipPath>
 </defs>
</svg>
