<?xml version="1.0" encoding="utf-8" standalone="no"?>
<!DOCTYPE svg PUBLIC "-//W3C//DTD SVG 1.1//EN"
  "http://www.w3.org/Graphics/SVG/1.1/DTD/svg11.dtd">
<svg xmlns:xlink="http://www.w3.org/1999/xlink" width="720pt" height="504pt" viewBox="0 0 720 504" xmlns="http://www.w3.org/2000/svg" version="1.1">
 <metadata>
  <rdf:RDF xmlns:dc="http://purl.org/dc/elements/1.1/" xmlns:cc="http://creativecommons.org/ns#" xmlns:rdf="http://www.w3.org/1999/02/22-rdf-syntax-ns#">
   <cc:Work>
    <dc:type rdf:resource="http://purl.org/dc/dcmitype/StillImage"/>
    <dc:date>2024-09-15T16:40:37.236593</dc:date>
    <dc:format>image/svg+xml</dc:format>
    <dc:creator>
     <cc:Agent>
      <dc:title>Matplotlib v3.7.1, https://matplotlib.org/</dc:title>
     </cc:Agent>
    </dc:creator>
   </cc:Work>
  </rdf:RDF>
 </metadata>
 <defs>
  <style type="text/css">*{stroke-linejoin: round; stroke-linecap: butt}</style>
 </defs>
 <g id="figure_1">
  <g id="patch_1">
   <path d="M 0 504 
L 720 504 
L 720 0 
L 0 0 
z
" style="fill: #ffffff"/>
  </g>
  <g id="axes_1">
   <g id="patch_2">
    <path d="M 90 448.56 
L 648 448.56 
L 648 60.48 
L 90 60.48 
z
" style="fill: #ffffff"/>
   </g>
   <g id="matplotlib.axis_1">
    <g id="xtick_1">
     <g id="line2d_1">
      <path d="M 137.181818 448.56 
L 137.181818 60.48 
" clip-path="url(#pc14f8cc9ba)" style="fill: none; stroke: #cccccc; stroke-width: 0.8; stroke-linecap: round"/>
     </g>
     <g id="text_1">
      <!-- 2004-06 -->
      <g style="fill: #262626" transform="translate(116.290412 463.158437) scale(0.1 -0.1)">
       <defs>
        <path id="DejaVuSans-32" d="M 1228 531 
L 3431 531 
L 3431 0 
L 469 0 
L 469 531 
Q 828 903 1448 1529 
Q 2069 2156 2228 2338 
Q 2531 2678 2651 2914 
Q 2772 3150 2772 3378 
Q 2772 3750 2511 3984 
Q 2250 4219 1831 4219 
Q 1534 4219 1204 4116 
Q 875 4013 500 3803 
L 500 4441 
Q 881 4594 1212 4672 
Q 1544 4750 1819 4750 
Q 2544 4750 2975 4387 
Q 3406 4025 3406 3419 
Q 3406 3131 3298 2873 
Q 3191 2616 2906 2266 
Q 2828 2175 2409 1742 
Q 1991 1309 1228 531 
z
" transform="scale(0.015625)"/>
        <path id="DejaVuSans-30" d="M 2034 4250 
Q 1547 4250 1301 3770 
Q 1056 3291 1056 2328 
Q 1056 1369 1301 889 
Q 1547 409 2034 409 
Q 2525 409 2770 889 
Q 3016 1369 3016 2328 
Q 3016 3291 2770 3770 
Q 2525 4250 2034 4250 
z
M 2034 4750 
Q 2819 4750 3233 4129 
Q 3647 3509 3647 2328 
Q 3647 1150 3233 529 
Q 2819 -91 2034 -91 
Q 1250 -91 836 529 
Q 422 1150 422 2328 
Q 422 3509 836 4129 
Q 1250 4750 2034 4750 
z
" transform="scale(0.015625)"/>
        <path id="DejaVuSans-34" d="M 2419 4116 
L 825 1625 
L 2419 1625 
L 2419 4116 
z
M 2253 4666 
L 3047 4666 
L 3047 1625 
L 3713 1625 
L 3713 1100 
L 3047 1100 
L 3047 0 
L 2419 0 
L 2419 1100 
L 313 1100 
L 313 1709 
L 2253 4666 
z
" transform="scale(0.015625)"/>
        <path id="DejaVuSans-2d" d="M 313 2009 
L 1997 2009 
L 1997 1497 
L 313 1497 
L 313 2009 
z
" transform="scale(0.015625)"/>
        <path id="DejaVuSans-36" d="M 2113 2584 
Q 1688 2584 1439 2293 
Q 1191 2003 1191 1497 
Q 1191 994 1439 701 
Q 1688 409 2113 409 
Q 2538 409 2786 701 
Q 3034 994 3034 1497 
Q 3034 2003 2786 2293 
Q 2538 2584 2113 2584 
z
M 3366 4563 
L 3366 3988 
Q 3128 4100 2886 4159 
Q 2644 4219 2406 4219 
Q 1781 4219 1451 3797 
Q 1122 3375 1075 2522 
Q 1259 2794 1537 2939 
Q 1816 3084 2150 3084 
Q 2853 3084 3261 2657 
Q 3669 2231 3669 1497 
Q 3669 778 3244 343 
Q 2819 -91 2113 -91 
Q 1303 -91 875 529 
Q 447 1150 447 2328 
Q 447 3434 972 4092 
Q 1497 4750 2381 4750 
Q 2619 4750 2861 4703 
Q 3103 4656 3366 4563 
z
" transform="scale(0.015625)"/>
       </defs>
       <use xlink:href="#DejaVuSans-32"/>
       <use xlink:href="#DejaVuSans-30" x="63.623047"/>
       <use xlink:href="#DejaVuSans-30" x="127.246094"/>
       <use xlink:href="#DejaVuSans-34" x="190.869141"/>
       <use xlink:href="#DejaVuSans-2d" x="254.492188"/>
       <use xlink:href="#DejaVuSans-30" x="290.576172"/>
       <use xlink:href="#DejaVuSans-36" x="354.199219"/>
      </g>
     </g>
    </g>
    <g id="xtick_2">
     <g id="line2d_2">
      <path d="M 191.727273 448.56 
L 191.727273 60.48 
" clip-path="url(#pc14f8cc9ba)" style="fill: none; stroke: #cccccc; stroke-width: 0.8; stroke-linecap: round"/>
     </g>
     <g id="text_2">
      <!-- 2004-07 -->
      <g style="fill: #262626" transform="translate(170.835866 463.158437) scale(0.1 -0.1)">
       <defs>
        <path id="DejaVuSans-37" d="M 525 4666 
L 3525 4666 
L 3525 4397 
L 1831 0 
L 1172 0 
L 2766 4134 
L 525 4134 
L 525 4666 
z
" transform="scale(0.015625)"/>
       </defs>
       <use xlink:href="#DejaVuSans-32"/>
       <use xlink:href="#DejaVuSans-30" x="63.623047"/>
       <use xlink:href="#DejaVuSans-30" x="127.246094"/>
       <use xlink:href="#DejaVuSans-34" x="190.869141"/>
       <use xlink:href="#DejaVuSans-2d" x="254.492188"/>
       <use xlink:href="#DejaVuSans-30" x="290.576172"/>
       <use xlink:href="#DejaVuSans-37" x="354.199219"/>
      </g>
     </g>
    </g>
    <g id="xtick_3">
     <g id="line2d_3">
      <path d="M 248.090909 448.56 
L 248.090909 60.48 
" clip-path="url(#pc14f8cc9ba)" style="fill: none; stroke: #cccccc; stroke-width: 0.8; stroke-linecap: round"/>
     </g>
     <g id="text_3">
      <!-- 2004-08 -->
      <g style="fill: #262626" transform="translate(227.199503 463.158437) scale(0.1 -0.1)">
       <defs>
        <path id="DejaVuSans-38" d="M 2034 2216 
Q 1584 2216 1326 1975 
Q 1069 1734 1069 1313 
Q 1069 891 1326 650 
Q 1584 409 2034 409 
Q 2484 409 2743 651 
Q 3003 894 3003 1313 
Q 3003 1734 2745 1975 
Q 2488 2216 2034 2216 
z
M 1403 2484 
Q 997 2584 770 2862 
Q 544 3141 544 3541 
Q 544 4100 942 4425 
Q 1341 4750 2034 4750 
Q 2731 4750 3128 4425 
Q 3525 4100 3525 3541 
Q 3525 3141 3298 2862 
Q 3072 2584 2669 2484 
Q 3125 2378 3379 2068 
Q 3634 1759 3634 1313 
Q 3634 634 3220 271 
Q 2806 -91 2034 -91 
Q 1263 -91 848 271 
Q 434 634 434 1313 
Q 434 1759 690 2068 
Q 947 2378 1403 2484 
z
M 1172 3481 
Q 1172 3119 1398 2916 
Q 1625 2713 2034 2713 
Q 2441 2713 2670 2916 
Q 2900 3119 2900 3481 
Q 2900 3844 2670 4047 
Q 2441 4250 2034 4250 
Q 1625 4250 1398 4047 
Q 1172 3844 1172 3481 
z
" transform="scale(0.015625)"/>
       </defs>
       <use xlink:href="#DejaVuSans-32"/>
       <use xlink:href="#DejaVuSans-30" x="63.623047"/>
       <use xlink:href="#DejaVuSans-30" x="127.246094"/>
       <use xlink:href="#DejaVuSans-34" x="190.869141"/>
       <use xlink:href="#DejaVuSans-2d" x="254.492188"/>
       <use xlink:href="#DejaVuSans-30" x="290.576172"/>
       <use xlink:href="#DejaVuSans-38" x="354.199219"/>
      </g>
     </g>
    </g>
    <g id="xtick_4">
     <g id="line2d_4">
      <path d="M 304.454545 448.56 
L 304.454545 60.48 
" clip-path="url(#pc14f8cc9ba)" style="fill: none; stroke: #cccccc; stroke-width: 0.8; stroke-linecap: round"/>
     </g>
     <g id="text_4">
      <!-- 2004-09 -->
      <g style="fill: #262626" transform="translate(283.563139 463.158437) scale(0.1 -0.1)">
       <defs>
        <path id="DejaVuSans-39" d="M 703 97 
L 703 672 
Q 941 559 1184 500 
Q 1428 441 1663 441 
Q 2288 441 2617 861 
Q 2947 1281 2994 2138 
Q 2813 1869 2534 1725 
Q 2256 1581 1919 1581 
Q 1219 1581 811 2004 
Q 403 2428 403 3163 
Q 403 3881 828 4315 
Q 1253 4750 1959 4750 
Q 2769 4750 3195 4129 
Q 3622 3509 3622 2328 
Q 3622 1225 3098 567 
Q 2575 -91 1691 -91 
Q 1453 -91 1209 -44 
Q 966 3 703 97 
z
M 1959 2075 
Q 2384 2075 2632 2365 
Q 2881 2656 2881 3163 
Q 2881 3666 2632 3958 
Q 2384 4250 1959 4250 
Q 1534 4250 1286 3958 
Q 1038 3666 1038 3163 
Q 1038 2656 1286 2365 
Q 1534 2075 1959 2075 
z
" transform="scale(0.015625)"/>
       </defs>
       <use xlink:href="#DejaVuSans-32"/>
       <use xlink:href="#DejaVuSans-30" x="63.623047"/>
       <use xlink:href="#DejaVuSans-30" x="127.246094"/>
       <use xlink:href="#DejaVuSans-34" x="190.869141"/>
       <use xlink:href="#DejaVuSans-2d" x="254.492188"/>
       <use xlink:href="#DejaVuSans-30" x="290.576172"/>
       <use xlink:href="#DejaVuSans-39" x="354.199219"/>
      </g>
     </g>
    </g>
    <g id="xtick_5">
     <g id="line2d_5">
      <path d="M 359 448.56 
L 359 60.48 
" clip-path="url(#pc14f8cc9ba)" style="fill: none; stroke: #cccccc; stroke-width: 0.8; stroke-linecap: round"/>
     </g>
     <g id="text_5">
      <!-- 2004-10 -->
      <g style="fill: #262626" transform="translate(338.108594 463.158437) scale(0.1 -0.1)">
       <defs>
        <path id="DejaVuSans-31" d="M 794 531 
L 1825 531 
L 1825 4091 
L 703 3866 
L 703 4441 
L 1819 4666 
L 2450 4666 
L 2450 531 
L 3481 531 
L 3481 0 
L 794 0 
L 794 531 
z
" transform="scale(0.015625)"/>
       </defs>
       <use xlink:href="#DejaVuSans-32"/>
       <use xlink:href="#DejaVuSans-30" x="63.623047"/>
       <use xlink:href="#DejaVuSans-30" x="127.246094"/>
       <use xlink:href="#DejaVuSans-34" x="190.869141"/>
       <use xlink:href="#DejaVuSans-2d" x="254.492188"/>
       <use xlink:href="#DejaVuSans-31" x="290.576172"/>
       <use xlink:href="#DejaVuSans-30" x="354.199219"/>
      </g>
     </g>
    </g>
    <g id="xtick_6">
     <g id="line2d_6">
      <path d="M 415.363636 448.56 
L 415.363636 60.48 
" clip-path="url(#pc14f8cc9ba)" style="fill: none; stroke: #cccccc; stroke-width: 0.8; stroke-linecap: round"/>
     </g>
     <g id="text_6">
      <!-- 2004-11 -->
      <g style="fill: #262626" transform="translate(394.47223 463.158437) scale(0.1 -0.1)">
       <use xlink:href="#DejaVuSans-32"/>
       <use xlink:href="#DejaVuSans-30" x="63.623047"/>
       <use xlink:href="#DejaVuSans-30" x="127.246094"/>
       <use xlink:href="#DejaVuSans-34" x="190.869141"/>
       <use xlink:href="#DejaVuSans-2d" x="254.492188"/>
       <use xlink:href="#DejaVuSans-31" x="290.576172"/>
       <use xlink:href="#DejaVuSans-31" x="354.199219"/>
      </g>
     </g>
    </g>
    <g id="xtick_7">
     <g id="line2d_7">
      <path d="M 469.909091 448.56 
L 469.909091 60.48 
" clip-path="url(#pc14f8cc9ba)" style="fill: none; stroke: #cccccc; stroke-width: 0.8; stroke-linecap: round"/>
     </g>
     <g id="text_7">
      <!-- 2004-12 -->
      <g style="fill: #262626" transform="translate(449.017685 463.158437) scale(0.1 -0.1)">
       <use xlink:href="#DejaVuSans-32"/>
       <use xlink:href="#DejaVuSans-30" x="63.623047"/>
       <use xlink:href="#DejaVuSans-30" x="127.246094"/>
       <use xlink:href="#DejaVuSans-34" x="190.869141"/>
       <use xlink:href="#DejaVuSans-2d" x="254.492188"/>
       <use xlink:href="#DejaVuSans-31" x="290.576172"/>
       <use xlink:href="#DejaVuSans-32" x="354.199219"/>
      </g>
     </g>
    </g>
    <g id="xtick_8">
     <g id="line2d_8">
      <path d="M 526.272727 448.56 
L 526.272727 60.48 
" clip-path="url(#pc14f8cc9ba)" style="fill: none; stroke: #cccccc; stroke-width: 0.8; stroke-linecap: round"/>
     </g>
     <g id="text_8">
      <!-- 2005-01 -->
      <g style="fill: #262626" transform="translate(505.381321 463.158437) scale(0.1 -0.1)">
       <defs>
        <path id="DejaVuSans-35" d="M 691 4666 
L 3169 4666 
L 3169 4134 
L 1269 4134 
L 1269 2991 
Q 1406 3038 1543 3061 
Q 1681 3084 1819 3084 
Q 2600 3084 3056 2656 
Q 3513 2228 3513 1497 
Q 3513 744 3044 326 
Q 2575 -91 1722 -91 
Q 1428 -91 1123 -41 
Q 819 9 494 109 
L 494 744 
Q 775 591 1075 516 
Q 1375 441 1709 441 
Q 2250 441 2565 725 
Q 2881 1009 2881 1497 
Q 2881 1984 2565 2268 
Q 2250 2553 1709 2553 
Q 1456 2553 1204 2497 
Q 953 2441 691 2322 
L 691 4666 
z
" transform="scale(0.015625)"/>
       </defs>
       <use xlink:href="#DejaVuSans-32"/>
       <use xlink:href="#DejaVuSans-30" x="63.623047"/>
       <use xlink:href="#DejaVuSans-30" x="127.246094"/>
       <use xlink:href="#DejaVuSans-35" x="190.869141"/>
       <use xlink:href="#DejaVuSans-2d" x="254.492188"/>
       <use xlink:href="#DejaVuSans-30" x="290.576172"/>
       <use xlink:href="#DejaVuSans-31" x="354.199219"/>
      </g>
     </g>
    </g>
    <g id="xtick_9">
     <g id="line2d_9">
      <path d="M 582.636364 448.56 
L 582.636364 60.48 
" clip-path="url(#pc14f8cc9ba)" style="fill: none; stroke: #cccccc; stroke-width: 0.8; stroke-linecap: round"/>
     </g>
     <g id="text_9">
      <!-- 2005-02 -->
      <g style="fill: #262626" transform="translate(561.744957 463.158437) scale(0.1 -0.1)">
       <use xlink:href="#DejaVuSans-32"/>
       <use xlink:href="#DejaVuSans-30" x="63.623047"/>
       <use xlink:href="#DejaVuSans-30" x="127.246094"/>
       <use xlink:href="#DejaVuSans-35" x="190.869141"/>
       <use xlink:href="#DejaVuSans-2d" x="254.492188"/>
       <use xlink:href="#DejaVuSans-30" x="290.576172"/>
       <use xlink:href="#DejaVuSans-32" x="354.199219"/>
      </g>
     </g>
    </g>
    <g id="xtick_10">
     <g id="line2d_10">
      <path d="M 633.545455 448.56 
L 633.545455 60.48 
" clip-path="url(#pc14f8cc9ba)" style="fill: none; stroke: #cccccc; stroke-width: 0.8; stroke-linecap: round"/>
     </g>
     <g id="text_10">
      <!-- 2005-03 -->
      <g style="fill: #262626" transform="translate(612.654048 463.158437) scale(0.1 -0.1)">
       <defs>
        <path id="DejaVuSans-33" d="M 2597 2516 
Q 3050 2419 3304 2112 
Q 3559 1806 3559 1356 
Q 3559 666 3084 287 
Q 2609 -91 1734 -91 
Q 1441 -91 1130 -33 
Q 819 25 488 141 
L 488 750 
Q 750 597 1062 519 
Q 1375 441 1716 441 
Q 2309 441 2620 675 
Q 2931 909 2931 1356 
Q 2931 1769 2642 2001 
Q 2353 2234 1838 2234 
L 1294 2234 
L 1294 2753 
L 1863 2753 
Q 2328 2753 2575 2939 
Q 2822 3125 2822 3475 
Q 2822 3834 2567 4026 
Q 2313 4219 1838 4219 
Q 1578 4219 1281 4162 
Q 984 4106 628 3988 
L 628 4550 
Q 988 4650 1302 4700 
Q 1616 4750 1894 4750 
Q 2613 4750 3031 4423 
Q 3450 4097 3450 3541 
Q 3450 3153 3228 2886 
Q 3006 2619 2597 2516 
z
" transform="scale(0.015625)"/>
       </defs>
       <use xlink:href="#DejaVuSans-32"/>
       <use xlink:href="#DejaVuSans-30" x="63.623047"/>
       <use xlink:href="#DejaVuSans-30" x="127.246094"/>
       <use xlink:href="#DejaVuSans-35" x="190.869141"/>
       <use xlink:href="#DejaVuSans-2d" x="254.492188"/>
       <use xlink:href="#DejaVuSans-30" x="290.576172"/>
       <use xlink:href="#DejaVuSans-33" x="354.199219"/>
      </g>
     </g>
    </g>
    <g id="text_11">
     <!-- Date -->
     <g style="fill: #262626" transform="translate(357.049219 476.836563) scale(0.1 -0.1)">
      <defs>
       <path id="DejaVuSans-44" d="M 1259 4147 
L 1259 519 
L 2022 519 
Q 2988 519 3436 956 
Q 3884 1394 3884 2338 
Q 3884 3275 3436 3711 
Q 2988 4147 2022 4147 
L 1259 4147 
z
M 628 4666 
L 1925 4666 
Q 3281 4666 3915 4102 
Q 4550 3538 4550 2338 
Q 4550 1131 3912 565 
Q 3275 0 1925 0 
L 628 0 
L 628 4666 
z
" transform="scale(0.015625)"/>
       <path id="DejaVuSans-61" d="M 2194 1759 
Q 1497 1759 1228 1600 
Q 959 1441 959 1056 
Q 959 750 1161 570 
Q 1363 391 1709 391 
Q 2188 391 2477 730 
Q 2766 1069 2766 1631 
L 2766 1759 
L 2194 1759 
z
M 3341 1997 
L 3341 0 
L 2766 0 
L 2766 531 
Q 2569 213 2275 61 
Q 1981 -91 1556 -91 
Q 1019 -91 701 211 
Q 384 513 384 1019 
Q 384 1609 779 1909 
Q 1175 2209 1959 2209 
L 2766 2209 
L 2766 2266 
Q 2766 2663 2505 2880 
Q 2244 3097 1772 3097 
Q 1472 3097 1187 3025 
Q 903 2953 641 2809 
L 641 3341 
Q 956 3463 1253 3523 
Q 1550 3584 1831 3584 
Q 2591 3584 2966 3190 
Q 3341 2797 3341 1997 
z
" transform="scale(0.015625)"/>
       <path id="DejaVuSans-74" d="M 1172 4494 
L 1172 3500 
L 2356 3500 
L 2356 3053 
L 1172 3053 
L 1172 1153 
Q 1172 725 1289 603 
Q 1406 481 1766 481 
L 2356 481 
L 2356 0 
L 1766 0 
Q 1100 0 847 248 
Q 594 497 594 1153 
L 594 3053 
L 172 3053 
L 172 3500 
L 594 3500 
L 594 4494 
L 1172 4494 
z
" transform="scale(0.015625)"/>
       <path id="DejaVuSans-65" d="M 3597 1894 
L 3597 1613 
L 953 1613 
Q 991 1019 1311 708 
Q 1631 397 2203 397 
Q 2534 397 2845 478 
Q 3156 559 3463 722 
L 3463 178 
Q 3153 47 2828 -22 
Q 2503 -91 2169 -91 
Q 1331 -91 842 396 
Q 353 884 353 1716 
Q 353 2575 817 3079 
Q 1281 3584 2069 3584 
Q 2775 3584 3186 3129 
Q 3597 2675 3597 1894 
z
M 3022 2063 
Q 3016 2534 2758 2815 
Q 2500 3097 2075 3097 
Q 1594 3097 1305 2825 
Q 1016 2553 972 2059 
L 3022 2063 
z
" transform="scale(0.015625)"/>
      </defs>
      <use xlink:href="#DejaVuSans-44"/>
      <use xlink:href="#DejaVuSans-61" x="77.001953"/>
      <use xlink:href="#DejaVuSans-74" x="138.28125"/>
      <use xlink:href="#DejaVuSans-65" x="177.490234"/>
     </g>
    </g>
   </g>
   <g id="matplotlib.axis_2">
    <g id="ytick_1">
     <g id="line2d_11">
      <path d="M 90 430.661747 
L 648 430.661747 
" clip-path="url(#pc14f8cc9ba)" style="fill: none; stroke: #cccccc; stroke-width: 0.8; stroke-linecap: round"/>
     </g>
     <g id="text_12">
      <!-- 1.775 -->
      <g style="fill: #262626" transform="translate(54.371875 434.460966) scale(0.1 -0.1)">
       <defs>
        <path id="DejaVuSans-2e" d="M 684 794 
L 1344 794 
L 1344 0 
L 684 0 
L 684 794 
z
" transform="scale(0.015625)"/>
       </defs>
       <use xlink:href="#DejaVuSans-31"/>
       <use xlink:href="#DejaVuSans-2e" x="63.623047"/>
       <use xlink:href="#DejaVuSans-37" x="95.410156"/>
       <use xlink:href="#DejaVuSans-37" x="159.033203"/>
       <use xlink:href="#DejaVuSans-35" x="222.65625"/>
      </g>
     </g>
    </g>
    <g id="ytick_2">
     <g id="line2d_12">
      <path d="M 90 379.421108 
L 648 379.421108 
" clip-path="url(#pc14f8cc9ba)" style="fill: none; stroke: #cccccc; stroke-width: 0.8; stroke-linecap: round"/>
     </g>
     <g id="text_13">
      <!-- 1.800 -->
      <g style="fill: #262626" transform="translate(54.371875 383.220327) scale(0.1 -0.1)">
       <use xlink:href="#DejaVuSans-31"/>
       <use xlink:href="#DejaVuSans-2e" x="63.623047"/>
       <use xlink:href="#DejaVuSans-38" x="95.410156"/>
       <use xlink:href="#DejaVuSans-30" x="159.033203"/>
       <use xlink:href="#DejaVuSans-30" x="222.65625"/>
      </g>
     </g>
    </g>
    <g id="ytick_3">
     <g id="line2d_13">
      <path d="M 90 328.180469 
L 648 328.180469 
" clip-path="url(#pc14f8cc9ba)" style="fill: none; stroke: #cccccc; stroke-width: 0.8; stroke-linecap: round"/>
     </g>
     <g id="text_14">
      <!-- 1.825 -->
      <g style="fill: #262626" transform="translate(54.371875 331.979687) scale(0.1 -0.1)">
       <use xlink:href="#DejaVuSans-31"/>
       <use xlink:href="#DejaVuSans-2e" x="63.623047"/>
       <use xlink:href="#DejaVuSans-38" x="95.410156"/>
       <use xlink:href="#DejaVuSans-32" x="159.033203"/>
       <use xlink:href="#DejaVuSans-35" x="222.65625"/>
      </g>
     </g>
    </g>
    <g id="ytick_4">
     <g id="line2d_14">
      <path d="M 90 276.939829 
L 648 276.939829 
" clip-path="url(#pc14f8cc9ba)" style="fill: none; stroke: #cccccc; stroke-width: 0.8; stroke-linecap: round"/>
     </g>
     <g id="text_15">
      <!-- 1.850 -->
      <g style="fill: #262626" transform="translate(54.371875 280.739048) scale(0.1 -0.1)">
       <use xlink:href="#DejaVuSans-31"/>
       <use xlink:href="#DejaVuSans-2e" x="63.623047"/>
       <use xlink:href="#DejaVuSans-38" x="95.410156"/>
       <use xlink:href="#DejaVuSans-35" x="159.033203"/>
       <use xlink:href="#DejaVuSans-30" x="222.65625"/>
      </g>
     </g>
    </g>
    <g id="ytick_5">
     <g id="line2d_15">
      <path d="M 90 225.69919 
L 648 225.69919 
" clip-path="url(#pc14f8cc9ba)" style="fill: none; stroke: #cccccc; stroke-width: 0.8; stroke-linecap: round"/>
     </g>
     <g id="text_16">
      <!-- 1.875 -->
      <g style="fill: #262626" transform="translate(54.371875 229.498409) scale(0.1 -0.1)">
       <use xlink:href="#DejaVuSans-31"/>
       <use xlink:href="#DejaVuSans-2e" x="63.623047"/>
       <use xlink:href="#DejaVuSans-38" x="95.410156"/>
       <use xlink:href="#DejaVuSans-37" x="159.033203"/>
       <use xlink:href="#DejaVuSans-35" x="222.65625"/>
      </g>
     </g>
    </g>
    <g id="ytick_6">
     <g id="line2d_16">
      <path d="M 90 174.458551 
L 648 174.458551 
" clip-path="url(#pc14f8cc9ba)" style="fill: none; stroke: #cccccc; stroke-width: 0.8; stroke-linecap: round"/>
     </g>
     <g id="text_17">
      <!-- 1.900 -->
      <g style="fill: #262626" transform="translate(54.371875 178.257769) scale(0.1 -0.1)">
       <use xlink:href="#DejaVuSans-31"/>
       <use xlink:href="#DejaVuSans-2e" x="63.623047"/>
       <use xlink:href="#DejaVuSans-39" x="95.410156"/>
       <use xlink:href="#DejaVuSans-30" x="159.033203"/>
       <use xlink:href="#DejaVuSans-30" x="222.65625"/>
      </g>
     </g>
    </g>
    <g id="ytick_7">
     <g id="line2d_17">
      <path d="M 90 123.217911 
L 648 123.217911 
" clip-path="url(#pc14f8cc9ba)" style="fill: none; stroke: #cccccc; stroke-width: 0.8; stroke-linecap: round"/>
     </g>
     <g id="text_18">
      <!-- 1.925 -->
      <g style="fill: #262626" transform="translate(54.371875 127.01713) scale(0.1 -0.1)">
       <use xlink:href="#DejaVuSans-31"/>
       <use xlink:href="#DejaVuSans-2e" x="63.623047"/>
       <use xlink:href="#DejaVuSans-39" x="95.410156"/>
       <use xlink:href="#DejaVuSans-32" x="159.033203"/>
       <use xlink:href="#DejaVuSans-35" x="222.65625"/>
      </g>
     </g>
    </g>
    <g id="ytick_8">
     <g id="line2d_18">
      <path d="M 90 71.977272 
L 648 71.977272 
" clip-path="url(#pc14f8cc9ba)" style="fill: none; stroke: #cccccc; stroke-width: 0.8; stroke-linecap: round"/>
     </g>
     <g id="text_19">
      <!-- 1.950 -->
      <g style="fill: #262626" transform="translate(54.371875 75.776491) scale(0.1 -0.1)">
       <use xlink:href="#DejaVuSans-31"/>
       <use xlink:href="#DejaVuSans-2e" x="63.623047"/>
       <use xlink:href="#DejaVuSans-39" x="95.410156"/>
       <use xlink:href="#DejaVuSans-35" x="159.033203"/>
       <use xlink:href="#DejaVuSans-30" x="222.65625"/>
      </g>
     </g>
    </g>
    <g id="text_20">
     <!-- Price [$/£] -->
     <g style="fill: #262626" transform="translate(48.292187 280.255156) rotate(-90) scale(0.1 -0.1)">
      <defs>
       <path id="DejaVuSans-50" d="M 1259 4147 
L 1259 2394 
L 2053 2394 
Q 2494 2394 2734 2622 
Q 2975 2850 2975 3272 
Q 2975 3691 2734 3919 
Q 2494 4147 2053 4147 
L 1259 4147 
z
M 628 4666 
L 2053 4666 
Q 2838 4666 3239 4311 
Q 3641 3956 3641 3272 
Q 3641 2581 3239 2228 
Q 2838 1875 2053 1875 
L 1259 1875 
L 1259 0 
L 628 0 
L 628 4666 
z
" transform="scale(0.015625)"/>
       <path id="DejaVuSans-72" d="M 2631 2963 
Q 2534 3019 2420 3045 
Q 2306 3072 2169 3072 
Q 1681 3072 1420 2755 
Q 1159 2438 1159 1844 
L 1159 0 
L 581 0 
L 581 3500 
L 1159 3500 
L 1159 2956 
Q 1341 3275 1631 3429 
Q 1922 3584 2338 3584 
Q 2397 3584 2469 3576 
Q 2541 3569 2628 3553 
L 2631 2963 
z
" transform="scale(0.015625)"/>
       <path id="DejaVuSans-69" d="M 603 3500 
L 1178 3500 
L 1178 0 
L 603 0 
L 603 3500 
z
M 603 4863 
L 1178 4863 
L 1178 4134 
L 603 4134 
L 603 4863 
z
" transform="scale(0.015625)"/>
       <path id="DejaVuSans-63" d="M 3122 3366 
L 3122 2828 
Q 2878 2963 2633 3030 
Q 2388 3097 2138 3097 
Q 1578 3097 1268 2742 
Q 959 2388 959 1747 
Q 959 1106 1268 751 
Q 1578 397 2138 397 
Q 2388 397 2633 464 
Q 2878 531 3122 666 
L 3122 134 
Q 2881 22 2623 -34 
Q 2366 -91 2075 -91 
Q 1284 -91 818 406 
Q 353 903 353 1747 
Q 353 2603 823 3093 
Q 1294 3584 2113 3584 
Q 2378 3584 2631 3529 
Q 2884 3475 3122 3366 
z
" transform="scale(0.015625)"/>
       <path id="DejaVuSans-20" transform="scale(0.015625)"/>
       <path id="DejaVuSans-5b" d="M 550 4863 
L 1875 4863 
L 1875 4416 
L 1125 4416 
L 1125 -397 
L 1875 -397 
L 1875 -844 
L 550 -844 
L 550 4863 
z
" transform="scale(0.015625)"/>
       <path id="DejaVuSans-24" d="M 2163 -941 
L 1850 -941 
L 1847 0 
Q 1519 6 1191 76 
Q 863 147 531 288 
L 531 850 
Q 850 650 1176 548 
Q 1503 447 1850 444 
L 1850 1869 
Q 1159 1981 845 2250 
Q 531 2519 531 2988 
Q 531 3497 872 3790 
Q 1213 4084 1850 4128 
L 1850 4863 
L 2163 4863 
L 2163 4138 
Q 2453 4125 2725 4076 
Q 2997 4028 3256 3944 
L 3256 3397 
Q 2997 3528 2723 3600 
Q 2450 3672 2163 3684 
L 2163 2350 
Q 2872 2241 3206 1959 
Q 3541 1678 3541 1191 
Q 3541 663 3186 358 
Q 2831 53 2163 6 
L 2163 -941 
z
M 1850 2406 
L 1850 3688 
Q 1488 3647 1297 3481 
Q 1106 3316 1106 3041 
Q 1106 2772 1282 2622 
Q 1459 2472 1850 2406 
z
M 2163 1806 
L 2163 453 
Q 2559 506 2761 678 
Q 2963 850 2963 1131 
Q 2963 1406 2770 1568 
Q 2578 1731 2163 1806 
z
" transform="scale(0.015625)"/>
       <path id="DejaVuSans-2f" d="M 1625 4666 
L 2156 4666 
L 531 -594 
L 0 -594 
L 1625 4666 
z
" transform="scale(0.015625)"/>
       <path id="DejaVuSans-a3" d="M 3444 4563 
L 3444 3994 
Q 3206 4122 2993 4186 
Q 2781 4250 2591 4250 
Q 2128 4250 1947 4008 
Q 1766 3766 1766 3103 
L 1766 2431 
L 2988 2431 
L 2988 1984 
L 1766 1984 
L 1766 531 
L 3506 531 
L 3506 0 
L 403 0 
L 403 531 
L 1141 531 
L 1141 1984 
L 519 1984 
L 519 2431 
L 1141 2431 
L 1141 3175 
Q 1141 3991 1475 4370 
Q 1809 4750 2534 4750 
Q 2725 4750 2961 4701 
Q 3197 4653 3444 4563 
z
" transform="scale(0.015625)"/>
       <path id="DejaVuSans-5d" d="M 1947 4863 
L 1947 -844 
L 622 -844 
L 622 -397 
L 1369 -397 
L 1369 4416 
L 622 4416 
L 622 4863 
L 1947 4863 
z
" transform="scale(0.015625)"/>
      </defs>
      <use xlink:href="#DejaVuSans-50"/>
      <use xlink:href="#DejaVuSans-72" x="58.552734"/>
      <use xlink:href="#DejaVuSans-69" x="99.666016"/>
      <use xlink:href="#DejaVuSans-63" x="127.449219"/>
      <use xlink:href="#DejaVuSans-65" x="182.429688"/>
      <use xlink:href="#DejaVuSans-20" x="243.953125"/>
      <use xlink:href="#DejaVuSans-5b" x="275.740234"/>
      <use xlink:href="#DejaVuSans-24" x="314.753906"/>
      <use xlink:href="#DejaVuSans-2f" x="378.376953"/>
      <use xlink:href="#DejaVuSans-a3" x="412.068359"/>
      <use xlink:href="#DejaVuSans-5d" x="475.691406"/>
     </g>
    </g>
   </g>
   <g id="PolyCollection_1"/>
   <g id="PolyCollection_2"/>
   <g id="PolyCollection_3">
    <defs>
     <path id="m9ead33cb0f" d="M 115.363636 -227.355317 
L 115.363636 -170.216367 
L 117.181818 -155.352483 
L 122.636364 -155.352483 
L 124.454545 -155.352483 
L 126.272727 -155.352483 
L 128.090909 -142.670425 
L 129.909091 -139.063084 
L 135.363636 -139.063084 
L 137.181818 -126.927763 
L 139 -124.764383 
L 140.818182 -124.764383 
L 142.636364 -120.154775 
L 148.090909 -114.772459 
L 149.909091 -111.301418 
L 151.727273 -112.627013 
L 153.545455 -113.391011 
L 155.363636 -113.391011 
L 160.818182 -112.311371 
L 162.636364 -106.880888 
L 164.454545 -101.759898 
L 166.272727 -101.759898 
L 168.090909 -101.759898 
L 173.545455 -94.094299 
L 175.363636 -94.094299 
L 177.181818 -92.915764 
L 179 -80.780443 
L 180.818182 -73.08 
L 186.272727 -76.730896 
L 188.090909 -76.730896 
L 189.909091 -87.301327 
L 191.727273 -92.209155 
L 193.545455 -117.920683 
L 199 -122.224385 
L 200.818182 -122.941241 
L 202.636364 -123.962467 
L 204.454545 -135.083736 
L 206.272727 -139.282394 
L 211.727273 -143.076763 
L 213.545455 -153.120441 
L 215.363636 -153.641045 
L 217.181818 -161.417837 
L 219 -158.403351 
L 224.454545 -156.709335 
L 226.272727 -150.710081 
L 228.090909 -150.447216 
L 229.909091 -150.447216 
L 231.727273 -150.447216 
L 237.181818 -149.22359 
L 239 -153.323354 
L 240.818182 -155.577429 
L 242.636364 -154.953831 
L 244.454545 -155.523114 
L 249.909091 -163.215359 
L 251.727273 -167.414017 
L 253.545455 -168.125237 
L 255.363636 -172.441748 
L 257.181818 -172.441748 
L 262.636364 -169.723433 
L 264.454545 -169.723433 
L 266.272727 -173.920553 
L 268.090909 -185.76329 
L 269.909091 -185.975426 
L 275.363636 -189.874839 
L 277.181818 -194.361469 
L 279 -199.632081 
L 280.818182 -202.095219 
L 282.636364 -207.420658 
L 288.090909 -217.361342 
L 289.909091 -224.946494 
L 291.727273 -228.951463 
L 293.545455 -221.577422 
L 295.363636 -221.577422 
L 300.818182 -220.339448 
L 302.636364 -220.339448 
L 304.454545 -215.113928 
L 306.272727 -212.607748 
L 308.090909 -209.829481 
L 313.545455 -205.014398 
L 315.363636 -198.463282 
L 317.181818 -195.282776 
L 319 -193.534445 
L 320.818182 -197.276037 
L 326.272727 -198.288039 
L 328.090909 -198.288039 
L 329.909091 -198.288039 
L 331.727273 -199.784778 
L 333.545455 -201.26922 
L 339 -200.189067 
L 340.818182 -200.189067 
L 342.636364 -200.189067 
L 344.454545 -200.189067 
L 346.272727 -199.630544 
L 351.727273 -199.630544 
L 353.545455 -194.678649 
L 355.363636 -171.802265 
L 357.181818 -165.25115 
L 359 -162.070643 
L 364.454545 -159.046421 
L 366.272727 -151.472029 
L 368.090909 -151.472029 
L 369.909091 -151.265529 
L 371.727273 -143.64246 
L 377.181818 -126.635691 
L 379 -125.296261 
L 380.818182 -122.525167 
L 382.636364 -122.525167 
L 384.454545 -122.525167 
L 389.909091 -122.525167 
L 391.727273 -120.580585 
L 393.545455 -120.030773 
L 395.363636 -120.030773 
L 397.181818 -120.030773 
L 402.636364 -120.030773 
L 404.454545 -120.288513 
L 406.272727 -120.278778 
L 408.090909 -116.175427 
L 409.909091 -116.941987 
L 415.363636 -118.47357 
L 417.181818 -113.049236 
L 419 -114.240581 
L 420.818182 -117.063428 
L 422.636364 -117.063428 
L 428.090909 -118.18816 
L 429.909091 -116.998352 
L 431.727273 -116.396787 
L 433.545455 -113.416119 
L 435.363636 -113.416119 
L 440.818182 -113.416119 
L 442.636364 -112.335966 
L 444.454545 -112.285238 
L 446.272727 -112.542978 
L 448.090909 -109.093459 
L 453.545455 -110.178735 
L 455.363636 -110.579949 
L 457.181818 -111.8087 
L 459 -122.220285 
L 460.818182 -135.379906 
L 466.272727 -136.307362 
L 468.090909 -149.94967 
L 469.909091 -154.327158 
L 471.727273 -154.327158 
L 473.545455 -154.327158 
L 479 -154.327158 
L 480.818182 -158.745638 
L 482.636364 -166.171431 
L 484.454545 -174.137814 
L 486.272727 -174.137814 
L 491.727273 -181.181352 
L 493.545455 -185.184271 
L 495.363636 -185.184271 
L 497.181818 -185.504012 
L 499 -191.702592 
L 504.454545 -194.056075 
L 506.272727 -196.524849 
L 508.090909 -197.489198 
L 509.909091 -198.199393 
L 511.727273 -206.147329 
L 517.181818 -206.147329 
L 519 -206.147329 
L 520.818182 -215.484398 
L 522.636364 -231.266515 
L 524.454545 -251.956973 
L 529.909091 -264.392051 
L 531.727273 -265.527543 
L 533.545455 -275.491798 
L 535.363636 -298.641294 
L 537.181818 -309.316257 
L 542.636364 -310.633141 
L 544.454545 -323.22809 
L 546.272727 -335.948579 
L 548.090909 -339.338659 
L 549.909091 -340.70371 
L 555.363636 -341.5789 
L 557.181818 -351.686116 
L 559 -351.686116 
L 560.818182 -351.686116 
L 562.636364 -355.867353 
L 568.090909 -357.185774 
L 569.909091 -358.682513 
L 571.727273 -359.188258 
L 573.545455 -360.323751 
L 575.363636 -364.272867 
L 580.818182 -364.272867 
L 582.636364 -367.044473 
L 584.454545 -367.044473 
L 586.272727 -372.422691 
L 588.090909 -378.883623 
L 593.545455 -380.43109 
L 595.363636 -371.586956 
L 597.181818 -356.958778 
L 599 -351.728134 
L 600.818182 -348.745928 
L 606.272727 -343.631088 
L 608.090909 -340.666817 
L 609.909091 -340.666817 
L 611.727273 -340.666817 
L 613.545455 -332.766535 
L 619 -326.341471 
L 620.818182 -310.057709 
L 622.636364 -306.883863 
L 622.636364 -323.075905 
L 622.636364 -323.075905 
L 620.818182 -318.650764 
L 619 -318.650764 
L 613.545455 -316.722066 
L 611.727273 -314.555612 
L 609.909091 -314.555612 
L 608.090909 -304.615953 
L 606.272727 -304.615953 
L 600.818182 -304.615953 
L 599 -304.615953 
L 597.181818 -304.615953 
L 595.363636 -304.615953 
L 593.545455 -299.601544 
L 588.090909 -284.749957 
L 586.272727 -275.912996 
L 584.454545 -275.912996 
L 582.636364 -275.912996 
L 580.818182 -275.912996 
L 575.363636 -267.715519 
L 573.545455 -267.715519 
L 571.727273 -267.715519 
L 569.909091 -264.944425 
L 568.090909 -260.23746 
L 562.636364 -257.779959 
L 560.818182 -253.598723 
L 559 -253.598723 
L 557.181818 -253.598723 
L 555.363636 -253.598723 
L 549.909091 -253.598723 
L 548.090909 -253.598723 
L 546.272727 -253.598723 
L 544.454545 -247.339166 
L 542.636364 -247.339166 
L 537.181818 -246.022282 
L 535.363636 -238.118925 
L 533.545455 -214.969429 
L 531.727273 -205.005175 
L 529.909091 -205.005175 
L 524.454545 -195.583046 
L 522.636364 -183.815121 
L 520.818182 -173.769906 
L 519 -164.432837 
L 517.181818 -164.432837 
L 511.727273 -161.274364 
L 509.909091 -159.122257 
L 508.090909 -158.412061 
L 506.272727 -158.412061 
L 504.454545 -158.412061 
L 499 -158.412061 
L 497.181818 -158.412061 
L 495.363636 -158.09232 
L 493.545455 -158.09232 
L 491.727273 -154.089401 
L 486.272727 -147.045863 
L 484.454545 -147.045863 
L 482.636364 -141.586685 
L 480.818182 -141.586685 
L 479 -141.586685 
L 473.545455 -141.586685 
L 471.727273 -141.586685 
L 469.909091 -141.901303 
L 468.090909 -141.901303 
L 466.272727 -141.901303 
L 460.818182 -141.901303 
L 459 -141.901303 
L 457.181818 -141.901303 
L 455.363636 -143.018349 
L 453.545455 -143.018349 
L 448.090909 -143.018349 
L 446.272727 -143.018349 
L 444.454545 -143.018349 
L 442.636364 -143.018349 
L 440.818182 -143.018349 
L 435.363636 -143.018349 
L 433.545455 -143.018349 
L 431.727273 -143.018349 
L 429.909091 -143.018349 
L 428.090909 -145.397964 
L 422.636364 -151.758977 
L 420.818182 -164.861208 
L 419 -174.491374 
L 417.181818 -174.491374 
L 415.363636 -174.491374 
L 409.909091 -174.491374 
L 408.090909 -174.491374 
L 406.272727 -174.491374 
L 404.454545 -174.491374 
L 402.636364 -174.491374 
L 397.181818 -174.491374 
L 395.363636 -174.491374 
L 393.545455 -174.491374 
L 391.727273 -174.491374 
L 389.909091 -174.491374 
L 384.454545 -174.491374 
L 382.636364 -174.491374 
L 380.818182 -174.491374 
L 379 -177.262468 
L 377.181818 -177.262468 
L 371.727273 -189.244579 
L 369.909091 -189.244579 
L 368.090909 -189.244579 
L 366.272727 -189.244579 
L 364.454545 -192.71562 
L 359 -192.912384 
L 357.181818 -192.912384 
L 355.363636 -192.912384 
L 353.545455 -205.63441 
L 351.727273 -205.63441 
L 346.272727 -205.63441 
L 344.454545 -205.63441 
L 342.636364 -205.63441 
L 340.818182 -205.63441 
L 339 -205.63441 
L 333.545455 -205.63441 
L 331.727273 -205.63441 
L 329.909091 -205.63441 
L 328.090909 -205.63441 
L 326.272727 -205.63441 
L 320.818182 -205.63441 
L 319 -193.634877 
L 317.181818 -186.046138 
L 315.363636 -177.648822 
L 313.545455 -168.530038 
L 308.090909 -166.487586 
L 306.272727 -165.053873 
L 304.454545 -160.545722 
L 302.636364 -151.125643 
L 300.818182 -151.125643 
L 295.363636 -151.125643 
L 293.545455 -151.125643 
L 291.727273 -151.125643 
L 289.909091 -151.125643 
L 288.090909 -148.45703 
L 282.636364 -139.852702 
L 280.818182 -139.852702 
L 279 -139.852702 
L 277.181818 -139.852702 
L 275.363636 -135.366071 
L 269.909091 -131.466659 
L 268.090909 -131.254523 
L 266.272727 -121.822146 
L 264.454545 -121.822146 
L 262.636364 -121.822146 
L 257.181818 -121.822146 
L 255.363636 -121.822146 
L 253.545455 -121.822146 
L 251.727273 -121.822146 
L 249.909091 -121.822146 
L 244.454545 -121.822146 
L 242.636364 -121.822146 
L 240.818182 -121.822146 
L 239 -121.822146 
L 237.181818 -121.822146 
L 231.727273 -121.822146 
L 229.909091 -121.822146 
L 228.090909 -121.822146 
L 226.272727 -130.72367 
L 224.454545 -132.88295 
L 219 -132.88295 
L 217.181818 -132.88295 
L 215.363636 -132.88295 
L 213.545455 -132.88295 
L 211.727273 -132.88295 
L 206.272727 -132.88295 
L 204.454545 -132.88295 
L 202.636364 -132.88295 
L 200.818182 -132.88295 
L 199 -132.88295 
L 193.545455 -132.88295 
L 191.727273 -132.88295 
L 189.909091 -132.88295 
L 188.090909 -132.88295 
L 186.272727 -132.88295 
L 180.818182 -132.88295 
L 179 -132.88295 
L 177.181818 -132.88295 
L 175.363636 -132.88295 
L 173.545455 -132.88295 
L 168.090909 -138.19558 
L 166.272727 -148.453956 
L 164.454545 -154.20213 
L 162.636364 -159.32312 
L 160.818182 -162.390385 
L 155.363636 -179.381781 
L 153.545455 -179.381781 
L 151.727273 -179.381781 
L 149.909091 -185.026449 
L 148.090909 -185.026449 
L 142.636364 -199.375878 
L 140.818182 -203.985486 
L 139 -203.985486 
L 137.181818 -203.985486 
L 135.363636 -203.985486 
L 129.909091 -203.985486 
L 128.090909 -207.592827 
L 126.272727 -217.921915 
L 124.454545 -217.921915 
L 122.636364 -217.921915 
L 117.181818 -217.921915 
L 115.363636 -227.355317 
z
" style="stroke: #add8e6; stroke-opacity: 0.2"/>
    </defs>
    <g clip-path="url(#pc14f8cc9ba)">
     <use xlink:href="#m9ead33cb0f" x="0" y="504" style="fill: #add8e6; fill-opacity: 0.2; stroke: #add8e6; stroke-opacity: 0.2"/>
    </g>
   </g>
   <g id="PolyCollection_4"/>
   <g id="line2d_19">
    <path d="M 115.363636 333.783633 
L 117.181818 348.647517 
L 126.272727 348.647517 
L 128.090909 361.329575 
L 129.909091 364.936916 
L 135.363636 364.936916 
L 137.181818 377.072237 
L 139 379.235617 
L 140.818182 379.235617 
L 142.636364 383.845225 
L 148.090909 389.227541 
L 149.909091 392.698582 
L 151.727273 391.372987 
L 153.545455 390.608989 
L 155.363636 390.608989 
L 160.818182 391.688629 
L 164.454545 402.240102 
L 168.090909 402.240102 
L 173.545455 409.905701 
L 175.363636 409.905701 
L 177.181818 411.084236 
L 179 423.219557 
L 180.818182 430.92 
L 186.272727 427.269104 
L 188.090909 427.269104 
L 189.909091 416.698673 
L 191.727273 411.790845 
L 193.545455 386.079317 
L 199 381.775615 
L 200.818182 381.058759 
L 202.636364 380.037533 
L 204.454545 368.916264 
L 206.272727 364.717606 
L 211.727273 360.923237 
L 213.545455 350.879559 
L 215.363636 350.358955 
L 217.181818 342.582163 
L 219 345.596649 
L 224.454545 347.290665 
L 226.272727 353.289919 
L 228.090909 353.552784 
L 231.727273 353.552784 
L 237.181818 354.77641 
L 239 350.676646 
L 240.818182 348.422571 
L 242.636364 349.046169 
L 244.454545 348.476886 
L 249.909091 340.784641 
L 251.727273 336.585983 
L 253.545455 335.874763 
L 255.363636 331.558252 
L 257.181818 331.558252 
L 262.636364 334.276567 
L 264.454545 334.276567 
L 266.272727 330.079447 
L 268.090909 318.23671 
L 269.909091 318.024574 
L 275.363636 314.125161 
L 277.181818 309.638531 
L 279 304.367919 
L 280.818182 301.904781 
L 282.636364 296.579342 
L 288.090909 286.638658 
L 289.909091 279.053506 
L 291.727273 275.048537 
L 293.545455 282.422578 
L 295.363636 282.422578 
L 300.818182 283.660552 
L 302.636364 283.660552 
L 304.454545 288.886072 
L 306.272727 291.392252 
L 308.090909 294.170519 
L 313.545455 298.985602 
L 315.363636 305.536718 
L 317.181818 308.717224 
L 319 310.465555 
L 320.818182 306.723963 
L 326.272727 305.711961 
L 329.909091 305.711961 
L 333.545455 302.73078 
L 339 303.810933 
L 344.454545 303.810933 
L 346.272727 304.369456 
L 351.727273 304.369456 
L 353.545455 309.321351 
L 355.363636 332.197735 
L 357.181818 338.74885 
L 359 341.929357 
L 364.454545 344.953579 
L 366.272727 352.527971 
L 368.090909 352.527971 
L 369.909091 352.734471 
L 371.727273 360.35754 
L 377.181818 377.364309 
L 379 378.703739 
L 380.818182 381.474833 
L 389.909091 381.474833 
L 391.727273 383.419415 
L 393.545455 383.969227 
L 402.636364 383.969227 
L 404.454545 383.711487 
L 406.272727 383.721222 
L 408.090909 387.824573 
L 409.909091 387.058013 
L 415.363636 385.52643 
L 417.181818 390.950764 
L 419 389.759419 
L 420.818182 386.936572 
L 422.636364 386.936572 
L 428.090909 385.81184 
L 429.909091 387.001648 
L 431.727273 387.603213 
L 433.545455 390.583881 
L 440.818182 390.583881 
L 442.636364 391.664034 
L 444.454545 391.714762 
L 446.272727 391.457022 
L 448.090909 394.906541 
L 455.363636 393.420051 
L 457.181818 392.1913 
L 459 381.779715 
L 460.818182 368.620094 
L 466.272727 367.692638 
L 468.090909 354.05033 
L 469.909091 349.672842 
L 479 349.672842 
L 480.818182 345.254362 
L 482.636364 337.828569 
L 484.454545 329.862186 
L 486.272727 329.862186 
L 491.727273 322.818648 
L 493.545455 318.815729 
L 495.363636 318.815729 
L 497.181818 318.495988 
L 499 312.297408 
L 504.454545 309.943925 
L 506.272727 307.475151 
L 508.090909 306.510802 
L 509.909091 305.800607 
L 511.727273 297.852671 
L 519 297.852671 
L 520.818182 288.515602 
L 522.636364 272.733485 
L 524.454545 252.043027 
L 529.909091 239.607949 
L 531.727273 238.472457 
L 533.545455 228.508202 
L 535.363636 205.358706 
L 537.181818 194.683743 
L 542.636364 193.366859 
L 546.272727 168.051421 
L 548.090909 164.661341 
L 549.909091 163.29629 
L 555.363636 162.4211 
L 557.181818 152.313884 
L 560.818182 152.313884 
L 562.636364 148.132647 
L 568.090909 146.814226 
L 569.909091 145.317487 
L 571.727273 144.811742 
L 573.545455 143.676249 
L 575.363636 139.727133 
L 580.818182 139.727133 
L 582.636364 136.955527 
L 584.454545 136.955527 
L 586.272727 131.577309 
L 588.090909 125.116377 
L 593.545455 123.56891 
L 595.363636 132.413044 
L 597.181818 147.041222 
L 599 152.271866 
L 600.818182 155.254072 
L 606.272727 160.368912 
L 608.090909 163.333183 
L 611.727273 163.333183 
L 613.545455 171.233465 
L 619 177.658529 
L 620.818182 193.942291 
L 622.636364 197.116137 
L 622.636364 197.116137 
" clip-path="url(#pc14f8cc9ba)" style="fill: none; stroke: #0000ff; stroke-width: 1.5; stroke-linecap: round"/>
   </g>
   <g id="line2d_20">
    <path d="M 115.363636 276.644683 
L 117.181818 286.078085 
L 126.272727 286.078085 
L 128.090909 296.407173 
L 129.909091 300.014514 
L 140.818182 300.014514 
L 142.636364 304.624122 
L 148.090909 318.973551 
L 149.909091 318.973551 
L 151.727273 324.618219 
L 155.363636 324.618219 
L 160.818182 341.609615 
L 162.636364 344.67688 
L 164.454545 349.79787 
L 166.272727 355.546044 
L 168.090909 365.80442 
L 173.545455 371.11705 
L 224.454545 371.11705 
L 226.272727 373.27633 
L 228.090909 382.177854 
L 266.272727 382.177854 
L 268.090909 372.745477 
L 269.909091 372.533341 
L 275.363636 368.633929 
L 277.181818 364.147298 
L 282.636364 364.147298 
L 289.909091 352.874357 
L 302.636364 352.874357 
L 304.454545 343.454278 
L 306.272727 338.946127 
L 308.090909 337.512414 
L 313.545455 335.469962 
L 315.363636 326.351178 
L 317.181818 317.953862 
L 319 310.365123 
L 320.818182 298.36559 
L 353.545455 298.36559 
L 355.363636 311.087616 
L 359 311.087616 
L 364.454545 311.28438 
L 366.272727 314.755421 
L 371.727273 314.755421 
L 377.181818 326.737532 
L 379 326.737532 
L 380.818182 329.508626 
L 419 329.508626 
L 420.818182 339.138792 
L 422.636364 352.241023 
L 428.090909 358.602036 
L 429.909091 360.981651 
L 455.363636 360.981651 
L 457.181818 362.098697 
L 469.909091 362.098697 
L 471.727273 362.413315 
L 482.636364 362.413315 
L 484.454545 356.954137 
L 486.272727 356.954137 
L 491.727273 349.910599 
L 493.545455 345.90768 
L 495.363636 345.90768 
L 497.181818 345.587939 
L 508.090909 345.587939 
L 509.909091 344.877743 
L 511.727273 342.725636 
L 517.181818 339.567163 
L 519 339.567163 
L 520.818182 330.230094 
L 522.636364 320.184879 
L 524.454545 308.416954 
L 529.909091 298.994825 
L 531.727273 298.994825 
L 533.545455 289.030571 
L 535.363636 265.881075 
L 537.181818 257.977718 
L 542.636364 256.660834 
L 544.454545 256.660834 
L 546.272727 250.401277 
L 560.818182 250.401277 
L 562.636364 246.220041 
L 568.090909 243.76254 
L 569.909091 239.055575 
L 571.727273 236.284481 
L 575.363636 236.284481 
L 580.818182 228.087004 
L 586.272727 228.087004 
L 588.090909 219.250043 
L 595.363636 199.384047 
L 608.090909 199.384047 
L 609.909091 189.444388 
L 611.727273 189.444388 
L 613.545455 187.277934 
L 619 185.349236 
L 620.818182 185.349236 
L 622.636364 180.924095 
L 622.636364 180.924095 
" clip-path="url(#pc14f8cc9ba)" style="fill: none; stroke: #0000ff; stroke-width: 1.5; stroke-linecap: round"/>
   </g>
   <g id="line2d_21">
    <path d="M 115.363636 429.626686 
L 117.181818 400.710569 
L 122.636364 396.439149 
L 124.454545 353.774143 
L 126.272727 348.850942 
L 128.090909 304.374068 
L 129.909091 311.963831 
L 135.363636 312.582818 
L 137.181818 296.198111 
L 139 309.139447 
L 140.818182 298.280531 
L 142.636364 299.668127 
L 148.090909 294.94784 
L 149.909091 298.489593 
L 151.727273 321.853274 
L 153.545455 293.349132 
L 155.363636 342.968517 
L 160.818182 350.334871 
L 162.636364 310.586483 
L 164.454545 327.803337 
L 166.272727 308.932435 
L 168.090909 298.905667 
L 173.545455 311.551856 
L 175.363636 334.347792 
L 177.181818 344.59387 
L 179 330.873677 
L 180.818182 325.958674 
L 186.272727 317.946688 
L 188.090909 360.96423 
L 189.909091 338.016622 
L 191.727273 337.813709 
L 193.545455 318.768588 
L 199 315.884765 
L 200.818182 296.198111 
L 202.636364 268.146936 
L 204.454545 275.322675 
L 206.272727 252.721454 
L 211.727273 252.366868 
L 213.545455 261.368824 
L 215.363636 264.61953 
L 217.181818 270.823747 
L 219 230.208366 
L 224.454545 239.819061 
L 226.272727 271.385344 
L 228.090909 297.864457 
L 229.909091 287.360126 
L 231.727273 311.756819 
L 237.181818 294.738778 
L 239 332.304315 
L 240.818182 332.509278 
L 242.636364 342.290091 
L 244.454545 334.142829 
L 249.909091 329.645951 
L 253.545455 327.18845 
L 255.363636 330.260839 
L 257.181818 297.239321 
L 262.636364 295.572975 
L 264.454545 322.265249 
L 266.272727 316.708714 
L 268.090909 332.101402 
L 269.909091 291.889798 
L 275.363636 294.601453 
L 277.181818 322.880137 
L 279 330.873677 
L 280.818182 312.582818 
L 282.636364 340.05395 
L 288.090909 360.158727 
L 289.909091 395.188877 
L 291.727273 386.807958 
L 293.545455 388.261143 
L 295.363636 399.331171 
L 300.818182 389.253162 
L 302.636364 374.329838 
L 304.454545 392.948637 
L 306.272727 396.635913 
L 308.090909 428.591625 
L 313.545455 419.583521 
L 315.363636 430.659698 
L 317.181818 405.234092 
L 319 400.317041 
L 320.818182 379.185401 
L 326.272727 384.955097 
L 328.090909 383.961029 
L 329.909091 427.3639 
L 331.727273 392.354245 
L 333.545455 396.240335 
L 339 406.478215 
L 340.818182 386.211517 
L 342.636364 391.893079 
L 344.454545 383.696627 
L 346.272727 369.396389 
L 353.545455 351.347386 
L 355.363636 378.785724 
L 357.181818 353.167454 
L 359 381.243225 
L 364.454545 411.575634 
L 366.272727 414.44511 
L 368.090909 421.467127 
L 369.909091 415.291605 
L 371.727273 389.253162 
L 377.181818 382.104068 
L 379 397.687371 
L 380.818182 393.145401 
L 382.636364 385.350675 
L 384.454545 369.99693 
L 389.909091 383.961029 
L 391.727273 371.398873 
L 393.545455 346.014261 
L 395.363636 323.087149 
L 397.181818 319.385525 
L 402.636364 293.767255 
L 404.454545 305.825202 
L 406.272727 321.853274 
L 408.090909 321.853274 
L 409.909091 301.330374 
L 415.363636 312.377855 
L 417.181818 297.864457 
L 419 281.840484 
L 420.818182 289.450744 
L 422.636364 262.006257 
L 428.090909 267.513601 
L 429.909091 265.254914 
L 431.727273 283.310066 
L 433.545455 291.053551 
L 435.363636 262.006257 
L 440.818182 284.287737 
L 442.636364 270.401524 
L 444.454545 257.687696 
L 446.272727 280.44059 
L 448.090909 256.271405 
L 453.545455 256.837102 
L 455.363636 238.029737 
L 457.181818 213.167779 
L 459 191.285977 
L 460.818182 187.76267 
L 466.272727 189.818445 
L 468.090909 154.782145 
L 469.909091 106.58725 
L 471.727273 125.263438 
L 473.545455 84.094659 
L 479 99.220895 
L 480.818182 82.001991 
L 482.636364 98.452286 
L 484.454545 126.704325 
L 486.272727 147.219027 
L 493.545455 118.118443 
L 495.363636 87.345365 
L 497.181818 110.106457 
L 499 88.351731 
L 504.454545 78.12 
L 506.272727 114.994814 
L 508.090909 143.91503 
L 509.909091 125.490946 
L 511.727273 129.584048 
L 517.181818 102.906122 
L 519 118.727182 
L 520.818182 137.743608 
L 522.636364 125.642619 
L 524.454545 133.894411 
L 529.909091 164.995429 
L 531.727273 208.084708 
L 533.545455 204.153526 
L 535.363636 222.645248 
L 537.181818 233.297152 
L 542.636364 221.780306 
L 544.454545 218.31029 
L 546.272727 193.487275 
L 548.090909 213.38504 
L 549.909091 234.73394 
L 555.363636 262.006257 
L 557.181818 249.663412 
L 559 234.088307 
L 560.818182 234.73394 
L 562.636364 221.202312 
L 568.090909 217.732295 
L 569.909091 247.599439 
L 571.727273 211.1366 
L 573.545455 192.899032 
L 575.363636 197.438953 
L 580.818182 206.848784 
L 582.636364 208.666802 
L 584.454545 205.83012 
L 586.272727 210.556556 
L 588.090909 229.202 
L 593.545455 260.520279 
L 595.363636 268.921694 
L 597.181818 258.114018 
L 599 239.819061 
L 600.818182 236.166628 
L 606.272727 200.726552 
L 608.090909 184.085642 
L 609.909091 206.848784 
L 611.727273 184.673885 
L 613.545455 185.704846 
L 619 180.990707 
L 620.818182 151.492496 
L 622.636364 161.349146 
L 622.636364 161.349146 
" clip-path="url(#pc14f8cc9ba)" style="fill: none; stroke-dasharray: 5.55,2.4; stroke-dashoffset: 0; stroke: #008000; stroke-width: 1.5"/>
   </g>
   <g id="patch_3">
    <path d="M 90 448.56 
L 90 60.48 
" style="fill: none; stroke: #cccccc; stroke-width: 0.8; stroke-linejoin: miter; stroke-linecap: square"/>
   </g>
   <g id="patch_4">
    <path d="M 648 448.56 
L 648 60.48 
" style="fill: none; stroke: #cccccc; stroke-width: 0.8; stroke-linejoin: miter; stroke-linecap: square"/>
   </g>
   <g id="patch_5">
    <path d="M 90 448.56 
L 648 448.56 
" style="fill: none; stroke: #cccccc; stroke-width: 0.8; stroke-linejoin: miter; stroke-linecap: square"/>
   </g>
   <g id="patch_6">
    <path d="M 90 60.48 
L 648 60.48 
" style="fill: none; stroke: #cccccc; stroke-width: 0.8; stroke-linejoin: miter; stroke-linecap: square"/>
   </g>
   <g id="text_21">
    <!-- Support and Resistance using the Ichimoku Cloud. -->
    <g style="fill: #262626" transform="translate(217.97625 54.48) scale(0.12 -0.12)">
     <defs>
      <path id="DejaVuSans-53" d="M 3425 4513 
L 3425 3897 
Q 3066 4069 2747 4153 
Q 2428 4238 2131 4238 
Q 1616 4238 1336 4038 
Q 1056 3838 1056 3469 
Q 1056 3159 1242 3001 
Q 1428 2844 1947 2747 
L 2328 2669 
Q 3034 2534 3370 2195 
Q 3706 1856 3706 1288 
Q 3706 609 3251 259 
Q 2797 -91 1919 -91 
Q 1588 -91 1214 -16 
Q 841 59 441 206 
L 441 856 
Q 825 641 1194 531 
Q 1563 422 1919 422 
Q 2459 422 2753 634 
Q 3047 847 3047 1241 
Q 3047 1584 2836 1778 
Q 2625 1972 2144 2069 
L 1759 2144 
Q 1053 2284 737 2584 
Q 422 2884 422 3419 
Q 422 4038 858 4394 
Q 1294 4750 2059 4750 
Q 2388 4750 2728 4690 
Q 3069 4631 3425 4513 
z
" transform="scale(0.015625)"/>
      <path id="DejaVuSans-75" d="M 544 1381 
L 544 3500 
L 1119 3500 
L 1119 1403 
Q 1119 906 1312 657 
Q 1506 409 1894 409 
Q 2359 409 2629 706 
Q 2900 1003 2900 1516 
L 2900 3500 
L 3475 3500 
L 3475 0 
L 2900 0 
L 2900 538 
Q 2691 219 2414 64 
Q 2138 -91 1772 -91 
Q 1169 -91 856 284 
Q 544 659 544 1381 
z
M 1991 3584 
L 1991 3584 
z
" transform="scale(0.015625)"/>
      <path id="DejaVuSans-70" d="M 1159 525 
L 1159 -1331 
L 581 -1331 
L 581 3500 
L 1159 3500 
L 1159 2969 
Q 1341 3281 1617 3432 
Q 1894 3584 2278 3584 
Q 2916 3584 3314 3078 
Q 3713 2572 3713 1747 
Q 3713 922 3314 415 
Q 2916 -91 2278 -91 
Q 1894 -91 1617 61 
Q 1341 213 1159 525 
z
M 3116 1747 
Q 3116 2381 2855 2742 
Q 2594 3103 2138 3103 
Q 1681 3103 1420 2742 
Q 1159 2381 1159 1747 
Q 1159 1113 1420 752 
Q 1681 391 2138 391 
Q 2594 391 2855 752 
Q 3116 1113 3116 1747 
z
" transform="scale(0.015625)"/>
      <path id="DejaVuSans-6f" d="M 1959 3097 
Q 1497 3097 1228 2736 
Q 959 2375 959 1747 
Q 959 1119 1226 758 
Q 1494 397 1959 397 
Q 2419 397 2687 759 
Q 2956 1122 2956 1747 
Q 2956 2369 2687 2733 
Q 2419 3097 1959 3097 
z
M 1959 3584 
Q 2709 3584 3137 3096 
Q 3566 2609 3566 1747 
Q 3566 888 3137 398 
Q 2709 -91 1959 -91 
Q 1206 -91 779 398 
Q 353 888 353 1747 
Q 353 2609 779 3096 
Q 1206 3584 1959 3584 
z
" transform="scale(0.015625)"/>
      <path id="DejaVuSans-6e" d="M 3513 2113 
L 3513 0 
L 2938 0 
L 2938 2094 
Q 2938 2591 2744 2837 
Q 2550 3084 2163 3084 
Q 1697 3084 1428 2787 
Q 1159 2491 1159 1978 
L 1159 0 
L 581 0 
L 581 3500 
L 1159 3500 
L 1159 2956 
Q 1366 3272 1645 3428 
Q 1925 3584 2291 3584 
Q 2894 3584 3203 3211 
Q 3513 2838 3513 2113 
z
" transform="scale(0.015625)"/>
      <path id="DejaVuSans-64" d="M 2906 2969 
L 2906 4863 
L 3481 4863 
L 3481 0 
L 2906 0 
L 2906 525 
Q 2725 213 2448 61 
Q 2172 -91 1784 -91 
Q 1150 -91 751 415 
Q 353 922 353 1747 
Q 353 2572 751 3078 
Q 1150 3584 1784 3584 
Q 2172 3584 2448 3432 
Q 2725 3281 2906 2969 
z
M 947 1747 
Q 947 1113 1208 752 
Q 1469 391 1925 391 
Q 2381 391 2643 752 
Q 2906 1113 2906 1747 
Q 2906 2381 2643 2742 
Q 2381 3103 1925 3103 
Q 1469 3103 1208 2742 
Q 947 2381 947 1747 
z
" transform="scale(0.015625)"/>
      <path id="DejaVuSans-52" d="M 2841 2188 
Q 3044 2119 3236 1894 
Q 3428 1669 3622 1275 
L 4263 0 
L 3584 0 
L 2988 1197 
Q 2756 1666 2539 1819 
Q 2322 1972 1947 1972 
L 1259 1972 
L 1259 0 
L 628 0 
L 628 4666 
L 2053 4666 
Q 2853 4666 3247 4331 
Q 3641 3997 3641 3322 
Q 3641 2881 3436 2590 
Q 3231 2300 2841 2188 
z
M 1259 4147 
L 1259 2491 
L 2053 2491 
Q 2509 2491 2742 2702 
Q 2975 2913 2975 3322 
Q 2975 3731 2742 3939 
Q 2509 4147 2053 4147 
L 1259 4147 
z
" transform="scale(0.015625)"/>
      <path id="DejaVuSans-73" d="M 2834 3397 
L 2834 2853 
Q 2591 2978 2328 3040 
Q 2066 3103 1784 3103 
Q 1356 3103 1142 2972 
Q 928 2841 928 2578 
Q 928 2378 1081 2264 
Q 1234 2150 1697 2047 
L 1894 2003 
Q 2506 1872 2764 1633 
Q 3022 1394 3022 966 
Q 3022 478 2636 193 
Q 2250 -91 1575 -91 
Q 1294 -91 989 -36 
Q 684 19 347 128 
L 347 722 
Q 666 556 975 473 
Q 1284 391 1588 391 
Q 1994 391 2212 530 
Q 2431 669 2431 922 
Q 2431 1156 2273 1281 
Q 2116 1406 1581 1522 
L 1381 1569 
Q 847 1681 609 1914 
Q 372 2147 372 2553 
Q 372 3047 722 3315 
Q 1072 3584 1716 3584 
Q 2034 3584 2315 3537 
Q 2597 3491 2834 3397 
z
" transform="scale(0.015625)"/>
      <path id="DejaVuSans-67" d="M 2906 1791 
Q 2906 2416 2648 2759 
Q 2391 3103 1925 3103 
Q 1463 3103 1205 2759 
Q 947 2416 947 1791 
Q 947 1169 1205 825 
Q 1463 481 1925 481 
Q 2391 481 2648 825 
Q 2906 1169 2906 1791 
z
M 3481 434 
Q 3481 -459 3084 -895 
Q 2688 -1331 1869 -1331 
Q 1566 -1331 1297 -1286 
Q 1028 -1241 775 -1147 
L 775 -588 
Q 1028 -725 1275 -790 
Q 1522 -856 1778 -856 
Q 2344 -856 2625 -561 
Q 2906 -266 2906 331 
L 2906 616 
Q 2728 306 2450 153 
Q 2172 0 1784 0 
Q 1141 0 747 490 
Q 353 981 353 1791 
Q 353 2603 747 3093 
Q 1141 3584 1784 3584 
Q 2172 3584 2450 3431 
Q 2728 3278 2906 2969 
L 2906 3500 
L 3481 3500 
L 3481 434 
z
" transform="scale(0.015625)"/>
      <path id="DejaVuSans-68" d="M 3513 2113 
L 3513 0 
L 2938 0 
L 2938 2094 
Q 2938 2591 2744 2837 
Q 2550 3084 2163 3084 
Q 1697 3084 1428 2787 
Q 1159 2491 1159 1978 
L 1159 0 
L 581 0 
L 581 4863 
L 1159 4863 
L 1159 2956 
Q 1366 3272 1645 3428 
Q 1925 3584 2291 3584 
Q 2894 3584 3203 3211 
Q 3513 2838 3513 2113 
z
" transform="scale(0.015625)"/>
      <path id="DejaVuSans-49" d="M 628 4666 
L 1259 4666 
L 1259 0 
L 628 0 
L 628 4666 
z
" transform="scale(0.015625)"/>
      <path id="DejaVuSans-6d" d="M 3328 2828 
Q 3544 3216 3844 3400 
Q 4144 3584 4550 3584 
Q 5097 3584 5394 3201 
Q 5691 2819 5691 2113 
L 5691 0 
L 5113 0 
L 5113 2094 
Q 5113 2597 4934 2840 
Q 4756 3084 4391 3084 
Q 3944 3084 3684 2787 
Q 3425 2491 3425 1978 
L 3425 0 
L 2847 0 
L 2847 2094 
Q 2847 2600 2669 2842 
Q 2491 3084 2119 3084 
Q 1678 3084 1418 2786 
Q 1159 2488 1159 1978 
L 1159 0 
L 581 0 
L 581 3500 
L 1159 3500 
L 1159 2956 
Q 1356 3278 1631 3431 
Q 1906 3584 2284 3584 
Q 2666 3584 2933 3390 
Q 3200 3197 3328 2828 
z
" transform="scale(0.015625)"/>
      <path id="DejaVuSans-6b" d="M 581 4863 
L 1159 4863 
L 1159 1991 
L 2875 3500 
L 3609 3500 
L 1753 1863 
L 3688 0 
L 2938 0 
L 1159 1709 
L 1159 0 
L 581 0 
L 581 4863 
z
" transform="scale(0.015625)"/>
      <path id="DejaVuSans-43" d="M 4122 4306 
L 4122 3641 
Q 3803 3938 3442 4084 
Q 3081 4231 2675 4231 
Q 1875 4231 1450 3742 
Q 1025 3253 1025 2328 
Q 1025 1406 1450 917 
Q 1875 428 2675 428 
Q 3081 428 3442 575 
Q 3803 722 4122 1019 
L 4122 359 
Q 3791 134 3420 21 
Q 3050 -91 2638 -91 
Q 1578 -91 968 557 
Q 359 1206 359 2328 
Q 359 3453 968 4101 
Q 1578 4750 2638 4750 
Q 3056 4750 3426 4639 
Q 3797 4528 4122 4306 
z
" transform="scale(0.015625)"/>
      <path id="DejaVuSans-6c" d="M 603 4863 
L 1178 4863 
L 1178 0 
L 603 0 
L 603 4863 
z
" transform="scale(0.015625)"/>
     </defs>
     <use xlink:href="#DejaVuSans-53"/>
     <use xlink:href="#DejaVuSans-75" x="63.476562"/>
     <use xlink:href="#DejaVuSans-70" x="126.855469"/>
     <use xlink:href="#DejaVuSans-70" x="190.332031"/>
     <use xlink:href="#DejaVuSans-6f" x="253.808594"/>
     <use xlink:href="#DejaVuSans-72" x="314.990234"/>
     <use xlink:href="#DejaVuSans-74" x="356.103516"/>
     <use xlink:href="#DejaVuSans-20" x="395.3125"/>
     <use xlink:href="#DejaVuSans-61" x="427.099609"/>
     <use xlink:href="#DejaVuSans-6e" x="488.378906"/>
     <use xlink:href="#DejaVuSans-64" x="551.757812"/>
     <use xlink:href="#DejaVuSans-20" x="615.234375"/>
     <use xlink:href="#DejaVuSans-52" x="647.021484"/>
     <use xlink:href="#DejaVuSans-65" x="712.003906"/>
     <use xlink:href="#DejaVuSans-73" x="773.527344"/>
     <use xlink:href="#DejaVuSans-69" x="825.626953"/>
     <use xlink:href="#DejaVuSans-73" x="853.410156"/>
     <use xlink:href="#DejaVuSans-74" x="905.509766"/>
     <use xlink:href="#DejaVuSans-61" x="944.71875"/>
     <use xlink:href="#DejaVuSans-6e" x="1005.998047"/>
     <use xlink:href="#DejaVuSans-63" x="1069.376953"/>
     <use xlink:href="#DejaVuSans-65" x="1124.357422"/>
     <use xlink:href="#DejaVuSans-20" x="1185.880859"/>
     <use xlink:href="#DejaVuSans-75" x="1217.667969"/>
     <use xlink:href="#DejaVuSans-73" x="1281.046875"/>
     <use xlink:href="#DejaVuSans-69" x="1333.146484"/>
     <use xlink:href="#DejaVuSans-6e" x="1360.929688"/>
     <use xlink:href="#DejaVuSans-67" x="1424.308594"/>
     <use xlink:href="#DejaVuSans-20" x="1487.785156"/>
     <use xlink:href="#DejaVuSans-74" x="1519.572266"/>
     <use xlink:href="#DejaVuSans-68" x="1558.78125"/>
     <use xlink:href="#DejaVuSans-65" x="1622.160156"/>
     <use xlink:href="#DejaVuSans-20" x="1683.683594"/>
     <use xlink:href="#DejaVuSans-49" x="1715.470703"/>
     <use xlink:href="#DejaVuSans-63" x="1744.962891"/>
     <use xlink:href="#DejaVuSans-68" x="1799.943359"/>
     <use xlink:href="#DejaVuSans-69" x="1863.322266"/>
     <use xlink:href="#DejaVuSans-6d" x="1891.105469"/>
     <use xlink:href="#DejaVuSans-6f" x="1988.517578"/>
     <use xlink:href="#DejaVuSans-6b" x="2049.699219"/>
     <use xlink:href="#DejaVuSans-75" x="2104.484375"/>
     <use xlink:href="#DejaVuSans-20" x="2167.863281"/>
     <use xlink:href="#DejaVuSans-43" x="2199.650391"/>
     <use xlink:href="#DejaVuSans-6c" x="2269.474609"/>
     <use xlink:href="#DejaVuSans-6f" x="2297.257812"/>
     <use xlink:href="#DejaVuSans-75" x="2358.439453"/>
     <use xlink:href="#DejaVuSans-64" x="2421.818359"/>
     <use xlink:href="#DejaVuSans-2e" x="2485.294922"/>
    </g>
   </g>
   <g id="legend_1">
    <g id="patch_7">
     <path d="M 97 97.83625 
L 166.578125 97.83625 
Q 168.578125 97.83625 168.578125 95.83625 
L 168.578125 67.48 
Q 168.578125 65.48 166.578125 65.48 
L 97 65.48 
Q 95 65.48 95 67.48 
L 95 95.83625 
Q 95 97.83625 97 97.83625 
z
" style="fill: #ffffff; opacity: 0.8; stroke: #cccccc; stroke-linejoin: miter"/>
    </g>
    <g id="line2d_22">
     <path d="M 99 73.578438 
L 109 73.578438 
L 119 73.578438 
" style="fill: none; stroke: #add8e6; stroke-width: 1.5; stroke-linecap: round"/>
    </g>
    <g id="text_22">
     <!-- Bullish -->
     <g style="fill: #262626" transform="translate(127 77.078438) scale(0.1 -0.1)">
      <defs>
       <path id="DejaVuSans-42" d="M 1259 2228 
L 1259 519 
L 2272 519 
Q 2781 519 3026 730 
Q 3272 941 3272 1375 
Q 3272 1813 3026 2020 
Q 2781 2228 2272 2228 
L 1259 2228 
z
M 1259 4147 
L 1259 2741 
L 2194 2741 
Q 2656 2741 2882 2914 
Q 3109 3088 3109 3444 
Q 3109 3797 2882 3972 
Q 2656 4147 2194 4147 
L 1259 4147 
z
M 628 4666 
L 2241 4666 
Q 2963 4666 3353 4366 
Q 3744 4066 3744 3513 
Q 3744 3084 3544 2831 
Q 3344 2578 2956 2516 
Q 3422 2416 3680 2098 
Q 3938 1781 3938 1306 
Q 3938 681 3513 340 
Q 3088 0 2303 0 
L 628 0 
L 628 4666 
z
" transform="scale(0.015625)"/>
      </defs>
      <use xlink:href="#DejaVuSans-42"/>
      <use xlink:href="#DejaVuSans-75" x="68.603516"/>
      <use xlink:href="#DejaVuSans-6c" x="131.982422"/>
      <use xlink:href="#DejaVuSans-6c" x="159.765625"/>
      <use xlink:href="#DejaVuSans-69" x="187.548828"/>
      <use xlink:href="#DejaVuSans-73" x="215.332031"/>
      <use xlink:href="#DejaVuSans-68" x="267.431641"/>
     </g>
    </g>
    <g id="line2d_23">
     <path d="M 99 88.256563 
L 109 88.256563 
L 119 88.256563 
" style="fill: none; stroke: #f08080; stroke-width: 1.5; stroke-linecap: round"/>
    </g>
    <g id="text_23">
     <!-- Bearish -->
     <g style="fill: #262626" transform="translate(127 91.756563) scale(0.1 -0.1)">
      <use xlink:href="#DejaVuSans-42"/>
      <use xlink:href="#DejaVuSans-65" x="68.603516"/>
      <use xlink:href="#DejaVuSans-61" x="130.126953"/>
      <use xlink:href="#DejaVuSans-72" x="191.40625"/>
      <use xlink:href="#DejaVuSans-69" x="232.519531"/>
      <use xlink:href="#DejaVuSans-73" x="260.302734"/>
      <use xlink:href="#DejaVuSans-68" x="312.402344"/>
     </g>
    </g>
   </g>
  </g>
 </g>
 <defs>
  <clipPath id="pc14f8cc9ba">
   <rect x="90" y="60.48" width="558" height="388.08"/>
  </clipPath>
 </defs>
</svg>
