<?xml version="1.0" encoding="utf-8" standalone="no"?>
<!DOCTYPE svg PUBLIC "-//W3C//DTD SVG 1.1//EN"
  "http://www.w3.org/Graphics/SVG/1.1/DTD/svg11.dtd">
<svg xmlns:xlink="http://www.w3.org/1999/xlink" width="864pt" height="576pt" viewBox="0 0 864 576" xmlns="http://www.w3.org/2000/svg" version="1.1">
 <metadata>
  <rdf:RDF xmlns:dc="http://purl.org/dc/elements/1.1/" xmlns:cc="http://creativecommons.org/ns#" xmlns:rdf="http://www.w3.org/1999/02/22-rdf-syntax-ns#">
   <cc:Work>
    <dc:type rdf:resource="http://purl.org/dc/dcmitype/StillImage"/>
    <dc:date>2024-09-13T13:17:47.083813</dc:date>
    <dc:format>image/svg+xml</dc:format>
    <dc:creator>
     <cc:Agent>
      <dc:title>Matplotlib v3.7.1, https://matplotlib.org/</dc:title>
     </cc:Agent>
    </dc:creator>
   </cc:Work>
  </rdf:RDF>
 </metadata>
 <defs>
  <style type="text/css">*{stroke-linejoin: round; stroke-linecap: butt}</style>
 </defs>
 <g id="figure_1">
  <g id="patch_1">
   <path d="M 0 576 
L 864 576 
L 864 0 
L 0 0 
z
" style="fill: #ffffff"/>
  </g>
  <g id="axes_1">
   <g id="patch_2">
    <path d="M 108 512.64 
L 777.6 512.64 
L 777.6 69.12 
L 108 69.12 
z
" style="fill: #ffffff"/>
   </g>
   <g id="matplotlib.axis_1">
    <g id="xtick_1">
     <g id="text_1">
      <!-- dqn_dxy -->
      <g style="fill: #262626" transform="translate(122.480859 526.478594) scale(0.09 -0.09)">
       <defs>
        <path id="DejaVuSans-64" d="M 2906 2969 
L 2906 4863 
L 3481 4863 
L 3481 0 
L 2906 0 
L 2906 525 
Q 2725 213 2448 61 
Q 2172 -91 1784 -91 
Q 1150 -91 751 415 
Q 353 922 353 1747 
Q 353 2572 751 3078 
Q 1150 3584 1784 3584 
Q 2172 3584 2448 3432 
Q 2725 3281 2906 2969 
z
M 947 1747 
Q 947 1113 1208 752 
Q 1469 391 1925 391 
Q 2381 391 2643 752 
Q 2906 1113 2906 1747 
Q 2906 2381 2643 2742 
Q 2381 3103 1925 3103 
Q 1469 3103 1208 2742 
Q 947 2381 947 1747 
z
" transform="scale(0.015625)"/>
        <path id="DejaVuSans-71" d="M 947 1747 
Q 947 1113 1208 752 
Q 1469 391 1925 391 
Q 2381 391 2643 752 
Q 2906 1113 2906 1747 
Q 2906 2381 2643 2742 
Q 2381 3103 1925 3103 
Q 1469 3103 1208 2742 
Q 947 2381 947 1747 
z
M 2906 525 
Q 2725 213 2448 61 
Q 2172 -91 1784 -91 
Q 1150 -91 751 415 
Q 353 922 353 1747 
Q 353 2572 751 3078 
Q 1150 3584 1784 3584 
Q 2172 3584 2448 3432 
Q 2725 3281 2906 2969 
L 2906 3500 
L 3481 3500 
L 3481 -1331 
L 2906 -1331 
L 2906 525 
z
" transform="scale(0.015625)"/>
        <path id="DejaVuSans-6e" d="M 3513 2113 
L 3513 0 
L 2938 0 
L 2938 2094 
Q 2938 2591 2744 2837 
Q 2550 3084 2163 3084 
Q 1697 3084 1428 2787 
Q 1159 2491 1159 1978 
L 1159 0 
L 581 0 
L 581 3500 
L 1159 3500 
L 1159 2956 
Q 1366 3272 1645 3428 
Q 1925 3584 2291 3584 
Q 2894 3584 3203 3211 
Q 3513 2838 3513 2113 
z
" transform="scale(0.015625)"/>
        <path id="DejaVuSans-5f" d="M 3263 -1063 
L 3263 -1509 
L -63 -1509 
L -63 -1063 
L 3263 -1063 
z
" transform="scale(0.015625)"/>
        <path id="DejaVuSans-78" d="M 3513 3500 
L 2247 1797 
L 3578 0 
L 2900 0 
L 1881 1375 
L 863 0 
L 184 0 
L 1544 1831 
L 300 3500 
L 978 3500 
L 1906 2253 
L 2834 3500 
L 3513 3500 
z
" transform="scale(0.015625)"/>
        <path id="DejaVuSans-79" d="M 2059 -325 
Q 1816 -950 1584 -1140 
Q 1353 -1331 966 -1331 
L 506 -1331 
L 506 -850 
L 844 -850 
Q 1081 -850 1212 -737 
Q 1344 -625 1503 -206 
L 1606 56 
L 191 3500 
L 800 3500 
L 1894 763 
L 2988 3500 
L 3597 3500 
L 2059 -325 
z
" transform="scale(0.015625)"/>
       </defs>
       <use xlink:href="#DejaVuSans-64"/>
       <use xlink:href="#DejaVuSans-71" x="63.476562"/>
       <use xlink:href="#DejaVuSans-6e" x="126.953125"/>
       <use xlink:href="#DejaVuSans-5f" x="190.332031"/>
       <use xlink:href="#DejaVuSans-64" x="240.332031"/>
       <use xlink:href="#DejaVuSans-78" x="303.808594"/>
       <use xlink:href="#DejaVuSans-79" x="362.988281"/>
      </g>
     </g>
    </g>
    <g id="xtick_2">
     <g id="text_2">
      <!-- dqn_mtf_2 -->
      <g style="fill: #262626" transform="translate(184.779844 526.478594) scale(0.09 -0.09)">
       <defs>
        <path id="DejaVuSans-6d" d="M 3328 2828 
Q 3544 3216 3844 3400 
Q 4144 3584 4550 3584 
Q 5097 3584 5394 3201 
Q 5691 2819 5691 2113 
L 5691 0 
L 5113 0 
L 5113 2094 
Q 5113 2597 4934 2840 
Q 4756 3084 4391 3084 
Q 3944 3084 3684 2787 
Q 3425 2491 3425 1978 
L 3425 0 
L 2847 0 
L 2847 2094 
Q 2847 2600 2669 2842 
Q 2491 3084 2119 3084 
Q 1678 3084 1418 2786 
Q 1159 2488 1159 1978 
L 1159 0 
L 581 0 
L 581 3500 
L 1159 3500 
L 1159 2956 
Q 1356 3278 1631 3431 
Q 1906 3584 2284 3584 
Q 2666 3584 2933 3390 
Q 3200 3197 3328 2828 
z
" transform="scale(0.015625)"/>
        <path id="DejaVuSans-74" d="M 1172 4494 
L 1172 3500 
L 2356 3500 
L 2356 3053 
L 1172 3053 
L 1172 1153 
Q 1172 725 1289 603 
Q 1406 481 1766 481 
L 2356 481 
L 2356 0 
L 1766 0 
Q 1100 0 847 248 
Q 594 497 594 1153 
L 594 3053 
L 172 3053 
L 172 3500 
L 594 3500 
L 594 4494 
L 1172 4494 
z
" transform="scale(0.015625)"/>
        <path id="DejaVuSans-66" d="M 2375 4863 
L 2375 4384 
L 1825 4384 
Q 1516 4384 1395 4259 
Q 1275 4134 1275 3809 
L 1275 3500 
L 2222 3500 
L 2222 3053 
L 1275 3053 
L 1275 0 
L 697 0 
L 697 3053 
L 147 3053 
L 147 3500 
L 697 3500 
L 697 3744 
Q 697 4328 969 4595 
Q 1241 4863 1831 4863 
L 2375 4863 
z
" transform="scale(0.015625)"/>
        <path id="DejaVuSans-32" d="M 1228 531 
L 3431 531 
L 3431 0 
L 469 0 
L 469 531 
Q 828 903 1448 1529 
Q 2069 2156 2228 2338 
Q 2531 2678 2651 2914 
Q 2772 3150 2772 3378 
Q 2772 3750 2511 3984 
Q 2250 4219 1831 4219 
Q 1534 4219 1204 4116 
Q 875 4013 500 3803 
L 500 4441 
Q 881 4594 1212 4672 
Q 1544 4750 1819 4750 
Q 2544 4750 2975 4387 
Q 3406 4025 3406 3419 
Q 3406 3131 3298 2873 
Q 3191 2616 2906 2266 
Q 2828 2175 2409 1742 
Q 1991 1309 1228 531 
z
" transform="scale(0.015625)"/>
       </defs>
       <use xlink:href="#DejaVuSans-64"/>
       <use xlink:href="#DejaVuSans-71" x="63.476562"/>
       <use xlink:href="#DejaVuSans-6e" x="126.953125"/>
       <use xlink:href="#DejaVuSans-5f" x="190.332031"/>
       <use xlink:href="#DejaVuSans-6d" x="240.332031"/>
       <use xlink:href="#DejaVuSans-74" x="337.744141"/>
       <use xlink:href="#DejaVuSans-66" x="376.953125"/>
       <use xlink:href="#DejaVuSans-5f" x="412.158203"/>
       <use xlink:href="#DejaVuSans-32" x="462.158203"/>
      </g>
     </g>
    </g>
    <g id="xtick_3">
     <g id="text_3">
      <!-- dqn_mtf_1 -->
      <g style="fill: #262626" transform="translate(251.739844 526.478594) scale(0.09 -0.09)">
       <defs>
        <path id="DejaVuSans-31" d="M 794 531 
L 1825 531 
L 1825 4091 
L 703 3866 
L 703 4441 
L 1819 4666 
L 2450 4666 
L 2450 531 
L 3481 531 
L 3481 0 
L 794 0 
L 794 531 
z
" transform="scale(0.015625)"/>
       </defs>
       <use xlink:href="#DejaVuSans-64"/>
       <use xlink:href="#DejaVuSans-71" x="63.476562"/>
       <use xlink:href="#DejaVuSans-6e" x="126.953125"/>
       <use xlink:href="#DejaVuSans-5f" x="190.332031"/>
       <use xlink:href="#DejaVuSans-6d" x="240.332031"/>
       <use xlink:href="#DejaVuSans-74" x="337.744141"/>
       <use xlink:href="#DejaVuSans-66" x="376.953125"/>
       <use xlink:href="#DejaVuSans-5f" x="412.158203"/>
       <use xlink:href="#DejaVuSans-31" x="462.158203"/>
      </g>
     </g>
    </g>
    <g id="xtick_4">
     <g id="text_4">
      <!-- dqn_lstm -->
      <g style="fill: #262626" transform="translate(321.802734 526.478594) scale(0.09 -0.09)">
       <defs>
        <path id="DejaVuSans-6c" d="M 603 4863 
L 1178 4863 
L 1178 0 
L 603 0 
L 603 4863 
z
" transform="scale(0.015625)"/>
        <path id="DejaVuSans-73" d="M 2834 3397 
L 2834 2853 
Q 2591 2978 2328 3040 
Q 2066 3103 1784 3103 
Q 1356 3103 1142 2972 
Q 928 2841 928 2578 
Q 928 2378 1081 2264 
Q 1234 2150 1697 2047 
L 1894 2003 
Q 2506 1872 2764 1633 
Q 3022 1394 3022 966 
Q 3022 478 2636 193 
Q 2250 -91 1575 -91 
Q 1294 -91 989 -36 
Q 684 19 347 128 
L 347 722 
Q 666 556 975 473 
Q 1284 391 1588 391 
Q 1994 391 2212 530 
Q 2431 669 2431 922 
Q 2431 1156 2273 1281 
Q 2116 1406 1581 1522 
L 1381 1569 
Q 847 1681 609 1914 
Q 372 2147 372 2553 
Q 372 3047 722 3315 
Q 1072 3584 1716 3584 
Q 2034 3584 2315 3537 
Q 2597 3491 2834 3397 
z
" transform="scale(0.015625)"/>
       </defs>
       <use xlink:href="#DejaVuSans-64"/>
       <use xlink:href="#DejaVuSans-71" x="63.476562"/>
       <use xlink:href="#DejaVuSans-6e" x="126.953125"/>
       <use xlink:href="#DejaVuSans-5f" x="190.332031"/>
       <use xlink:href="#DejaVuSans-6c" x="240.332031"/>
       <use xlink:href="#DejaVuSans-73" x="268.115234"/>
       <use xlink:href="#DejaVuSans-74" x="320.214844"/>
       <use xlink:href="#DejaVuSans-6d" x="359.423828"/>
      </g>
     </g>
    </g>
    <g id="xtick_5">
     <g id="text_5">
      <!-- dqn_SR_2 -->
      <g style="fill: #262626" transform="translate(387.407813 526.478594) scale(0.09 -0.09)">
       <defs>
        <path id="DejaVuSans-53" d="M 3425 4513 
L 3425 3897 
Q 3066 4069 2747 4153 
Q 2428 4238 2131 4238 
Q 1616 4238 1336 4038 
Q 1056 3838 1056 3469 
Q 1056 3159 1242 3001 
Q 1428 2844 1947 2747 
L 2328 2669 
Q 3034 2534 3370 2195 
Q 3706 1856 3706 1288 
Q 3706 609 3251 259 
Q 2797 -91 1919 -91 
Q 1588 -91 1214 -16 
Q 841 59 441 206 
L 441 856 
Q 825 641 1194 531 
Q 1563 422 1919 422 
Q 2459 422 2753 634 
Q 3047 847 3047 1241 
Q 3047 1584 2836 1778 
Q 2625 1972 2144 2069 
L 1759 2144 
Q 1053 2284 737 2584 
Q 422 2884 422 3419 
Q 422 4038 858 4394 
Q 1294 4750 2059 4750 
Q 2388 4750 2728 4690 
Q 3069 4631 3425 4513 
z
" transform="scale(0.015625)"/>
        <path id="DejaVuSans-52" d="M 2841 2188 
Q 3044 2119 3236 1894 
Q 3428 1669 3622 1275 
L 4263 0 
L 3584 0 
L 2988 1197 
Q 2756 1666 2539 1819 
Q 2322 1972 1947 1972 
L 1259 1972 
L 1259 0 
L 628 0 
L 628 4666 
L 2053 4666 
Q 2853 4666 3247 4331 
Q 3641 3997 3641 3322 
Q 3641 2881 3436 2590 
Q 3231 2300 2841 2188 
z
M 1259 4147 
L 1259 2491 
L 2053 2491 
Q 2509 2491 2742 2702 
Q 2975 2913 2975 3322 
Q 2975 3731 2742 3939 
Q 2509 4147 2053 4147 
L 1259 4147 
z
" transform="scale(0.015625)"/>
       </defs>
       <use xlink:href="#DejaVuSans-64"/>
       <use xlink:href="#DejaVuSans-71" x="63.476562"/>
       <use xlink:href="#DejaVuSans-6e" x="126.953125"/>
       <use xlink:href="#DejaVuSans-5f" x="190.332031"/>
       <use xlink:href="#DejaVuSans-53" x="240.332031"/>
       <use xlink:href="#DejaVuSans-52" x="303.808594"/>
       <use xlink:href="#DejaVuSans-5f" x="373.291016"/>
       <use xlink:href="#DejaVuSans-32" x="423.291016"/>
      </g>
     </g>
    </g>
    <g id="xtick_6">
     <g id="text_6">
      <!-- dqn_SR_1 -->
      <g style="fill: #262626" transform="translate(454.367813 526.478594) scale(0.09 -0.09)">
       <use xlink:href="#DejaVuSans-64"/>
       <use xlink:href="#DejaVuSans-71" x="63.476562"/>
       <use xlink:href="#DejaVuSans-6e" x="126.953125"/>
       <use xlink:href="#DejaVuSans-5f" x="190.332031"/>
       <use xlink:href="#DejaVuSans-53" x="240.332031"/>
       <use xlink:href="#DejaVuSans-52" x="303.808594"/>
       <use xlink:href="#DejaVuSans-5f" x="373.291016"/>
       <use xlink:href="#DejaVuSans-31" x="423.291016"/>
      </g>
     </g>
    </g>
    <g id="xtick_7">
     <g id="text_7">
      <!-- dqn_ewm -->
      <g style="fill: #262626" transform="translate(521.592188 526.478594) scale(0.09 -0.09)">
       <defs>
        <path id="DejaVuSans-65" d="M 3597 1894 
L 3597 1613 
L 953 1613 
Q 991 1019 1311 708 
Q 1631 397 2203 397 
Q 2534 397 2845 478 
Q 3156 559 3463 722 
L 3463 178 
Q 3153 47 2828 -22 
Q 2503 -91 2169 -91 
Q 1331 -91 842 396 
Q 353 884 353 1716 
Q 353 2575 817 3079 
Q 1281 3584 2069 3584 
Q 2775 3584 3186 3129 
Q 3597 2675 3597 1894 
z
M 3022 2063 
Q 3016 2534 2758 2815 
Q 2500 3097 2075 3097 
Q 1594 3097 1305 2825 
Q 1016 2553 972 2059 
L 3022 2063 
z
" transform="scale(0.015625)"/>
        <path id="DejaVuSans-77" d="M 269 3500 
L 844 3500 
L 1563 769 
L 2278 3500 
L 2956 3500 
L 3675 769 
L 4391 3500 
L 4966 3500 
L 4050 0 
L 3372 0 
L 2619 2869 
L 1863 0 
L 1184 0 
L 269 3500 
z
" transform="scale(0.015625)"/>
       </defs>
       <use xlink:href="#DejaVuSans-64"/>
       <use xlink:href="#DejaVuSans-71" x="63.476562"/>
       <use xlink:href="#DejaVuSans-6e" x="126.953125"/>
       <use xlink:href="#DejaVuSans-5f" x="190.332031"/>
       <use xlink:href="#DejaVuSans-65" x="240.332031"/>
       <use xlink:href="#DejaVuSans-77" x="301.855469"/>
       <use xlink:href="#DejaVuSans-6d" x="383.642578"/>
      </g>
     </g>
    </g>
    <g id="xtick_8">
     <g id="text_8">
      <!-- dqn_macd -->
      <g style="fill: #262626" transform="translate(586.9125 526.478594) scale(0.09 -0.09)">
       <defs>
        <path id="DejaVuSans-61" d="M 2194 1759 
Q 1497 1759 1228 1600 
Q 959 1441 959 1056 
Q 959 750 1161 570 
Q 1363 391 1709 391 
Q 2188 391 2477 730 
Q 2766 1069 2766 1631 
L 2766 1759 
L 2194 1759 
z
M 3341 1997 
L 3341 0 
L 2766 0 
L 2766 531 
Q 2569 213 2275 61 
Q 1981 -91 1556 -91 
Q 1019 -91 701 211 
Q 384 513 384 1019 
Q 384 1609 779 1909 
Q 1175 2209 1959 2209 
L 2766 2209 
L 2766 2266 
Q 2766 2663 2505 2880 
Q 2244 3097 1772 3097 
Q 1472 3097 1187 3025 
Q 903 2953 641 2809 
L 641 3341 
Q 956 3463 1253 3523 
Q 1550 3584 1831 3584 
Q 2591 3584 2966 3190 
Q 3341 2797 3341 1997 
z
" transform="scale(0.015625)"/>
        <path id="DejaVuSans-63" d="M 3122 3366 
L 3122 2828 
Q 2878 2963 2633 3030 
Q 2388 3097 2138 3097 
Q 1578 3097 1268 2742 
Q 959 2388 959 1747 
Q 959 1106 1268 751 
Q 1578 397 2138 397 
Q 2388 397 2633 464 
Q 2878 531 3122 666 
L 3122 134 
Q 2881 22 2623 -34 
Q 2366 -91 2075 -91 
Q 1284 -91 818 406 
Q 353 903 353 1747 
Q 353 2603 823 3093 
Q 1294 3584 2113 3584 
Q 2378 3584 2631 3529 
Q 2884 3475 3122 3366 
z
" transform="scale(0.015625)"/>
       </defs>
       <use xlink:href="#DejaVuSans-64"/>
       <use xlink:href="#DejaVuSans-71" x="63.476562"/>
       <use xlink:href="#DejaVuSans-6e" x="126.953125"/>
       <use xlink:href="#DejaVuSans-5f" x="190.332031"/>
       <use xlink:href="#DejaVuSans-6d" x="240.332031"/>
       <use xlink:href="#DejaVuSans-61" x="337.744141"/>
       <use xlink:href="#DejaVuSans-63" x="399.023438"/>
       <use xlink:href="#DejaVuSans-64" x="454.003906"/>
      </g>
     </g>
    </g>
    <g id="xtick_9">
     <g id="text_9">
      <!-- dqn_bb -->
      <g style="fill: #262626" transform="translate(660.630938 526.478594) scale(0.09 -0.09)">
       <defs>
        <path id="DejaVuSans-62" d="M 3116 1747 
Q 3116 2381 2855 2742 
Q 2594 3103 2138 3103 
Q 1681 3103 1420 2742 
Q 1159 2381 1159 1747 
Q 1159 1113 1420 752 
Q 1681 391 2138 391 
Q 2594 391 2855 752 
Q 3116 1113 3116 1747 
z
M 1159 2969 
Q 1341 3281 1617 3432 
Q 1894 3584 2278 3584 
Q 2916 3584 3314 3078 
Q 3713 2572 3713 1747 
Q 3713 922 3314 415 
Q 2916 -91 2278 -91 
Q 1894 -91 1617 61 
Q 1341 213 1159 525 
L 1159 0 
L 581 0 
L 581 4863 
L 1159 4863 
L 1159 2969 
z
" transform="scale(0.015625)"/>
       </defs>
       <use xlink:href="#DejaVuSans-64"/>
       <use xlink:href="#DejaVuSans-71" x="63.476562"/>
       <use xlink:href="#DejaVuSans-6e" x="126.953125"/>
       <use xlink:href="#DejaVuSans-5f" x="190.332031"/>
       <use xlink:href="#DejaVuSans-62" x="240.332031"/>
       <use xlink:href="#DejaVuSans-62" x="303.808594"/>
      </g>
     </g>
    </g>
    <g id="xtick_10">
     <g id="text_10">
      <!-- dqn_rsi -->
      <g style="fill: #262626" transform="translate(727.860234 526.478594) scale(0.09 -0.09)">
       <defs>
        <path id="DejaVuSans-72" d="M 2631 2963 
Q 2534 3019 2420 3045 
Q 2306 3072 2169 3072 
Q 1681 3072 1420 2755 
Q 1159 2438 1159 1844 
L 1159 0 
L 581 0 
L 581 3500 
L 1159 3500 
L 1159 2956 
Q 1341 3275 1631 3429 
Q 1922 3584 2338 3584 
Q 2397 3584 2469 3576 
Q 2541 3569 2628 3553 
L 2631 2963 
z
" transform="scale(0.015625)"/>
        <path id="DejaVuSans-69" d="M 603 3500 
L 1178 3500 
L 1178 0 
L 603 0 
L 603 3500 
z
M 603 4863 
L 1178 4863 
L 1178 4134 
L 603 4134 
L 603 4863 
z
" transform="scale(0.015625)"/>
       </defs>
       <use xlink:href="#DejaVuSans-64"/>
       <use xlink:href="#DejaVuSans-71" x="63.476562"/>
       <use xlink:href="#DejaVuSans-6e" x="126.953125"/>
       <use xlink:href="#DejaVuSans-5f" x="190.332031"/>
       <use xlink:href="#DejaVuSans-72" x="240.332031"/>
       <use xlink:href="#DejaVuSans-73" x="281.445312"/>
       <use xlink:href="#DejaVuSans-69" x="333.544922"/>
      </g>
     </g>
    </g>
    <g id="text_11">
     <!-- DQN Models -->
     <g style="fill: #262626" transform="translate(412.066406 540.199062) scale(0.1 -0.1)">
      <defs>
       <path id="DejaVuSans-44" d="M 1259 4147 
L 1259 519 
L 2022 519 
Q 2988 519 3436 956 
Q 3884 1394 3884 2338 
Q 3884 3275 3436 3711 
Q 2988 4147 2022 4147 
L 1259 4147 
z
M 628 4666 
L 1925 4666 
Q 3281 4666 3915 4102 
Q 4550 3538 4550 2338 
Q 4550 1131 3912 565 
Q 3275 0 1925 0 
L 628 0 
L 628 4666 
z
" transform="scale(0.015625)"/>
       <path id="DejaVuSans-51" d="M 2522 4238 
Q 1834 4238 1429 3725 
Q 1025 3213 1025 2328 
Q 1025 1447 1429 934 
Q 1834 422 2522 422 
Q 3209 422 3611 934 
Q 4013 1447 4013 2328 
Q 4013 3213 3611 3725 
Q 3209 4238 2522 4238 
z
M 3406 84 
L 4238 -825 
L 3475 -825 
L 2784 -78 
Q 2681 -84 2626 -87 
Q 2572 -91 2522 -91 
Q 1538 -91 948 567 
Q 359 1225 359 2328 
Q 359 3434 948 4092 
Q 1538 4750 2522 4750 
Q 3503 4750 4090 4092 
Q 4678 3434 4678 2328 
Q 4678 1516 4351 937 
Q 4025 359 3406 84 
z
" transform="scale(0.015625)"/>
       <path id="DejaVuSans-4e" d="M 628 4666 
L 1478 4666 
L 3547 763 
L 3547 4666 
L 4159 4666 
L 4159 0 
L 3309 0 
L 1241 3903 
L 1241 0 
L 628 0 
L 628 4666 
z
" transform="scale(0.015625)"/>
       <path id="DejaVuSans-20" transform="scale(0.015625)"/>
       <path id="DejaVuSans-4d" d="M 628 4666 
L 1569 4666 
L 2759 1491 
L 3956 4666 
L 4897 4666 
L 4897 0 
L 4281 0 
L 4281 4097 
L 3078 897 
L 2444 897 
L 1241 4097 
L 1241 0 
L 628 0 
L 628 4666 
z
" transform="scale(0.015625)"/>
       <path id="DejaVuSans-6f" d="M 1959 3097 
Q 1497 3097 1228 2736 
Q 959 2375 959 1747 
Q 959 1119 1226 758 
Q 1494 397 1959 397 
Q 2419 397 2687 759 
Q 2956 1122 2956 1747 
Q 2956 2369 2687 2733 
Q 2419 3097 1959 3097 
z
M 1959 3584 
Q 2709 3584 3137 3096 
Q 3566 2609 3566 1747 
Q 3566 888 3137 398 
Q 2709 -91 1959 -91 
Q 1206 -91 779 398 
Q 353 888 353 1747 
Q 353 2609 779 3096 
Q 1206 3584 1959 3584 
z
" transform="scale(0.015625)"/>
      </defs>
      <use xlink:href="#DejaVuSans-44"/>
      <use xlink:href="#DejaVuSans-51" x="77.001953"/>
      <use xlink:href="#DejaVuSans-4e" x="155.712891"/>
      <use xlink:href="#DejaVuSans-20" x="230.517578"/>
      <use xlink:href="#DejaVuSans-4d" x="262.304688"/>
      <use xlink:href="#DejaVuSans-6f" x="348.583984"/>
      <use xlink:href="#DejaVuSans-64" x="409.765625"/>
      <use xlink:href="#DejaVuSans-65" x="473.242188"/>
      <use xlink:href="#DejaVuSans-6c" x="534.765625"/>
      <use xlink:href="#DejaVuSans-73" x="562.548828"/>
     </g>
    </g>
   </g>
   <g id="matplotlib.axis_2">
    <g id="ytick_1">
     <g id="line2d_1">
      <path d="M 108 469.454226 
L 777.6 469.454226 
" clip-path="url(#p95b26f36fa)" style="fill: none; stroke: #cccccc; stroke-width: 0.8; stroke-linecap: round"/>
     </g>
     <g id="text_12">
      <!-- −20 -->
      <g style="fill: #262626" transform="translate(79.895313 473.253445) scale(0.1 -0.1)">
       <defs>
        <path id="DejaVuSans-2212" d="M 678 2272 
L 4684 2272 
L 4684 1741 
L 678 1741 
L 678 2272 
z
" transform="scale(0.015625)"/>
        <path id="DejaVuSans-30" d="M 2034 4250 
Q 1547 4250 1301 3770 
Q 1056 3291 1056 2328 
Q 1056 1369 1301 889 
Q 1547 409 2034 409 
Q 2525 409 2770 889 
Q 3016 1369 3016 2328 
Q 3016 3291 2770 3770 
Q 2525 4250 2034 4250 
z
M 2034 4750 
Q 2819 4750 3233 4129 
Q 3647 3509 3647 2328 
Q 3647 1150 3233 529 
Q 2819 -91 2034 -91 
Q 1250 -91 836 529 
Q 422 1150 422 2328 
Q 422 3509 836 4129 
Q 1250 4750 2034 4750 
z
" transform="scale(0.015625)"/>
       </defs>
       <use xlink:href="#DejaVuSans-2212"/>
       <use xlink:href="#DejaVuSans-32" x="83.789062"/>
       <use xlink:href="#DejaVuSans-30" x="147.412109"/>
      </g>
     </g>
    </g>
    <g id="ytick_2">
     <g id="line2d_2">
      <path d="M 108 385.16146 
L 777.6 385.16146 
" clip-path="url(#p95b26f36fa)" style="fill: none; stroke: #cccccc; stroke-width: 0.8; stroke-linecap: round"/>
     </g>
     <g id="text_13">
      <!-- −10 -->
      <g style="fill: #262626" transform="translate(79.895313 388.960678) scale(0.1 -0.1)">
       <use xlink:href="#DejaVuSans-2212"/>
       <use xlink:href="#DejaVuSans-31" x="83.789062"/>
       <use xlink:href="#DejaVuSans-30" x="147.412109"/>
      </g>
     </g>
    </g>
    <g id="ytick_3">
     <g id="line2d_3">
      <path d="M 108 300.868693 
L 777.6 300.868693 
" clip-path="url(#p95b26f36fa)" style="fill: none; stroke: #cccccc; stroke-width: 0.8; stroke-linecap: round"/>
     </g>
     <g id="text_14">
      <!-- 0 -->
      <g style="fill: #262626" transform="translate(94.6375 304.667912) scale(0.1 -0.1)">
       <use xlink:href="#DejaVuSans-30"/>
      </g>
     </g>
    </g>
    <g id="ytick_4">
     <g id="line2d_4">
      <path d="M 108 216.575926 
L 777.6 216.575926 
" clip-path="url(#p95b26f36fa)" style="fill: none; stroke: #cccccc; stroke-width: 0.8; stroke-linecap: round"/>
     </g>
     <g id="text_15">
      <!-- 10 -->
      <g style="fill: #262626" transform="translate(88.275 220.375145) scale(0.1 -0.1)">
       <use xlink:href="#DejaVuSans-31"/>
       <use xlink:href="#DejaVuSans-30" x="63.623047"/>
      </g>
     </g>
    </g>
    <g id="ytick_5">
     <g id="line2d_5">
      <path d="M 108 132.283159 
L 777.6 132.283159 
" clip-path="url(#p95b26f36fa)" style="fill: none; stroke: #cccccc; stroke-width: 0.8; stroke-linecap: round"/>
     </g>
     <g id="text_16">
      <!-- 20 -->
      <g style="fill: #262626" transform="translate(88.275 136.082378) scale(0.1 -0.1)">
       <use xlink:href="#DejaVuSans-32"/>
       <use xlink:href="#DejaVuSans-30" x="63.623047"/>
      </g>
     </g>
    </g>
    <g id="text_17">
     <!-- Percentage Returns [%] -->
     <g style="fill: #262626" transform="translate(73.815625 350.029219) rotate(-90) scale(0.1 -0.1)">
      <defs>
       <path id="DejaVuSans-50" d="M 1259 4147 
L 1259 2394 
L 2053 2394 
Q 2494 2394 2734 2622 
Q 2975 2850 2975 3272 
Q 2975 3691 2734 3919 
Q 2494 4147 2053 4147 
L 1259 4147 
z
M 628 4666 
L 2053 4666 
Q 2838 4666 3239 4311 
Q 3641 3956 3641 3272 
Q 3641 2581 3239 2228 
Q 2838 1875 2053 1875 
L 1259 1875 
L 1259 0 
L 628 0 
L 628 4666 
z
" transform="scale(0.015625)"/>
       <path id="DejaVuSans-67" d="M 2906 1791 
Q 2906 2416 2648 2759 
Q 2391 3103 1925 3103 
Q 1463 3103 1205 2759 
Q 947 2416 947 1791 
Q 947 1169 1205 825 
Q 1463 481 1925 481 
Q 2391 481 2648 825 
Q 2906 1169 2906 1791 
z
M 3481 434 
Q 3481 -459 3084 -895 
Q 2688 -1331 1869 -1331 
Q 1566 -1331 1297 -1286 
Q 1028 -1241 775 -1147 
L 775 -588 
Q 1028 -725 1275 -790 
Q 1522 -856 1778 -856 
Q 2344 -856 2625 -561 
Q 2906 -266 2906 331 
L 2906 616 
Q 2728 306 2450 153 
Q 2172 0 1784 0 
Q 1141 0 747 490 
Q 353 981 353 1791 
Q 353 2603 747 3093 
Q 1141 3584 1784 3584 
Q 2172 3584 2450 3431 
Q 2728 3278 2906 2969 
L 2906 3500 
L 3481 3500 
L 3481 434 
z
" transform="scale(0.015625)"/>
       <path id="DejaVuSans-75" d="M 544 1381 
L 544 3500 
L 1119 3500 
L 1119 1403 
Q 1119 906 1312 657 
Q 1506 409 1894 409 
Q 2359 409 2629 706 
Q 2900 1003 2900 1516 
L 2900 3500 
L 3475 3500 
L 3475 0 
L 2900 0 
L 2900 538 
Q 2691 219 2414 64 
Q 2138 -91 1772 -91 
Q 1169 -91 856 284 
Q 544 659 544 1381 
z
M 1991 3584 
L 1991 3584 
z
" transform="scale(0.015625)"/>
       <path id="DejaVuSans-5b" d="M 550 4863 
L 1875 4863 
L 1875 4416 
L 1125 4416 
L 1125 -397 
L 1875 -397 
L 1875 -844 
L 550 -844 
L 550 4863 
z
" transform="scale(0.015625)"/>
       <path id="DejaVuSans-25" d="M 4653 2053 
Q 4381 2053 4226 1822 
Q 4072 1591 4072 1178 
Q 4072 772 4226 539 
Q 4381 306 4653 306 
Q 4919 306 5073 539 
Q 5228 772 5228 1178 
Q 5228 1588 5073 1820 
Q 4919 2053 4653 2053 
z
M 4653 2450 
Q 5147 2450 5437 2106 
Q 5728 1763 5728 1178 
Q 5728 594 5436 251 
Q 5144 -91 4653 -91 
Q 4153 -91 3862 251 
Q 3572 594 3572 1178 
Q 3572 1766 3864 2108 
Q 4156 2450 4653 2450 
z
M 1428 4353 
Q 1159 4353 1004 4120 
Q 850 3888 850 3481 
Q 850 3069 1003 2837 
Q 1156 2606 1428 2606 
Q 1700 2606 1854 2837 
Q 2009 3069 2009 3481 
Q 2009 3884 1853 4118 
Q 1697 4353 1428 4353 
z
M 4250 4750 
L 4750 4750 
L 1831 -91 
L 1331 -91 
L 4250 4750 
z
M 1428 4750 
Q 1922 4750 2215 4408 
Q 2509 4066 2509 3481 
Q 2509 2891 2217 2550 
Q 1925 2209 1428 2209 
Q 931 2209 642 2551 
Q 353 2894 353 3481 
Q 353 4063 643 4406 
Q 934 4750 1428 4750 
z
" transform="scale(0.015625)"/>
       <path id="DejaVuSans-5d" d="M 1947 4863 
L 1947 -844 
L 622 -844 
L 622 -397 
L 1369 -397 
L 1369 4416 
L 622 4416 
L 622 4863 
L 1947 4863 
z
" transform="scale(0.015625)"/>
      </defs>
      <use xlink:href="#DejaVuSans-50"/>
      <use xlink:href="#DejaVuSans-65" x="56.677734"/>
      <use xlink:href="#DejaVuSans-72" x="118.201172"/>
      <use xlink:href="#DejaVuSans-63" x="157.064453"/>
      <use xlink:href="#DejaVuSans-65" x="212.044922"/>
      <use xlink:href="#DejaVuSans-6e" x="273.568359"/>
      <use xlink:href="#DejaVuSans-74" x="336.947266"/>
      <use xlink:href="#DejaVuSans-61" x="376.15625"/>
      <use xlink:href="#DejaVuSans-67" x="437.435547"/>
      <use xlink:href="#DejaVuSans-65" x="500.912109"/>
      <use xlink:href="#DejaVuSans-20" x="562.435547"/>
      <use xlink:href="#DejaVuSans-52" x="594.222656"/>
      <use xlink:href="#DejaVuSans-65" x="659.205078"/>
      <use xlink:href="#DejaVuSans-74" x="720.728516"/>
      <use xlink:href="#DejaVuSans-75" x="759.9375"/>
      <use xlink:href="#DejaVuSans-72" x="823.316406"/>
      <use xlink:href="#DejaVuSans-6e" x="862.679688"/>
      <use xlink:href="#DejaVuSans-73" x="926.058594"/>
      <use xlink:href="#DejaVuSans-20" x="978.158203"/>
      <use xlink:href="#DejaVuSans-5b" x="1009.945312"/>
      <use xlink:href="#DejaVuSans-25" x="1048.958984"/>
      <use xlink:href="#DejaVuSans-5d" x="1143.978516"/>
     </g>
    </g>
   </g>
   <g id="PolyCollection_1">
    <defs>
     <path id="m03fa6baa61" d="M 141.910781 -254.316567 
L 141.049219 -254.316567 
L 140.92586 -255.375648 
L 140.774841 -256.43473 
L 140.592125 -257.493811 
L 140.373601 -258.552892 
L 140.115193 -259.611974 
L 139.81299 -260.671055 
L 139.463365 -261.730137 
L 139.063114 -262.789218 
L 138.609572 -263.848299 
L 138.100735 -264.907381 
L 137.535356 -265.966462 
L 136.913033 -267.025543 
L 136.234278 -268.084625 
L 135.50057 -269.143706 
L 134.714391 -270.202787 
L 133.879245 -271.261869 
L 132.99966 -272.32095 
L 132.08117 -273.380032 
L 131.130258 -274.439113 
L 130.154277 -275.498194 
L 129.16132 -276.557276 
L 128.160046 -277.616357 
L 127.159446 -278.675438 
L 126.168574 -279.73452 
L 125.196224 -280.793601 
L 124.250596 -281.852683 
L 123.338957 -282.911764 
L 122.467339 -283.970845 
L 121.640308 -285.029927 
L 120.86082 -286.089008 
L 120.130214 -287.148089 
L 119.44834 -288.207171 
L 118.813829 -289.266252 
L 118.224498 -290.325333 
L 117.67785 -291.384415 
L 117.171621 -292.443496 
L 116.704338 -293.502578 
L 116.2758 -294.561659 
L 115.88745 -295.62074 
L 115.542569 -296.679822 
L 115.246277 -297.738903 
L 115.005309 -298.797984 
L 114.8276 -299.857066 
L 114.721688 -300.916147 
L 114.696 -301.975229 
L 114.75809 -303.03431 
L 114.913884 -304.093391 
L 115.167026 -305.152473 
L 115.51837 -306.211554 
L 115.965674 -307.270635 
L 116.503527 -308.329717 
L 117.123513 -309.388798 
L 117.814593 -310.447879 
L 118.563673 -311.506961 
L 119.356318 -312.566042 
L 120.177525 -313.625124 
L 121.012523 -314.684205 
L 121.847517 -315.743286 
L 122.670326 -316.802368 
L 123.470884 -317.861449 
L 124.241564 -318.92053 
L 124.977328 -319.979612 
L 125.675695 -321.038693 
L 126.33655 -322.097775 
L 126.961832 -323.156856 
L 127.555116 -324.215937 
L 128.121154 -325.275019 
L 128.665383 -326.3341 
L 129.193469 -327.393181 
L 129.710883 -328.452263 
L 130.222564 -329.511344 
L 130.73265 -330.570425 
L 131.244309 -331.629507 
L 131.75965 -332.688588 
L 132.279717 -333.74767 
L 132.804543 -334.806751 
L 133.33325 -335.865832 
L 133.864189 -336.924914 
L 134.395086 -337.983995 
L 134.9232 -339.043076 
L 135.445467 -340.102158 
L 135.958641 -341.161239 
L 136.459418 -342.220321 
L 136.944541 -343.279402 
L 137.410903 -344.338483 
L 137.855631 -345.397565 
L 138.276165 -346.456646 
L 138.670325 -347.515727 
L 139.036374 -348.574809 
L 139.373059 -349.63389 
L 139.679647 -350.692971 
L 139.955935 -351.752053 
L 140.202245 -352.811134 
L 140.419392 -353.870216 
L 140.608643 -354.929297 
L 140.771645 -355.988378 
L 140.910353 -357.04746 
L 141.026941 -358.106541 
L 141.123711 -359.165622 
L 141.836289 -359.165622 
L 141.836289 -359.165622 
L 141.933059 -358.106541 
L 142.049647 -357.04746 
L 142.188355 -355.988378 
L 142.351357 -354.929297 
L 142.540608 -353.870216 
L 142.757755 -352.811134 
L 143.004065 -351.752053 
L 143.280353 -350.692971 
L 143.586941 -349.63389 
L 143.923626 -348.574809 
L 144.289675 -347.515727 
L 144.683835 -346.456646 
L 145.104369 -345.397565 
L 145.549097 -344.338483 
L 146.015459 -343.279402 
L 146.500582 -342.220321 
L 147.001359 -341.161239 
L 147.514533 -340.102158 
L 148.0368 -339.043076 
L 148.564914 -337.983995 
L 149.095811 -336.924914 
L 149.62675 -335.865832 
L 150.155457 -334.806751 
L 150.680283 -333.74767 
L 151.20035 -332.688588 
L 151.715691 -331.629507 
L 152.22735 -330.570425 
L 152.737436 -329.511344 
L 153.249117 -328.452263 
L 153.766531 -327.393181 
L 154.294617 -326.3341 
L 154.838846 -325.275019 
L 155.404884 -324.215937 
L 155.998168 -323.156856 
L 156.62345 -322.097775 
L 157.284305 -321.038693 
L 157.982672 -319.979612 
L 158.718436 -318.92053 
L 159.489116 -317.861449 
L 160.289674 -316.802368 
L 161.112483 -315.743286 
L 161.947477 -314.684205 
L 162.782475 -313.625124 
L 163.603682 -312.566042 
L 164.396327 -311.506961 
L 165.145407 -310.447879 
L 165.836487 -309.388798 
L 166.456473 -308.329717 
L 166.994326 -307.270635 
L 167.44163 -306.211554 
L 167.792974 -305.152473 
L 168.046116 -304.093391 
L 168.20191 -303.03431 
L 168.264 -301.975229 
L 168.238312 -300.916147 
L 168.1324 -299.857066 
L 167.954691 -298.797984 
L 167.713723 -297.738903 
L 167.417431 -296.679822 
L 167.07255 -295.62074 
L 166.6842 -294.561659 
L 166.255662 -293.502578 
L 165.788379 -292.443496 
L 165.28215 -291.384415 
L 164.735502 -290.325333 
L 164.146171 -289.266252 
L 163.51166 -288.207171 
L 162.829786 -287.148089 
L 162.09918 -286.089008 
L 161.319692 -285.029927 
L 160.492661 -283.970845 
L 159.621043 -282.911764 
L 158.709404 -281.852683 
L 157.763776 -280.793601 
L 156.791426 -279.73452 
L 155.800554 -278.675438 
L 154.799954 -277.616357 
L 153.79868 -276.557276 
L 152.805723 -275.498194 
L 151.829742 -274.439113 
L 150.87883 -273.380032 
L 149.96034 -272.32095 
L 149.080755 -271.261869 
L 148.245609 -270.202787 
L 147.45943 -269.143706 
L 146.725722 -268.084625 
L 146.046967 -267.025543 
L 145.424644 -265.966462 
L 144.859265 -264.907381 
L 144.350428 -263.848299 
L 143.896886 -262.789218 
L 143.496635 -261.730137 
L 143.14701 -260.671055 
L 142.844807 -259.611974 
L 142.586399 -258.552892 
L 142.367875 -257.493811 
L 142.185159 -256.43473 
L 142.03414 -255.375648 
L 141.910781 -254.316567 
z
" style="stroke: #5f5f5f; stroke-width: 1.25"/>
    </defs>
    <g clip-path="url(#p95b26f36fa)">
     <use xlink:href="#m03fa6baa61" x="0" y="576" style="fill: #96cac1; stroke: #5f5f5f; stroke-width: 1.25"/>
    </g>
   </g>
   <g id="PolyCollection_2">
    <defs>
     <path id="mf2a008ab24" d="M 208.819544 -249.97585 
L 208.060456 -249.97585 
L 207.953151 -251.269071 
L 207.823148 -252.562291 
L 207.6678 -253.855512 
L 207.484649 -255.148733 
L 207.27153 -256.441953 
L 207.026664 -257.735174 
L 206.748717 -259.028395 
L 206.436835 -260.321615 
L 206.090634 -261.614836 
L 205.710142 -262.908057 
L 205.295713 -264.201277 
L 204.847899 -265.494498 
L 204.36731 -266.787719 
L 203.854482 -268.080939 
L 203.309762 -269.37416 
L 202.733234 -270.667381 
L 202.124716 -271.960601 
L 201.483818 -273.253822 
L 200.810082 -274.547043 
L 200.103179 -275.840263 
L 199.363163 -277.133484 
L 198.59074 -278.426705 
L 197.787534 -279.719925 
L 196.956302 -281.013146 
L 196.101075 -282.306367 
L 195.227187 -283.599587 
L 194.341193 -284.892808 
L 193.450653 -286.186028 
L 192.563802 -287.479249 
L 191.689137 -288.77247 
L 190.834944 -290.06569 
L 190.008825 -291.358911 
L 189.217269 -292.652132 
L 188.465306 -293.945352 
L 187.756299 -295.238573 
L 187.09188 -296.531794 
L 186.472051 -297.825014 
L 185.895439 -299.118235 
L 185.359675 -300.411456 
L 184.861854 -301.704676 
L 184.399031 -302.997897 
L 183.968704 -304.291118 
L 183.569214 -305.584338 
L 183.200053 -306.877559 
L 182.862011 -308.17078 
L 182.557195 -309.464 
L 182.288893 -310.757221 
L 182.061325 -312.050442 
L 181.879307 -313.343662 
L 181.747883 -314.636883 
L 181.67196 -315.930104 
L 181.656 -317.223324 
L 181.703796 -318.516545 
L 181.818347 -319.809766 
L 182.001849 -321.102986 
L 182.255771 -322.396207 
L 182.581002 -323.689428 
L 182.978011 -324.982648 
L 183.446997 -326.275869 
L 183.987968 -327.56909 
L 184.600726 -328.86231 
L 185.284736 -330.155531 
L 186.038887 -331.448752 
L 186.861174 -332.741972 
L 187.74833 -334.035193 
L 188.695481 -335.328413 
L 189.695881 -336.621634 
L 190.740779 -337.914855 
L 191.819474 -339.208075 
L 192.919573 -340.501296 
L 194.027441 -341.794517 
L 195.128821 -343.087737 
L 196.209565 -344.380958 
L 197.256395 -345.674179 
L 198.257624 -346.967399 
L 199.20375 -348.26062 
L 200.087873 -349.553841 
L 200.905891 -350.847061 
L 201.656458 -352.140282 
L 202.340729 -353.433503 
L 202.961933 -354.726723 
L 203.524819 -356.019944 
L 204.035055 -357.313165 
L 204.498642 -358.606385 
L 204.921396 -359.899606 
L 205.308544 -361.192827 
L 205.664461 -362.486047 
L 205.992548 -363.779268 
L 206.295235 -365.072489 
L 206.574102 -366.365709 
L 206.830061 -367.65893 
L 207.063577 -368.952151 
L 207.274898 -370.245371 
L 207.464251 -371.538592 
L 207.632005 -372.831813 
L 207.778776 -374.125033 
L 207.905476 -375.418254 
L 208.013318 -376.711475 
L 208.103778 -378.004695 
L 208.776222 -378.004695 
L 208.776222 -378.004695 
L 208.866682 -376.711475 
L 208.974524 -375.418254 
L 209.101224 -374.125033 
L 209.247995 -372.831813 
L 209.415749 -371.538592 
L 209.605102 -370.245371 
L 209.816423 -368.952151 
L 210.049939 -367.65893 
L 210.305898 -366.365709 
L 210.584765 -365.072489 
L 210.887452 -363.779268 
L 211.215539 -362.486047 
L 211.571456 -361.192827 
L 211.958604 -359.899606 
L 212.381358 -358.606385 
L 212.844945 -357.313165 
L 213.355181 -356.019944 
L 213.918067 -354.726723 
L 214.539271 -353.433503 
L 215.223542 -352.140282 
L 215.974109 -350.847061 
L 216.792127 -349.553841 
L 217.67625 -348.26062 
L 218.622376 -346.967399 
L 219.623605 -345.674179 
L 220.670435 -344.380958 
L 221.751179 -343.087737 
L 222.852559 -341.794517 
L 223.960427 -340.501296 
L 225.060526 -339.208075 
L 226.139221 -337.914855 
L 227.184119 -336.621634 
L 228.184519 -335.328413 
L 229.13167 -334.035193 
L 230.018826 -332.741972 
L 230.841113 -331.448752 
L 231.595264 -330.155531 
L 232.279274 -328.86231 
L 232.892032 -327.56909 
L 233.433003 -326.275869 
L 233.901989 -324.982648 
L 234.298998 -323.689428 
L 234.624229 -322.396207 
L 234.878151 -321.102986 
L 235.061653 -319.809766 
L 235.176204 -318.516545 
L 235.224 -317.223324 
L 235.20804 -315.930104 
L 235.132117 -314.636883 
L 235.000693 -313.343662 
L 234.818675 -312.050442 
L 234.591107 -310.757221 
L 234.322805 -309.464 
L 234.017989 -308.17078 
L 233.679947 -306.877559 
L 233.310786 -305.584338 
L 232.911296 -304.291118 
L 232.480969 -302.997897 
L 232.018146 -301.704676 
L 231.520325 -300.411456 
L 230.984561 -299.118235 
L 230.407949 -297.825014 
L 229.78812 -296.531794 
L 229.123701 -295.238573 
L 228.414694 -293.945352 
L 227.662731 -292.652132 
L 226.871175 -291.358911 
L 226.045056 -290.06569 
L 225.190863 -288.77247 
L 224.316198 -287.479249 
L 223.429347 -286.186028 
L 222.538807 -284.892808 
L 221.652813 -283.599587 
L 220.778925 -282.306367 
L 219.923698 -281.013146 
L 219.092466 -279.719925 
L 218.28926 -278.426705 
L 217.516837 -277.133484 
L 216.776821 -275.840263 
L 216.069918 -274.547043 
L 215.396182 -273.253822 
L 214.755284 -271.960601 
L 214.146766 -270.667381 
L 213.570238 -269.37416 
L 213.025518 -268.080939 
L 212.51269 -266.787719 
L 212.032101 -265.494498 
L 211.584287 -264.201277 
L 211.169858 -262.908057 
L 210.789366 -261.614836 
L 210.443165 -260.321615 
L 210.131283 -259.028395 
L 209.853336 -257.735174 
L 209.60847 -256.441953 
L 209.395351 -255.148733 
L 209.2122 -253.855512 
L 209.056852 -252.562291 
L 208.926849 -251.269071 
L 208.819544 -249.97585 
z
" style="stroke: #5f5f5f; stroke-width: 1.25"/>
    </defs>
    <g clip-path="url(#p95b26f36fa)">
     <use xlink:href="#mf2a008ab24" x="0" y="576" style="fill: #f6f6bc; stroke: #5f5f5f; stroke-width: 1.25"/>
    </g>
   </g>
   <g id="PolyCollection_3">
    <defs>
     <path id="m1c2597f712" d="M 276.185417 -249.230134 
L 274.614583 -249.230134 
L 274.399198 -250.422623 
L 274.138501 -251.615113 
L 273.826809 -252.807602 
L 273.458658 -254.000092 
L 273.029028 -255.192581 
L 272.533594 -256.385071 
L 271.968955 -257.57756 
L 271.332861 -258.77005 
L 270.624399 -259.962539 
L 269.84413 -261.155029 
L 268.994187 -262.347518 
L 268.078297 -263.540008 
L 267.101761 -264.732497 
L 266.071374 -265.924987 
L 264.995303 -267.117476 
L 263.882929 -268.309966 
L 262.744673 -269.502455 
L 261.591797 -270.694945 
L 260.436199 -271.887434 
L 259.290195 -273.079924 
L 258.166287 -274.272413 
L 257.076904 -275.464903 
L 256.034117 -276.657392 
L 255.049312 -277.849882 
L 254.132832 -279.042371 
L 253.293593 -280.234861 
L 252.538681 -281.42735 
L 251.87298 -282.61984 
L 251.298839 -283.812329 
L 250.815843 -285.004819 
L 250.420709 -286.197309 
L 250.107348 -287.389798 
L 249.86711 -288.582288 
L 249.689222 -289.774777 
L 249.561398 -290.967267 
L 249.470593 -292.159756 
L 249.403843 -293.352246 
L 249.349128 -294.544735 
L 249.296195 -295.737225 
L 249.23725 -296.929714 
L 249.167477 -298.122204 
L 249.085324 -299.314693 
L 248.992541 -300.507183 
L 248.893957 -301.699672 
L 248.79703 -302.892162 
L 248.711209 -304.084651 
L 248.647171 -305.277141 
L 248.616 -306.46963 
L 248.628387 -307.66212 
L 248.693908 -308.854609 
L 248.820447 -310.047099 
L 249.013788 -311.239588 
L 249.277403 -312.432078 
L 249.612433 -313.624567 
L 250.01784 -314.817057 
L 250.490696 -316.009546 
L 251.026567 -317.202036 
L 251.619951 -318.394525 
L 252.264701 -319.587015 
L 252.954428 -320.779504 
L 253.68282 -321.971994 
L 254.443877 -323.164483 
L 255.232045 -324.356973 
L 256.042262 -325.549462 
L 256.869922 -326.741952 
L 257.710787 -327.934441 
L 258.560866 -329.126931 
L 259.416293 -330.31942 
L 260.273223 -331.51191 
L 261.127764 -332.704399 
L 261.975962 -333.896889 
L 262.813827 -335.089378 
L 263.637409 -336.281868 
L 264.442903 -337.474358 
L 265.226768 -338.666847 
L 265.985842 -339.859337 
L 266.717437 -341.051826 
L 267.419406 -342.244316 
L 268.090157 -343.436805 
L 268.72864 -344.629295 
L 269.334284 -345.821784 
L 269.906913 -347.014274 
L 270.446649 -348.206763 
L 270.953804 -349.399253 
L 271.428793 -350.591742 
L 271.872067 -351.784232 
L 272.284071 -352.976721 
L 272.665232 -354.169211 
L 273.015976 -355.3617 
L 273.336761 -356.55419 
L 273.628127 -357.746679 
L 273.890747 -358.939169 
L 274.12547 -360.131658 
L 274.333353 -361.324148 
L 274.515677 -362.516637 
L 274.673943 -363.709127 
L 274.809849 -364.901616 
L 274.925248 -366.094106 
L 275.022105 -367.286595 
L 275.777895 -367.286595 
L 275.777895 -367.286595 
L 275.874752 -366.094106 
L 275.990151 -364.901616 
L 276.126057 -363.709127 
L 276.284323 -362.516637 
L 276.466647 -361.324148 
L 276.67453 -360.131658 
L 276.909253 -358.939169 
L 277.171873 -357.746679 
L 277.463239 -356.55419 
L 277.784024 -355.3617 
L 278.134768 -354.169211 
L 278.515929 -352.976721 
L 278.927933 -351.784232 
L 279.371207 -350.591742 
L 279.846196 -349.399253 
L 280.353351 -348.206763 
L 280.893087 -347.014274 
L 281.465716 -345.821784 
L 282.07136 -344.629295 
L 282.709843 -343.436805 
L 283.380594 -342.244316 
L 284.082563 -341.051826 
L 284.814158 -339.859337 
L 285.573232 -338.666847 
L 286.357097 -337.474358 
L 287.162591 -336.281868 
L 287.986173 -335.089378 
L 288.824038 -333.896889 
L 289.672236 -332.704399 
L 290.526777 -331.51191 
L 291.383707 -330.31942 
L 292.239134 -329.126931 
L 293.089213 -327.934441 
L 293.930078 -326.741952 
L 294.757738 -325.549462 
L 295.567955 -324.356973 
L 296.356123 -323.164483 
L 297.11718 -321.971994 
L 297.845572 -320.779504 
L 298.535299 -319.587015 
L 299.180049 -318.394525 
L 299.773433 -317.202036 
L 300.309304 -316.009546 
L 300.78216 -314.817057 
L 301.187567 -313.624567 
L 301.522597 -312.432078 
L 301.786212 -311.239588 
L 301.979553 -310.047099 
L 302.106092 -308.854609 
L 302.171613 -307.66212 
L 302.184 -306.46963 
L 302.152829 -305.277141 
L 302.088791 -304.084651 
L 302.00297 -302.892162 
L 301.906043 -301.699672 
L 301.807459 -300.507183 
L 301.714676 -299.314693 
L 301.632523 -298.122204 
L 301.56275 -296.929714 
L 301.503805 -295.737225 
L 301.450872 -294.544735 
L 301.396157 -293.352246 
L 301.329407 -292.159756 
L 301.238602 -290.967267 
L 301.110778 -289.774777 
L 300.93289 -288.582288 
L 300.692652 -287.389798 
L 300.379291 -286.197309 
L 299.984157 -285.004819 
L 299.501161 -283.812329 
L 298.92702 -282.61984 
L 298.261319 -281.42735 
L 297.506407 -280.234861 
L 296.667168 -279.042371 
L 295.750688 -277.849882 
L 294.765883 -276.657392 
L 293.723096 -275.464903 
L 292.633713 -274.272413 
L 291.509805 -273.079924 
L 290.363801 -271.887434 
L 289.208203 -270.694945 
L 288.055327 -269.502455 
L 286.917071 -268.309966 
L 285.804697 -267.117476 
L 284.728626 -265.924987 
L 283.698239 -264.732497 
L 282.721703 -263.540008 
L 281.805813 -262.347518 
L 280.95587 -261.155029 
L 280.175601 -259.962539 
L 279.467139 -258.77005 
L 278.831045 -257.57756 
L 278.266406 -256.385071 
L 277.770972 -255.192581 
L 277.341342 -254.000092 
L 276.973191 -252.807602 
L 276.661499 -251.615113 
L 276.400802 -250.422623 
L 276.185417 -249.230134 
z
" style="stroke: #5f5f5f; stroke-width: 1.25"/>
    </defs>
    <g clip-path="url(#p95b26f36fa)">
     <use xlink:href="#m1c2597f712" x="0" y="576" style="fill: #c1bed6; stroke: #5f5f5f; stroke-width: 1.25"/>
    </g>
   </g>
   <g id="PolyCollection_4">
    <defs>
     <path id="m972b6f24e7" d="M 342.600427 -221.09826 
L 342.119573 -221.09826 
L 342.04915 -222.464001 
L 341.965105 -223.829742 
L 341.867074 -225.195483 
L 341.755407 -226.561224 
L 341.631308 -227.926965 
L 341.49693 -229.292706 
L 341.355378 -230.658447 
L 341.210629 -232.024188 
L 341.06734 -233.38993 
L 340.930556 -234.755671 
L 340.80533 -236.121412 
L 340.696277 -237.487153 
L 340.607122 -238.852894 
L 340.540263 -240.218635 
L 340.496423 -241.584376 
L 340.474412 -242.950117 
L 340.471047 -244.315858 
L 340.481247 -245.681599 
L 340.498284 -247.04734 
L 340.514202 -248.413081 
L 340.520339 -249.778822 
L 340.507927 -251.144563 
L 340.468709 -252.510304 
L 340.395519 -253.876045 
L 340.282784 -255.241787 
L 340.126897 -256.607528 
L 339.926437 -257.973269 
L 339.682217 -259.33901 
L 339.397147 -260.704751 
L 339.07593 -262.070492 
L 338.724592 -263.436233 
L 338.349885 -264.801974 
L 337.958592 -266.167715 
L 337.556782 -267.533456 
L 337.149063 -268.899197 
L 336.737902 -270.264938 
L 336.323048 -271.630679 
L 335.901148 -272.99642 
L 335.465579 -274.362161 
L 335.006556 -275.727902 
L 334.511545 -277.093644 
L 333.965963 -278.459385 
L 333.354186 -279.825126 
L 332.660783 -281.190867 
L 331.871946 -282.556608 
L 330.976996 -283.922349 
L 329.969873 -285.28809 
L 328.85048 -286.653831 
L 327.625758 -288.019572 
L 326.310361 -289.385313 
L 324.926837 -290.751054 
L 323.505231 -292.116795 
L 322.082082 -293.482536 
L 320.698842 -294.848277 
L 319.399786 -296.214018 
L 318.229552 -297.579759 
L 317.230499 -298.945501 
L 316.440094 -300.311242 
L 315.888556 -301.676983 
L 315.596966 -303.042724 
L 315.576 -304.408465 
L 315.825408 -305.774206 
L 316.334252 -307.139947 
L 317.081872 -308.505688 
L 318.03945 -309.871429 
L 319.172026 -311.23717 
L 320.440758 -312.602911 
L 321.805233 -313.968652 
L 323.22566 -315.334393 
L 324.664782 -316.700134 
L 326.089423 -318.065875 
L 327.471606 -319.431616 
L 328.789222 -320.797358 
L 330.026279 -322.163099 
L 331.172771 -323.52884 
L 332.224215 -324.894581 
L 333.180937 -326.260322 
L 334.047173 -327.626063 
L 334.830064 -328.991804 
L 335.538609 -330.357545 
L 336.182658 -331.723286 
L 336.772006 -333.089027 
L 337.31564 -334.454768 
L 337.821181 -335.820509 
L 338.294544 -337.18625 
L 338.739815 -338.551991 
L 339.159326 -339.917732 
L 339.553902 -341.283473 
L 339.923212 -342.649215 
L 340.266194 -344.014956 
L 340.581475 -345.380697 
L 340.86776 -346.746438 
L 341.124139 -348.112179 
L 341.350302 -349.47792 
L 341.546644 -350.843661 
L 341.714277 -352.209402 
L 341.854962 -353.575143 
L 341.970977 -354.940884 
L 342.064961 -356.306625 
L 342.655039 -356.306625 
L 342.655039 -356.306625 
L 342.749023 -354.940884 
L 342.865038 -353.575143 
L 343.005723 -352.209402 
L 343.173356 -350.843661 
L 343.369698 -349.47792 
L 343.595861 -348.112179 
L 343.85224 -346.746438 
L 344.138525 -345.380697 
L 344.453806 -344.014956 
L 344.796788 -342.649215 
L 345.166098 -341.283473 
L 345.560674 -339.917732 
L 345.980185 -338.551991 
L 346.425456 -337.18625 
L 346.898819 -335.820509 
L 347.40436 -334.454768 
L 347.947994 -333.089027 
L 348.537342 -331.723286 
L 349.181391 -330.357545 
L 349.889936 -328.991804 
L 350.672827 -327.626063 
L 351.539063 -326.260322 
L 352.495785 -324.894581 
L 353.547229 -323.52884 
L 354.693721 -322.163099 
L 355.930778 -320.797358 
L 357.248394 -319.431616 
L 358.630577 -318.065875 
L 360.055218 -316.700134 
L 361.49434 -315.334393 
L 362.914767 -313.968652 
L 364.279242 -312.602911 
L 365.547974 -311.23717 
L 366.68055 -309.871429 
L 367.638128 -308.505688 
L 368.385748 -307.139947 
L 368.894592 -305.774206 
L 369.144 -304.408465 
L 369.123034 -303.042724 
L 368.831444 -301.676983 
L 368.279906 -300.311242 
L 367.489501 -298.945501 
L 366.490448 -297.579759 
L 365.320214 -296.214018 
L 364.021158 -294.848277 
L 362.637918 -293.482536 
L 361.214769 -292.116795 
L 359.793163 -290.751054 
L 358.409639 -289.385313 
L 357.094242 -288.019572 
L 355.86952 -286.653831 
L 354.750127 -285.28809 
L 353.743004 -283.922349 
L 352.848054 -282.556608 
L 352.059217 -281.190867 
L 351.365814 -279.825126 
L 350.754037 -278.459385 
L 350.208455 -277.093644 
L 349.713444 -275.727902 
L 349.254421 -274.362161 
L 348.818852 -272.99642 
L 348.396952 -271.630679 
L 347.982098 -270.264938 
L 347.570937 -268.899197 
L 347.163218 -267.533456 
L 346.761408 -266.167715 
L 346.370115 -264.801974 
L 345.995408 -263.436233 
L 345.64407 -262.070492 
L 345.322853 -260.704751 
L 345.037783 -259.33901 
L 344.793563 -257.973269 
L 344.593103 -256.607528 
L 344.437216 -255.241787 
L 344.324481 -253.876045 
L 344.251291 -252.510304 
L 344.212073 -251.144563 
L 344.199661 -249.778822 
L 344.205798 -248.413081 
L 344.221716 -247.04734 
L 344.238753 -245.681599 
L 344.248953 -244.315858 
L 344.245588 -242.950117 
L 344.223577 -241.584376 
L 344.179737 -240.218635 
L 344.112878 -238.852894 
L 344.023723 -237.487153 
L 343.91467 -236.121412 
L 343.789444 -234.755671 
L 343.65266 -233.38993 
L 343.509371 -232.024188 
L 343.364622 -230.658447 
L 343.22307 -229.292706 
L 343.088692 -227.926965 
L 342.964593 -226.561224 
L 342.852926 -225.195483 
L 342.754895 -223.829742 
L 342.67085 -222.464001 
L 342.600427 -221.09826 
z
" style="stroke: #5f5f5f; stroke-width: 1.25"/>
    </defs>
    <g clip-path="url(#p95b26f36fa)">
     <use xlink:href="#m972b6f24e7" x="0" y="576" style="fill: #ea8e83; stroke: #5f5f5f; stroke-width: 1.25"/>
    </g>
   </g>
   <g id="PolyCollection_5">
    <defs>
     <path id="m3ca443f77d" d="M 409.685644 -183.498736 
L 408.954356 -183.498736 
L 408.858707 -185.620657 
L 408.744274 -187.742579 
L 408.608992 -189.864501 
L 408.450917 -191.986422 
L 408.268293 -194.108344 
L 408.059614 -196.230266 
L 407.823676 -198.352187 
L 407.559619 -200.474109 
L 407.266943 -202.596031 
L 406.945517 -204.717952 
L 406.595573 -206.839874 
L 406.217685 -208.961795 
L 405.812741 -211.083717 
L 405.38192 -213.205639 
L 404.926669 -215.32756 
L 404.44868 -217.449482 
L 403.949881 -219.571404 
L 403.432425 -221.693325 
L 402.898676 -223.815247 
L 402.351186 -225.937169 
L 401.79265 -228.05909 
L 401.225838 -230.181012 
L 400.653495 -232.302934 
L 400.078207 -234.424855 
L 399.502244 -236.546777 
L 398.927389 -238.668698 
L 398.354764 -240.79062 
L 397.784691 -242.912542 
L 397.216581 -245.034463 
L 396.648908 -247.156385 
L 396.07925 -249.278307 
L 395.504435 -251.400228 
L 394.920773 -253.52215 
L 394.324375 -255.644072 
L 393.711535 -257.765993 
L 393.079149 -259.887915 
L 392.425132 -262.009837 
L 391.748798 -264.131758 
L 391.051163 -266.25368 
L 390.335142 -268.375601 
L 389.605606 -270.497523 
L 388.869299 -272.619445 
L 388.134591 -274.741366 
L 387.411107 -276.863288 
L 386.70923 -278.98521 
L 386.039535 -281.107131 
L 385.412178 -283.229053 
L 384.836314 -285.350975 
L 384.319561 -287.472896 
L 383.867589 -289.594818 
L 383.483841 -291.71674 
L 383.169425 -293.838661 
L 382.923193 -295.960583 
L 382.741986 -298.082504 
L 382.621034 -300.204426 
L 382.554485 -302.326348 
L 382.536 -304.448269 
L 382.559382 -306.570191 
L 382.619176 -308.692113 
L 382.711194 -310.814034 
L 382.832919 -312.935956 
L 382.983762 -315.057878 
L 383.165147 -317.179799 
L 383.380424 -319.301721 
L 383.63462 -321.423643 
L 383.934045 -323.545564 
L 384.285798 -325.667486 
L 384.697197 -327.789407 
L 385.175187 -329.911329 
L 385.725772 -332.033251 
L 386.353489 -334.155172 
L 387.060981 -336.277094 
L 387.848678 -338.399016 
L 388.714604 -340.520937 
L 389.654322 -342.642859 
L 390.661003 -344.764781 
L 391.725627 -346.886702 
L 392.83728 -349.008624 
L 393.983539 -351.130545 
L 395.150929 -353.252467 
L 396.325399 -355.374389 
L 397.492827 -357.49631 
L 398.639502 -359.618232 
L 399.752568 -361.740154 
L 400.820425 -363.862075 
L 401.833041 -365.983997 
L 402.782196 -368.105919 
L 403.661627 -370.22784 
L 404.467086 -372.349762 
L 405.196309 -374.471684 
L 405.848906 -376.593605 
L 406.426186 -378.715527 
L 406.93093 -380.837448 
L 407.367126 -382.95937 
L 407.739689 -385.081292 
L 408.054175 -387.203213 
L 408.31652 -389.325135 
L 408.532786 -391.447057 
L 408.708955 -393.568978 
L 409.931045 -393.568978 
L 409.931045 -393.568978 
L 410.107214 -391.447057 
L 410.32348 -389.325135 
L 410.585825 -387.203213 
L 410.900311 -385.081292 
L 411.272874 -382.95937 
L 411.70907 -380.837448 
L 412.213814 -378.715527 
L 412.791094 -376.593605 
L 413.443691 -374.471684 
L 414.172914 -372.349762 
L 414.978373 -370.22784 
L 415.857804 -368.105919 
L 416.806959 -365.983997 
L 417.819575 -363.862075 
L 418.887432 -361.740154 
L 420.000498 -359.618232 
L 421.147173 -357.49631 
L 422.314601 -355.374389 
L 423.489071 -353.252467 
L 424.656461 -351.130545 
L 425.80272 -349.008624 
L 426.914373 -346.886702 
L 427.978997 -344.764781 
L 428.985678 -342.642859 
L 429.925396 -340.520937 
L 430.791322 -338.399016 
L 431.579019 -336.277094 
L 432.286511 -334.155172 
L 432.914228 -332.033251 
L 433.464813 -329.911329 
L 433.942803 -327.789407 
L 434.354202 -325.667486 
L 434.705955 -323.545564 
L 435.00538 -321.423643 
L 435.259576 -319.301721 
L 435.474853 -317.179799 
L 435.656238 -315.057878 
L 435.807081 -312.935956 
L 435.928806 -310.814034 
L 436.020824 -308.692113 
L 436.080618 -306.570191 
L 436.104 -304.448269 
L 436.085515 -302.326348 
L 436.018966 -300.204426 
L 435.898014 -298.082504 
L 435.716807 -295.960583 
L 435.470575 -293.838661 
L 435.156159 -291.71674 
L 434.772411 -289.594818 
L 434.320439 -287.472896 
L 433.803686 -285.350975 
L 433.227822 -283.229053 
L 432.600465 -281.107131 
L 431.93077 -278.98521 
L 431.228893 -276.863288 
L 430.505409 -274.741366 
L 429.770701 -272.619445 
L 429.034394 -270.497523 
L 428.304858 -268.375601 
L 427.588837 -266.25368 
L 426.891202 -264.131758 
L 426.214868 -262.009837 
L 425.560851 -259.887915 
L 424.928465 -257.765993 
L 424.315625 -255.644072 
L 423.719227 -253.52215 
L 423.135565 -251.400228 
L 422.56075 -249.278307 
L 421.991092 -247.156385 
L 421.423419 -245.034463 
L 420.855309 -242.912542 
L 420.285236 -240.79062 
L 419.712611 -238.668698 
L 419.137756 -236.546777 
L 418.561793 -234.424855 
L 417.986505 -232.302934 
L 417.414162 -230.181012 
L 416.84735 -228.05909 
L 416.288814 -225.937169 
L 415.741324 -223.815247 
L 415.207575 -221.693325 
L 414.690119 -219.571404 
L 414.19132 -217.449482 
L 413.713331 -215.32756 
L 413.25808 -213.205639 
L 412.827259 -211.083717 
L 412.422315 -208.961795 
L 412.044427 -206.839874 
L 411.694483 -204.717952 
L 411.373057 -202.596031 
L 411.080381 -200.474109 
L 410.816324 -198.352187 
L 410.580386 -196.230266 
L 410.371707 -194.108344 
L 410.189083 -191.986422 
L 410.031008 -189.864501 
L 409.895726 -187.742579 
L 409.781293 -185.620657 
L 409.685644 -183.498736 
z
" style="stroke: #5f5f5f; stroke-width: 1.25"/>
    </defs>
    <g clip-path="url(#p95b26f36fa)">
     <use xlink:href="#m3ca443f77d" x="0" y="576" style="fill: #8aafc9; stroke: #5f5f5f; stroke-width: 1.25"/>
    </g>
   </g>
   <g id="PolyCollection_6">
    <defs>
     <path id="mc9aeb69a13" d="M 476.719204 -249.556959 
L 475.840796 -249.556959 
L 475.718421 -250.702828 
L 475.570742 -251.848698 
L 475.3951 -252.994567 
L 475.189227 -254.140436 
L 474.951426 -255.286305 
L 474.680744 -256.432174 
L 474.377127 -257.578044 
L 474.041523 -258.723913 
L 473.67594 -259.869782 
L 473.283428 -261.015651 
L 472.86797 -262.16152 
L 472.434306 -263.30739 
L 471.987661 -264.453259 
L 471.533413 -265.599128 
L 471.076717 -266.744997 
L 470.622109 -267.890866 
L 470.173122 -269.036736 
L 469.731954 -270.182605 
L 469.299219 -271.328474 
L 468.8738 -272.474343 
L 468.452835 -273.620212 
L 468.031831 -274.766082 
L 467.604922 -275.911951 
L 467.165229 -277.05782 
L 466.705321 -278.203689 
L 466.217727 -279.349558 
L 465.695472 -280.495428 
L 465.132582 -281.641297 
L 464.524535 -282.787166 
L 463.868622 -283.933035 
L 463.164187 -285.078904 
L 462.412747 -286.224774 
L 461.617981 -287.370643 
L 460.785597 -288.516512 
L 459.923101 -289.662381 
L 459.039472 -290.80825 
L 458.144792 -291.95412 
L 457.249834 -293.099989 
L 456.365651 -294.245858 
L 455.503169 -295.391727 
L 454.672821 -296.537596 
L 453.884224 -297.683465 
L 453.145917 -298.829335 
L 452.465171 -299.975204 
L 451.847878 -301.121073 
L 451.298518 -302.266942 
L 450.820218 -303.412811 
L 450.414895 -304.558681 
L 450.083463 -305.70455 
L 449.826113 -306.850419 
L 449.642615 -307.996288 
L 449.532631 -309.142157 
L 449.496 -310.288027 
L 449.532952 -311.433896 
L 449.644228 -312.579765 
L 449.83108 -313.725634 
L 450.095136 -314.871503 
L 450.438138 -316.017373 
L 450.861573 -317.163242 
L 451.366237 -318.309111 
L 451.95178 -319.45498 
L 452.61629 -320.600849 
L 453.355969 -321.746719 
L 454.164955 -322.892588 
L 455.035318 -324.038457 
L 455.957246 -325.184326 
L 456.919411 -326.330195 
L 457.909487 -327.476065 
L 458.914761 -328.621934 
L 459.922789 -329.767803 
L 460.922032 -330.913672 
L 461.90239 -332.059541 
L 462.855613 -333.205411 
L 463.775533 -334.35128 
L 464.658118 -335.497149 
L 465.501344 -336.643018 
L 466.304921 -337.788887 
L 467.069907 -338.934757 
L 467.798257 -340.080626 
L 468.492368 -341.226495 
L 469.154649 -342.372364 
L 469.787177 -343.518233 
L 470.391446 -344.664103 
L 470.968231 -345.809972 
L 471.517567 -346.955841 
L 472.038824 -348.10171 
L 472.530861 -349.247579 
L 472.992234 -350.393448 
L 473.421424 -351.539318 
L 473.817055 -352.685187 
L 474.178095 -353.831056 
L 474.503999 -354.976925 
L 474.794807 -356.122794 
L 475.051181 -357.268664 
L 475.274386 -358.414533 
L 475.466234 -359.560402 
L 475.628981 -360.706271 
L 475.765216 -361.85214 
L 475.877732 -362.99801 
L 476.682268 -362.99801 
L 476.682268 -362.99801 
L 476.794784 -361.85214 
L 476.931019 -360.706271 
L 477.093766 -359.560402 
L 477.285614 -358.414533 
L 477.508819 -357.268664 
L 477.765193 -356.122794 
L 478.056001 -354.976925 
L 478.381905 -353.831056 
L 478.742945 -352.685187 
L 479.138576 -351.539318 
L 479.567766 -350.393448 
L 480.029139 -349.247579 
L 480.521176 -348.10171 
L 481.042433 -346.955841 
L 481.591769 -345.809972 
L 482.168554 -344.664103 
L 482.772823 -343.518233 
L 483.405351 -342.372364 
L 484.067632 -341.226495 
L 484.761743 -340.080626 
L 485.490093 -338.934757 
L 486.255079 -337.788887 
L 487.058656 -336.643018 
L 487.901882 -335.497149 
L 488.784467 -334.35128 
L 489.704387 -333.205411 
L 490.65761 -332.059541 
L 491.637968 -330.913672 
L 492.637211 -329.767803 
L 493.645239 -328.621934 
L 494.650513 -327.476065 
L 495.640589 -326.330195 
L 496.602754 -325.184326 
L 497.524682 -324.038457 
L 498.395045 -322.892588 
L 499.204031 -321.746719 
L 499.94371 -320.600849 
L 500.60822 -319.45498 
L 501.193763 -318.309111 
L 501.698427 -317.163242 
L 502.121862 -316.017373 
L 502.464864 -314.871503 
L 502.72892 -313.725634 
L 502.915772 -312.579765 
L 503.027048 -311.433896 
L 503.064 -310.288027 
L 503.027369 -309.142157 
L 502.917385 -307.996288 
L 502.733887 -306.850419 
L 502.476537 -305.70455 
L 502.145105 -304.558681 
L 501.739782 -303.412811 
L 501.261482 -302.266942 
L 500.712122 -301.121073 
L 500.094829 -299.975204 
L 499.414083 -298.829335 
L 498.675776 -297.683465 
L 497.887179 -296.537596 
L 497.056831 -295.391727 
L 496.194349 -294.245858 
L 495.310166 -293.099989 
L 494.415208 -291.95412 
L 493.520528 -290.80825 
L 492.636899 -289.662381 
L 491.774403 -288.516512 
L 490.942019 -287.370643 
L 490.147253 -286.224774 
L 489.395813 -285.078904 
L 488.691378 -283.933035 
L 488.035465 -282.787166 
L 487.427418 -281.641297 
L 486.864528 -280.495428 
L 486.342273 -279.349558 
L 485.854679 -278.203689 
L 485.394771 -277.05782 
L 484.955078 -275.911951 
L 484.528169 -274.766082 
L 484.107165 -273.620212 
L 483.6862 -272.474343 
L 483.260781 -271.328474 
L 482.828046 -270.182605 
L 482.386878 -269.036736 
L 481.937891 -267.890866 
L 481.483283 -266.744997 
L 481.026587 -265.599128 
L 480.572339 -264.453259 
L 480.125694 -263.30739 
L 479.69203 -262.16152 
L 479.276572 -261.015651 
L 478.88406 -259.869782 
L 478.518477 -258.723913 
L 478.182873 -257.578044 
L 477.879256 -256.432174 
L 477.608574 -255.286305 
L 477.370773 -254.140436 
L 477.1649 -252.994567 
L 476.989258 -251.848698 
L 476.841579 -250.702828 
L 476.719204 -249.556959 
z
" style="stroke: #5f5f5f; stroke-width: 1.25"/>
    </defs>
    <g clip-path="url(#p95b26f36fa)">
     <use xlink:href="#mc9aeb69a13" x="0" y="576" style="fill: #eab375; stroke: #5f5f5f; stroke-width: 1.25"/>
    </g>
   </g>
   <g id="PolyCollection_7">
    <defs>
     <path id="ma78ffcf9f9" d="M 543.527481 -253.41168 
L 542.952519 -253.41168 
L 542.875469 -254.297467 
L 542.783886 -255.183255 
L 542.676747 -256.069042 
L 542.553379 -256.95483 
L 542.413538 -257.840617 
L 542.257467 -258.726404 
L 542.085918 -259.612192 
L 541.900135 -260.497979 
L 541.701791 -261.383767 
L 541.492886 -262.269554 
L 541.2756 -263.155342 
L 541.052131 -264.041129 
L 540.824515 -264.926917 
L 540.594459 -265.812704 
L 540.363192 -266.698491 
L 540.131367 -267.584279 
L 539.899004 -268.470066 
L 539.665492 -269.355854 
L 539.429636 -270.241641 
L 539.189754 -271.127429 
L 538.943787 -272.013216 
L 538.689428 -272.899004 
L 538.424238 -273.784791 
L 538.145751 -274.670579 
L 537.851549 -275.556366 
L 537.539316 -276.442153 
L 537.20688 -277.327941 
L 536.852246 -278.213728 
L 536.473635 -279.099516 
L 536.069535 -279.985303 
L 535.638768 -280.871091 
L 535.180563 -281.756878 
L 534.694621 -282.642666 
L 534.181159 -283.528453 
L 533.640907 -284.41424 
L 533.075047 -285.300028 
L 532.485077 -286.185815 
L 531.872627 -287.071603 
L 531.239217 -287.95739 
L 530.586024 -288.843178 
L 529.913669 -289.728965 
L 529.222095 -290.614753 
L 528.510567 -291.50054 
L 527.777818 -292.386327 
L 527.022365 -293.272115 
L 526.242962 -294.157902 
L 525.439174 -295.04369 
L 524.611993 -295.929477 
L 523.76445 -296.815265 
L 522.902118 -297.701052 
L 522.033465 -298.58684 
L 521.169976 -299.472627 
L 520.326028 -300.358414 
L 519.518491 -301.244202 
L 518.766088 -302.129989 
L 518.088544 -303.015777 
L 517.505595 -303.901564 
L 517.035918 -304.787352 
L 516.69608 -305.673139 
L 516.499571 -306.558927 
L 516.456 -307.444714 
L 516.570509 -308.330502 
L 516.843449 -309.216289 
L 517.270347 -310.102076 
L 517.842149 -310.987864 
L 518.545746 -311.873651 
L 519.36472 -312.759439 
L 520.280277 -313.645226 
L 521.272283 -314.531014 
L 522.32033 -315.416801 
L 523.404756 -316.302589 
L 524.50754 -317.188376 
L 525.612998 -318.074163 
L 526.708259 -318.959951 
L 527.78346 -319.845738 
L 528.831697 -320.731526 
L 529.848737 -321.617313 
L 530.832543 -322.503101 
L 531.782682 -323.388888 
L 532.69968 -324.274676 
L 533.584414 -325.160463 
L 534.437574 -326.04625 
L 535.259274 -326.932038 
L 536.048825 -327.817825 
L 536.804672 -328.703613 
L 537.524492 -329.5894 
L 538.205414 -330.475188 
L 538.844322 -331.360975 
L 539.438192 -332.246763 
L 539.984423 -333.13255 
L 540.481114 -334.018337 
L 540.927272 -334.904125 
L 541.322926 -335.789912 
L 541.66915 -336.6757 
L 541.967995 -337.561487 
L 542.222362 -338.447275 
L 542.435816 -339.333062 
L 542.612384 -340.21885 
L 542.756342 -341.104637 
L 543.723658 -341.104637 
L 543.723658 -341.104637 
L 543.867616 -340.21885 
L 544.044184 -339.333062 
L 544.257638 -338.447275 
L 544.512005 -337.561487 
L 544.81085 -336.6757 
L 545.157074 -335.789912 
L 545.552728 -334.904125 
L 545.998886 -334.018337 
L 546.495577 -333.13255 
L 547.041808 -332.246763 
L 547.635678 -331.360975 
L 548.274586 -330.475188 
L 548.955508 -329.5894 
L 549.675328 -328.703613 
L 550.431175 -327.817825 
L 551.220726 -326.932038 
L 552.042426 -326.04625 
L 552.895586 -325.160463 
L 553.78032 -324.274676 
L 554.697318 -323.388888 
L 555.647457 -322.503101 
L 556.631263 -321.617313 
L 557.648303 -320.731526 
L 558.69654 -319.845738 
L 559.771741 -318.959951 
L 560.867002 -318.074163 
L 561.97246 -317.188376 
L 563.075244 -316.302589 
L 564.15967 -315.416801 
L 565.207717 -314.531014 
L 566.199723 -313.645226 
L 567.11528 -312.759439 
L 567.934254 -311.873651 
L 568.637851 -310.987864 
L 569.209653 -310.102076 
L 569.636551 -309.216289 
L 569.909491 -308.330502 
L 570.024 -307.444714 
L 569.980429 -306.558927 
L 569.78392 -305.673139 
L 569.444082 -304.787352 
L 568.974405 -303.901564 
L 568.391456 -303.015777 
L 567.713912 -302.129989 
L 566.961509 -301.244202 
L 566.153972 -300.358414 
L 565.310024 -299.472627 
L 564.446535 -298.58684 
L 563.577882 -297.701052 
L 562.71555 -296.815265 
L 561.868007 -295.929477 
L 561.040826 -295.04369 
L 560.237038 -294.157902 
L 559.457635 -293.272115 
L 558.702182 -292.386327 
L 557.969433 -291.50054 
L 557.257905 -290.614753 
L 556.566331 -289.728965 
L 555.893976 -288.843178 
L 555.240783 -287.95739 
L 554.607373 -287.071603 
L 553.994923 -286.185815 
L 553.404953 -285.300028 
L 552.839093 -284.41424 
L 552.298841 -283.528453 
L 551.785379 -282.642666 
L 551.299437 -281.756878 
L 550.841232 -280.871091 
L 550.410465 -279.985303 
L 550.006365 -279.099516 
L 549.627754 -278.213728 
L 549.27312 -277.327941 
L 548.940684 -276.442153 
L 548.628451 -275.556366 
L 548.334249 -274.670579 
L 548.055762 -273.784791 
L 547.790572 -272.899004 
L 547.536213 -272.013216 
L 547.290246 -271.127429 
L 547.050364 -270.241641 
L 546.814508 -269.355854 
L 546.580996 -268.470066 
L 546.348633 -267.584279 
L 546.116808 -266.698491 
L 545.885541 -265.812704 
L 545.655485 -264.926917 
L 545.427869 -264.041129 
L 545.2044 -263.155342 
L 544.987114 -262.269554 
L 544.778209 -261.383767 
L 544.579865 -260.497979 
L 544.394082 -259.612192 
L 544.222533 -258.726404 
L 544.066462 -257.840617 
L 543.926621 -256.95483 
L 543.803253 -256.069042 
L 543.696114 -255.183255 
L 543.604531 -254.297467 
L 543.527481 -253.41168 
z
" style="stroke: #5f5f5f; stroke-width: 1.25"/>
    </defs>
    <g clip-path="url(#p95b26f36fa)">
     <use xlink:href="#ma78ffcf9f9" x="0" y="576" style="fill: #afcf78; stroke: #5f5f5f; stroke-width: 1.25"/>
    </g>
   </g>
   <g id="PolyCollection_8">
    <defs>
     <path id="m785dec2bf7" d="M 610.488987 -249.915408 
L 609.911013 -249.915408 
L 609.830674 -250.896519 
L 609.735195 -251.87763 
L 609.623881 -252.858741 
L 609.496606 -253.839852 
L 609.353919 -254.820963 
L 609.197112 -255.802074 
L 609.028211 -256.783185 
L 608.84991 -257.764296 
L 608.665409 -258.745407 
L 608.478182 -259.726518 
L 608.291677 -260.707629 
L 608.108978 -261.68874 
L 607.932462 -262.669851 
L 607.763483 -263.650962 
L 607.602143 -264.632073 
L 607.447159 -265.613184 
L 607.295867 -266.594295 
L 607.144374 -267.575406 
L 606.98784 -268.556517 
L 606.820868 -269.537628 
L 606.637963 -270.518739 
L 606.434002 -271.49985 
L 606.204645 -272.480961 
L 605.946654 -273.462072 
L 605.658048 -274.443183 
L 605.338072 -275.424294 
L 604.986988 -276.405406 
L 604.605679 -277.386517 
L 604.195135 -278.367628 
L 603.755872 -279.348739 
L 603.287371 -280.32985 
L 602.78762 -281.310961 
L 602.252855 -282.292072 
L 601.677553 -283.273183 
L 601.054725 -284.254294 
L 600.37652 -285.235405 
L 599.635106 -286.216516 
L 598.823747 -287.197627 
L 597.937972 -288.178738 
L 596.976698 -289.159849 
L 595.943158 -290.14096 
L 594.845505 -291.122071 
L 593.696971 -292.103182 
L 592.515537 -293.084293 
L 591.323095 -294.065404 
L 590.144182 -295.046515 
L 589.004405 -296.027626 
L 587.928719 -297.008737 
L 586.939776 -297.989848 
L 586.056506 -298.970959 
L 585.293121 -299.95207 
L 584.658625 -300.933181 
L 584.156875 -301.914292 
L 583.787148 -302.895403 
L 583.54511 -303.876514 
L 583.424022 -304.857625 
L 583.416 -305.838736 
L 583.513161 -306.819847 
L 583.708501 -307.800958 
L 583.996409 -308.782069 
L 584.372805 -309.76318 
L 584.834901 -310.744291 
L 585.38071 -311.725402 
L 586.008373 -312.706513 
L 586.715475 -313.687624 
L 587.498427 -314.668735 
L 588.352042 -315.649846 
L 589.269327 -316.630957 
L 590.241526 -317.612068 
L 591.258375 -318.59318 
L 592.308529 -319.574291 
L 593.380085 -320.555402 
L 594.461135 -321.536513 
L 595.540289 -322.517624 
L 596.607098 -323.498735 
L 597.652378 -324.479846 
L 598.66839 -325.460957 
L 599.648898 -326.442068 
L 600.589117 -327.423179 
L 601.485576 -328.40429 
L 602.335921 -329.385401 
L 603.138697 -330.366512 
L 603.893127 -331.347623 
L 604.598914 -332.328734 
L 605.256086 -333.309845 
L 605.864888 -334.290956 
L 606.425718 -335.272067 
L 606.939116 -336.253178 
L 607.405794 -337.234289 
L 607.826676 -338.2154 
L 608.202959 -339.196511 
L 608.536168 -340.177622 
L 608.828186 -341.158733 
L 609.081269 -342.139844 
L 609.298023 -343.120955 
L 609.481357 -344.102066 
L 609.634411 -345.083177 
L 609.760462 -346.064288 
L 609.862828 -347.045399 
L 610.537172 -347.045399 
L 610.537172 -347.045399 
L 610.639538 -346.064288 
L 610.765589 -345.083177 
L 610.918643 -344.102066 
L 611.101977 -343.120955 
L 611.318731 -342.139844 
L 611.571814 -341.158733 
L 611.863832 -340.177622 
L 612.197041 -339.196511 
L 612.573324 -338.2154 
L 612.994206 -337.234289 
L 613.460884 -336.253178 
L 613.974282 -335.272067 
L 614.535112 -334.290956 
L 615.143914 -333.309845 
L 615.801086 -332.328734 
L 616.506873 -331.347623 
L 617.261303 -330.366512 
L 618.064079 -329.385401 
L 618.914424 -328.40429 
L 619.810883 -327.423179 
L 620.751102 -326.442068 
L 621.73161 -325.460957 
L 622.747622 -324.479846 
L 623.792902 -323.498735 
L 624.859711 -322.517624 
L 625.938865 -321.536513 
L 627.019915 -320.555402 
L 628.091471 -319.574291 
L 629.141625 -318.59318 
L 630.158474 -317.612068 
L 631.130673 -316.630957 
L 632.047958 -315.649846 
L 632.901573 -314.668735 
L 633.684525 -313.687624 
L 634.391627 -312.706513 
L 635.01929 -311.725402 
L 635.565099 -310.744291 
L 636.027195 -309.76318 
L 636.403591 -308.782069 
L 636.691499 -307.800958 
L 636.886839 -306.819847 
L 636.984 -305.838736 
L 636.975978 -304.857625 
L 636.85489 -303.876514 
L 636.612852 -302.895403 
L 636.243125 -301.914292 
L 635.741375 -300.933181 
L 635.106879 -299.95207 
L 634.343494 -298.970959 
L 633.460224 -297.989848 
L 632.471281 -297.008737 
L 631.395595 -296.027626 
L 630.255818 -295.046515 
L 629.076905 -294.065404 
L 627.884463 -293.084293 
L 626.703029 -292.103182 
L 625.554495 -291.122071 
L 624.456842 -290.14096 
L 623.423302 -289.159849 
L 622.462028 -288.178738 
L 621.576253 -287.197627 
L 620.764894 -286.216516 
L 620.02348 -285.235405 
L 619.345275 -284.254294 
L 618.722447 -283.273183 
L 618.147145 -282.292072 
L 617.61238 -281.310961 
L 617.112629 -280.32985 
L 616.644128 -279.348739 
L 616.204865 -278.367628 
L 615.794321 -277.386517 
L 615.413012 -276.405406 
L 615.061928 -275.424294 
L 614.741952 -274.443183 
L 614.453346 -273.462072 
L 614.195355 -272.480961 
L 613.965998 -271.49985 
L 613.762037 -270.518739 
L 613.579132 -269.537628 
L 613.41216 -268.556517 
L 613.255626 -267.575406 
L 613.104133 -266.594295 
L 612.952841 -265.613184 
L 612.797857 -264.632073 
L 612.636517 -263.650962 
L 612.467538 -262.669851 
L 612.291022 -261.68874 
L 612.108323 -260.707629 
L 611.921818 -259.726518 
L 611.734591 -258.745407 
L 611.55009 -257.764296 
L 611.371789 -256.783185 
L 611.202888 -255.802074 
L 611.046081 -254.820963 
L 610.903394 -253.839852 
L 610.776119 -252.858741 
L 610.664805 -251.87763 
L 610.569326 -250.896519 
L 610.488987 -249.915408 
z
" style="stroke: #5f5f5f; stroke-width: 1.25"/>
    </defs>
    <g clip-path="url(#p95b26f36fa)">
     <use xlink:href="#m785dec2bf7" x="0" y="576" style="fill: #f6d3e5; stroke: #5f5f5f; stroke-width: 1.25"/>
    </g>
   </g>
   <g id="PolyCollection_9">
    <defs>
     <path id="mc1dca99388" d="M 677.63943 -83.52 
L 676.68057 -83.52 
L 676.55175 -87.592727 
L 676.395207 -91.665455 
L 676.20684 -95.738182 
L 675.982383 -99.810909 
L 675.717516 -103.883636 
L 675.407978 -107.956364 
L 675.049722 -112.029091 
L 674.639078 -116.101818 
L 674.172936 -120.174545 
L 673.648932 -124.247273 
L 673.065648 -128.32 
L 672.422782 -132.392727 
L 671.721317 -136.465455 
L 670.96364 -140.538182 
L 670.153618 -144.610909 
L 669.296609 -148.683636 
L 668.399405 -152.756364 
L 667.470087 -156.829091 
L 666.517797 -160.901818 
L 665.552435 -164.974545 
L 664.584284 -169.047273 
L 663.623578 -173.12 
L 662.68005 -177.192727 
L 661.762484 -181.265455 
L 660.878301 -185.338182 
L 660.033226 -189.410909 
L 659.23105 -193.483636 
L 658.473536 -197.556364 
L 657.760461 -201.629091 
L 657.089818 -205.701818 
L 656.458158 -209.774545 
L 655.861052 -213.847273 
L 655.293643 -217.92 
L 654.751243 -221.992727 
L 654.229912 -226.065455 
L 653.726992 -230.138182 
L 653.24153 -234.210909 
L 652.774547 -238.283636 
L 652.329147 -242.356364 
L 651.910419 -246.429091 
L 651.525165 -250.501818 
L 651.181448 -254.574545 
L 650.888001 -258.647273 
L 650.653544 -262.72 
L 650.486059 -266.792727 
L 650.392069 -270.865455 
L 650.376 -274.938182 
L 650.439659 -279.010909 
L 650.581876 -283.083636 
L 650.798353 -287.156364 
L 651.081719 -291.229091 
L 651.421808 -295.301818 
L 651.806142 -299.374545 
L 652.220585 -303.447273 
L 652.650133 -307.52 
L 653.079791 -311.592727 
L 653.495464 -315.665455 
L 653.88483 -319.738182 
L 654.238108 -323.810909 
L 654.548689 -327.883636 
L 654.813584 -331.956364 
L 655.033652 -336.029091 
L 655.213599 -340.101818 
L 655.361745 -344.174545 
L 655.489571 -348.247273 
L 655.611078 -352.32 
L 655.741991 -356.392727 
L 655.898864 -360.465455 
L 656.098139 -364.538182 
L 656.355217 -368.610909 
L 656.683591 -372.683636 
L 657.094105 -376.756364 
L 657.594364 -380.829091 
L 658.188345 -384.901818 
L 658.876205 -388.974545 
L 659.654312 -393.047273 
L 660.515475 -397.12 
L 661.449348 -401.192727 
L 662.442986 -405.265455 
L 663.481507 -409.338182 
L 664.548811 -413.410909 
L 665.628316 -417.483636 
L 666.703669 -421.556364 
L 667.75938 -425.629091 
L 668.781375 -429.701818 
L 669.75742 -433.774545 
L 670.67742 -437.847273 
L 671.533588 -441.92 
L 672.320482 -445.992727 
L 673.034942 -450.065455 
L 673.675922 -454.138182 
L 674.244255 -458.210909 
L 674.742369 -462.283636 
L 675.173973 -466.356364 
L 675.543742 -470.429091 
L 675.857003 -474.501818 
L 676.119458 -478.574545 
L 676.336932 -482.647273 
L 676.515167 -486.72 
L 677.804833 -486.72 
L 677.804833 -486.72 
L 677.983068 -482.647273 
L 678.200542 -478.574545 
L 678.462997 -474.501818 
L 678.776258 -470.429091 
L 679.146027 -466.356364 
L 679.577631 -462.283636 
L 680.075745 -458.210909 
L 680.644078 -454.138182 
L 681.285058 -450.065455 
L 681.999518 -445.992727 
L 682.786412 -441.92 
L 683.64258 -437.847273 
L 684.56258 -433.774545 
L 685.538625 -429.701818 
L 686.56062 -425.629091 
L 687.616331 -421.556364 
L 688.691684 -417.483636 
L 689.771189 -413.410909 
L 690.838493 -409.338182 
L 691.877014 -405.265455 
L 692.870652 -401.192727 
L 693.804525 -397.12 
L 694.665688 -393.047273 
L 695.443795 -388.974545 
L 696.131655 -384.901818 
L 696.725636 -380.829091 
L 697.225895 -376.756364 
L 697.636409 -372.683636 
L 697.964783 -368.610909 
L 698.221861 -364.538182 
L 698.421136 -360.465455 
L 698.578009 -356.392727 
L 698.708922 -352.32 
L 698.830429 -348.247273 
L 698.958255 -344.174545 
L 699.106401 -340.101818 
L 699.286348 -336.029091 
L 699.506416 -331.956364 
L 699.771311 -327.883636 
L 700.081892 -323.810909 
L 700.43517 -319.738182 
L 700.824536 -315.665455 
L 701.240209 -311.592727 
L 701.669867 -307.52 
L 702.099415 -303.447273 
L 702.513858 -299.374545 
L 702.898192 -295.301818 
L 703.238281 -291.229091 
L 703.521647 -287.156364 
L 703.738124 -283.083636 
L 703.880341 -279.010909 
L 703.944 -274.938182 
L 703.927931 -270.865455 
L 703.833941 -266.792727 
L 703.666456 -262.72 
L 703.431999 -258.647273 
L 703.138552 -254.574545 
L 702.794835 -250.501818 
L 702.409581 -246.429091 
L 701.990853 -242.356364 
L 701.545453 -238.283636 
L 701.07847 -234.210909 
L 700.593008 -230.138182 
L 700.090088 -226.065455 
L 699.568757 -221.992727 
L 699.026357 -217.92 
L 698.458948 -213.847273 
L 697.861842 -209.774545 
L 697.230182 -205.701818 
L 696.559539 -201.629091 
L 695.846464 -197.556364 
L 695.08895 -193.483636 
L 694.286774 -189.410909 
L 693.441699 -185.338182 
L 692.557516 -181.265455 
L 691.63995 -177.192727 
L 690.696422 -173.12 
L 689.735716 -169.047273 
L 688.767565 -164.974545 
L 687.802203 -160.901818 
L 686.849913 -156.829091 
L 685.920595 -152.756364 
L 685.023391 -148.683636 
L 684.166382 -144.610909 
L 683.35636 -140.538182 
L 682.598683 -136.465455 
L 681.897218 -132.392727 
L 681.254352 -128.32 
L 680.671068 -124.247273 
L 680.147064 -120.174545 
L 679.680922 -116.101818 
L 679.270278 -112.029091 
L 678.912022 -107.956364 
L 678.602484 -103.883636 
L 678.337617 -99.810909 
L 678.11316 -95.738182 
L 677.924793 -91.665455 
L 677.76825 -87.592727 
L 677.63943 -83.52 
z
" style="stroke: #5f5f5f; stroke-width: 1.25"/>
    </defs>
    <g clip-path="url(#p95b26f36fa)">
     <use xlink:href="#mc1dca99388" x="0" y="576" style="fill: #d9d9d9; stroke: #5f5f5f; stroke-width: 1.25"/>
    </g>
   </g>
   <g id="PolyCollection_10">
    <defs>
     <path id="m6b55b004cd" d="M 744.572031 -253.144621 
L 743.667969 -253.144621 
L 743.549488 -254.009409 
L 743.407098 -254.874197 
L 743.237917 -255.738985 
L 743.039186 -256.603773 
L 742.808387 -257.468561 
L 742.543376 -258.333348 
L 742.24252 -259.198136 
L 741.904822 -260.062924 
L 741.530034 -260.927712 
L 741.118756 -261.7925 
L 740.672486 -262.657288 
L 740.193646 -263.522076 
L 739.685553 -264.386863 
L 739.152347 -265.251651 
L 738.598858 -266.116439 
L 738.030443 -266.981227 
L 737.452767 -267.846015 
L 736.871558 -268.710803 
L 736.292351 -269.575591 
L 735.720215 -270.440379 
L 735.159502 -271.305166 
L 734.613627 -272.169954 
L 734.084884 -273.034742 
L 733.574328 -273.89953 
L 733.081719 -274.764318 
L 732.605548 -275.629106 
L 732.143121 -276.493894 
L 731.690726 -277.358681 
L 731.243847 -278.223469 
L 730.797427 -279.088257 
L 730.346155 -279.953045 
L 729.884761 -280.817833 
L 729.408303 -281.682621 
L 728.912424 -282.547409 
L 728.393578 -283.412196 
L 727.849202 -284.276984 
L 727.277848 -285.141772 
L 726.679262 -286.00656 
L 726.054431 -286.871348 
L 725.405585 -287.736136 
L 724.73619 -288.600924 
L 724.050904 -289.465712 
L 723.355535 -290.330499 
L 722.656974 -291.195287 
L 721.963113 -292.060075 
L 721.282731 -292.924863 
L 720.625345 -293.789651 
L 720.001017 -294.654439 
L 719.420096 -295.519227 
L 718.892913 -296.384014 
L 718.429411 -297.248802 
L 718.038741 -298.11359 
L 717.72883 -298.978378 
L 717.50596 -299.843166 
L 717.37438 -300.707954 
L 717.336 -301.572742 
L 717.390189 -302.43753 
L 717.533719 -303.302317 
L 717.760858 -304.167105 
L 718.063646 -305.031893 
L 718.432321 -305.896681 
L 718.855888 -306.761469 
L 719.322798 -307.626257 
L 719.821681 -308.491045 
L 720.342076 -309.355832 
L 720.875112 -310.22062 
L 721.414068 -311.085408 
L 721.954771 -311.950196 
L 722.495788 -312.814984 
L 723.038406 -313.679772 
L 723.586375 -314.54456 
L 724.14546 -315.409347 
L 724.722816 -316.274135 
L 725.326245 -317.138923 
L 725.963407 -318.003711 
L 726.641032 -318.868499 
L 727.364211 -319.733287 
L 728.135828 -320.598075 
L 728.956156 -321.462863 
L 729.82267 -322.32765 
L 730.730069 -323.192438 
L 731.670503 -324.057226 
L 732.633984 -324.922014 
L 733.608925 -325.786802 
L 734.582784 -326.65159 
L 735.542729 -327.516378 
L 736.476298 -328.381165 
L 737.37199 -329.245953 
L 738.219759 -330.110741 
L 739.011387 -330.975529 
L 739.740707 -331.840317 
L 740.403701 -332.705105 
L 740.998456 -333.569893 
L 741.52502 -334.434681 
L 741.985167 -335.299468 
L 742.382101 -336.164256 
L 742.720138 -337.029044 
L 743.004371 -337.893832 
L 743.24036 -338.75862 
L 744.99964 -338.75862 
L 744.99964 -338.75862 
L 745.235629 -337.893832 
L 745.519862 -337.029044 
L 745.857899 -336.164256 
L 746.254833 -335.299468 
L 746.71498 -334.434681 
L 747.241544 -333.569893 
L 747.836299 -332.705105 
L 748.499293 -331.840317 
L 749.228613 -330.975529 
L 750.020241 -330.110741 
L 750.86801 -329.245953 
L 751.763702 -328.381165 
L 752.697271 -327.516378 
L 753.657216 -326.65159 
L 754.631075 -325.786802 
L 755.606016 -324.922014 
L 756.569497 -324.057226 
L 757.509931 -323.192438 
L 758.41733 -322.32765 
L 759.283844 -321.462863 
L 760.104172 -320.598075 
L 760.875789 -319.733287 
L 761.598968 -318.868499 
L 762.276593 -318.003711 
L 762.913755 -317.138923 
L 763.517184 -316.274135 
L 764.09454 -315.409347 
L 764.653625 -314.54456 
L 765.201594 -313.679772 
L 765.744212 -312.814984 
L 766.285229 -311.950196 
L 766.825932 -311.085408 
L 767.364888 -310.22062 
L 767.897924 -309.355832 
L 768.418319 -308.491045 
L 768.917202 -307.626257 
L 769.384112 -306.761469 
L 769.807679 -305.896681 
L 770.176354 -305.031893 
L 770.479142 -304.167105 
L 770.706281 -303.302317 
L 770.849811 -302.43753 
L 770.904 -301.572742 
L 770.86562 -300.707954 
L 770.73404 -299.843166 
L 770.51117 -298.978378 
L 770.201259 -298.11359 
L 769.810589 -297.248802 
L 769.347087 -296.384014 
L 768.819904 -295.519227 
L 768.238983 -294.654439 
L 767.614655 -293.789651 
L 766.957269 -292.924863 
L 766.276887 -292.060075 
L 765.583026 -291.195287 
L 764.884465 -290.330499 
L 764.189096 -289.465712 
L 763.50381 -288.600924 
L 762.834415 -287.736136 
L 762.185569 -286.871348 
L 761.560738 -286.00656 
L 760.962152 -285.141772 
L 760.390798 -284.276984 
L 759.846422 -283.412196 
L 759.327576 -282.547409 
L 758.831697 -281.682621 
L 758.355239 -280.817833 
L 757.893845 -279.953045 
L 757.442573 -279.088257 
L 756.996153 -278.223469 
L 756.549274 -277.358681 
L 756.096879 -276.493894 
L 755.634452 -275.629106 
L 755.158281 -274.764318 
L 754.665672 -273.89953 
L 754.155116 -273.034742 
L 753.626373 -272.169954 
L 753.080498 -271.305166 
L 752.519785 -270.440379 
L 751.947649 -269.575591 
L 751.368442 -268.710803 
L 750.787233 -267.846015 
L 750.209557 -266.981227 
L 749.641142 -266.116439 
L 749.087653 -265.251651 
L 748.554447 -264.386863 
L 748.046354 -263.522076 
L 747.567514 -262.657288 
L 747.121244 -261.7925 
L 746.709966 -260.927712 
L 746.335178 -260.062924 
L 745.99748 -259.198136 
L 745.696624 -258.333348 
L 745.431613 -257.468561 
L 745.200814 -256.603773 
L 745.002083 -255.738985 
L 744.832902 -254.874197 
L 744.690512 -254.009409 
L 744.572031 -253.144621 
z
" style="stroke: #5f5f5f; stroke-width: 1.25"/>
    </defs>
    <g clip-path="url(#p95b26f36fa)">
     <use xlink:href="#m6b55b004cd" x="0" y="576" style="fill: #b588b5; stroke: #5f5f5f; stroke-width: 1.25"/>
    </g>
   </g>
   <g id="line2d_6">
    <path d="M 141.48 303.313183 
L 141.48 235.204628 
" clip-path="url(#p95b26f36fa)" style="fill: none; stroke: #5f5f5f; stroke-width: 1.875; stroke-linecap: round"/>
   </g>
   <g id="line2d_7">
    <path d="M 141.48 286.707508 
L 141.48 262.262606 
" clip-path="url(#p95b26f36fa)" style="fill: none; stroke: #5f5f5f; stroke-width: 5.625; stroke-linecap: round"/>
   </g>
   <g id="line2d_8">
    <path d="M 141.48 272.293445 
" clip-path="url(#p95b26f36fa)" style="fill: none; stroke: #5f5f5f; stroke-width: 1.5; stroke-linecap: round"/>
    <defs>
     <path id="m3905918bfe" d="M 2.34375 0 
L -2.34375 -0 
" style="stroke: #ffffff; stroke-width: 1.125"/>
    </defs>
    <g clip-path="url(#p95b26f36fa)">
     <use xlink:href="#m3905918bfe" x="141.48" y="272.293445" style="fill: #ffffff; stroke: #ffffff; stroke-width: 1.125"/>
    </g>
   </g>
   <g id="line2d_9">
    <path d="M 208.44 304.408989 
L 208.44 219.610466 
" clip-path="url(#p95b26f36fa)" style="fill: none; stroke: #5f5f5f; stroke-width: 1.875; stroke-linecap: round"/>
   </g>
   <g id="line2d_10">
    <path d="M 208.44 278.193939 
L 208.44 251.13596 
" clip-path="url(#p95b26f36fa)" style="fill: none; stroke: #5f5f5f; stroke-width: 5.625; stroke-linecap: round"/>
   </g>
   <g id="line2d_11">
    <path d="M 208.44 261.841142 
" clip-path="url(#p95b26f36fa)" style="fill: none; stroke: #5f5f5f; stroke-width: 1.5; stroke-linecap: round"/>
    <g clip-path="url(#p95b26f36fa)">
     <use xlink:href="#m3905918bfe" x="208.44" y="261.841142" style="fill: #ffffff; stroke: #ffffff; stroke-width: 1.125"/>
    </g>
   </g>
   <g id="line2d_12">
    <path d="M 275.4 305.33621 
L 275.4 230.147062 
" clip-path="url(#p95b26f36fa)" style="fill: none; stroke: #5f5f5f; stroke-width: 1.875; stroke-linecap: round"/>
   </g>
   <g id="line2d_13">
    <path d="M 275.4 290.584975 
L 275.4 258.047967 
" clip-path="url(#p95b26f36fa)" style="fill: none; stroke: #5f5f5f; stroke-width: 5.625; stroke-linecap: round"/>
   </g>
   <g id="line2d_14">
    <path d="M 275.4 271.281932 
" clip-path="url(#p95b26f36fa)" style="fill: none; stroke: #5f5f5f; stroke-width: 1.5; stroke-linecap: round"/>
    <g clip-path="url(#p95b26f36fa)">
     <use xlink:href="#m3905918bfe" x="275.4" y="271.281932" style="fill: #ffffff; stroke: #ffffff; stroke-width: 1.125"/>
    </g>
   </g>
   <g id="line2d_15">
    <path d="M 342.36 287.297557 
L 342.36 256.362112 
" clip-path="url(#p95b26f36fa)" style="fill: none; stroke: #5f5f5f; stroke-width: 1.875; stroke-linecap: round"/>
   </g>
   <g id="line2d_16">
    <path d="M 342.36 279.289745 
L 342.36 267.657343 
" clip-path="url(#p95b26f36fa)" style="fill: none; stroke: #5f5f5f; stroke-width: 5.625; stroke-linecap: round"/>
   </g>
   <g id="line2d_17">
    <path d="M 342.36 272.799202 
" clip-path="url(#p95b26f36fa)" style="fill: none; stroke: #5f5f5f; stroke-width: 1.5; stroke-linecap: round"/>
    <g clip-path="url(#p95b26f36fa)">
     <use xlink:href="#m3905918bfe" x="342.36" y="272.799202" style="fill: #ffffff; stroke: #ffffff; stroke-width: 1.125"/>
    </g>
   </g>
   <g id="line2d_18">
    <path d="M 409.32 354.731771 
L 409.32 220.200515 
" clip-path="url(#p95b26f36fa)" style="fill: none; stroke: #5f5f5f; stroke-width: 1.875; stroke-linecap: round"/>
   </g>
   <g id="line2d_19">
    <path d="M 409.32 296.82264 
L 409.32 248.270006 
" clip-path="url(#p95b26f36fa)" style="fill: none; stroke: #5f5f5f; stroke-width: 5.625; stroke-linecap: round"/>
   </g>
   <g id="line2d_20">
    <path d="M 409.32 276.002327 
" clip-path="url(#p95b26f36fa)" style="fill: none; stroke: #5f5f5f; stroke-width: 1.5; stroke-linecap: round"/>
    <g clip-path="url(#p95b26f36fa)">
     <use xlink:href="#m3905918bfe" x="409.32" y="276.002327" style="fill: #ffffff; stroke: #ffffff; stroke-width: 1.125"/>
    </g>
   </g>
   <g id="line2d_21">
    <path d="M 476.28 306.769187 
L 476.28 232.675845 
" clip-path="url(#p95b26f36fa)" style="fill: none; stroke: #5f5f5f; stroke-width: 1.875; stroke-linecap: round"/>
   </g>
   <g id="line2d_22">
    <path d="M 476.28 278.193939 
L 476.28 255.182013 
" clip-path="url(#p95b26f36fa)" style="fill: none; stroke: #5f5f5f; stroke-width: 5.625; stroke-linecap: round"/>
   </g>
   <g id="line2d_23">
    <path d="M 476.28 266.477244 
" clip-path="url(#p95b26f36fa)" style="fill: none; stroke: #5f5f5f; stroke-width: 1.5; stroke-linecap: round"/>
    <g clip-path="url(#p95b26f36fa)">
     <use xlink:href="#m3905918bfe" x="476.28" y="266.477244" style="fill: #ffffff; stroke: #ffffff; stroke-width: 1.125"/>
    </g>
   </g>
   <g id="line2d_24">
    <path d="M 543.24 307.7807 
L 543.24 249.702983 
" clip-path="url(#p95b26f36fa)" style="fill: none; stroke: #5f5f5f; stroke-width: 1.875; stroke-linecap: round"/>
   </g>
   <g id="line2d_25">
    <path d="M 543.24 283.167212 
L 543.24 263.864168 
" clip-path="url(#p95b26f36fa)" style="fill: none; stroke: #5f5f5f; stroke-width: 5.625; stroke-linecap: round"/>
   </g>
   <g id="line2d_26">
    <path d="M 543.24 270.186126 
" clip-path="url(#p95b26f36fa)" style="fill: none; stroke: #5f5f5f; stroke-width: 1.5; stroke-linecap: round"/>
    <g clip-path="url(#p95b26f36fa)">
     <use xlink:href="#m3905918bfe" x="543.24" y="270.186126" style="fill: #ffffff; stroke: #ffffff; stroke-width: 1.125"/>
    </g>
   </g>
   <g id="line2d_27">
    <path d="M 610.2 296.738347 
L 610.2 244.561125 
" clip-path="url(#p95b26f36fa)" style="fill: none; stroke: #5f5f5f; stroke-width: 1.875; stroke-linecap: round"/>
   </g>
   <g id="line2d_28">
    <path d="M 610.2 277.603889 
L 610.2 263.526997 
" clip-path="url(#p95b26f36fa)" style="fill: none; stroke: #5f5f5f; stroke-width: 5.625; stroke-linecap: round"/>
   </g>
   <g id="line2d_29">
    <path d="M 610.2 273.473544 
" clip-path="url(#p95b26f36fa)" style="fill: none; stroke: #5f5f5f; stroke-width: 1.5; stroke-linecap: round"/>
    <g clip-path="url(#p95b26f36fa)">
     <use xlink:href="#m3905918bfe" x="610.2" y="273.473544" style="fill: #ffffff; stroke: #ffffff; stroke-width: 1.125"/>
    </g>
   </g>
   <g id="line2d_30">
    <path d="M 677.16 416.096905 
L 677.16 165.663095 
" clip-path="url(#p95b26f36fa)" style="fill: none; stroke: #5f5f5f; stroke-width: 1.875; stroke-linecap: round"/>
   </g>
   <g id="line2d_31">
    <path d="M 677.16 332.309895 
L 677.16 216.99739 
" clip-path="url(#p95b26f36fa)" style="fill: none; stroke: #5f5f5f; stroke-width: 5.625; stroke-linecap: round"/>
   </g>
   <g id="line2d_32">
    <path d="M 677.16 291.596489 
" clip-path="url(#p95b26f36fa)" style="fill: none; stroke: #5f5f5f; stroke-width: 1.5; stroke-linecap: round"/>
    <g clip-path="url(#p95b26f36fa)">
     <use xlink:href="#m3905918bfe" x="677.16" y="291.596489" style="fill: #ffffff; stroke: #ffffff; stroke-width: 1.125"/>
    </g>
   </g>
   <g id="line2d_33">
    <path d="M 744.12 306.769187 
L 744.12 253.327572 
" clip-path="url(#p95b26f36fa)" style="fill: none; stroke: #5f5f5f; stroke-width: 1.875; stroke-linecap: round"/>
   </g>
   <g id="line2d_34">
    <path d="M 744.12 285.274531 
L 744.12 266.64583 
" clip-path="url(#p95b26f36fa)" style="fill: none; stroke: #5f5f5f; stroke-width: 5.625; stroke-linecap: round"/>
   </g>
   <g id="line2d_35">
    <path d="M 744.12 275.327985 
" clip-path="url(#p95b26f36fa)" style="fill: none; stroke: #5f5f5f; stroke-width: 1.5; stroke-linecap: round"/>
    <g clip-path="url(#p95b26f36fa)">
     <use xlink:href="#m3905918bfe" x="744.12" y="275.327985" style="fill: #ffffff; stroke: #ffffff; stroke-width: 1.125"/>
    </g>
   </g>
   <g id="patch_3">
    <path d="M 108 512.64 
L 108 69.12 
" style="fill: none; stroke: #cccccc; stroke-width: 0.8; stroke-linejoin: miter; stroke-linecap: square"/>
   </g>
   <g id="patch_4">
    <path d="M 777.6 512.64 
L 777.6 69.12 
" style="fill: none; stroke: #cccccc; stroke-width: 0.8; stroke-linejoin: miter; stroke-linecap: square"/>
   </g>
   <g id="patch_5">
    <path d="M 108 512.64 
L 777.6 512.64 
" style="fill: none; stroke: #cccccc; stroke-width: 0.8; stroke-linejoin: miter; stroke-linecap: square"/>
   </g>
   <g id="patch_6">
    <path d="M 108 69.12 
L 777.6 69.12 
" style="fill: none; stroke: #cccccc; stroke-width: 0.8; stroke-linejoin: miter; stroke-linecap: square"/>
   </g>
   <g id="text_18">
    <!-- DQN Model Percentage Returns Comparison. -->
    <g style="fill: #262626" transform="translate(308.71125 63.12) scale(0.12 -0.12)">
     <defs>
      <path id="DejaVuSans-43" d="M 4122 4306 
L 4122 3641 
Q 3803 3938 3442 4084 
Q 3081 4231 2675 4231 
Q 1875 4231 1450 3742 
Q 1025 3253 1025 2328 
Q 1025 1406 1450 917 
Q 1875 428 2675 428 
Q 3081 428 3442 575 
Q 3803 722 4122 1019 
L 4122 359 
Q 3791 134 3420 21 
Q 3050 -91 2638 -91 
Q 1578 -91 968 557 
Q 359 1206 359 2328 
Q 359 3453 968 4101 
Q 1578 4750 2638 4750 
Q 3056 4750 3426 4639 
Q 3797 4528 4122 4306 
z
" transform="scale(0.015625)"/>
      <path id="DejaVuSans-70" d="M 1159 525 
L 1159 -1331 
L 581 -1331 
L 581 3500 
L 1159 3500 
L 1159 2969 
Q 1341 3281 1617 3432 
Q 1894 3584 2278 3584 
Q 2916 3584 3314 3078 
Q 3713 2572 3713 1747 
Q 3713 922 3314 415 
Q 2916 -91 2278 -91 
Q 1894 -91 1617 61 
Q 1341 213 1159 525 
z
M 3116 1747 
Q 3116 2381 2855 2742 
Q 2594 3103 2138 3103 
Q 1681 3103 1420 2742 
Q 1159 2381 1159 1747 
Q 1159 1113 1420 752 
Q 1681 391 2138 391 
Q 2594 391 2855 752 
Q 3116 1113 3116 1747 
z
" transform="scale(0.015625)"/>
      <path id="DejaVuSans-2e" d="M 684 794 
L 1344 794 
L 1344 0 
L 684 0 
L 684 794 
z
" transform="scale(0.015625)"/>
     </defs>
     <use xlink:href="#DejaVuSans-44"/>
     <use xlink:href="#DejaVuSans-51" x="77.001953"/>
     <use xlink:href="#DejaVuSans-4e" x="155.712891"/>
     <use xlink:href="#DejaVuSans-20" x="230.517578"/>
     <use xlink:href="#DejaVuSans-4d" x="262.304688"/>
     <use xlink:href="#DejaVuSans-6f" x="348.583984"/>
     <use xlink:href="#DejaVuSans-64" x="409.765625"/>
     <use xlink:href="#DejaVuSans-65" x="473.242188"/>
     <use xlink:href="#DejaVuSans-6c" x="534.765625"/>
     <use xlink:href="#DejaVuSans-20" x="562.548828"/>
     <use xlink:href="#DejaVuSans-50" x="594.335938"/>
     <use xlink:href="#DejaVuSans-65" x="651.013672"/>
     <use xlink:href="#DejaVuSans-72" x="712.537109"/>
     <use xlink:href="#DejaVuSans-63" x="751.400391"/>
     <use xlink:href="#DejaVuSans-65" x="806.380859"/>
     <use xlink:href="#DejaVuSans-6e" x="867.904297"/>
     <use xlink:href="#DejaVuSans-74" x="931.283203"/>
     <use xlink:href="#DejaVuSans-61" x="970.492188"/>
     <use xlink:href="#DejaVuSans-67" x="1031.771484"/>
     <use xlink:href="#DejaVuSans-65" x="1095.248047"/>
     <use xlink:href="#DejaVuSans-20" x="1156.771484"/>
     <use xlink:href="#DejaVuSans-52" x="1188.558594"/>
     <use xlink:href="#DejaVuSans-65" x="1253.541016"/>
     <use xlink:href="#DejaVuSans-74" x="1315.064453"/>
     <use xlink:href="#DejaVuSans-75" x="1354.273438"/>
     <use xlink:href="#DejaVuSans-72" x="1417.652344"/>
     <use xlink:href="#DejaVuSans-6e" x="1457.015625"/>
     <use xlink:href="#DejaVuSans-73" x="1520.394531"/>
     <use xlink:href="#DejaVuSans-20" x="1572.494141"/>
     <use xlink:href="#DejaVuSans-43" x="1604.28125"/>
     <use xlink:href="#DejaVuSans-6f" x="1674.105469"/>
     <use xlink:href="#DejaVuSans-6d" x="1735.287109"/>
     <use xlink:href="#DejaVuSans-70" x="1832.699219"/>
     <use xlink:href="#DejaVuSans-61" x="1896.175781"/>
     <use xlink:href="#DejaVuSans-72" x="1957.455078"/>
     <use xlink:href="#DejaVuSans-69" x="1998.568359"/>
     <use xlink:href="#DejaVuSans-73" x="2026.351562"/>
     <use xlink:href="#DejaVuSans-6f" x="2078.451172"/>
     <use xlink:href="#DejaVuSans-6e" x="2139.632812"/>
     <use xlink:href="#DejaVuSans-2e" x="2203.011719"/>
    </g>
   </g>
  </g>
 </g>
 <defs>
  <clipPath id="p95b26f36fa">
   <rect x="108" y="69.12" width="669.6" height="443.52"/>
  </clipPath>
 </defs>
</svg>
