<?xml version="1.0" encoding="utf-8" standalone="no"?>
<!DOCTYPE svg PUBLIC "-//W3C//DTD SVG 1.1//EN"
  "http://www.w3.org/Graphics/SVG/1.1/DTD/svg11.dtd">
<svg xmlns:xlink="http://www.w3.org/1999/xlink" width="864pt" height="576pt" viewBox="0 0 864 576" xmlns="http://www.w3.org/2000/svg" version="1.1">
 <metadata>
  <rdf:RDF xmlns:dc="http://purl.org/dc/elements/1.1/" xmlns:cc="http://creativecommons.org/ns#" xmlns:rdf="http://www.w3.org/1999/02/22-rdf-syntax-ns#">
   <cc:Work>
    <dc:type rdf:resource="http://purl.org/dc/dcmitype/StillImage"/>
    <dc:date>2024-09-13T13:17:08.864289</dc:date>
    <dc:format>image/svg+xml</dc:format>
    <dc:creator>
     <cc:Agent>
      <dc:title>Matplotlib v3.7.1, https://matplotlib.org/</dc:title>
     </cc:Agent>
    </dc:creator>
   </cc:Work>
  </rdf:RDF>
 </metadata>
 <defs>
  <style type="text/css">*{stroke-linejoin: round; stroke-linecap: butt}</style>
 </defs>
 <g id="figure_1">
  <g id="patch_1">
   <path d="M 0 576 
L 864 576 
L 864 0 
L 0 0 
z
" style="fill: #ffffff"/>
  </g>
  <g id="axes_1">
   <g id="patch_2">
    <path d="M 108 512.64 
L 777.6 512.64 
L 777.6 69.12 
L 108 69.12 
z
" style="fill: #ffffff"/>
   </g>
   <g id="matplotlib.axis_1">
    <g id="xtick_1">
     <g id="text_1">
      <!-- ppo_dxy -->
      <g style="fill: #262626" transform="translate(122.579297 526.478594) scale(0.09 -0.09)">
       <defs>
        <path id="DejaVuSans-70" d="M 1159 525 
L 1159 -1331 
L 581 -1331 
L 581 3500 
L 1159 3500 
L 1159 2969 
Q 1341 3281 1617 3432 
Q 1894 3584 2278 3584 
Q 2916 3584 3314 3078 
Q 3713 2572 3713 1747 
Q 3713 922 3314 415 
Q 2916 -91 2278 -91 
Q 1894 -91 1617 61 
Q 1341 213 1159 525 
z
M 3116 1747 
Q 3116 2381 2855 2742 
Q 2594 3103 2138 3103 
Q 1681 3103 1420 2742 
Q 1159 2381 1159 1747 
Q 1159 1113 1420 752 
Q 1681 391 2138 391 
Q 2594 391 2855 752 
Q 3116 1113 3116 1747 
z
" transform="scale(0.015625)"/>
        <path id="DejaVuSans-6f" d="M 1959 3097 
Q 1497 3097 1228 2736 
Q 959 2375 959 1747 
Q 959 1119 1226 758 
Q 1494 397 1959 397 
Q 2419 397 2687 759 
Q 2956 1122 2956 1747 
Q 2956 2369 2687 2733 
Q 2419 3097 1959 3097 
z
M 1959 3584 
Q 2709 3584 3137 3096 
Q 3566 2609 3566 1747 
Q 3566 888 3137 398 
Q 2709 -91 1959 -91 
Q 1206 -91 779 398 
Q 353 888 353 1747 
Q 353 2609 779 3096 
Q 1206 3584 1959 3584 
z
" transform="scale(0.015625)"/>
        <path id="DejaVuSans-5f" d="M 3263 -1063 
L 3263 -1509 
L -63 -1509 
L -63 -1063 
L 3263 -1063 
z
" transform="scale(0.015625)"/>
        <path id="DejaVuSans-64" d="M 2906 2969 
L 2906 4863 
L 3481 4863 
L 3481 0 
L 2906 0 
L 2906 525 
Q 2725 213 2448 61 
Q 2172 -91 1784 -91 
Q 1150 -91 751 415 
Q 353 922 353 1747 
Q 353 2572 751 3078 
Q 1150 3584 1784 3584 
Q 2172 3584 2448 3432 
Q 2725 3281 2906 2969 
z
M 947 1747 
Q 947 1113 1208 752 
Q 1469 391 1925 391 
Q 2381 391 2643 752 
Q 2906 1113 2906 1747 
Q 2906 2381 2643 2742 
Q 2381 3103 1925 3103 
Q 1469 3103 1208 2742 
Q 947 2381 947 1747 
z
" transform="scale(0.015625)"/>
        <path id="DejaVuSans-78" d="M 3513 3500 
L 2247 1797 
L 3578 0 
L 2900 0 
L 1881 1375 
L 863 0 
L 184 0 
L 1544 1831 
L 300 3500 
L 978 3500 
L 1906 2253 
L 2834 3500 
L 3513 3500 
z
" transform="scale(0.015625)"/>
        <path id="DejaVuSans-79" d="M 2059 -325 
Q 1816 -950 1584 -1140 
Q 1353 -1331 966 -1331 
L 506 -1331 
L 506 -850 
L 844 -850 
Q 1081 -850 1212 -737 
Q 1344 -625 1503 -206 
L 1606 56 
L 191 3500 
L 800 3500 
L 1894 763 
L 2988 3500 
L 3597 3500 
L 2059 -325 
z
" transform="scale(0.015625)"/>
       </defs>
       <use xlink:href="#DejaVuSans-70"/>
       <use xlink:href="#DejaVuSans-70" x="63.476562"/>
       <use xlink:href="#DejaVuSans-6f" x="126.953125"/>
       <use xlink:href="#DejaVuSans-5f" x="188.134766"/>
       <use xlink:href="#DejaVuSans-64" x="238.134766"/>
       <use xlink:href="#DejaVuSans-78" x="301.611328"/>
       <use xlink:href="#DejaVuSans-79" x="360.791016"/>
      </g>
     </g>
    </g>
    <g id="xtick_2">
     <g id="text_2">
      <!-- ppo_mtf_2 -->
      <g style="fill: #262626" transform="translate(184.878281 526.478594) scale(0.09 -0.09)">
       <defs>
        <path id="DejaVuSans-6d" d="M 3328 2828 
Q 3544 3216 3844 3400 
Q 4144 3584 4550 3584 
Q 5097 3584 5394 3201 
Q 5691 2819 5691 2113 
L 5691 0 
L 5113 0 
L 5113 2094 
Q 5113 2597 4934 2840 
Q 4756 3084 4391 3084 
Q 3944 3084 3684 2787 
Q 3425 2491 3425 1978 
L 3425 0 
L 2847 0 
L 2847 2094 
Q 2847 2600 2669 2842 
Q 2491 3084 2119 3084 
Q 1678 3084 1418 2786 
Q 1159 2488 1159 1978 
L 1159 0 
L 581 0 
L 581 3500 
L 1159 3500 
L 1159 2956 
Q 1356 3278 1631 3431 
Q 1906 3584 2284 3584 
Q 2666 3584 2933 3390 
Q 3200 3197 3328 2828 
z
" transform="scale(0.015625)"/>
        <path id="DejaVuSans-74" d="M 1172 4494 
L 1172 3500 
L 2356 3500 
L 2356 3053 
L 1172 3053 
L 1172 1153 
Q 1172 725 1289 603 
Q 1406 481 1766 481 
L 2356 481 
L 2356 0 
L 1766 0 
Q 1100 0 847 248 
Q 594 497 594 1153 
L 594 3053 
L 172 3053 
L 172 3500 
L 594 3500 
L 594 4494 
L 1172 4494 
z
" transform="scale(0.015625)"/>
        <path id="DejaVuSans-66" d="M 2375 4863 
L 2375 4384 
L 1825 4384 
Q 1516 4384 1395 4259 
Q 1275 4134 1275 3809 
L 1275 3500 
L 2222 3500 
L 2222 3053 
L 1275 3053 
L 1275 0 
L 697 0 
L 697 3053 
L 147 3053 
L 147 3500 
L 697 3500 
L 697 3744 
Q 697 4328 969 4595 
Q 1241 4863 1831 4863 
L 2375 4863 
z
" transform="scale(0.015625)"/>
        <path id="DejaVuSans-32" d="M 1228 531 
L 3431 531 
L 3431 0 
L 469 0 
L 469 531 
Q 828 903 1448 1529 
Q 2069 2156 2228 2338 
Q 2531 2678 2651 2914 
Q 2772 3150 2772 3378 
Q 2772 3750 2511 3984 
Q 2250 4219 1831 4219 
Q 1534 4219 1204 4116 
Q 875 4013 500 3803 
L 500 4441 
Q 881 4594 1212 4672 
Q 1544 4750 1819 4750 
Q 2544 4750 2975 4387 
Q 3406 4025 3406 3419 
Q 3406 3131 3298 2873 
Q 3191 2616 2906 2266 
Q 2828 2175 2409 1742 
Q 1991 1309 1228 531 
z
" transform="scale(0.015625)"/>
       </defs>
       <use xlink:href="#DejaVuSans-70"/>
       <use xlink:href="#DejaVuSans-70" x="63.476562"/>
       <use xlink:href="#DejaVuSans-6f" x="126.953125"/>
       <use xlink:href="#DejaVuSans-5f" x="188.134766"/>
       <use xlink:href="#DejaVuSans-6d" x="238.134766"/>
       <use xlink:href="#DejaVuSans-74" x="335.546875"/>
       <use xlink:href="#DejaVuSans-66" x="374.755859"/>
       <use xlink:href="#DejaVuSans-5f" x="409.960938"/>
       <use xlink:href="#DejaVuSans-32" x="459.960938"/>
      </g>
     </g>
    </g>
    <g id="xtick_3">
     <g id="text_3">
      <!-- ppo_mtf_1 -->
      <g style="fill: #262626" transform="translate(251.838281 526.478594) scale(0.09 -0.09)">
       <defs>
        <path id="DejaVuSans-31" d="M 794 531 
L 1825 531 
L 1825 4091 
L 703 3866 
L 703 4441 
L 1819 4666 
L 2450 4666 
L 2450 531 
L 3481 531 
L 3481 0 
L 794 0 
L 794 531 
z
" transform="scale(0.015625)"/>
       </defs>
       <use xlink:href="#DejaVuSans-70"/>
       <use xlink:href="#DejaVuSans-70" x="63.476562"/>
       <use xlink:href="#DejaVuSans-6f" x="126.953125"/>
       <use xlink:href="#DejaVuSans-5f" x="188.134766"/>
       <use xlink:href="#DejaVuSans-6d" x="238.134766"/>
       <use xlink:href="#DejaVuSans-74" x="335.546875"/>
       <use xlink:href="#DejaVuSans-66" x="374.755859"/>
       <use xlink:href="#DejaVuSans-5f" x="409.960938"/>
       <use xlink:href="#DejaVuSans-31" x="459.960938"/>
      </g>
     </g>
    </g>
    <g id="xtick_4">
     <g id="text_4">
      <!-- ppo_lstm -->
      <g style="fill: #262626" transform="translate(321.901172 526.478594) scale(0.09 -0.09)">
       <defs>
        <path id="DejaVuSans-6c" d="M 603 4863 
L 1178 4863 
L 1178 0 
L 603 0 
L 603 4863 
z
" transform="scale(0.015625)"/>
        <path id="DejaVuSans-73" d="M 2834 3397 
L 2834 2853 
Q 2591 2978 2328 3040 
Q 2066 3103 1784 3103 
Q 1356 3103 1142 2972 
Q 928 2841 928 2578 
Q 928 2378 1081 2264 
Q 1234 2150 1697 2047 
L 1894 2003 
Q 2506 1872 2764 1633 
Q 3022 1394 3022 966 
Q 3022 478 2636 193 
Q 2250 -91 1575 -91 
Q 1294 -91 989 -36 
Q 684 19 347 128 
L 347 722 
Q 666 556 975 473 
Q 1284 391 1588 391 
Q 1994 391 2212 530 
Q 2431 669 2431 922 
Q 2431 1156 2273 1281 
Q 2116 1406 1581 1522 
L 1381 1569 
Q 847 1681 609 1914 
Q 372 2147 372 2553 
Q 372 3047 722 3315 
Q 1072 3584 1716 3584 
Q 2034 3584 2315 3537 
Q 2597 3491 2834 3397 
z
" transform="scale(0.015625)"/>
       </defs>
       <use xlink:href="#DejaVuSans-70"/>
       <use xlink:href="#DejaVuSans-70" x="63.476562"/>
       <use xlink:href="#DejaVuSans-6f" x="126.953125"/>
       <use xlink:href="#DejaVuSans-5f" x="188.134766"/>
       <use xlink:href="#DejaVuSans-6c" x="238.134766"/>
       <use xlink:href="#DejaVuSans-73" x="265.917969"/>
       <use xlink:href="#DejaVuSans-74" x="318.017578"/>
       <use xlink:href="#DejaVuSans-6d" x="357.226562"/>
      </g>
     </g>
    </g>
    <g id="xtick_5">
     <g id="text_5">
      <!-- ppo_SR_2 -->
      <g style="fill: #262626" transform="translate(387.50625 526.319687) scale(0.09 -0.09)">
       <defs>
        <path id="DejaVuSans-53" d="M 3425 4513 
L 3425 3897 
Q 3066 4069 2747 4153 
Q 2428 4238 2131 4238 
Q 1616 4238 1336 4038 
Q 1056 3838 1056 3469 
Q 1056 3159 1242 3001 
Q 1428 2844 1947 2747 
L 2328 2669 
Q 3034 2534 3370 2195 
Q 3706 1856 3706 1288 
Q 3706 609 3251 259 
Q 2797 -91 1919 -91 
Q 1588 -91 1214 -16 
Q 841 59 441 206 
L 441 856 
Q 825 641 1194 531 
Q 1563 422 1919 422 
Q 2459 422 2753 634 
Q 3047 847 3047 1241 
Q 3047 1584 2836 1778 
Q 2625 1972 2144 2069 
L 1759 2144 
Q 1053 2284 737 2584 
Q 422 2884 422 3419 
Q 422 4038 858 4394 
Q 1294 4750 2059 4750 
Q 2388 4750 2728 4690 
Q 3069 4631 3425 4513 
z
" transform="scale(0.015625)"/>
        <path id="DejaVuSans-52" d="M 2841 2188 
Q 3044 2119 3236 1894 
Q 3428 1669 3622 1275 
L 4263 0 
L 3584 0 
L 2988 1197 
Q 2756 1666 2539 1819 
Q 2322 1972 1947 1972 
L 1259 1972 
L 1259 0 
L 628 0 
L 628 4666 
L 2053 4666 
Q 2853 4666 3247 4331 
Q 3641 3997 3641 3322 
Q 3641 2881 3436 2590 
Q 3231 2300 2841 2188 
z
M 1259 4147 
L 1259 2491 
L 2053 2491 
Q 2509 2491 2742 2702 
Q 2975 2913 2975 3322 
Q 2975 3731 2742 3939 
Q 2509 4147 2053 4147 
L 1259 4147 
z
" transform="scale(0.015625)"/>
       </defs>
       <use xlink:href="#DejaVuSans-70"/>
       <use xlink:href="#DejaVuSans-70" x="63.476562"/>
       <use xlink:href="#DejaVuSans-6f" x="126.953125"/>
       <use xlink:href="#DejaVuSans-5f" x="188.134766"/>
       <use xlink:href="#DejaVuSans-53" x="238.134766"/>
       <use xlink:href="#DejaVuSans-52" x="301.611328"/>
       <use xlink:href="#DejaVuSans-5f" x="371.09375"/>
       <use xlink:href="#DejaVuSans-32" x="421.09375"/>
      </g>
     </g>
    </g>
    <g id="xtick_6">
     <g id="text_6">
      <!-- ppo_SR_1 -->
      <g style="fill: #262626" transform="translate(454.46625 526.319687) scale(0.09 -0.09)">
       <use xlink:href="#DejaVuSans-70"/>
       <use xlink:href="#DejaVuSans-70" x="63.476562"/>
       <use xlink:href="#DejaVuSans-6f" x="126.953125"/>
       <use xlink:href="#DejaVuSans-5f" x="188.134766"/>
       <use xlink:href="#DejaVuSans-53" x="238.134766"/>
       <use xlink:href="#DejaVuSans-52" x="301.611328"/>
       <use xlink:href="#DejaVuSans-5f" x="371.09375"/>
       <use xlink:href="#DejaVuSans-31" x="421.09375"/>
      </g>
     </g>
    </g>
    <g id="xtick_7">
     <g id="text_7">
      <!-- ppo_ewm -->
      <g style="fill: #262626" transform="translate(521.690625 526.228281) scale(0.09 -0.09)">
       <defs>
        <path id="DejaVuSans-65" d="M 3597 1894 
L 3597 1613 
L 953 1613 
Q 991 1019 1311 708 
Q 1631 397 2203 397 
Q 2534 397 2845 478 
Q 3156 559 3463 722 
L 3463 178 
Q 3153 47 2828 -22 
Q 2503 -91 2169 -91 
Q 1331 -91 842 396 
Q 353 884 353 1716 
Q 353 2575 817 3079 
Q 1281 3584 2069 3584 
Q 2775 3584 3186 3129 
Q 3597 2675 3597 1894 
z
M 3022 2063 
Q 3016 2534 2758 2815 
Q 2500 3097 2075 3097 
Q 1594 3097 1305 2825 
Q 1016 2553 972 2059 
L 3022 2063 
z
" transform="scale(0.015625)"/>
        <path id="DejaVuSans-77" d="M 269 3500 
L 844 3500 
L 1563 769 
L 2278 3500 
L 2956 3500 
L 3675 769 
L 4391 3500 
L 4966 3500 
L 4050 0 
L 3372 0 
L 2619 2869 
L 1863 0 
L 1184 0 
L 269 3500 
z
" transform="scale(0.015625)"/>
       </defs>
       <use xlink:href="#DejaVuSans-70"/>
       <use xlink:href="#DejaVuSans-70" x="63.476562"/>
       <use xlink:href="#DejaVuSans-6f" x="126.953125"/>
       <use xlink:href="#DejaVuSans-5f" x="188.134766"/>
       <use xlink:href="#DejaVuSans-65" x="238.134766"/>
       <use xlink:href="#DejaVuSans-77" x="299.658203"/>
       <use xlink:href="#DejaVuSans-6d" x="381.445312"/>
      </g>
     </g>
    </g>
    <g id="xtick_8">
     <g id="text_8">
      <!-- ppo_macd -->
      <g style="fill: #262626" transform="translate(587.010938 526.478594) scale(0.09 -0.09)">
       <defs>
        <path id="DejaVuSans-61" d="M 2194 1759 
Q 1497 1759 1228 1600 
Q 959 1441 959 1056 
Q 959 750 1161 570 
Q 1363 391 1709 391 
Q 2188 391 2477 730 
Q 2766 1069 2766 1631 
L 2766 1759 
L 2194 1759 
z
M 3341 1997 
L 3341 0 
L 2766 0 
L 2766 531 
Q 2569 213 2275 61 
Q 1981 -91 1556 -91 
Q 1019 -91 701 211 
Q 384 513 384 1019 
Q 384 1609 779 1909 
Q 1175 2209 1959 2209 
L 2766 2209 
L 2766 2266 
Q 2766 2663 2505 2880 
Q 2244 3097 1772 3097 
Q 1472 3097 1187 3025 
Q 903 2953 641 2809 
L 641 3341 
Q 956 3463 1253 3523 
Q 1550 3584 1831 3584 
Q 2591 3584 2966 3190 
Q 3341 2797 3341 1997 
z
" transform="scale(0.015625)"/>
        <path id="DejaVuSans-63" d="M 3122 3366 
L 3122 2828 
Q 2878 2963 2633 3030 
Q 2388 3097 2138 3097 
Q 1578 3097 1268 2742 
Q 959 2388 959 1747 
Q 959 1106 1268 751 
Q 1578 397 2138 397 
Q 2388 397 2633 464 
Q 2878 531 3122 666 
L 3122 134 
Q 2881 22 2623 -34 
Q 2366 -91 2075 -91 
Q 1284 -91 818 406 
Q 353 903 353 1747 
Q 353 2603 823 3093 
Q 1294 3584 2113 3584 
Q 2378 3584 2631 3529 
Q 2884 3475 3122 3366 
z
" transform="scale(0.015625)"/>
       </defs>
       <use xlink:href="#DejaVuSans-70"/>
       <use xlink:href="#DejaVuSans-70" x="63.476562"/>
       <use xlink:href="#DejaVuSans-6f" x="126.953125"/>
       <use xlink:href="#DejaVuSans-5f" x="188.134766"/>
       <use xlink:href="#DejaVuSans-6d" x="238.134766"/>
       <use xlink:href="#DejaVuSans-61" x="335.546875"/>
       <use xlink:href="#DejaVuSans-63" x="396.826172"/>
       <use xlink:href="#DejaVuSans-64" x="451.806641"/>
      </g>
     </g>
    </g>
    <g id="xtick_9">
     <g id="text_9">
      <!-- ppo_bb -->
      <g style="fill: #262626" transform="translate(660.729375 526.478594) scale(0.09 -0.09)">
       <defs>
        <path id="DejaVuSans-62" d="M 3116 1747 
Q 3116 2381 2855 2742 
Q 2594 3103 2138 3103 
Q 1681 3103 1420 2742 
Q 1159 2381 1159 1747 
Q 1159 1113 1420 752 
Q 1681 391 2138 391 
Q 2594 391 2855 752 
Q 3116 1113 3116 1747 
z
M 1159 2969 
Q 1341 3281 1617 3432 
Q 1894 3584 2278 3584 
Q 2916 3584 3314 3078 
Q 3713 2572 3713 1747 
Q 3713 922 3314 415 
Q 2916 -91 2278 -91 
Q 1894 -91 1617 61 
Q 1341 213 1159 525 
L 1159 0 
L 581 0 
L 581 4863 
L 1159 4863 
L 1159 2969 
z
" transform="scale(0.015625)"/>
       </defs>
       <use xlink:href="#DejaVuSans-70"/>
       <use xlink:href="#DejaVuSans-70" x="63.476562"/>
       <use xlink:href="#DejaVuSans-6f" x="126.953125"/>
       <use xlink:href="#DejaVuSans-5f" x="188.134766"/>
       <use xlink:href="#DejaVuSans-62" x="238.134766"/>
       <use xlink:href="#DejaVuSans-62" x="301.611328"/>
      </g>
     </g>
    </g>
    <g id="xtick_10">
     <g id="text_10">
      <!-- ppo_rsi -->
      <g style="fill: #262626" transform="translate(727.958672 526.478594) scale(0.09 -0.09)">
       <defs>
        <path id="DejaVuSans-72" d="M 2631 2963 
Q 2534 3019 2420 3045 
Q 2306 3072 2169 3072 
Q 1681 3072 1420 2755 
Q 1159 2438 1159 1844 
L 1159 0 
L 581 0 
L 581 3500 
L 1159 3500 
L 1159 2956 
Q 1341 3275 1631 3429 
Q 1922 3584 2338 3584 
Q 2397 3584 2469 3576 
Q 2541 3569 2628 3553 
L 2631 2963 
z
" transform="scale(0.015625)"/>
        <path id="DejaVuSans-69" d="M 603 3500 
L 1178 3500 
L 1178 0 
L 603 0 
L 603 3500 
z
M 603 4863 
L 1178 4863 
L 1178 4134 
L 603 4134 
L 603 4863 
z
" transform="scale(0.015625)"/>
       </defs>
       <use xlink:href="#DejaVuSans-70"/>
       <use xlink:href="#DejaVuSans-70" x="63.476562"/>
       <use xlink:href="#DejaVuSans-6f" x="126.953125"/>
       <use xlink:href="#DejaVuSans-5f" x="188.134766"/>
       <use xlink:href="#DejaVuSans-72" x="238.134766"/>
       <use xlink:href="#DejaVuSans-73" x="279.248047"/>
       <use xlink:href="#DejaVuSans-69" x="331.347656"/>
      </g>
     </g>
    </g>
    <g id="text_11">
     <!-- PPO Models -->
     <g style="fill: #262626" transform="translate(413.627344 540.199062) scale(0.1 -0.1)">
      <defs>
       <path id="DejaVuSans-50" d="M 1259 4147 
L 1259 2394 
L 2053 2394 
Q 2494 2394 2734 2622 
Q 2975 2850 2975 3272 
Q 2975 3691 2734 3919 
Q 2494 4147 2053 4147 
L 1259 4147 
z
M 628 4666 
L 2053 4666 
Q 2838 4666 3239 4311 
Q 3641 3956 3641 3272 
Q 3641 2581 3239 2228 
Q 2838 1875 2053 1875 
L 1259 1875 
L 1259 0 
L 628 0 
L 628 4666 
z
" transform="scale(0.015625)"/>
       <path id="DejaVuSans-4f" d="M 2522 4238 
Q 1834 4238 1429 3725 
Q 1025 3213 1025 2328 
Q 1025 1447 1429 934 
Q 1834 422 2522 422 
Q 3209 422 3611 934 
Q 4013 1447 4013 2328 
Q 4013 3213 3611 3725 
Q 3209 4238 2522 4238 
z
M 2522 4750 
Q 3503 4750 4090 4092 
Q 4678 3434 4678 2328 
Q 4678 1225 4090 567 
Q 3503 -91 2522 -91 
Q 1538 -91 948 565 
Q 359 1222 359 2328 
Q 359 3434 948 4092 
Q 1538 4750 2522 4750 
z
" transform="scale(0.015625)"/>
       <path id="DejaVuSans-20" transform="scale(0.015625)"/>
       <path id="DejaVuSans-4d" d="M 628 4666 
L 1569 4666 
L 2759 1491 
L 3956 4666 
L 4897 4666 
L 4897 0 
L 4281 0 
L 4281 4097 
L 3078 897 
L 2444 897 
L 1241 4097 
L 1241 0 
L 628 0 
L 628 4666 
z
" transform="scale(0.015625)"/>
      </defs>
      <use xlink:href="#DejaVuSans-50"/>
      <use xlink:href="#DejaVuSans-50" x="60.302734"/>
      <use xlink:href="#DejaVuSans-4f" x="120.605469"/>
      <use xlink:href="#DejaVuSans-20" x="199.316406"/>
      <use xlink:href="#DejaVuSans-4d" x="231.103516"/>
      <use xlink:href="#DejaVuSans-6f" x="317.382812"/>
      <use xlink:href="#DejaVuSans-64" x="378.564453"/>
      <use xlink:href="#DejaVuSans-65" x="442.041016"/>
      <use xlink:href="#DejaVuSans-6c" x="503.564453"/>
      <use xlink:href="#DejaVuSans-73" x="531.347656"/>
     </g>
    </g>
   </g>
   <g id="matplotlib.axis_2">
    <g id="ytick_1">
     <g id="line2d_1">
      <path d="M 108 453.273501 
L 777.6 453.273501 
" clip-path="url(#p7e9b6bd6b0)" style="fill: none; stroke: #cccccc; stroke-width: 0.8; stroke-linecap: round"/>
     </g>
     <g id="text_12">
      <!-- −20 -->
      <g style="fill: #262626" transform="translate(79.895313 457.07272) scale(0.1 -0.1)">
       <defs>
        <path id="DejaVuSans-2212" d="M 678 2272 
L 4684 2272 
L 4684 1741 
L 678 1741 
L 678 2272 
z
" transform="scale(0.015625)"/>
        <path id="DejaVuSans-30" d="M 2034 4250 
Q 1547 4250 1301 3770 
Q 1056 3291 1056 2328 
Q 1056 1369 1301 889 
Q 1547 409 2034 409 
Q 2525 409 2770 889 
Q 3016 1369 3016 2328 
Q 3016 3291 2770 3770 
Q 2525 4250 2034 4250 
z
M 2034 4750 
Q 2819 4750 3233 4129 
Q 3647 3509 3647 2328 
Q 3647 1150 3233 529 
Q 2819 -91 2034 -91 
Q 1250 -91 836 529 
Q 422 1150 422 2328 
Q 422 3509 836 4129 
Q 1250 4750 2034 4750 
z
" transform="scale(0.015625)"/>
       </defs>
       <use xlink:href="#DejaVuSans-2212"/>
       <use xlink:href="#DejaVuSans-32" x="83.789062"/>
       <use xlink:href="#DejaVuSans-30" x="147.412109"/>
      </g>
     </g>
    </g>
    <g id="ytick_2">
     <g id="line2d_2">
      <path d="M 108 361.531748 
L 777.6 361.531748 
" clip-path="url(#p7e9b6bd6b0)" style="fill: none; stroke: #cccccc; stroke-width: 0.8; stroke-linecap: round"/>
     </g>
     <g id="text_13">
      <!-- −10 -->
      <g style="fill: #262626" transform="translate(79.895313 365.330967) scale(0.1 -0.1)">
       <use xlink:href="#DejaVuSans-2212"/>
       <use xlink:href="#DejaVuSans-31" x="83.789062"/>
       <use xlink:href="#DejaVuSans-30" x="147.412109"/>
      </g>
     </g>
    </g>
    <g id="ytick_3">
     <g id="line2d_3">
      <path d="M 108 269.789996 
L 777.6 269.789996 
" clip-path="url(#p7e9b6bd6b0)" style="fill: none; stroke: #cccccc; stroke-width: 0.8; stroke-linecap: round"/>
     </g>
     <g id="text_14">
      <!-- 0 -->
      <g style="fill: #262626" transform="translate(94.6375 273.589215) scale(0.1 -0.1)">
       <use xlink:href="#DejaVuSans-30"/>
      </g>
     </g>
    </g>
    <g id="ytick_4">
     <g id="line2d_4">
      <path d="M 108 178.048243 
L 777.6 178.048243 
" clip-path="url(#p7e9b6bd6b0)" style="fill: none; stroke: #cccccc; stroke-width: 0.8; stroke-linecap: round"/>
     </g>
     <g id="text_15">
      <!-- 10 -->
      <g style="fill: #262626" transform="translate(88.275 181.847462) scale(0.1 -0.1)">
       <use xlink:href="#DejaVuSans-31"/>
       <use xlink:href="#DejaVuSans-30" x="63.623047"/>
      </g>
     </g>
    </g>
    <g id="ytick_5">
     <g id="line2d_5">
      <path d="M 108 86.306491 
L 777.6 86.306491 
" clip-path="url(#p7e9b6bd6b0)" style="fill: none; stroke: #cccccc; stroke-width: 0.8; stroke-linecap: round"/>
     </g>
     <g id="text_16">
      <!-- 20 -->
      <g style="fill: #262626" transform="translate(88.275 90.105709) scale(0.1 -0.1)">
       <use xlink:href="#DejaVuSans-32"/>
       <use xlink:href="#DejaVuSans-30" x="63.623047"/>
      </g>
     </g>
    </g>
    <g id="text_17">
     <!-- Percentage Returns [%] -->
     <g style="fill: #262626" transform="translate(73.815625 350.029219) rotate(-90) scale(0.1 -0.1)">
      <defs>
       <path id="DejaVuSans-6e" d="M 3513 2113 
L 3513 0 
L 2938 0 
L 2938 2094 
Q 2938 2591 2744 2837 
Q 2550 3084 2163 3084 
Q 1697 3084 1428 2787 
Q 1159 2491 1159 1978 
L 1159 0 
L 581 0 
L 581 3500 
L 1159 3500 
L 1159 2956 
Q 1366 3272 1645 3428 
Q 1925 3584 2291 3584 
Q 2894 3584 3203 3211 
Q 3513 2838 3513 2113 
z
" transform="scale(0.015625)"/>
       <path id="DejaVuSans-67" d="M 2906 1791 
Q 2906 2416 2648 2759 
Q 2391 3103 1925 3103 
Q 1463 3103 1205 2759 
Q 947 2416 947 1791 
Q 947 1169 1205 825 
Q 1463 481 1925 481 
Q 2391 481 2648 825 
Q 2906 1169 2906 1791 
z
M 3481 434 
Q 3481 -459 3084 -895 
Q 2688 -1331 1869 -1331 
Q 1566 -1331 1297 -1286 
Q 1028 -1241 775 -1147 
L 775 -588 
Q 1028 -725 1275 -790 
Q 1522 -856 1778 -856 
Q 2344 -856 2625 -561 
Q 2906 -266 2906 331 
L 2906 616 
Q 2728 306 2450 153 
Q 2172 0 1784 0 
Q 1141 0 747 490 
Q 353 981 353 1791 
Q 353 2603 747 3093 
Q 1141 3584 1784 3584 
Q 2172 3584 2450 3431 
Q 2728 3278 2906 2969 
L 2906 3500 
L 3481 3500 
L 3481 434 
z
" transform="scale(0.015625)"/>
       <path id="DejaVuSans-75" d="M 544 1381 
L 544 3500 
L 1119 3500 
L 1119 1403 
Q 1119 906 1312 657 
Q 1506 409 1894 409 
Q 2359 409 2629 706 
Q 2900 1003 2900 1516 
L 2900 3500 
L 3475 3500 
L 3475 0 
L 2900 0 
L 2900 538 
Q 2691 219 2414 64 
Q 2138 -91 1772 -91 
Q 1169 -91 856 284 
Q 544 659 544 1381 
z
M 1991 3584 
L 1991 3584 
z
" transform="scale(0.015625)"/>
       <path id="DejaVuSans-5b" d="M 550 4863 
L 1875 4863 
L 1875 4416 
L 1125 4416 
L 1125 -397 
L 1875 -397 
L 1875 -844 
L 550 -844 
L 550 4863 
z
" transform="scale(0.015625)"/>
       <path id="DejaVuSans-25" d="M 4653 2053 
Q 4381 2053 4226 1822 
Q 4072 1591 4072 1178 
Q 4072 772 4226 539 
Q 4381 306 4653 306 
Q 4919 306 5073 539 
Q 5228 772 5228 1178 
Q 5228 1588 5073 1820 
Q 4919 2053 4653 2053 
z
M 4653 2450 
Q 5147 2450 5437 2106 
Q 5728 1763 5728 1178 
Q 5728 594 5436 251 
Q 5144 -91 4653 -91 
Q 4153 -91 3862 251 
Q 3572 594 3572 1178 
Q 3572 1766 3864 2108 
Q 4156 2450 4653 2450 
z
M 1428 4353 
Q 1159 4353 1004 4120 
Q 850 3888 850 3481 
Q 850 3069 1003 2837 
Q 1156 2606 1428 2606 
Q 1700 2606 1854 2837 
Q 2009 3069 2009 3481 
Q 2009 3884 1853 4118 
Q 1697 4353 1428 4353 
z
M 4250 4750 
L 4750 4750 
L 1831 -91 
L 1331 -91 
L 4250 4750 
z
M 1428 4750 
Q 1922 4750 2215 4408 
Q 2509 4066 2509 3481 
Q 2509 2891 2217 2550 
Q 1925 2209 1428 2209 
Q 931 2209 642 2551 
Q 353 2894 353 3481 
Q 353 4063 643 4406 
Q 934 4750 1428 4750 
z
" transform="scale(0.015625)"/>
       <path id="DejaVuSans-5d" d="M 1947 4863 
L 1947 -844 
L 622 -844 
L 622 -397 
L 1369 -397 
L 1369 4416 
L 622 4416 
L 622 4863 
L 1947 4863 
z
" transform="scale(0.015625)"/>
      </defs>
      <use xlink:href="#DejaVuSans-50"/>
      <use xlink:href="#DejaVuSans-65" x="56.677734"/>
      <use xlink:href="#DejaVuSans-72" x="118.201172"/>
      <use xlink:href="#DejaVuSans-63" x="157.064453"/>
      <use xlink:href="#DejaVuSans-65" x="212.044922"/>
      <use xlink:href="#DejaVuSans-6e" x="273.568359"/>
      <use xlink:href="#DejaVuSans-74" x="336.947266"/>
      <use xlink:href="#DejaVuSans-61" x="376.15625"/>
      <use xlink:href="#DejaVuSans-67" x="437.435547"/>
      <use xlink:href="#DejaVuSans-65" x="500.912109"/>
      <use xlink:href="#DejaVuSans-20" x="562.435547"/>
      <use xlink:href="#DejaVuSans-52" x="594.222656"/>
      <use xlink:href="#DejaVuSans-65" x="659.205078"/>
      <use xlink:href="#DejaVuSans-74" x="720.728516"/>
      <use xlink:href="#DejaVuSans-75" x="759.9375"/>
      <use xlink:href="#DejaVuSans-72" x="823.316406"/>
      <use xlink:href="#DejaVuSans-6e" x="862.679688"/>
      <use xlink:href="#DejaVuSans-73" x="926.058594"/>
      <use xlink:href="#DejaVuSans-20" x="978.158203"/>
      <use xlink:href="#DejaVuSans-5b" x="1009.945312"/>
      <use xlink:href="#DejaVuSans-25" x="1048.958984"/>
      <use xlink:href="#DejaVuSans-5d" x="1143.978516"/>
     </g>
    </g>
   </g>
   <g id="PolyCollection_1">
    <defs>
     <path id="mf8886d2613" d="M 141.941828 -195.551867 
L 141.018172 -195.551867 
L 140.883105 -198.315595 
L 140.71578 -201.079323 
L 140.51059 -203.843051 
L 140.261483 -206.606779 
L 139.962067 -209.370507 
L 139.605735 -212.134235 
L 139.185847 -214.897963 
L 138.69594 -217.661691 
L 138.129982 -220.425419 
L 137.482665 -223.189147 
L 136.749727 -225.952875 
L 135.928283 -228.716603 
L 135.017179 -231.480331 
L 134.017312 -234.244059 
L 132.93193 -237.007787 
L 131.766863 -239.771515 
L 130.530679 -242.535243 
L 129.234724 -245.298972 
L 127.893049 -248.0627 
L 126.522183 -250.826428 
L 125.140779 -253.590156 
L 123.769112 -256.353884 
L 122.428463 -259.117612 
L 121.140406 -261.88134 
L 119.926045 -264.645068 
L 118.805241 -267.408796 
L 117.79587 -270.172524 
L 116.913176 -272.936252 
L 116.169236 -275.69998 
L 115.572596 -278.463708 
L 115.128066 -281.227436 
L 114.836712 -283.991164 
L 114.696 -286.754892 
L 114.700101 -289.51862 
L 114.840298 -292.282348 
L 115.105476 -295.046076 
L 115.482641 -297.809804 
L 115.957444 -300.573532 
L 116.514673 -303.33726 
L 117.138698 -306.100988 
L 117.813862 -308.864716 
L 118.524813 -311.628444 
L 119.256794 -314.392172 
L 119.995897 -317.1559 
L 120.729291 -319.919628 
L 121.445445 -322.683356 
L 122.134339 -325.447084 
L 122.787658 -328.210812 
L 123.398974 -330.97454 
L 123.963882 -333.738268 
L 124.480084 -336.501996 
L 124.947395 -339.265724 
L 125.367672 -342.029452 
L 125.744641 -344.79318 
L 126.083636 -347.556908 
L 126.391267 -350.320636 
L 126.675015 -353.084364 
L 126.942815 -355.848092 
L 127.20262 -358.61182 
L 127.462001 -361.375548 
L 127.727807 -364.139276 
L 128.005889 -366.903004 
L 128.300921 -369.666732 
L 128.616305 -372.43046 
L 128.954167 -375.194188 
L 129.315425 -377.957916 
L 129.699918 -380.721644 
L 130.106572 -383.485372 
L 130.533589 -386.2491 
L 130.978636 -389.012828 
L 131.439026 -391.776556 
L 131.911874 -394.540284 
L 132.394227 -397.304012 
L 132.883158 -400.06774 
L 133.375836 -402.831468 
L 133.869556 -405.595196 
L 134.361757 -408.358924 
L 134.850015 -411.122652 
L 135.332027 -413.88638 
L 135.805586 -416.650108 
L 136.268566 -419.413836 
L 136.718901 -422.177564 
L 137.154586 -424.941292 
L 137.573681 -427.70502 
L 137.974333 -430.468748 
L 138.354814 -433.232476 
L 138.713558 -435.996204 
L 139.049219 -438.759932 
L 139.360715 -441.52366 
L 139.647278 -444.287388 
L 139.90849 -447.051116 
L 140.144304 -449.814844 
L 140.355057 -452.578572 
L 140.541449 -455.3423 
L 140.704523 -458.106028 
L 140.845618 -460.869756 
L 140.96631 -463.633484 
L 141.068355 -466.397212 
L 141.153616 -469.16094 
L 141.806384 -469.16094 
L 141.806384 -469.16094 
L 141.891645 -466.397212 
L 141.99369 -463.633484 
L 142.114382 -460.869756 
L 142.255477 -458.106028 
L 142.418551 -455.3423 
L 142.604943 -452.578572 
L 142.815696 -449.814844 
L 143.05151 -447.051116 
L 143.312722 -444.287388 
L 143.599285 -441.52366 
L 143.910781 -438.759932 
L 144.246442 -435.996204 
L 144.605186 -433.232476 
L 144.985667 -430.468748 
L 145.386319 -427.70502 
L 145.805414 -424.941292 
L 146.241099 -422.177564 
L 146.691434 -419.413836 
L 147.154414 -416.650108 
L 147.627973 -413.88638 
L 148.109985 -411.122652 
L 148.598243 -408.358924 
L 149.090444 -405.595196 
L 149.584164 -402.831468 
L 150.076842 -400.06774 
L 150.565773 -397.304012 
L 151.048126 -394.540284 
L 151.520974 -391.776556 
L 151.981364 -389.012828 
L 152.426411 -386.2491 
L 152.853428 -383.485372 
L 153.260082 -380.721644 
L 153.644575 -377.957916 
L 154.005833 -375.194188 
L 154.343695 -372.43046 
L 154.659079 -369.666732 
L 154.954111 -366.903004 
L 155.232193 -364.139276 
L 155.497999 -361.375548 
L 155.75738 -358.61182 
L 156.017185 -355.848092 
L 156.284985 -353.084364 
L 156.568733 -350.320636 
L 156.876364 -347.556908 
L 157.215359 -344.79318 
L 157.592328 -342.029452 
L 158.012605 -339.265724 
L 158.479916 -336.501996 
L 158.996118 -333.738268 
L 159.561026 -330.97454 
L 160.172342 -328.210812 
L 160.825661 -325.447084 
L 161.514555 -322.683356 
L 162.230709 -319.919628 
L 162.964103 -317.1559 
L 163.703206 -314.392172 
L 164.435187 -311.628444 
L 165.146138 -308.864716 
L 165.821302 -306.100988 
L 166.445327 -303.33726 
L 167.002556 -300.573532 
L 167.477359 -297.809804 
L 167.854524 -295.046076 
L 168.119702 -292.282348 
L 168.259899 -289.51862 
L 168.264 -286.754892 
L 168.123288 -283.991164 
L 167.831934 -281.227436 
L 167.387404 -278.463708 
L 166.790764 -275.69998 
L 166.046824 -272.936252 
L 165.16413 -270.172524 
L 164.154759 -267.408796 
L 163.033955 -264.645068 
L 161.819594 -261.88134 
L 160.531537 -259.117612 
L 159.190888 -256.353884 
L 157.819221 -253.590156 
L 156.437817 -250.826428 
L 155.066951 -248.0627 
L 153.725276 -245.298972 
L 152.429321 -242.535243 
L 151.193137 -239.771515 
L 150.02807 -237.007787 
L 148.942688 -234.244059 
L 147.942821 -231.480331 
L 147.031717 -228.716603 
L 146.210273 -225.952875 
L 145.477335 -223.189147 
L 144.830018 -220.425419 
L 144.26406 -217.661691 
L 143.774153 -214.897963 
L 143.354265 -212.134235 
L 142.997933 -209.370507 
L 142.698517 -206.606779 
L 142.44941 -203.843051 
L 142.24422 -201.079323 
L 142.076895 -198.315595 
L 141.941828 -195.551867 
z
" style="stroke: #5f5f5f; stroke-width: 1.25"/>
    </defs>
    <g clip-path="url(#p7e9b6bd6b0)">
     <use xlink:href="#mf8886d2613" x="0" y="576" style="fill: #96cac1; stroke: #5f5f5f; stroke-width: 1.25"/>
    </g>
   </g>
   <g id="PolyCollection_2">
    <defs>
     <path id="m14657717f1" d="M 208.630602 -317.193886 
L 208.249398 -317.193886 
L 208.199819 -317.526147 
L 208.141427 -317.858408 
L 208.073814 -318.190668 
L 207.996866 -318.522929 
L 207.910815 -318.85519 
L 207.816286 -319.18745 
L 207.714311 -319.519711 
L 207.606319 -319.851971 
L 207.494088 -320.184232 
L 207.379663 -320.516493 
L 207.265247 -320.848753 
L 207.153064 -321.181014 
L 207.045216 -321.513275 
L 206.943533 -321.845535 
L 206.849449 -322.177796 
L 206.763904 -322.510057 
L 206.687284 -322.842317 
L 206.61942 -323.174578 
L 206.559627 -323.506839 
L 206.506803 -323.839099 
L 206.459553 -324.17136 
L 206.416349 -324.50362 
L 206.375688 -324.835881 
L 206.336248 -325.168142 
L 206.297015 -325.500402 
L 206.25737 -325.832663 
L 206.217143 -326.164924 
L 206.176607 -326.497184 
L 206.136434 -326.829445 
L 206.097616 -327.161706 
L 206.061353 -327.493966 
L 206.028928 -327.826227 
L 206.001566 -328.158488 
L 205.980306 -328.490748 
L 205.965866 -328.823009 
L 205.958536 -329.15527 
L 205.958075 -329.48753 
L 205.963633 -329.819791 
L 205.973702 -330.152051 
L 205.986086 -330.484312 
L 205.99791 -330.816573 
L 206.005654 -331.148833 
L 206.005234 -331.481094 
L 205.992106 -331.813355 
L 205.961399 -332.145615 
L 205.908065 -332.477876 
L 205.827021 -332.810137 
L 205.71328 -333.142397 
L 205.56203 -333.474658 
L 205.368666 -333.806919 
L 205.128748 -334.139179 
L 204.83789 -334.47144 
L 204.491597 -334.8037 
L 204.085066 -335.135961 
L 203.612994 -335.468222 
L 203.069456 -335.800482 
L 202.447882 -336.132743 
L 201.741219 -336.465004 
L 200.94229 -336.797264 
L 200.044409 -337.129525 
L 199.042214 -337.461786 
L 197.932718 -337.794046 
L 196.716472 -338.126307 
L 195.39877 -338.458568 
L 193.990741 -338.790828 
L 192.510189 -339.123089 
L 190.982051 -339.455349 
L 189.438335 -339.78761 
L 187.917458 -340.119871 
L 186.462958 -340.452131 
L 185.12161 -340.784392 
L 183.941048 -341.116653 
L 182.967048 -341.448913 
L 182.2407 -341.781174 
L 181.7957 -342.113435 
L 181.656 -342.445695 
L 181.834049 -342.777956 
L 182.329778 -343.110217 
L 183.130446 -343.442477 
L 184.211336 -343.774738 
L 185.537278 -344.106998 
L 187.06481 -344.439259 
L 188.744822 -344.77152 
L 190.525426 -345.10378 
L 192.354818 -345.436041 
L 194.183915 -345.768302 
L 195.968575 -346.100562 
L 197.671278 -346.432823 
L 199.262193 -346.765084 
L 200.719637 -347.097344 
L 202.029964 -347.429605 
L 203.186975 -347.761866 
L 204.190978 -348.094126 
L 205.047618 -348.426387 
L 205.766598 -348.758647 
L 206.360417 -349.090908 
L 206.8432 -349.423169 
L 207.229688 -349.755429 
L 207.534417 -350.08769 
L 209.345583 -350.08769 
L 209.345583 -350.08769 
L 209.650312 -349.755429 
L 210.0368 -349.423169 
L 210.519583 -349.090908 
L 211.113402 -348.758647 
L 211.832382 -348.426387 
L 212.689022 -348.094126 
L 213.693025 -347.761866 
L 214.850036 -347.429605 
L 216.160363 -347.097344 
L 217.617807 -346.765084 
L 219.208722 -346.432823 
L 220.911425 -346.100562 
L 222.696085 -345.768302 
L 224.525182 -345.436041 
L 226.354574 -345.10378 
L 228.135178 -344.77152 
L 229.81519 -344.439259 
L 231.342722 -344.106998 
L 232.668664 -343.774738 
L 233.749554 -343.442477 
L 234.550222 -343.110217 
L 235.045951 -342.777956 
L 235.224 -342.445695 
L 235.0843 -342.113435 
L 234.6393 -341.781174 
L 233.912952 -341.448913 
L 232.938952 -341.116653 
L 231.75839 -340.784392 
L 230.417042 -340.452131 
L 228.962542 -340.119871 
L 227.441665 -339.78761 
L 225.897949 -339.455349 
L 224.369811 -339.123089 
L 222.889259 -338.790828 
L 221.48123 -338.458568 
L 220.163528 -338.126307 
L 218.947282 -337.794046 
L 217.837786 -337.461786 
L 216.835591 -337.129525 
L 215.93771 -336.797264 
L 215.138781 -336.465004 
L 214.432118 -336.132743 
L 213.810544 -335.800482 
L 213.267006 -335.468222 
L 212.794934 -335.135961 
L 212.388403 -334.8037 
L 212.04211 -334.47144 
L 211.751252 -334.139179 
L 211.511334 -333.806919 
L 211.31797 -333.474658 
L 211.16672 -333.142397 
L 211.052979 -332.810137 
L 210.971935 -332.477876 
L 210.918601 -332.145615 
L 210.887894 -331.813355 
L 210.874766 -331.481094 
L 210.874346 -331.148833 
L 210.88209 -330.816573 
L 210.893914 -330.484312 
L 210.906298 -330.152051 
L 210.916367 -329.819791 
L 210.921925 -329.48753 
L 210.921464 -329.15527 
L 210.914134 -328.823009 
L 210.899694 -328.490748 
L 210.878434 -328.158488 
L 210.851072 -327.826227 
L 210.818647 -327.493966 
L 210.782384 -327.161706 
L 210.743566 -326.829445 
L 210.703393 -326.497184 
L 210.662857 -326.164924 
L 210.62263 -325.832663 
L 210.582985 -325.500402 
L 210.543752 -325.168142 
L 210.504312 -324.835881 
L 210.463651 -324.50362 
L 210.420447 -324.17136 
L 210.373197 -323.839099 
L 210.320373 -323.506839 
L 210.26058 -323.174578 
L 210.192716 -322.842317 
L 210.116096 -322.510057 
L 210.030551 -322.177796 
L 209.936467 -321.845535 
L 209.834784 -321.513275 
L 209.726936 -321.181014 
L 209.614753 -320.848753 
L 209.500337 -320.516493 
L 209.385912 -320.184232 
L 209.273681 -319.851971 
L 209.165689 -319.519711 
L 209.063714 -319.18745 
L 208.969185 -318.85519 
L 208.883134 -318.522929 
L 208.806186 -318.190668 
L 208.738573 -317.858408 
L 208.680181 -317.526147 
L 208.630602 -317.193886 
z
" style="stroke: #5f5f5f; stroke-width: 1.25"/>
    </defs>
    <g clip-path="url(#p7e9b6bd6b0)">
     <use xlink:href="#m14657717f1" x="0" y="576" style="fill: #f6f6bc; stroke: #5f5f5f; stroke-width: 1.25"/>
    </g>
   </g>
   <g id="PolyCollection_3">
    <defs>
     <path id="mc4feccb404" d="M 275.681148 -83.52 
L 275.118852 -83.52 
L 275.040473 -87.324701 
L 274.94758 -91.129403 
L 274.839767 -94.934104 
L 274.717315 -98.738805 
L 274.581337 -102.543507 
L 274.433865 -106.348208 
L 274.277888 -110.15291 
L 274.117292 -113.957611 
L 273.956721 -117.762312 
L 273.801335 -121.567014 
L 273.656486 -125.371715 
L 273.527327 -129.176416 
L 273.418386 -132.981118 
L 273.333134 -136.785819 
L 273.273601 -140.590521 
L 273.240063 -144.395222 
L 273.230841 -148.199923 
L 273.242231 -152.004625 
L 273.268572 -155.809326 
L 273.302447 -159.614027 
L 273.334999 -163.418729 
L 273.356335 -167.22343 
L 273.355967 -171.028132 
L 273.323277 -174.832833 
L 273.247934 -178.637534 
L 273.120272 -182.442236 
L 272.931566 -186.246937 
L 272.674223 -190.051638 
L 272.341881 -193.85634 
L 271.929413 -197.661041 
L 271.432875 -201.465742 
L 270.849409 -205.270444 
L 270.177147 -209.075145 
L 269.415132 -212.879847 
L 268.563298 -216.684548 
L 267.622542 -220.489249 
L 266.594884 -224.293951 
L 265.48374 -228.098652 
L 264.294295 -231.903353 
L 263.033943 -235.708055 
L 261.712756 -239.512756 
L 260.343922 -243.317458 
L 258.944077 -247.122159 
L 257.533451 -250.92686 
L 256.135748 -254.731562 
L 254.777705 -258.536263 
L 253.488267 -262.340964 
L 252.297409 -266.145666 
L 251.234615 -269.950367 
L 250.32712 -273.755069 
L 249.598061 -277.55977 
L 249.064693 -281.364471 
L 248.736872 -285.169173 
L 248.616 -288.973874 
L 248.694573 -292.778575 
L 248.956448 -296.583277 
L 249.377847 -300.387978 
L 249.929036 -304.192679 
L 250.576541 -307.997381 
L 251.285686 -311.802082 
L 252.023199 -315.606784 
L 252.759608 -319.411485 
L 253.471203 -323.216186 
L 254.141362 -327.020888 
L 254.76114 -330.825589 
L 255.32912 -334.63029 
L 255.850575 -338.434992 
L 256.336109 -342.239693 
L 256.79997 -346.044395 
L 257.258234 -349.849096 
L 257.727076 -353.653797 
L 258.221286 -357.458499 
L 258.753125 -361.2632 
L 259.331596 -365.067901 
L 259.962096 -368.872603 
L 260.646416 -372.677304 
L 261.383001 -376.482006 
L 262.167386 -380.286707 
L 262.992723 -384.091408 
L 263.850331 -387.89611 
L 264.73023 -391.700811 
L 265.621633 -395.505512 
L 266.513379 -399.310214 
L 267.394341 -403.114915 
L 268.25378 -406.919616 
L 269.081683 -410.724318 
L 269.869061 -414.529019 
L 270.608223 -418.333721 
L 271.29299 -422.138422 
L 271.918851 -425.943123 
L 272.483043 -429.747825 
L 272.984548 -433.552526 
L 273.423999 -437.357227 
L 273.803516 -441.161929 
L 274.126472 -444.96663 
L 274.39722 -448.771332 
L 274.620794 -452.576033 
L 274.802617 -456.380734 
L 274.948228 -460.185436 
L 275.851772 -460.185436 
L 275.851772 -460.185436 
L 275.997383 -456.380734 
L 276.179206 -452.576033 
L 276.40278 -448.771332 
L 276.673528 -444.96663 
L 276.996484 -441.161929 
L 277.376001 -437.357227 
L 277.815452 -433.552526 
L 278.316957 -429.747825 
L 278.881149 -425.943123 
L 279.50701 -422.138422 
L 280.191777 -418.333721 
L 280.930939 -414.529019 
L 281.718317 -410.724318 
L 282.54622 -406.919616 
L 283.405659 -403.114915 
L 284.286621 -399.310214 
L 285.178367 -395.505512 
L 286.06977 -391.700811 
L 286.949669 -387.89611 
L 287.807277 -384.091408 
L 288.632614 -380.286707 
L 289.416999 -376.482006 
L 290.153584 -372.677304 
L 290.837904 -368.872603 
L 291.468404 -365.067901 
L 292.046875 -361.2632 
L 292.578714 -357.458499 
L 293.072924 -353.653797 
L 293.541766 -349.849096 
L 294.00003 -346.044395 
L 294.463891 -342.239693 
L 294.949425 -338.434992 
L 295.47088 -334.63029 
L 296.03886 -330.825589 
L 296.658638 -327.020888 
L 297.328797 -323.216186 
L 298.040392 -319.411485 
L 298.776801 -315.606784 
L 299.514314 -311.802082 
L 300.223459 -307.997381 
L 300.870964 -304.192679 
L 301.422153 -300.387978 
L 301.843552 -296.583277 
L 302.105427 -292.778575 
L 302.184 -288.973874 
L 302.063128 -285.169173 
L 301.735307 -281.364471 
L 301.201939 -277.55977 
L 300.47288 -273.755069 
L 299.565385 -269.950367 
L 298.502591 -266.145666 
L 297.311733 -262.340964 
L 296.022295 -258.536263 
L 294.664252 -254.731562 
L 293.266549 -250.92686 
L 291.855923 -247.122159 
L 290.456078 -243.317458 
L 289.087244 -239.512756 
L 287.766057 -235.708055 
L 286.505705 -231.903353 
L 285.31626 -228.098652 
L 284.205116 -224.293951 
L 283.177458 -220.489249 
L 282.236702 -216.684548 
L 281.384868 -212.879847 
L 280.622853 -209.075145 
L 279.950591 -205.270444 
L 279.367125 -201.465742 
L 278.870587 -197.661041 
L 278.458119 -193.85634 
L 278.125777 -190.051638 
L 277.868434 -186.246937 
L 277.679728 -182.442236 
L 277.552066 -178.637534 
L 277.476723 -174.832833 
L 277.444033 -171.028132 
L 277.443665 -167.22343 
L 277.465001 -163.418729 
L 277.497553 -159.614027 
L 277.531428 -155.809326 
L 277.557769 -152.004625 
L 277.569159 -148.199923 
L 277.559937 -144.395222 
L 277.526399 -140.590521 
L 277.466866 -136.785819 
L 277.381614 -132.981118 
L 277.272673 -129.176416 
L 277.143514 -125.371715 
L 276.998665 -121.567014 
L 276.843279 -117.762312 
L 276.682708 -113.957611 
L 276.522112 -110.15291 
L 276.366135 -106.348208 
L 276.218663 -102.543507 
L 276.082685 -98.738805 
L 275.960233 -94.934104 
L 275.85242 -91.129403 
L 275.759527 -87.324701 
L 275.681148 -83.52 
z
" style="stroke: #5f5f5f; stroke-width: 1.25"/>
    </defs>
    <g clip-path="url(#p7e9b6bd6b0)">
     <use xlink:href="#mc4feccb404" x="0" y="576" style="fill: #c1bed6; stroke: #5f5f5f; stroke-width: 1.25"/>
    </g>
   </g>
   <g id="PolyCollection_4">
    <defs>
     <path id="me67642b649" d="M 342.727289 -228.939066 
L 341.992711 -228.939066 
L 341.892406 -230.534383 
L 341.771637 -232.129699 
L 341.628146 -233.725016 
L 341.459867 -235.320332 
L 341.265008 -236.915648 
L 341.042116 -238.510965 
L 340.790115 -240.106281 
L 340.508296 -241.701597 
L 340.196255 -243.296914 
L 339.853775 -244.89223 
L 339.480657 -246.487547 
L 339.076503 -248.082863 
L 338.640474 -249.678179 
L 338.171046 -251.273496 
L 337.665804 -252.868812 
L 337.121306 -254.464128 
L 336.533047 -256.059445 
L 335.89557 -257.654761 
L 335.202731 -259.250077 
L 334.448131 -260.845394 
L 333.625707 -262.44071 
L 332.730446 -264.036027 
L 331.759166 -265.631343 
L 330.711317 -267.226659 
L 329.589703 -268.821976 
L 328.401055 -270.417292 
L 327.156376 -272.012608 
L 325.871007 -273.607925 
L 324.564359 -275.203241 
L 323.259317 -276.798557 
L 321.981343 -278.393874 
L 320.757315 -279.98919 
L 319.614205 -281.584507 
L 318.577689 -283.179823 
L 317.670808 -284.775139 
L 316.912771 -286.370456 
L 316.318025 -287.965772 
L 315.895631 -289.561088 
L 315.649001 -291.156405 
L 315.576 -292.751721 
L 315.669371 -294.347037 
L 315.917433 -295.942354 
L 316.304966 -297.53767 
L 316.814192 -299.132987 
L 317.425767 -300.728303 
L 318.119695 -302.323619 
L 318.87612 -303.918936 
L 319.675941 -305.514252 
L 320.50126 -307.109568 
L 321.335661 -308.704885 
L 322.164362 -310.300201 
L 322.974275 -311.895518 
L 323.754024 -313.490834 
L 324.493956 -315.08615 
L 325.186175 -316.681467 
L 325.824614 -318.276783 
L 326.405134 -319.872099 
L 326.925644 -321.467416 
L 327.3862 -323.062732 
L 327.789065 -324.658048 
L 328.138681 -326.253365 
L 328.441541 -327.848681 
L 328.705949 -329.443998 
L 328.941651 -331.039314 
L 329.159376 -332.63463 
L 329.370296 -334.229947 
L 329.58546 -335.825263 
L 329.815222 -337.420579 
L 330.068735 -339.015896 
L 330.353522 -340.611212 
L 330.675164 -342.206528 
L 331.037126 -343.801845 
L 331.440712 -345.397161 
L 331.885153 -346.992478 
L 332.367802 -348.587794 
L 332.884408 -350.18311 
L 333.429454 -351.778427 
L 333.996507 -353.373743 
L 334.578576 -354.969059 
L 335.16844 -356.564376 
L 335.758939 -358.159692 
L 336.343214 -359.755008 
L 336.9149 -361.350325 
L 337.468271 -362.945641 
L 337.998332 -364.540958 
L 338.500887 -366.136274 
L 338.972563 -367.73159 
L 339.410821 -369.326907 
L 339.813935 -370.922223 
L 340.180967 -372.517539 
L 340.511713 -374.112856 
L 340.806648 -375.708172 
L 341.06685 -377.303488 
L 341.293914 -378.898805 
L 341.489863 -380.494121 
L 341.657046 -382.089438 
L 341.798038 -383.684754 
L 341.915544 -385.28007 
L 342.012304 -386.875387 
L 342.707696 -386.875387 
L 342.707696 -386.875387 
L 342.804456 -385.28007 
L 342.921962 -383.684754 
L 343.062954 -382.089438 
L 343.230137 -380.494121 
L 343.426086 -378.898805 
L 343.65315 -377.303488 
L 343.913352 -375.708172 
L 344.208287 -374.112856 
L 344.539033 -372.517539 
L 344.906065 -370.922223 
L 345.309179 -369.326907 
L 345.747437 -367.73159 
L 346.219113 -366.136274 
L 346.721668 -364.540958 
L 347.251729 -362.945641 
L 347.8051 -361.350325 
L 348.376786 -359.755008 
L 348.961061 -358.159692 
L 349.55156 -356.564376 
L 350.141424 -354.969059 
L 350.723493 -353.373743 
L 351.290546 -351.778427 
L 351.835592 -350.18311 
L 352.352198 -348.587794 
L 352.834847 -346.992478 
L 353.279288 -345.397161 
L 353.682874 -343.801845 
L 354.044836 -342.206528 
L 354.366478 -340.611212 
L 354.651265 -339.015896 
L 354.904778 -337.420579 
L 355.13454 -335.825263 
L 355.349704 -334.229947 
L 355.560624 -332.63463 
L 355.778349 -331.039314 
L 356.014051 -329.443998 
L 356.278459 -327.848681 
L 356.581319 -326.253365 
L 356.930935 -324.658048 
L 357.3338 -323.062732 
L 357.794356 -321.467416 
L 358.314866 -319.872099 
L 358.895386 -318.276783 
L 359.533825 -316.681467 
L 360.226044 -315.08615 
L 360.965976 -313.490834 
L 361.745725 -311.895518 
L 362.555638 -310.300201 
L 363.384339 -308.704885 
L 364.21874 -307.109568 
L 365.044059 -305.514252 
L 365.84388 -303.918936 
L 366.600305 -302.323619 
L 367.294233 -300.728303 
L 367.905808 -299.132987 
L 368.415034 -297.53767 
L 368.802567 -295.942354 
L 369.050629 -294.347037 
L 369.144 -292.751721 
L 369.070999 -291.156405 
L 368.824369 -289.561088 
L 368.401975 -287.965772 
L 367.807229 -286.370456 
L 367.049192 -284.775139 
L 366.142311 -283.179823 
L 365.105795 -281.584507 
L 363.962685 -279.98919 
L 362.738657 -278.393874 
L 361.460683 -276.798557 
L 360.155641 -275.203241 
L 358.848993 -273.607925 
L 357.563624 -272.012608 
L 356.318945 -270.417292 
L 355.130297 -268.821976 
L 354.008683 -267.226659 
L 352.960834 -265.631343 
L 351.989554 -264.036027 
L 351.094293 -262.44071 
L 350.271869 -260.845394 
L 349.517269 -259.250077 
L 348.82443 -257.654761 
L 348.186953 -256.059445 
L 347.598694 -254.464128 
L 347.054196 -252.868812 
L 346.548954 -251.273496 
L 346.079526 -249.678179 
L 345.643497 -248.082863 
L 345.239343 -246.487547 
L 344.866225 -244.89223 
L 344.523745 -243.296914 
L 344.211704 -241.701597 
L 343.929885 -240.106281 
L 343.677884 -238.510965 
L 343.454992 -236.915648 
L 343.260133 -235.320332 
L 343.091854 -233.725016 
L 342.948363 -232.129699 
L 342.827594 -230.534383 
L 342.727289 -228.939066 
z
" style="stroke: #5f5f5f; stroke-width: 1.25"/>
    </defs>
    <g clip-path="url(#p7e9b6bd6b0)">
     <use xlink:href="#me67642b649" x="0" y="576" style="fill: #ea8e83; stroke: #5f5f5f; stroke-width: 1.25"/>
    </g>
   </g>
   <g id="PolyCollection_5">
    <defs>
     <path id="m5d22b0899e" d="M 409.638887 -315.532039 
L 409.001113 -315.532039 
L 408.912637 -315.974787 
L 408.806002 -316.417535 
L 408.679298 -316.860283 
L 408.530869 -317.303032 
L 408.35943 -317.74578 
L 408.164176 -318.188528 
L 407.944889 -318.631276 
L 407.702021 -319.074024 
L 407.436749 -319.516772 
L 407.151001 -319.95952 
L 406.847442 -320.402268 
L 406.529419 -320.845016 
L 406.200866 -321.287765 
L 405.866171 -321.730513 
L 405.529998 -322.173261 
L 405.197081 -322.616009 
L 404.871989 -323.058757 
L 404.558863 -323.501505 
L 404.261146 -323.944253 
L 403.981306 -324.387001 
L 403.720577 -324.82975 
L 403.478732 -325.272498 
L 403.253904 -325.715246 
L 403.042495 -326.157994 
L 402.83917 -326.600742 
L 402.636975 -327.04349 
L 402.427583 -327.486238 
L 402.20166 -327.928986 
L 401.949347 -328.371734 
L 401.66084 -328.814483 
L 401.327006 -329.257231 
L 400.940011 -329.699979 
L 400.493887 -330.142727 
L 399.985003 -330.585475 
L 399.41236 -331.028223 
L 398.777716 -331.470971 
L 398.085482 -331.913719 
L 397.342414 -332.356468 
L 396.557124 -332.799216 
L 395.739443 -333.241964 
L 394.899704 -333.684712 
L 394.048021 -334.12746 
L 393.19363 -334.570208 
L 392.344362 -335.012956 
L 391.506319 -335.455704 
L 390.683774 -335.898453 
L 389.879319 -336.341201 
L 389.094251 -336.783949 
L 388.329146 -337.226697 
L 387.584571 -337.669445 
L 386.861852 -338.112193 
L 386.16379 -338.554941 
L 385.495269 -338.997689 
L 384.863648 -339.440437 
L 384.278879 -339.883186 
L 383.753341 -340.325934 
L 383.301352 -340.768682 
L 382.938423 -341.21143 
L 382.680294 -341.654178 
L 382.541848 -342.096926 
L 382.536 -342.539674 
L 382.672671 -342.982422 
L 382.95794 -343.425171 
L 383.393452 -343.867919 
L 383.976144 -344.310667 
L 384.698301 -344.753415 
L 385.547929 -345.196163 
L 386.509417 -345.638911 
L 387.564405 -346.081659 
L 388.692786 -346.524407 
L 389.873754 -346.967155 
L 391.086804 -347.409904 
L 392.312619 -347.852652 
L 393.533778 -348.2954 
L 394.735264 -348.738148 
L 395.904734 -349.180896 
L 397.032585 -349.623644 
L 398.111832 -350.066392 
L 399.137827 -350.50914 
L 400.107892 -350.951889 
L 401.020892 -351.394637 
L 401.876811 -351.837385 
L 402.676356 -352.280133 
L 403.420643 -352.722881 
L 404.110949 -353.165629 
L 404.748568 -353.608377 
L 405.334742 -354.051125 
L 405.870666 -354.493873 
L 406.357543 -354.936622 
L 406.796665 -355.37937 
L 407.189506 -355.822118 
L 407.537801 -356.264866 
L 407.843599 -356.707614 
L 408.109288 -357.150362 
L 408.33758 -357.59311 
L 408.531466 -358.035858 
L 408.694149 -358.478607 
L 408.828952 -358.921355 
L 408.939225 -359.364103 
L 409.700775 -359.364103 
L 409.700775 -359.364103 
L 409.811048 -358.921355 
L 409.945851 -358.478607 
L 410.108534 -358.035858 
L 410.30242 -357.59311 
L 410.530712 -357.150362 
L 410.796401 -356.707614 
L 411.102199 -356.264866 
L 411.450494 -355.822118 
L 411.843335 -355.37937 
L 412.282457 -354.936622 
L 412.769334 -354.493873 
L 413.305258 -354.051125 
L 413.891432 -353.608377 
L 414.529051 -353.165629 
L 415.219357 -352.722881 
L 415.963644 -352.280133 
L 416.763189 -351.837385 
L 417.619108 -351.394637 
L 418.532108 -350.951889 
L 419.502173 -350.50914 
L 420.528168 -350.066392 
L 421.607415 -349.623644 
L 422.735266 -349.180896 
L 423.904736 -348.738148 
L 425.106222 -348.2954 
L 426.327381 -347.852652 
L 427.553196 -347.409904 
L 428.766246 -346.967155 
L 429.947214 -346.524407 
L 431.075595 -346.081659 
L 432.130583 -345.638911 
L 433.092071 -345.196163 
L 433.941699 -344.753415 
L 434.663856 -344.310667 
L 435.246548 -343.867919 
L 435.68206 -343.425171 
L 435.967329 -342.982422 
L 436.104 -342.539674 
L 436.098152 -342.096926 
L 435.959706 -341.654178 
L 435.701577 -341.21143 
L 435.338648 -340.768682 
L 434.886659 -340.325934 
L 434.361121 -339.883186 
L 433.776352 -339.440437 
L 433.144731 -338.997689 
L 432.47621 -338.554941 
L 431.778148 -338.112193 
L 431.055429 -337.669445 
L 430.310854 -337.226697 
L 429.545749 -336.783949 
L 428.760681 -336.341201 
L 427.956226 -335.898453 
L 427.133681 -335.455704 
L 426.295638 -335.012956 
L 425.44637 -334.570208 
L 424.591979 -334.12746 
L 423.740296 -333.684712 
L 422.900557 -333.241964 
L 422.082876 -332.799216 
L 421.297586 -332.356468 
L 420.554518 -331.913719 
L 419.862284 -331.470971 
L 419.22764 -331.028223 
L 418.654997 -330.585475 
L 418.146113 -330.142727 
L 417.699989 -329.699979 
L 417.312994 -329.257231 
L 416.97916 -328.814483 
L 416.690653 -328.371734 
L 416.43834 -327.928986 
L 416.212417 -327.486238 
L 416.003025 -327.04349 
L 415.80083 -326.600742 
L 415.597505 -326.157994 
L 415.386096 -325.715246 
L 415.161268 -325.272498 
L 414.919423 -324.82975 
L 414.658694 -324.387001 
L 414.378854 -323.944253 
L 414.081137 -323.501505 
L 413.768011 -323.058757 
L 413.442919 -322.616009 
L 413.110002 -322.173261 
L 412.773829 -321.730513 
L 412.439134 -321.287765 
L 412.110581 -320.845016 
L 411.792558 -320.402268 
L 411.488999 -319.95952 
L 411.203251 -319.516772 
L 410.937979 -319.074024 
L 410.695111 -318.631276 
L 410.475824 -318.188528 
L 410.28057 -317.74578 
L 410.109131 -317.303032 
L 409.960702 -316.860283 
L 409.833998 -316.417535 
L 409.727363 -315.974787 
L 409.638887 -315.532039 
z
" style="stroke: #5f5f5f; stroke-width: 1.25"/>
    </defs>
    <g clip-path="url(#p7e9b6bd6b0)">
     <use xlink:href="#m5d22b0899e" x="0" y="576" style="fill: #8aafc9; stroke: #5f5f5f; stroke-width: 1.25"/>
    </g>
   </g>
   <g id="PolyCollection_6">
    <defs>
     <path id="m9594b5eaec" d="M 476.797232 -154.056112 
L 475.762768 -154.056112 
L 475.625251 -157.038187 
L 475.460354 -160.020261 
L 475.265209 -163.002335 
L 475.037293 -165.984409 
L 474.774606 -168.966484 
L 474.475839 -171.948558 
L 474.140534 -174.930632 
L 473.769218 -177.912706 
L 473.363486 -180.894781 
L 472.92604 -183.876855 
L 472.460659 -186.858929 
L 471.972103 -189.841003 
L 471.465953 -192.823078 
L 470.948387 -195.805152 
L 470.425914 -198.787226 
L 469.905081 -201.7693 
L 469.392176 -204.751375 
L 468.89294 -207.733449 
L 468.41233 -210.715523 
L 467.954325 -213.697597 
L 467.521809 -216.679672 
L 467.116522 -219.661746 
L 466.739073 -222.64382 
L 466.389013 -225.625894 
L 466.064948 -228.607969 
L 465.764657 -231.590043 
L 465.485217 -234.572117 
L 465.223093 -237.554191 
L 464.974191 -240.536265 
L 464.733877 -243.51834 
L 464.49694 -246.500414 
L 464.257545 -249.482488 
L 464.009178 -252.464562 
L 463.744609 -255.446637 
L 463.455929 -258.428711 
L 463.134662 -261.410785 
L 462.771991 -264.392859 
L 462.359112 -267.374934 
L 461.887716 -270.357008 
L 461.350583 -273.339082 
L 460.742252 -276.321156 
L 460.059733 -279.303231 
L 459.303195 -282.285305 
L 458.476562 -285.267379 
L 457.587954 -288.249453 
L 456.649907 -291.231528 
L 455.679322 -294.213602 
L 454.697105 -297.195676 
L 453.727501 -300.17775 
L 452.797124 -303.159825 
L 451.933745 -306.141899 
L 451.164898 -309.123973 
L 450.516401 -312.106047 
L 450.010905 -315.088121 
L 449.666573 -318.070196 
L 449.496 -321.05227 
L 449.505468 -324.034344 
L 449.694586 -327.016418 
L 450.05637 -329.998493 
L 450.577739 -332.980567 
L 451.240401 -335.962641 
L 452.022058 -338.944715 
L 452.897826 -341.92679 
L 453.841765 -344.908864 
L 454.828394 -347.890938 
L 455.834075 -350.873012 
L 456.838173 -353.855087 
L 457.823915 -356.837161 
L 458.778895 -359.819235 
L 459.695222 -362.801309 
L 460.569316 -365.783384 
L 461.401416 -368.765458 
L 462.194843 -371.747532 
L 462.955127 -374.729606 
L 463.689056 -377.711681 
L 464.403759 -380.693755 
L 465.105879 -383.675829 
L 465.800892 -386.657903 
L 466.49263 -389.639978 
L 467.183004 -392.622052 
L 467.871933 -395.604126 
L 468.557469 -398.5862 
L 469.236058 -401.568274 
L 469.902931 -404.550349 
L 470.552543 -407.532423 
L 471.179037 -410.514497 
L 471.776688 -413.496571 
L 472.34029 -416.478646 
L 472.86546 -419.46072 
L 473.348862 -422.442794 
L 473.788321 -425.424868 
L 474.182859 -428.406943 
L 474.532645 -431.389017 
L 474.838882 -434.371091 
L 475.10365 -437.353165 
L 475.329718 -440.33524 
L 475.520355 -443.317314 
L 475.679131 -446.299388 
L 475.809748 -449.281462 
L 476.750252 -449.281462 
L 476.750252 -449.281462 
L 476.880869 -446.299388 
L 477.039645 -443.317314 
L 477.230282 -440.33524 
L 477.45635 -437.353165 
L 477.721118 -434.371091 
L 478.027355 -431.389017 
L 478.377141 -428.406943 
L 478.771679 -425.424868 
L 479.211138 -422.442794 
L 479.69454 -419.46072 
L 480.21971 -416.478646 
L 480.783312 -413.496571 
L 481.380963 -410.514497 
L 482.007457 -407.532423 
L 482.657069 -404.550349 
L 483.323942 -401.568274 
L 484.002531 -398.5862 
L 484.688067 -395.604126 
L 485.376996 -392.622052 
L 486.06737 -389.639978 
L 486.759108 -386.657903 
L 487.454121 -383.675829 
L 488.156241 -380.693755 
L 488.870944 -377.711681 
L 489.604873 -374.729606 
L 490.365157 -371.747532 
L 491.158584 -368.765458 
L 491.990684 -365.783384 
L 492.864778 -362.801309 
L 493.781105 -359.819235 
L 494.736085 -356.837161 
L 495.721827 -353.855087 
L 496.725925 -350.873012 
L 497.731606 -347.890938 
L 498.718235 -344.908864 
L 499.662174 -341.92679 
L 500.537942 -338.944715 
L 501.319599 -335.962641 
L 501.982261 -332.980567 
L 502.50363 -329.998493 
L 502.865414 -327.016418 
L 503.054532 -324.034344 
L 503.064 -321.05227 
L 502.893427 -318.070196 
L 502.549095 -315.088121 
L 502.043599 -312.106047 
L 501.395102 -309.123973 
L 500.626255 -306.141899 
L 499.762876 -303.159825 
L 498.832499 -300.17775 
L 497.862895 -297.195676 
L 496.880678 -294.213602 
L 495.910093 -291.231528 
L 494.972046 -288.249453 
L 494.083438 -285.267379 
L 493.256805 -282.285305 
L 492.500267 -279.303231 
L 491.817748 -276.321156 
L 491.209417 -273.339082 
L 490.672284 -270.357008 
L 490.200888 -267.374934 
L 489.788009 -264.392859 
L 489.425338 -261.410785 
L 489.104071 -258.428711 
L 488.815391 -255.446637 
L 488.550822 -252.464562 
L 488.302455 -249.482488 
L 488.06306 -246.500414 
L 487.826123 -243.51834 
L 487.585809 -240.536265 
L 487.336907 -237.554191 
L 487.074783 -234.572117 
L 486.795343 -231.590043 
L 486.495052 -228.607969 
L 486.170987 -225.625894 
L 485.820927 -222.64382 
L 485.443478 -219.661746 
L 485.038191 -216.679672 
L 484.605675 -213.697597 
L 484.14767 -210.715523 
L 483.66706 -207.733449 
L 483.167824 -204.751375 
L 482.654919 -201.7693 
L 482.134086 -198.787226 
L 481.611613 -195.805152 
L 481.094047 -192.823078 
L 480.587897 -189.841003 
L 480.099341 -186.858929 
L 479.63396 -183.876855 
L 479.196514 -180.894781 
L 478.790782 -177.912706 
L 478.419466 -174.930632 
L 478.084161 -171.948558 
L 477.785394 -168.966484 
L 477.522707 -165.984409 
L 477.294791 -163.002335 
L 477.099646 -160.020261 
L 476.934749 -157.038187 
L 476.797232 -154.056112 
z
" style="stroke: #5f5f5f; stroke-width: 1.25"/>
    </defs>
    <g clip-path="url(#p7e9b6bd6b0)">
     <use xlink:href="#m9594b5eaec" x="0" y="576" style="fill: #eab375; stroke: #5f5f5f; stroke-width: 1.25"/>
    </g>
   </g>
   <g id="PolyCollection_7">
    <defs>
     <path id="m796a1f3cd9" d="M 543.98094 -169.652749 
L 542.49906 -169.652749 
L 542.278557 -172.743234 
L 542.006447 -175.833719 
L 541.674977 -178.924205 
L 541.27641 -182.01469 
L 540.803366 -185.105176 
L 540.249214 -188.195661 
L 539.608496 -191.286147 
L 538.877359 -194.376632 
L 538.053964 -197.467118 
L 537.13885 -200.557603 
L 536.135201 -203.648088 
L 535.049009 -206.738574 
L 533.889091 -209.829059 
L 532.666954 -212.919545 
L 531.396509 -216.01003 
L 530.093637 -219.100516 
L 528.775633 -222.191001 
L 527.460564 -225.281486 
L 526.166578 -228.371972 
L 524.911219 -231.462457 
L 523.710783 -234.552943 
L 522.579768 -237.643428 
L 521.530438 -240.733914 
L 520.572537 -243.824399 
L 519.713147 -246.914885 
L 518.956698 -250.00537 
L 518.305105 -253.095855 
L 517.758016 -256.186341 
L 517.313145 -259.276826 
L 516.966654 -262.367312 
L 516.713556 -265.457797 
L 516.548128 -268.548283 
L 516.464299 -271.638768 
L 516.456 -274.729254 
L 516.517476 -277.819739 
L 516.643538 -280.910224 
L 516.829747 -284.00071 
L 517.072541 -287.091195 
L 517.369276 -290.181681 
L 517.718192 -293.272166 
L 518.118302 -296.362652 
L 518.5692 -299.453137 
L 519.070805 -302.543623 
L 519.623053 -305.634108 
L 520.225558 -308.724593 
L 520.87727 -311.815079 
L 521.576165 -314.905564 
L 522.318988 -317.99605 
L 523.101083 -321.086535 
L 523.916338 -324.177021 
L 524.757243 -327.267506 
L 525.615073 -330.357991 
L 526.480184 -333.448477 
L 527.342403 -336.538962 
L 528.191473 -339.629448 
L 529.017537 -342.719933 
L 529.811595 -345.810419 
L 530.565927 -348.900904 
L 531.274423 -351.99139 
L 531.932814 -355.081875 
L 532.538788 -358.17236 
L 533.091969 -361.262846 
L 533.593801 -364.353331 
L 534.047312 -367.443817 
L 534.456822 -370.534302 
L 534.827592 -373.624788 
L 535.165464 -376.715273 
L 535.476507 -379.805759 
L 535.766706 -382.896244 
L 536.0417 -385.986729 
L 536.306583 -389.077215 
L 536.565777 -392.1677 
L 536.822965 -395.258186 
L 537.081075 -398.348671 
L 537.342311 -401.439157 
L 537.608198 -404.529642 
L 537.879655 -407.620127 
L 538.157048 -410.710613 
L 538.440259 -413.801098 
L 538.728724 -416.891584 
L 539.021475 -419.982069 
L 539.317175 -423.072555 
L 539.614151 -426.16304 
L 539.910437 -429.253526 
L 540.203829 -432.344011 
L 540.491955 -435.434496 
L 540.772359 -438.524982 
L 541.042603 -441.615467 
L 541.300365 -444.705953 
L 541.543544 -447.796438 
L 541.770352 -450.886924 
L 541.979391 -453.977409 
L 542.169704 -457.067895 
L 542.340801 -460.15838 
L 542.492658 -463.248865 
L 542.625688 -466.339351 
L 542.74069 -469.429836 
L 542.838785 -472.520322 
L 542.921334 -475.610807 
L 543.558666 -475.610807 
L 543.558666 -475.610807 
L 543.641215 -472.520322 
L 543.73931 -469.429836 
L 543.854312 -466.339351 
L 543.987342 -463.248865 
L 544.139199 -460.15838 
L 544.310296 -457.067895 
L 544.500609 -453.977409 
L 544.709648 -450.886924 
L 544.936456 -447.796438 
L 545.179635 -444.705953 
L 545.437397 -441.615467 
L 545.707641 -438.524982 
L 545.988045 -435.434496 
L 546.276171 -432.344011 
L 546.569563 -429.253526 
L 546.865849 -426.16304 
L 547.162825 -423.072555 
L 547.458525 -419.982069 
L 547.751276 -416.891584 
L 548.039741 -413.801098 
L 548.322952 -410.710613 
L 548.600345 -407.620127 
L 548.871802 -404.529642 
L 549.137689 -401.439157 
L 549.398925 -398.348671 
L 549.657035 -395.258186 
L 549.914223 -392.1677 
L 550.173417 -389.077215 
L 550.4383 -385.986729 
L 550.713294 -382.896244 
L 551.003493 -379.805759 
L 551.314536 -376.715273 
L 551.652408 -373.624788 
L 552.023178 -370.534302 
L 552.432688 -367.443817 
L 552.886199 -364.353331 
L 553.388031 -361.262846 
L 553.941212 -358.17236 
L 554.547186 -355.081875 
L 555.205577 -351.99139 
L 555.914073 -348.900904 
L 556.668405 -345.810419 
L 557.462463 -342.719933 
L 558.288527 -339.629448 
L 559.137597 -336.538962 
L 559.999816 -333.448477 
L 560.864927 -330.357991 
L 561.722757 -327.267506 
L 562.563662 -324.177021 
L 563.378917 -321.086535 
L 564.161012 -317.99605 
L 564.903835 -314.905564 
L 565.60273 -311.815079 
L 566.254442 -308.724593 
L 566.856947 -305.634108 
L 567.409195 -302.543623 
L 567.9108 -299.453137 
L 568.361698 -296.362652 
L 568.761808 -293.272166 
L 569.110724 -290.181681 
L 569.407459 -287.091195 
L 569.650253 -284.00071 
L 569.836462 -280.910224 
L 569.962524 -277.819739 
L 570.024 -274.729254 
L 570.015701 -271.638768 
L 569.931872 -268.548283 
L 569.766444 -265.457797 
L 569.513346 -262.367312 
L 569.166855 -259.276826 
L 568.721984 -256.186341 
L 568.174895 -253.095855 
L 567.523302 -250.00537 
L 566.766853 -246.914885 
L 565.907463 -243.824399 
L 564.949562 -240.733914 
L 563.900232 -237.643428 
L 562.769217 -234.552943 
L 561.568781 -231.462457 
L 560.313422 -228.371972 
L 559.019436 -225.281486 
L 557.704367 -222.191001 
L 556.386363 -219.100516 
L 555.083491 -216.01003 
L 553.813046 -212.919545 
L 552.590909 -209.829059 
L 551.430991 -206.738574 
L 550.344799 -203.648088 
L 549.34115 -200.557603 
L 548.426036 -197.467118 
L 547.602641 -194.376632 
L 546.871504 -191.286147 
L 546.230786 -188.195661 
L 545.676634 -185.105176 
L 545.20359 -182.01469 
L 544.805023 -178.924205 
L 544.473553 -175.833719 
L 544.201443 -172.743234 
L 543.98094 -169.652749 
z
" style="stroke: #5f5f5f; stroke-width: 1.25"/>
    </defs>
    <g clip-path="url(#p7e9b6bd6b0)">
     <use xlink:href="#m796a1f3cd9" x="0" y="576" style="fill: #afcf78; stroke: #5f5f5f; stroke-width: 1.25"/>
    </g>
   </g>
   <g id="PolyCollection_8">
    <defs>
     <path id="mfd83013e39" d="M 610.797737 -166.708572 
L 609.602263 -166.708572 
L 609.43013 -169.94101 
L 609.221234 -173.173449 
L 608.971587 -176.405888 
L 608.677805 -179.638326 
L 608.337402 -182.870765 
L 607.949068 -186.103204 
L 607.512925 -189.335642 
L 607.030703 -192.568081 
L 606.505833 -195.80052 
L 605.943418 -199.032958 
L 605.350065 -202.265397 
L 604.733575 -205.497836 
L 604.102492 -208.730274 
L 603.46553 -211.962713 
L 602.830913 -215.195152 
L 602.205679 -218.42759 
L 601.594991 -221.660029 
L 601.001535 -224.892468 
L 600.425055 -228.124906 
L 599.862098 -231.357345 
L 599.306001 -234.589784 
L 598.747173 -237.822222 
L 598.173668 -241.054661 
L 597.572044 -244.2871 
L 596.928463 -247.519538 
L 596.229974 -250.751977 
L 595.465877 -253.984416 
L 594.629068 -257.216854 
L 593.717249 -260.449293 
L 592.733873 -263.681732 
L 591.688734 -266.91417 
L 590.598103 -270.146609 
L 589.484375 -273.379048 
L 588.3752 -276.611486 
L 587.302159 -279.843925 
L 586.299039 -283.076364 
L 585.399859 -286.308803 
L 584.636767 -289.541241 
L 584.038003 -292.77368 
L 583.626078 -296.006119 
L 583.416336 -299.238557 
L 583.416 -302.470996 
L 583.623808 -305.703435 
L 584.030239 -308.935873 
L 584.618317 -312.168312 
L 585.364912 -315.400751 
L 586.242411 -318.633189 
L 587.220609 -321.865628 
L 588.268667 -325.098067 
L 589.356941 -328.330505 
L 590.458571 -331.562944 
L 591.550688 -334.795383 
L 592.615183 -338.027821 
L 593.638998 -341.26026 
L 594.613982 -344.492699 
L 595.536353 -347.725137 
L 596.405883 -350.957576 
L 597.22491 -354.190015 
L 597.997302 -357.422453 
L 598.727492 -360.654892 
L 599.419667 -363.887331 
L 600.077181 -367.119769 
L 600.702217 -370.352208 
L 601.295704 -373.584647 
L 601.857445 -376.817085 
L 602.38642 -380.049524 
L 602.881181 -383.281963 
L 603.340287 -386.514401 
L 603.762718 -389.74684 
L 604.148201 -392.979279 
L 604.497445 -396.211717 
L 604.812243 -399.444156 
L 605.095451 -402.676595 
L 605.350867 -405.909033 
L 605.583018 -409.141472 
L 605.796882 -412.373911 
L 605.997598 -415.606349 
L 606.190154 -418.838788 
L 606.379109 -422.071227 
L 606.568352 -425.303665 
L 606.760915 -428.536104 
L 606.958854 -431.768543 
L 607.163193 -435.000981 
L 607.373943 -438.23342 
L 607.590177 -441.465859 
L 607.810168 -444.698297 
L 608.031562 -447.930736 
L 608.251585 -451.163175 
L 608.467258 -454.395613 
L 608.675612 -457.628052 
L 608.873883 -460.860491 
L 609.059668 -464.092929 
L 609.23105 -467.325368 
L 609.386669 -470.557807 
L 609.525754 -473.790245 
L 609.648102 -477.022684 
L 609.754034 -480.255123 
L 609.844308 -483.487561 
L 609.920032 -486.72 
L 610.479968 -486.72 
L 610.479968 -486.72 
L 610.555692 -483.487561 
L 610.645966 -480.255123 
L 610.751898 -477.022684 
L 610.874246 -473.790245 
L 611.013331 -470.557807 
L 611.16895 -467.325368 
L 611.340332 -464.092929 
L 611.526117 -460.860491 
L 611.724388 -457.628052 
L 611.932742 -454.395613 
L 612.148415 -451.163175 
L 612.368438 -447.930736 
L 612.589832 -444.698297 
L 612.809823 -441.465859 
L 613.026057 -438.23342 
L 613.236807 -435.000981 
L 613.441146 -431.768543 
L 613.639085 -428.536104 
L 613.831648 -425.303665 
L 614.020891 -422.071227 
L 614.209846 -418.838788 
L 614.402402 -415.606349 
L 614.603118 -412.373911 
L 614.816982 -409.141472 
L 615.049133 -405.909033 
L 615.304549 -402.676595 
L 615.587757 -399.444156 
L 615.902555 -396.211717 
L 616.251799 -392.979279 
L 616.637282 -389.74684 
L 617.059713 -386.514401 
L 617.518819 -383.281963 
L 618.01358 -380.049524 
L 618.542555 -376.817085 
L 619.104296 -373.584647 
L 619.697783 -370.352208 
L 620.322819 -367.119769 
L 620.980333 -363.887331 
L 621.672508 -360.654892 
L 622.402698 -357.422453 
L 623.17509 -354.190015 
L 623.994117 -350.957576 
L 624.863647 -347.725137 
L 625.786018 -344.492699 
L 626.761002 -341.26026 
L 627.784817 -338.027821 
L 628.849312 -334.795383 
L 629.941429 -331.562944 
L 631.043059 -328.330505 
L 632.131333 -325.098067 
L 633.179391 -321.865628 
L 634.157589 -318.633189 
L 635.035088 -315.400751 
L 635.781683 -312.168312 
L 636.369761 -308.935873 
L 636.776192 -305.703435 
L 636.984 -302.470996 
L 636.983664 -299.238557 
L 636.773922 -296.006119 
L 636.361997 -292.77368 
L 635.763233 -289.541241 
L 635.000141 -286.308803 
L 634.100961 -283.076364 
L 633.097841 -279.843925 
L 632.0248 -276.611486 
L 630.915625 -273.379048 
L 629.801897 -270.146609 
L 628.711266 -266.91417 
L 627.666127 -263.681732 
L 626.682751 -260.449293 
L 625.770932 -257.216854 
L 624.934123 -253.984416 
L 624.170026 -250.751977 
L 623.471537 -247.519538 
L 622.827956 -244.2871 
L 622.226332 -241.054661 
L 621.652827 -237.822222 
L 621.093999 -234.589784 
L 620.537902 -231.357345 
L 619.974945 -228.124906 
L 619.398465 -224.892468 
L 618.805009 -221.660029 
L 618.194321 -218.42759 
L 617.569087 -215.195152 
L 616.93447 -211.962713 
L 616.297508 -208.730274 
L 615.666425 -205.497836 
L 615.049935 -202.265397 
L 614.456582 -199.032958 
L 613.894167 -195.80052 
L 613.369297 -192.568081 
L 612.887075 -189.335642 
L 612.450932 -186.103204 
L 612.062598 -182.870765 
L 611.722195 -179.638326 
L 611.428413 -176.405888 
L 611.178766 -173.173449 
L 610.96987 -169.94101 
L 610.797737 -166.708572 
z
" style="stroke: #5f5f5f; stroke-width: 1.25"/>
    </defs>
    <g clip-path="url(#p7e9b6bd6b0)">
     <use xlink:href="#mfd83013e39" x="0" y="576" style="fill: #f6d3e5; stroke: #5f5f5f; stroke-width: 1.25"/>
    </g>
   </g>
   <g id="PolyCollection_9">
    <defs>
     <path id="m49ce4fa724" d="M 677.493494 -243.622629 
L 676.826506 -243.622629 
L 676.733641 -245.429131 
L 676.621303 -247.235633 
L 676.48711 -249.042134 
L 676.328742 -250.848636 
L 676.143987 -252.655138 
L 675.930784 -254.46164 
L 675.687244 -256.268142 
L 675.41166 -258.074643 
L 675.102494 -259.881145 
L 674.758359 -261.687647 
L 674.378001 -263.494149 
L 673.960282 -265.30065 
L 673.504188 -267.107152 
L 673.008864 -268.913654 
L 672.473671 -270.720156 
L 671.898278 -272.526657 
L 671.282767 -274.333159 
L 670.627743 -276.139661 
L 669.934421 -277.946163 
L 669.204675 -279.752665 
L 668.441028 -281.559166 
L 667.646568 -283.365668 
L 666.824798 -285.17217 
L 665.979431 -286.978672 
L 665.114147 -288.785173 
L 664.23237 -290.591675 
L 663.337088 -292.398177 
L 662.430771 -294.204679 
L 661.515421 -296.011181 
L 660.592765 -297.817682 
L 659.664596 -299.624184 
L 658.733235 -301.430686 
L 657.802058 -303.237188 
L 656.876029 -305.043689 
L 655.962161 -306.850191 
L 655.069815 -308.656693 
L 654.210791 -310.463195 
L 653.399144 -312.269696 
L 652.650719 -314.076198 
L 651.982408 -315.8827 
L 651.411182 -317.689202 
L 650.952977 -319.495704 
L 650.621511 -321.302205 
L 650.427161 -323.108707 
L 650.376 -324.915209 
L 650.469081 -326.721711 
L 650.702066 -328.528212 
L 651.065223 -330.334714 
L 651.543829 -332.141216 
L 652.118941 -333.947718 
L 652.768489 -335.754219 
L 653.468616 -337.560721 
L 654.195151 -339.367223 
L 654.925112 -341.173725 
L 655.638117 -342.980227 
L 656.317592 -344.786728 
L 656.951691 -346.59323 
L 657.533849 -348.399732 
L 658.062935 -350.206234 
L 658.542995 -352.012735 
L 658.982609 -353.819237 
L 659.393937 -355.625739 
L 659.791506 -357.432241 
L 660.190879 -359.238742 
L 660.607296 -361.045244 
L 661.054405 -362.851746 
L 661.543192 -364.658248 
L 662.08119 -366.46475 
L 662.672013 -368.271251 
L 663.315251 -370.077753 
L 664.006706 -371.884255 
L 664.738918 -373.690757 
L 665.501927 -375.497258 
L 666.284171 -377.30376 
L 667.07343 -379.110262 
L 667.857719 -380.916764 
L 668.626063 -382.723265 
L 669.369081 -384.529767 
L 670.079357 -386.336269 
L 670.751587 -388.142771 
L 671.382522 -389.949273 
L 671.970747 -391.755774 
L 672.516341 -393.562276 
L 673.020483 -395.368778 
L 673.485049 -397.17528 
L 673.91225 -398.981781 
L 674.304343 -400.788283 
L 674.663428 -402.594785 
L 674.991341 -404.401287 
L 675.289626 -406.207788 
L 675.559579 -408.01429 
L 675.802324 -409.820792 
L 676.018913 -411.627294 
L 676.21043 -413.433796 
L 676.378063 -415.240297 
L 676.523161 -417.046799 
L 676.647254 -418.853301 
L 676.75204 -420.659803 
L 676.839355 -422.466304 
L 677.480645 -422.466304 
L 677.480645 -422.466304 
L 677.56796 -420.659803 
L 677.672746 -418.853301 
L 677.796839 -417.046799 
L 677.941937 -415.240297 
L 678.10957 -413.433796 
L 678.301087 -411.627294 
L 678.517676 -409.820792 
L 678.760421 -408.01429 
L 679.030374 -406.207788 
L 679.328659 -404.401287 
L 679.656572 -402.594785 
L 680.015657 -400.788283 
L 680.40775 -398.981781 
L 680.834951 -397.17528 
L 681.299517 -395.368778 
L 681.803659 -393.562276 
L 682.349253 -391.755774 
L 682.937478 -389.949273 
L 683.568413 -388.142771 
L 684.240643 -386.336269 
L 684.950919 -384.529767 
L 685.693937 -382.723265 
L 686.462281 -380.916764 
L 687.24657 -379.110262 
L 688.035829 -377.30376 
L 688.818073 -375.497258 
L 689.581082 -373.690757 
L 690.313294 -371.884255 
L 691.004749 -370.077753 
L 691.647987 -368.271251 
L 692.23881 -366.46475 
L 692.776808 -364.658248 
L 693.265595 -362.851746 
L 693.712704 -361.045244 
L 694.129121 -359.238742 
L 694.528494 -357.432241 
L 694.926063 -355.625739 
L 695.337391 -353.819237 
L 695.777005 -352.012735 
L 696.257065 -350.206234 
L 696.786151 -348.399732 
L 697.368309 -346.59323 
L 698.002408 -344.786728 
L 698.681883 -342.980227 
L 699.394888 -341.173725 
L 700.124849 -339.367223 
L 700.851384 -337.560721 
L 701.551511 -335.754219 
L 702.201059 -333.947718 
L 702.776171 -332.141216 
L 703.254777 -330.334714 
L 703.617934 -328.528212 
L 703.850919 -326.721711 
L 703.944 -324.915209 
L 703.892839 -323.108707 
L 703.698489 -321.302205 
L 703.367023 -319.495704 
L 702.908818 -317.689202 
L 702.337592 -315.8827 
L 701.669281 -314.076198 
L 700.920856 -312.269696 
L 700.109209 -310.463195 
L 699.250185 -308.656693 
L 698.357839 -306.850191 
L 697.443971 -305.043689 
L 696.517942 -303.237188 
L 695.586765 -301.430686 
L 694.655404 -299.624184 
L 693.727235 -297.817682 
L 692.804579 -296.011181 
L 691.889229 -294.204679 
L 690.982912 -292.398177 
L 690.08763 -290.591675 
L 689.205853 -288.785173 
L 688.340569 -286.978672 
L 687.495202 -285.17217 
L 686.673432 -283.365668 
L 685.878972 -281.559166 
L 685.115325 -279.752665 
L 684.385579 -277.946163 
L 683.692257 -276.139661 
L 683.037233 -274.333159 
L 682.421722 -272.526657 
L 681.846329 -270.720156 
L 681.311136 -268.913654 
L 680.815812 -267.107152 
L 680.359718 -265.30065 
L 679.941999 -263.494149 
L 679.561641 -261.687647 
L 679.217506 -259.881145 
L 678.90834 -258.074643 
L 678.632756 -256.268142 
L 678.389216 -254.46164 
L 678.176013 -252.655138 
L 677.991258 -250.848636 
L 677.83289 -249.042134 
L 677.698697 -247.235633 
L 677.586359 -245.429131 
L 677.493494 -243.622629 
z
" style="stroke: #5f5f5f; stroke-width: 1.25"/>
    </defs>
    <g clip-path="url(#p7e9b6bd6b0)">
     <use xlink:href="#m49ce4fa724" x="0" y="576" style="fill: #d9d9d9; stroke: #5f5f5f; stroke-width: 1.25"/>
    </g>
   </g>
   <g id="PolyCollection_10">
    <defs>
     <path id="m266e82c2b2" d="M 744.511634 -192.997677 
L 743.728366 -192.997677 
L 743.61863 -195.309815 
L 743.486202 -197.621953 
L 743.328731 -199.934092 
L 743.144209 -202.24623 
L 742.931116 -204.558368 
L 742.688544 -206.870506 
L 742.416291 -209.182644 
L 742.1149 -211.494783 
L 741.785649 -213.806921 
L 741.43046 -216.119059 
L 741.051748 -218.431197 
L 740.652196 -220.743335 
L 740.234493 -223.055474 
L 739.801049 -225.367612 
L 739.353722 -227.67975 
L 738.893585 -229.991888 
L 738.420784 -232.304026 
L 737.934502 -234.616165 
L 737.433048 -236.928303 
L 736.914088 -239.240441 
L 736.374988 -241.552579 
L 735.813257 -243.864717 
L 735.227031 -246.176856 
L 734.615546 -248.488994 
L 733.979549 -250.801132 
L 733.321572 -253.11327 
L 732.646034 -255.425408 
L 731.95913 -257.737547 
L 731.26851 -260.049685 
L 730.582752 -262.361823 
L 729.910679 -264.673961 
L 729.260586 -266.986099 
L 728.639439 -269.298238 
L 728.052158 -271.610376 
L 727.501041 -273.922514 
L 726.985423 -276.234652 
L 726.501597 -278.54679 
L 726.043052 -280.858929 
L 725.600988 -283.171067 
L 725.165098 -285.483205 
L 724.724537 -287.795343 
L 724.268999 -290.107481 
L 723.789802 -292.41962 
L 723.280872 -294.731758 
L 722.739541 -297.043896 
L 722.167081 -299.356034 
L 721.568919 -301.668172 
L 720.95451 -303.980311 
L 720.336894 -306.292449 
L 719.731974 -308.604587 
L 719.157584 -310.916725 
L 718.632439 -313.228863 
L 718.175072 -315.541002 
L 717.802826 -317.85314 
L 717.531007 -320.165278 
L 717.372229 -322.477416 
L 717.336 -324.789554 
L 717.428528 -327.101693 
L 717.65274 -329.413831 
L 718.008456 -331.725969 
L 718.492674 -334.038107 
L 719.099901 -336.350245 
L 719.822498 -338.662384 
L 720.650987 -340.974522 
L 721.574316 -343.28666 
L 722.580092 -345.598798 
L 723.654787 -347.910936 
L 724.783944 -350.223075 
L 725.952422 -352.535213 
L 727.144692 -354.847351 
L 728.345198 -357.159489 
L 729.538771 -359.471627 
L 730.711093 -361.783766 
L 731.849155 -364.095904 
L 732.941686 -366.408042 
L 733.979501 -368.72018 
L 734.955733 -371.032318 
L 735.86593 -373.344457 
L 736.707989 -375.656595 
L 737.481959 -377.968733 
L 738.189717 -380.280871 
L 738.834555 -382.593009 
L 739.420733 -384.905148 
L 739.953025 -387.217286 
L 740.436321 -389.529424 
L 740.875287 -391.841562 
L 741.274138 -394.1537 
L 741.636493 -396.465839 
L 741.965344 -398.777977 
L 742.263095 -401.090115 
L 742.531661 -403.402253 
L 742.7726 -405.714391 
L 742.987262 -408.02653 
L 743.176921 -410.338668 
L 743.342878 -412.650806 
L 743.486542 -414.962944 
L 743.60946 -417.275082 
L 743.713327 -419.587221 
L 743.799954 -421.899359 
L 744.440046 -421.899359 
L 744.440046 -421.899359 
L 744.526673 -419.587221 
L 744.63054 -417.275082 
L 744.753458 -414.962944 
L 744.897122 -412.650806 
L 745.063079 -410.338668 
L 745.252738 -408.02653 
L 745.4674 -405.714391 
L 745.708339 -403.402253 
L 745.976905 -401.090115 
L 746.274656 -398.777977 
L 746.603507 -396.465839 
L 746.965862 -394.1537 
L 747.364713 -391.841562 
L 747.803679 -389.529424 
L 748.286975 -387.217286 
L 748.819267 -384.905148 
L 749.405445 -382.593009 
L 750.050283 -380.280871 
L 750.758041 -377.968733 
L 751.532011 -375.656595 
L 752.37407 -373.344457 
L 753.284267 -371.032318 
L 754.260499 -368.72018 
L 755.298314 -366.408042 
L 756.390845 -364.095904 
L 757.528907 -361.783766 
L 758.701229 -359.471627 
L 759.894802 -357.159489 
L 761.095308 -354.847351 
L 762.287578 -352.535213 
L 763.456056 -350.223075 
L 764.585213 -347.910936 
L 765.659908 -345.598798 
L 766.665684 -343.28666 
L 767.589013 -340.974522 
L 768.417502 -338.662384 
L 769.140099 -336.350245 
L 769.747326 -334.038107 
L 770.231544 -331.725969 
L 770.58726 -329.413831 
L 770.811472 -327.101693 
L 770.904 -324.789554 
L 770.867771 -322.477416 
L 770.708993 -320.165278 
L 770.437174 -317.85314 
L 770.064928 -315.541002 
L 769.607561 -313.228863 
L 769.082416 -310.916725 
L 768.508026 -308.604587 
L 767.903106 -306.292449 
L 767.28549 -303.980311 
L 766.671081 -301.668172 
L 766.072919 -299.356034 
L 765.500459 -297.043896 
L 764.959128 -294.731758 
L 764.450198 -292.41962 
L 763.971001 -290.107481 
L 763.515463 -287.795343 
L 763.074902 -285.483205 
L 762.639012 -283.171067 
L 762.196948 -280.858929 
L 761.738403 -278.54679 
L 761.254577 -276.234652 
L 760.738959 -273.922514 
L 760.187842 -271.610376 
L 759.600561 -269.298238 
L 758.979414 -266.986099 
L 758.329321 -264.673961 
L 757.657248 -262.361823 
L 756.97149 -260.049685 
L 756.28087 -257.737547 
L 755.593966 -255.425408 
L 754.918428 -253.11327 
L 754.260451 -250.801132 
L 753.624454 -248.488994 
L 753.012969 -246.176856 
L 752.426743 -243.864717 
L 751.865012 -241.552579 
L 751.325912 -239.240441 
L 750.806952 -236.928303 
L 750.305498 -234.616165 
L 749.819216 -232.304026 
L 749.346415 -229.991888 
L 748.886278 -227.67975 
L 748.438951 -225.367612 
L 748.005507 -223.055474 
L 747.587804 -220.743335 
L 747.188252 -218.431197 
L 746.80954 -216.119059 
L 746.454351 -213.806921 
L 746.1251 -211.494783 
L 745.823709 -209.182644 
L 745.551456 -206.870506 
L 745.308884 -204.558368 
L 745.095791 -202.24623 
L 744.911269 -199.934092 
L 744.753798 -197.621953 
L 744.62137 -195.309815 
L 744.511634 -192.997677 
z
" style="stroke: #5f5f5f; stroke-width: 1.25"/>
    </defs>
    <g clip-path="url(#p7e9b6bd6b0)">
     <use xlink:href="#m266e82c2b2" x="0" y="576" style="fill: #b588b5; stroke: #5f5f5f; stroke-width: 1.25"/>
    </g>
   </g>
   <g id="line2d_6">
    <path d="M 141.48 330.890003 
L 141.48 156.39719 
" clip-path="url(#p7e9b6bd6b0)" style="fill: none; stroke: #5f5f5f; stroke-width: 1.875; stroke-linecap: round"/>
   </g>
   <g id="line2d_7">
    <path d="M 141.48 300.523483 
L 141.48 218.231131 
" clip-path="url(#p7e9b6bd6b0)" style="fill: none; stroke: #5f5f5f; stroke-width: 5.625; stroke-linecap: round"/>
   </g>
   <g id="line2d_8">
    <path d="M 141.48 269.973479 
" clip-path="url(#p7e9b6bd6b0)" style="fill: none; stroke: #5f5f5f; stroke-width: 1.5; stroke-linecap: round"/>
    <defs>
     <path id="m1558106c40" d="M 2.34375 0 
L -2.34375 -0 
" style="stroke: #ffffff; stroke-width: 1.125"/>
    </defs>
    <g clip-path="url(#p7e9b6bd6b0)">
     <use xlink:href="#m1558106c40" x="141.48" y="269.973479" style="fill: #ffffff; stroke: #ffffff; stroke-width: 1.125"/>
    </g>
   </g>
   <g id="line2d_9">
    <path d="M 208.44 237.221674 
L 208.44 231.533685 
" clip-path="url(#p7e9b6bd6b0)" style="fill: none; stroke: #5f5f5f; stroke-width: 1.875; stroke-linecap: round"/>
   </g>
   <g id="line2d_10">
    <path d="M 208.44 235.203355 
L 208.44 233.276778 
" clip-path="url(#p7e9b6bd6b0)" style="fill: none; stroke: #5f5f5f; stroke-width: 5.625; stroke-linecap: round"/>
   </g>
   <g id="line2d_11">
    <path d="M 208.44 233.276778 
" clip-path="url(#p7e9b6bd6b0)" style="fill: none; stroke: #5f5f5f; stroke-width: 1.5; stroke-linecap: round"/>
    <g clip-path="url(#p7e9b6bd6b0)">
     <use xlink:href="#m1558106c40" x="208.44" y="233.276778" style="fill: #ffffff; stroke: #ffffff; stroke-width: 1.125"/>
    </g>
   </g>
   <g id="line2d_12">
    <path d="M 275.4 353.733699 
L 275.4 175.754699 
" clip-path="url(#p7e9b6bd6b0)" style="fill: none; stroke: #5f5f5f; stroke-width: 1.875; stroke-linecap: round"/>
   </g>
   <g id="line2d_13">
    <path d="M 275.4 304.468378 
L 275.4 233.001553 
" clip-path="url(#p7e9b6bd6b0)" style="fill: none; stroke: #5f5f5f; stroke-width: 5.625; stroke-linecap: round"/>
   </g>
   <g id="line2d_14">
    <path d="M 275.4 280.523781 
" clip-path="url(#p7e9b6bd6b0)" style="fill: none; stroke: #5f5f5f; stroke-width: 1.5; stroke-linecap: round"/>
    <g clip-path="url(#p7e9b6bd6b0)">
     <use xlink:href="#m1558106c40" x="275.4" y="280.523781" style="fill: #ffffff; stroke: #ffffff; stroke-width: 1.125"/>
    </g>
   </g>
   <g id="line2d_15">
    <path d="M 342.36 319.330542 
L 342.36 216.855005 
" clip-path="url(#p7e9b6bd6b0)" style="fill: none; stroke: #5f5f5f; stroke-width: 1.875; stroke-linecap: round"/>
   </g>
   <g id="line2d_16">
    <path d="M 342.36 289.055764 
L 342.36 255.936991 
" clip-path="url(#p7e9b6bd6b0)" style="fill: none; stroke: #5f5f5f; stroke-width: 5.625; stroke-linecap: round"/>
   </g>
   <g id="line2d_17">
    <path d="M 342.36 278.046754 
" clip-path="url(#p7e9b6bd6b0)" style="fill: none; stroke: #5f5f5f; stroke-width: 1.5; stroke-linecap: round"/>
    <g clip-path="url(#p7e9b6bd6b0)">
     <use xlink:href="#m1558106c40" x="342.36" y="278.046754" style="fill: #ffffff; stroke: #ffffff; stroke-width: 1.125"/>
    </g>
   </g>
   <g id="line2d_18">
    <path d="M 409.32 249.515069 
L 409.32 224.102603 
" clip-path="url(#p7e9b6bd6b0)" style="fill: none; stroke: #5f5f5f; stroke-width: 1.875; stroke-linecap: round"/>
   </g>
   <g id="line2d_19">
    <path d="M 409.32 240.065668 
L 409.32 232.359361 
" clip-path="url(#p7e9b6bd6b0)" style="fill: none; stroke: #5f5f5f; stroke-width: 5.625; stroke-linecap: round"/>
   </g>
   <g id="line2d_20">
    <path d="M 409.32 234.285938 
" clip-path="url(#p7e9b6bd6b0)" style="fill: none; stroke: #5f5f5f; stroke-width: 1.5; stroke-linecap: round"/>
    <g clip-path="url(#p7e9b6bd6b0)">
     <use xlink:href="#m1558106c40" x="409.32" y="234.285938" style="fill: #ffffff; stroke: #ffffff; stroke-width: 1.125"/>
    </g>
   </g>
   <g id="line2d_21">
    <path d="M 476.28 367.861929 
L 476.28 180.800496 
" clip-path="url(#p7e9b6bd6b0)" style="fill: none; stroke: #5f5f5f; stroke-width: 1.875; stroke-linecap: round"/>
   </g>
   <g id="line2d_22">
    <path d="M 476.28 300.248258 
L 476.28 243.093146 
" clip-path="url(#p7e9b6bd6b0)" style="fill: none; stroke: #5f5f5f; stroke-width: 5.625; stroke-linecap: round"/>
   </g>
   <g id="line2d_23">
    <path d="M 476.28 258.50576 
" clip-path="url(#p7e9b6bd6b0)" style="fill: none; stroke: #5f5f5f; stroke-width: 1.5; stroke-linecap: round"/>
    <g clip-path="url(#p7e9b6bd6b0)">
     <use xlink:href="#m1558106c40" x="476.28" y="258.50576" style="fill: #ffffff; stroke: #ffffff; stroke-width: 1.125"/>
    </g>
   </g>
   <g id="line2d_24">
    <path d="M 543.24 351.990606 
L 543.24 154.745838 
" clip-path="url(#p7e9b6bd6b0)" style="fill: none; stroke: #5f5f5f; stroke-width: 1.875; stroke-linecap: round"/>
   </g>
   <g id="line2d_25">
    <path d="M 543.24 319.972734 
L 543.24 253.459964 
" clip-path="url(#p7e9b6bd6b0)" style="fill: none; stroke: #5f5f5f; stroke-width: 5.625; stroke-linecap: round"/>
   </g>
   <g id="line2d_26">
    <path d="M 543.24 287.863121 
" clip-path="url(#p7e9b6bd6b0)" style="fill: none; stroke: #5f5f5f; stroke-width: 1.5; stroke-linecap: round"/>
    <g clip-path="url(#p7e9b6bd6b0)">
     <use xlink:href="#m1558106c40" x="543.24" y="287.863121" style="fill: #ffffff; stroke: #ffffff; stroke-width: 1.125"/>
    </g>
   </g>
   <g id="line2d_27">
    <path d="M 610.2 327.679042 
L 610.2 218.965065 
" clip-path="url(#p7e9b6bd6b0)" style="fill: none; stroke: #5f5f5f; stroke-width: 1.875; stroke-linecap: round"/>
   </g>
   <g id="line2d_28">
    <path d="M 610.2 288.230088 
L 610.2 256.3957 
" clip-path="url(#p7e9b6bd6b0)" style="fill: none; stroke: #5f5f5f; stroke-width: 5.625; stroke-linecap: round"/>
   </g>
   <g id="line2d_29">
    <path d="M 610.2 275.661468 
" clip-path="url(#p7e9b6bd6b0)" style="fill: none; stroke: #5f5f5f; stroke-width: 1.5; stroke-linecap: round"/>
    <g clip-path="url(#p7e9b6bd6b0)">
     <use xlink:href="#m1558106c40" x="610.2" y="275.661468" style="fill: #ffffff; stroke: #ffffff; stroke-width: 1.125"/>
    </g>
   </g>
   <g id="line2d_30">
    <path d="M 677.16 301.991351 
L 677.16 183.919715 
" clip-path="url(#p7e9b6bd6b0)" style="fill: none; stroke: #5f5f5f; stroke-width: 1.875; stroke-linecap: round"/>
   </g>
   <g id="line2d_31">
    <path d="M 677.16 261.991947 
L 677.16 220.7999 
" clip-path="url(#p7e9b6bd6b0)" style="fill: none; stroke: #5f5f5f; stroke-width: 5.625; stroke-linecap: round"/>
   </g>
   <g id="line2d_32">
    <path d="M 677.16 248.872876 
" clip-path="url(#p7e9b6bd6b0)" style="fill: none; stroke: #5f5f5f; stroke-width: 1.5; stroke-linecap: round"/>
    <g clip-path="url(#p7e9b6bd6b0)">
     <use xlink:href="#m1558106c40" x="677.16" y="248.872876" style="fill: #ffffff; stroke: #ffffff; stroke-width: 1.125"/>
    </g>
   </g>
   <g id="line2d_33">
    <path d="M 744.12 343.917332 
L 744.12 193.185632 
" clip-path="url(#p7e9b6bd6b0)" style="fill: none; stroke: #5f5f5f; stroke-width: 1.875; stroke-linecap: round"/>
   </g>
   <g id="line2d_34">
    <path d="M 744.12 295.385945 
L 744.12 238.5978 
" clip-path="url(#p7e9b6bd6b0)" style="fill: none; stroke: #5f5f5f; stroke-width: 5.625; stroke-linecap: round"/>
   </g>
   <g id="line2d_35">
    <path d="M 744.12 260.524079 
" clip-path="url(#p7e9b6bd6b0)" style="fill: none; stroke: #5f5f5f; stroke-width: 1.5; stroke-linecap: round"/>
    <g clip-path="url(#p7e9b6bd6b0)">
     <use xlink:href="#m1558106c40" x="744.12" y="260.524079" style="fill: #ffffff; stroke: #ffffff; stroke-width: 1.125"/>
    </g>
   </g>
   <g id="patch_3">
    <path d="M 108 512.64 
L 108 69.12 
" style="fill: none; stroke: #cccccc; stroke-width: 0.8; stroke-linejoin: miter; stroke-linecap: square"/>
   </g>
   <g id="patch_4">
    <path d="M 777.6 512.64 
L 777.6 69.12 
" style="fill: none; stroke: #cccccc; stroke-width: 0.8; stroke-linejoin: miter; stroke-linecap: square"/>
   </g>
   <g id="patch_5">
    <path d="M 108 512.64 
L 777.6 512.64 
" style="fill: none; stroke: #cccccc; stroke-width: 0.8; stroke-linejoin: miter; stroke-linecap: square"/>
   </g>
   <g id="patch_6">
    <path d="M 108 69.12 
L 777.6 69.12 
" style="fill: none; stroke: #cccccc; stroke-width: 0.8; stroke-linejoin: miter; stroke-linecap: square"/>
   </g>
   <g id="text_18">
    <!-- PPO Model Percentage Returns Comparison. -->
    <g style="fill: #262626" transform="translate(310.584375 63.12) scale(0.12 -0.12)">
     <defs>
      <path id="DejaVuSans-43" d="M 4122 4306 
L 4122 3641 
Q 3803 3938 3442 4084 
Q 3081 4231 2675 4231 
Q 1875 4231 1450 3742 
Q 1025 3253 1025 2328 
Q 1025 1406 1450 917 
Q 1875 428 2675 428 
Q 3081 428 3442 575 
Q 3803 722 4122 1019 
L 4122 359 
Q 3791 134 3420 21 
Q 3050 -91 2638 -91 
Q 1578 -91 968 557 
Q 359 1206 359 2328 
Q 359 3453 968 4101 
Q 1578 4750 2638 4750 
Q 3056 4750 3426 4639 
Q 3797 4528 4122 4306 
z
" transform="scale(0.015625)"/>
      <path id="DejaVuSans-2e" d="M 684 794 
L 1344 794 
L 1344 0 
L 684 0 
L 684 794 
z
" transform="scale(0.015625)"/>
     </defs>
     <use xlink:href="#DejaVuSans-50"/>
     <use xlink:href="#DejaVuSans-50" x="60.302734"/>
     <use xlink:href="#DejaVuSans-4f" x="120.605469"/>
     <use xlink:href="#DejaVuSans-20" x="199.316406"/>
     <use xlink:href="#DejaVuSans-4d" x="231.103516"/>
     <use xlink:href="#DejaVuSans-6f" x="317.382812"/>
     <use xlink:href="#DejaVuSans-64" x="378.564453"/>
     <use xlink:href="#DejaVuSans-65" x="442.041016"/>
     <use xlink:href="#DejaVuSans-6c" x="503.564453"/>
     <use xlink:href="#DejaVuSans-20" x="531.347656"/>
     <use xlink:href="#DejaVuSans-50" x="563.134766"/>
     <use xlink:href="#DejaVuSans-65" x="619.8125"/>
     <use xlink:href="#DejaVuSans-72" x="681.335938"/>
     <use xlink:href="#DejaVuSans-63" x="720.199219"/>
     <use xlink:href="#DejaVuSans-65" x="775.179688"/>
     <use xlink:href="#DejaVuSans-6e" x="836.703125"/>
     <use xlink:href="#DejaVuSans-74" x="900.082031"/>
     <use xlink:href="#DejaVuSans-61" x="939.291016"/>
     <use xlink:href="#DejaVuSans-67" x="1000.570312"/>
     <use xlink:href="#DejaVuSans-65" x="1064.046875"/>
     <use xlink:href="#DejaVuSans-20" x="1125.570312"/>
     <use xlink:href="#DejaVuSans-52" x="1157.357422"/>
     <use xlink:href="#DejaVuSans-65" x="1222.339844"/>
     <use xlink:href="#DejaVuSans-74" x="1283.863281"/>
     <use xlink:href="#DejaVuSans-75" x="1323.072266"/>
     <use xlink:href="#DejaVuSans-72" x="1386.451172"/>
     <use xlink:href="#DejaVuSans-6e" x="1425.814453"/>
     <use xlink:href="#DejaVuSans-73" x="1489.193359"/>
     <use xlink:href="#DejaVuSans-20" x="1541.292969"/>
     <use xlink:href="#DejaVuSans-43" x="1573.080078"/>
     <use xlink:href="#DejaVuSans-6f" x="1642.904297"/>
     <use xlink:href="#DejaVuSans-6d" x="1704.085938"/>
     <use xlink:href="#DejaVuSans-70" x="1801.498047"/>
     <use xlink:href="#DejaVuSans-61" x="1864.974609"/>
     <use xlink:href="#DejaVuSans-72" x="1926.253906"/>
     <use xlink:href="#DejaVuSans-69" x="1967.367188"/>
     <use xlink:href="#DejaVuSans-73" x="1995.150391"/>
     <use xlink:href="#DejaVuSans-6f" x="2047.25"/>
     <use xlink:href="#DejaVuSans-6e" x="2108.431641"/>
     <use xlink:href="#DejaVuSans-2e" x="2171.810547"/>
    </g>
   </g>
  </g>
 </g>
 <defs>
  <clipPath id="p7e9b6bd6b0">
   <rect x="108" y="69.12" width="669.6" height="443.52"/>
  </clipPath>
 </defs>
</svg>
